%TF.GenerationSoftware,KiCad,Pcbnew,8.0.1-8.0.1-1~ubuntu22.04.1*%
%TF.CreationDate,2024-10-21T19:50:32-04:00*%
%TF.ProjectId,RedRobotBreakout,52656452-6f62-46f7-9442-7265616b6f75,rev?*%
%TF.SameCoordinates,Original*%
%TF.FileFunction,Paste,Top*%
%TF.FilePolarity,Positive*%
%FSLAX46Y46*%
G04 Gerber Fmt 4.6, Leading zero omitted, Abs format (unit mm)*
G04 Created by KiCad (PCBNEW 8.0.1-8.0.1-1~ubuntu22.04.1) date 2024-10-21 19:50:32*
%MOMM*%
%LPD*%
G01*
G04 APERTURE LIST*
G04 Aperture macros list*
%AMRoundRect*
0 Rectangle with rounded corners*
0 $1 Rounding radius*
0 $2 $3 $4 $5 $6 $7 $8 $9 X,Y pos of 4 corners*
0 Add a 4 corners polygon primitive as box body*
4,1,4,$2,$3,$4,$5,$6,$7,$8,$9,$2,$3,0*
0 Add four circle primitives for the rounded corners*
1,1,$1+$1,$2,$3*
1,1,$1+$1,$4,$5*
1,1,$1+$1,$6,$7*
1,1,$1+$1,$8,$9*
0 Add four rect primitives between the rounded corners*
20,1,$1+$1,$2,$3,$4,$5,0*
20,1,$1+$1,$4,$5,$6,$7,0*
20,1,$1+$1,$6,$7,$8,$9,0*
20,1,$1+$1,$8,$9,$2,$3,0*%
G04 Aperture macros list end*
%ADD10RoundRect,0.250000X0.850000X0.350000X-0.850000X0.350000X-0.850000X-0.350000X0.850000X-0.350000X0*%
%ADD11RoundRect,0.250000X1.275000X1.125000X-1.275000X1.125000X-1.275000X-1.125000X1.275000X-1.125000X0*%
%ADD12RoundRect,0.250000X-0.550000X1.250000X-0.550000X-1.250000X0.550000X-1.250000X0.550000X1.250000X0*%
%ADD13RoundRect,0.250000X-1.250000X-0.550000X1.250000X-0.550000X1.250000X0.550000X-1.250000X0.550000X0*%
%ADD14RoundRect,0.250000X-0.625000X0.400000X-0.625000X-0.400000X0.625000X-0.400000X0.625000X0.400000X0*%
%ADD15RoundRect,0.250000X0.650000X-0.412500X0.650000X0.412500X-0.650000X0.412500X-0.650000X-0.412500X0*%
%ADD16RoundRect,0.250000X-0.450000X0.325000X-0.450000X-0.325000X0.450000X-0.325000X0.450000X0.325000X0*%
%ADD17RoundRect,0.250000X1.250000X0.550000X-1.250000X0.550000X-1.250000X-0.550000X1.250000X-0.550000X0*%
%ADD18RoundRect,0.150000X-0.150000X0.587500X-0.150000X-0.587500X0.150000X-0.587500X0.150000X0.587500X0*%
%ADD19RoundRect,0.250000X0.625000X-0.400000X0.625000X0.400000X-0.625000X0.400000X-0.625000X-0.400000X0*%
%ADD20RoundRect,0.250000X-0.412500X-0.650000X0.412500X-0.650000X0.412500X0.650000X-0.412500X0.650000X0*%
%ADD21R,1.000000X0.750000*%
%ADD22RoundRect,0.237500X-0.237500X0.287500X-0.237500X-0.287500X0.237500X-0.287500X0.237500X0.287500X0*%
G04 APERTURE END LIST*
D10*
%TO.C,U5*%
X158075000Y-54985000D03*
D11*
X153450000Y-54230000D03*
X153450000Y-51180000D03*
X150100000Y-54230000D03*
X150100000Y-51180000D03*
D10*
X158075000Y-50425000D03*
%TD*%
D12*
%TO.C,C10*%
X173990000Y-125390000D03*
X173990000Y-120990000D03*
%TD*%
%TO.C,C9*%
X189230000Y-120990000D03*
X189230000Y-125390000D03*
%TD*%
%TO.C,C8*%
X204470000Y-120990000D03*
X204470000Y-125390000D03*
%TD*%
D13*
%TO.C,C7*%
X211160000Y-118110000D03*
X215560000Y-118110000D03*
%TD*%
D14*
%TO.C,R6*%
X200025000Y-108940000D03*
X200025000Y-112040000D03*
%TD*%
D15*
%TO.C,C2*%
X157820000Y-108877500D03*
X157820000Y-105752500D03*
%TD*%
D16*
%TO.C,D1*%
X145415000Y-36685000D03*
X145415000Y-38735000D03*
%TD*%
D17*
%TO.C,C1*%
X152695000Y-107315000D03*
X148295000Y-107315000D03*
%TD*%
D13*
%TO.C,C4*%
X162900000Y-50800000D03*
X167300000Y-50800000D03*
%TD*%
D14*
%TO.C,R10*%
X187960000Y-108940000D03*
X187960000Y-112040000D03*
%TD*%
D18*
%TO.C,Q4*%
X186690000Y-115570000D03*
X184790000Y-115570000D03*
X185740000Y-117445000D03*
%TD*%
%TO.C,D2*%
X150180000Y-60657500D03*
X152080000Y-60657500D03*
X151130000Y-62532500D03*
%TD*%
D19*
%TO.C,R2*%
X145415000Y-57430000D03*
X145415000Y-54330000D03*
%TD*%
D20*
%TO.C,C3*%
X163537500Y-45720000D03*
X166662500Y-45720000D03*
%TD*%
D14*
%TO.C,R7*%
X191135000Y-108940000D03*
X191135000Y-112040000D03*
%TD*%
%TO.C,R8*%
X193675000Y-108940000D03*
X193675000Y-112040000D03*
%TD*%
D20*
%TO.C,C5*%
X163537500Y-55880000D03*
X166662500Y-55880000D03*
%TD*%
D18*
%TO.C,Q2*%
X199390000Y-115570000D03*
X197490000Y-115570000D03*
X198440000Y-117445000D03*
%TD*%
D19*
%TO.C,R1*%
X145415000Y-44095000D03*
X145415000Y-40995000D03*
%TD*%
D18*
%TO.C,Q3*%
X193040000Y-115570000D03*
X191140000Y-115570000D03*
X192090000Y-117445000D03*
%TD*%
%TO.C,Q1*%
X205740000Y-115570000D03*
X203840000Y-115570000D03*
X204790000Y-117445000D03*
%TD*%
D12*
%TO.C,C6*%
X194945000Y-55585000D03*
X194945000Y-59985000D03*
%TD*%
D21*
%TO.C,SW1*%
X157020000Y-60990000D03*
X163020000Y-60990000D03*
X157020000Y-64740000D03*
X163020000Y-64740000D03*
%TD*%
D22*
%TO.C,D3*%
X145415000Y-60085000D03*
X145415000Y-61835000D03*
%TD*%
D14*
%TO.C,R3*%
X203835000Y-108940000D03*
X203835000Y-112040000D03*
%TD*%
%TO.C,R9*%
X185420000Y-108940000D03*
X185420000Y-112040000D03*
%TD*%
%TO.C,R5*%
X197485000Y-108940000D03*
X197485000Y-112040000D03*
%TD*%
%TO.C,R4*%
X206375000Y-108940000D03*
X206375000Y-112040000D03*
%TD*%
M02*
