%TF.GenerationSoftware,KiCad,Pcbnew,8.0.1-8.0.1-1~ubuntu22.04.1*%
%TF.CreationDate,2024-10-21T19:50:32-04:00*%
%TF.ProjectId,RedRobotBreakout,52656452-6f62-46f7-9442-7265616b6f75,rev?*%
%TF.SameCoordinates,Original*%
%TF.FileFunction,Legend,Bot*%
%TF.FilePolarity,Positive*%
%FSLAX46Y46*%
G04 Gerber Fmt 4.6, Leading zero omitted, Abs format (unit mm)*
G04 Created by KiCad (PCBNEW 8.0.1-8.0.1-1~ubuntu22.04.1) date 2024-10-21 19:50:32*
%MOMM*%
%LPD*%
G01*
G04 APERTURE LIST*
G04 Aperture macros list*
%AMRoundRect*
0 Rectangle with rounded corners*
0 $1 Rounding radius*
0 $2 $3 $4 $5 $6 $7 $8 $9 X,Y pos of 4 corners*
0 Add a 4 corners polygon primitive as box body*
4,1,4,$2,$3,$4,$5,$6,$7,$8,$9,$2,$3,0*
0 Add four circle primitives for the rounded corners*
1,1,$1+$1,$2,$3*
1,1,$1+$1,$4,$5*
1,1,$1+$1,$6,$7*
1,1,$1+$1,$8,$9*
0 Add four rect primitives between the rounded corners*
20,1,$1+$1,$2,$3,$4,$5,0*
20,1,$1+$1,$4,$5,$6,$7,0*
20,1,$1+$1,$6,$7,$8,$9,0*
20,1,$1+$1,$8,$9,$2,$3,0*%
G04 Aperture macros list end*
%ADD10C,0.150000*%
%ADD11C,0.000000*%
%ADD12RoundRect,0.875000X-0.875000X0.875000X-0.875000X-0.875000X0.875000X-0.875000X0.875000X0.875000X0*%
%ADD13RoundRect,0.750000X-1.000000X0.750000X-1.000000X-0.750000X1.000000X-0.750000X1.000000X0.750000X0*%
%ADD14R,3.500000X3.500000*%
%ADD15R,1.700000X1.700000*%
%ADD16O,1.700000X1.700000*%
%ADD17C,0.800000*%
%ADD18C,6.400000*%
%ADD19C,1.700000*%
%ADD20O,1.800000X1.800000*%
%ADD21O,1.500000X1.500000*%
G04 APERTURE END LIST*
D10*
X164249525Y-33139987D02*
X164582858Y-32663796D01*
X164820953Y-33139987D02*
X164820953Y-32139987D01*
X164820953Y-32139987D02*
X164440001Y-32139987D01*
X164440001Y-32139987D02*
X164344763Y-32187606D01*
X164344763Y-32187606D02*
X164297144Y-32235225D01*
X164297144Y-32235225D02*
X164249525Y-32330463D01*
X164249525Y-32330463D02*
X164249525Y-32473320D01*
X164249525Y-32473320D02*
X164297144Y-32568558D01*
X164297144Y-32568558D02*
X164344763Y-32616177D01*
X164344763Y-32616177D02*
X164440001Y-32663796D01*
X164440001Y-32663796D02*
X164820953Y-32663796D01*
X163440001Y-33092368D02*
X163535239Y-33139987D01*
X163535239Y-33139987D02*
X163725715Y-33139987D01*
X163725715Y-33139987D02*
X163820953Y-33092368D01*
X163820953Y-33092368D02*
X163868572Y-32997129D01*
X163868572Y-32997129D02*
X163868572Y-32616177D01*
X163868572Y-32616177D02*
X163820953Y-32520939D01*
X163820953Y-32520939D02*
X163725715Y-32473320D01*
X163725715Y-32473320D02*
X163535239Y-32473320D01*
X163535239Y-32473320D02*
X163440001Y-32520939D01*
X163440001Y-32520939D02*
X163392382Y-32616177D01*
X163392382Y-32616177D02*
X163392382Y-32711415D01*
X163392382Y-32711415D02*
X163868572Y-32806653D01*
X162535239Y-33139987D02*
X162535239Y-32139987D01*
X162535239Y-33092368D02*
X162630477Y-33139987D01*
X162630477Y-33139987D02*
X162820953Y-33139987D01*
X162820953Y-33139987D02*
X162916191Y-33092368D01*
X162916191Y-33092368D02*
X162963810Y-33044748D01*
X162963810Y-33044748D02*
X163011429Y-32949510D01*
X163011429Y-32949510D02*
X163011429Y-32663796D01*
X163011429Y-32663796D02*
X162963810Y-32568558D01*
X162963810Y-32568558D02*
X162916191Y-32520939D01*
X162916191Y-32520939D02*
X162820953Y-32473320D01*
X162820953Y-32473320D02*
X162630477Y-32473320D01*
X162630477Y-32473320D02*
X162535239Y-32520939D01*
X160725715Y-33139987D02*
X161059048Y-32663796D01*
X161297143Y-33139987D02*
X161297143Y-32139987D01*
X161297143Y-32139987D02*
X160916191Y-32139987D01*
X160916191Y-32139987D02*
X160820953Y-32187606D01*
X160820953Y-32187606D02*
X160773334Y-32235225D01*
X160773334Y-32235225D02*
X160725715Y-32330463D01*
X160725715Y-32330463D02*
X160725715Y-32473320D01*
X160725715Y-32473320D02*
X160773334Y-32568558D01*
X160773334Y-32568558D02*
X160820953Y-32616177D01*
X160820953Y-32616177D02*
X160916191Y-32663796D01*
X160916191Y-32663796D02*
X161297143Y-32663796D01*
X160154286Y-33139987D02*
X160249524Y-33092368D01*
X160249524Y-33092368D02*
X160297143Y-33044748D01*
X160297143Y-33044748D02*
X160344762Y-32949510D01*
X160344762Y-32949510D02*
X160344762Y-32663796D01*
X160344762Y-32663796D02*
X160297143Y-32568558D01*
X160297143Y-32568558D02*
X160249524Y-32520939D01*
X160249524Y-32520939D02*
X160154286Y-32473320D01*
X160154286Y-32473320D02*
X160011429Y-32473320D01*
X160011429Y-32473320D02*
X159916191Y-32520939D01*
X159916191Y-32520939D02*
X159868572Y-32568558D01*
X159868572Y-32568558D02*
X159820953Y-32663796D01*
X159820953Y-32663796D02*
X159820953Y-32949510D01*
X159820953Y-32949510D02*
X159868572Y-33044748D01*
X159868572Y-33044748D02*
X159916191Y-33092368D01*
X159916191Y-33092368D02*
X160011429Y-33139987D01*
X160011429Y-33139987D02*
X160154286Y-33139987D01*
X159392381Y-33139987D02*
X159392381Y-32139987D01*
X159392381Y-32520939D02*
X159297143Y-32473320D01*
X159297143Y-32473320D02*
X159106667Y-32473320D01*
X159106667Y-32473320D02*
X159011429Y-32520939D01*
X159011429Y-32520939D02*
X158963810Y-32568558D01*
X158963810Y-32568558D02*
X158916191Y-32663796D01*
X158916191Y-32663796D02*
X158916191Y-32949510D01*
X158916191Y-32949510D02*
X158963810Y-33044748D01*
X158963810Y-33044748D02*
X159011429Y-33092368D01*
X159011429Y-33092368D02*
X159106667Y-33139987D01*
X159106667Y-33139987D02*
X159297143Y-33139987D01*
X159297143Y-33139987D02*
X159392381Y-33092368D01*
X158344762Y-33139987D02*
X158440000Y-33092368D01*
X158440000Y-33092368D02*
X158487619Y-33044748D01*
X158487619Y-33044748D02*
X158535238Y-32949510D01*
X158535238Y-32949510D02*
X158535238Y-32663796D01*
X158535238Y-32663796D02*
X158487619Y-32568558D01*
X158487619Y-32568558D02*
X158440000Y-32520939D01*
X158440000Y-32520939D02*
X158344762Y-32473320D01*
X158344762Y-32473320D02*
X158201905Y-32473320D01*
X158201905Y-32473320D02*
X158106667Y-32520939D01*
X158106667Y-32520939D02*
X158059048Y-32568558D01*
X158059048Y-32568558D02*
X158011429Y-32663796D01*
X158011429Y-32663796D02*
X158011429Y-32949510D01*
X158011429Y-32949510D02*
X158059048Y-33044748D01*
X158059048Y-33044748D02*
X158106667Y-33092368D01*
X158106667Y-33092368D02*
X158201905Y-33139987D01*
X158201905Y-33139987D02*
X158344762Y-33139987D01*
X157725714Y-32473320D02*
X157344762Y-32473320D01*
X157582857Y-32139987D02*
X157582857Y-32997129D01*
X157582857Y-32997129D02*
X157535238Y-33092368D01*
X157535238Y-33092368D02*
X157440000Y-33139987D01*
X157440000Y-33139987D02*
X157344762Y-33139987D01*
X155916190Y-32616177D02*
X155773333Y-32663796D01*
X155773333Y-32663796D02*
X155725714Y-32711415D01*
X155725714Y-32711415D02*
X155678095Y-32806653D01*
X155678095Y-32806653D02*
X155678095Y-32949510D01*
X155678095Y-32949510D02*
X155725714Y-33044748D01*
X155725714Y-33044748D02*
X155773333Y-33092368D01*
X155773333Y-33092368D02*
X155868571Y-33139987D01*
X155868571Y-33139987D02*
X156249523Y-33139987D01*
X156249523Y-33139987D02*
X156249523Y-32139987D01*
X156249523Y-32139987D02*
X155916190Y-32139987D01*
X155916190Y-32139987D02*
X155820952Y-32187606D01*
X155820952Y-32187606D02*
X155773333Y-32235225D01*
X155773333Y-32235225D02*
X155725714Y-32330463D01*
X155725714Y-32330463D02*
X155725714Y-32425701D01*
X155725714Y-32425701D02*
X155773333Y-32520939D01*
X155773333Y-32520939D02*
X155820952Y-32568558D01*
X155820952Y-32568558D02*
X155916190Y-32616177D01*
X155916190Y-32616177D02*
X156249523Y-32616177D01*
X155249523Y-33139987D02*
X155249523Y-32473320D01*
X155249523Y-32663796D02*
X155201904Y-32568558D01*
X155201904Y-32568558D02*
X155154285Y-32520939D01*
X155154285Y-32520939D02*
X155059047Y-32473320D01*
X155059047Y-32473320D02*
X154963809Y-32473320D01*
X154249523Y-33092368D02*
X154344761Y-33139987D01*
X154344761Y-33139987D02*
X154535237Y-33139987D01*
X154535237Y-33139987D02*
X154630475Y-33092368D01*
X154630475Y-33092368D02*
X154678094Y-32997129D01*
X154678094Y-32997129D02*
X154678094Y-32616177D01*
X154678094Y-32616177D02*
X154630475Y-32520939D01*
X154630475Y-32520939D02*
X154535237Y-32473320D01*
X154535237Y-32473320D02*
X154344761Y-32473320D01*
X154344761Y-32473320D02*
X154249523Y-32520939D01*
X154249523Y-32520939D02*
X154201904Y-32616177D01*
X154201904Y-32616177D02*
X154201904Y-32711415D01*
X154201904Y-32711415D02*
X154678094Y-32806653D01*
X153344761Y-33139987D02*
X153344761Y-32616177D01*
X153344761Y-32616177D02*
X153392380Y-32520939D01*
X153392380Y-32520939D02*
X153487618Y-32473320D01*
X153487618Y-32473320D02*
X153678094Y-32473320D01*
X153678094Y-32473320D02*
X153773332Y-32520939D01*
X153344761Y-33092368D02*
X153439999Y-33139987D01*
X153439999Y-33139987D02*
X153678094Y-33139987D01*
X153678094Y-33139987D02*
X153773332Y-33092368D01*
X153773332Y-33092368D02*
X153820951Y-32997129D01*
X153820951Y-32997129D02*
X153820951Y-32901891D01*
X153820951Y-32901891D02*
X153773332Y-32806653D01*
X153773332Y-32806653D02*
X153678094Y-32759034D01*
X153678094Y-32759034D02*
X153439999Y-32759034D01*
X153439999Y-32759034D02*
X153344761Y-32711415D01*
X152868570Y-33139987D02*
X152868570Y-32139987D01*
X152773332Y-32759034D02*
X152487618Y-33139987D01*
X152487618Y-32473320D02*
X152868570Y-32854272D01*
X151916189Y-33139987D02*
X152011427Y-33092368D01*
X152011427Y-33092368D02*
X152059046Y-33044748D01*
X152059046Y-33044748D02*
X152106665Y-32949510D01*
X152106665Y-32949510D02*
X152106665Y-32663796D01*
X152106665Y-32663796D02*
X152059046Y-32568558D01*
X152059046Y-32568558D02*
X152011427Y-32520939D01*
X152011427Y-32520939D02*
X151916189Y-32473320D01*
X151916189Y-32473320D02*
X151773332Y-32473320D01*
X151773332Y-32473320D02*
X151678094Y-32520939D01*
X151678094Y-32520939D02*
X151630475Y-32568558D01*
X151630475Y-32568558D02*
X151582856Y-32663796D01*
X151582856Y-32663796D02*
X151582856Y-32949510D01*
X151582856Y-32949510D02*
X151630475Y-33044748D01*
X151630475Y-33044748D02*
X151678094Y-33092368D01*
X151678094Y-33092368D02*
X151773332Y-33139987D01*
X151773332Y-33139987D02*
X151916189Y-33139987D01*
X150725713Y-32473320D02*
X150725713Y-33139987D01*
X151154284Y-32473320D02*
X151154284Y-32997129D01*
X151154284Y-32997129D02*
X151106665Y-33092368D01*
X151106665Y-33092368D02*
X151011427Y-33139987D01*
X151011427Y-33139987D02*
X150868570Y-33139987D01*
X150868570Y-33139987D02*
X150773332Y-33092368D01*
X150773332Y-33092368D02*
X150725713Y-33044748D01*
X150392379Y-32473320D02*
X150011427Y-32473320D01*
X150249522Y-32139987D02*
X150249522Y-32997129D01*
X150249522Y-32997129D02*
X150201903Y-33092368D01*
X150201903Y-33092368D02*
X150106665Y-33139987D01*
X150106665Y-33139987D02*
X150011427Y-33139987D01*
X148582855Y-32616177D02*
X148439998Y-32663796D01*
X148439998Y-32663796D02*
X148392379Y-32711415D01*
X148392379Y-32711415D02*
X148344760Y-32806653D01*
X148344760Y-32806653D02*
X148344760Y-32949510D01*
X148344760Y-32949510D02*
X148392379Y-33044748D01*
X148392379Y-33044748D02*
X148439998Y-33092368D01*
X148439998Y-33092368D02*
X148535236Y-33139987D01*
X148535236Y-33139987D02*
X148916188Y-33139987D01*
X148916188Y-33139987D02*
X148916188Y-32139987D01*
X148916188Y-32139987D02*
X148582855Y-32139987D01*
X148582855Y-32139987D02*
X148487617Y-32187606D01*
X148487617Y-32187606D02*
X148439998Y-32235225D01*
X148439998Y-32235225D02*
X148392379Y-32330463D01*
X148392379Y-32330463D02*
X148392379Y-32425701D01*
X148392379Y-32425701D02*
X148439998Y-32520939D01*
X148439998Y-32520939D02*
X148487617Y-32568558D01*
X148487617Y-32568558D02*
X148582855Y-32616177D01*
X148582855Y-32616177D02*
X148916188Y-32616177D01*
X147773331Y-33139987D02*
X147868569Y-33092368D01*
X147868569Y-33092368D02*
X147916188Y-33044748D01*
X147916188Y-33044748D02*
X147963807Y-32949510D01*
X147963807Y-32949510D02*
X147963807Y-32663796D01*
X147963807Y-32663796D02*
X147916188Y-32568558D01*
X147916188Y-32568558D02*
X147868569Y-32520939D01*
X147868569Y-32520939D02*
X147773331Y-32473320D01*
X147773331Y-32473320D02*
X147630474Y-32473320D01*
X147630474Y-32473320D02*
X147535236Y-32520939D01*
X147535236Y-32520939D02*
X147487617Y-32568558D01*
X147487617Y-32568558D02*
X147439998Y-32663796D01*
X147439998Y-32663796D02*
X147439998Y-32949510D01*
X147439998Y-32949510D02*
X147487617Y-33044748D01*
X147487617Y-33044748D02*
X147535236Y-33092368D01*
X147535236Y-33092368D02*
X147630474Y-33139987D01*
X147630474Y-33139987D02*
X147773331Y-33139987D01*
X146582855Y-33139987D02*
X146582855Y-32616177D01*
X146582855Y-32616177D02*
X146630474Y-32520939D01*
X146630474Y-32520939D02*
X146725712Y-32473320D01*
X146725712Y-32473320D02*
X146916188Y-32473320D01*
X146916188Y-32473320D02*
X147011426Y-32520939D01*
X146582855Y-33092368D02*
X146678093Y-33139987D01*
X146678093Y-33139987D02*
X146916188Y-33139987D01*
X146916188Y-33139987D02*
X147011426Y-33092368D01*
X147011426Y-33092368D02*
X147059045Y-32997129D01*
X147059045Y-32997129D02*
X147059045Y-32901891D01*
X147059045Y-32901891D02*
X147011426Y-32806653D01*
X147011426Y-32806653D02*
X146916188Y-32759034D01*
X146916188Y-32759034D02*
X146678093Y-32759034D01*
X146678093Y-32759034D02*
X146582855Y-32711415D01*
X146106664Y-33139987D02*
X146106664Y-32473320D01*
X146106664Y-32663796D02*
X146059045Y-32568558D01*
X146059045Y-32568558D02*
X146011426Y-32520939D01*
X146011426Y-32520939D02*
X145916188Y-32473320D01*
X145916188Y-32473320D02*
X145820950Y-32473320D01*
X145059045Y-33139987D02*
X145059045Y-32139987D01*
X145059045Y-33092368D02*
X145154283Y-33139987D01*
X145154283Y-33139987D02*
X145344759Y-33139987D01*
X145344759Y-33139987D02*
X145439997Y-33092368D01*
X145439997Y-33092368D02*
X145487616Y-33044748D01*
X145487616Y-33044748D02*
X145535235Y-32949510D01*
X145535235Y-32949510D02*
X145535235Y-32663796D01*
X145535235Y-32663796D02*
X145487616Y-32568558D01*
X145487616Y-32568558D02*
X145439997Y-32520939D01*
X145439997Y-32520939D02*
X145344759Y-32473320D01*
X145344759Y-32473320D02*
X145154283Y-32473320D01*
X145154283Y-32473320D02*
X145059045Y-32520939D01*
X161916191Y-34749931D02*
X162249524Y-34273740D01*
X162487619Y-34749931D02*
X162487619Y-33749931D01*
X162487619Y-33749931D02*
X162106667Y-33749931D01*
X162106667Y-33749931D02*
X162011429Y-33797550D01*
X162011429Y-33797550D02*
X161963810Y-33845169D01*
X161963810Y-33845169D02*
X161916191Y-33940407D01*
X161916191Y-33940407D02*
X161916191Y-34083264D01*
X161916191Y-34083264D02*
X161963810Y-34178502D01*
X161963810Y-34178502D02*
X162011429Y-34226121D01*
X162011429Y-34226121D02*
X162106667Y-34273740D01*
X162106667Y-34273740D02*
X162487619Y-34273740D01*
X161106667Y-34702312D02*
X161201905Y-34749931D01*
X161201905Y-34749931D02*
X161392381Y-34749931D01*
X161392381Y-34749931D02*
X161487619Y-34702312D01*
X161487619Y-34702312D02*
X161535238Y-34607073D01*
X161535238Y-34607073D02*
X161535238Y-34226121D01*
X161535238Y-34226121D02*
X161487619Y-34130883D01*
X161487619Y-34130883D02*
X161392381Y-34083264D01*
X161392381Y-34083264D02*
X161201905Y-34083264D01*
X161201905Y-34083264D02*
X161106667Y-34130883D01*
X161106667Y-34130883D02*
X161059048Y-34226121D01*
X161059048Y-34226121D02*
X161059048Y-34321359D01*
X161059048Y-34321359D02*
X161535238Y-34416597D01*
X160725714Y-34083264D02*
X160487619Y-34749931D01*
X160487619Y-34749931D02*
X160249524Y-34083264D01*
X159154285Y-33845169D02*
X159106666Y-33797550D01*
X159106666Y-33797550D02*
X159011428Y-33749931D01*
X159011428Y-33749931D02*
X158773333Y-33749931D01*
X158773333Y-33749931D02*
X158678095Y-33797550D01*
X158678095Y-33797550D02*
X158630476Y-33845169D01*
X158630476Y-33845169D02*
X158582857Y-33940407D01*
X158582857Y-33940407D02*
X158582857Y-34035645D01*
X158582857Y-34035645D02*
X158630476Y-34178502D01*
X158630476Y-34178502D02*
X159201904Y-34749931D01*
X159201904Y-34749931D02*
X158582857Y-34749931D01*
X158154285Y-34654692D02*
X158106666Y-34702312D01*
X158106666Y-34702312D02*
X158154285Y-34749931D01*
X158154285Y-34749931D02*
X158201904Y-34702312D01*
X158201904Y-34702312D02*
X158154285Y-34654692D01*
X158154285Y-34654692D02*
X158154285Y-34749931D01*
X157487619Y-33749931D02*
X157392381Y-33749931D01*
X157392381Y-33749931D02*
X157297143Y-33797550D01*
X157297143Y-33797550D02*
X157249524Y-33845169D01*
X157249524Y-33845169D02*
X157201905Y-33940407D01*
X157201905Y-33940407D02*
X157154286Y-34130883D01*
X157154286Y-34130883D02*
X157154286Y-34368978D01*
X157154286Y-34368978D02*
X157201905Y-34559454D01*
X157201905Y-34559454D02*
X157249524Y-34654692D01*
X157249524Y-34654692D02*
X157297143Y-34702312D01*
X157297143Y-34702312D02*
X157392381Y-34749931D01*
X157392381Y-34749931D02*
X157487619Y-34749931D01*
X157487619Y-34749931D02*
X157582857Y-34702312D01*
X157582857Y-34702312D02*
X157630476Y-34654692D01*
X157630476Y-34654692D02*
X157678095Y-34559454D01*
X157678095Y-34559454D02*
X157725714Y-34368978D01*
X157725714Y-34368978D02*
X157725714Y-34130883D01*
X157725714Y-34130883D02*
X157678095Y-33940407D01*
X157678095Y-33940407D02*
X157630476Y-33845169D01*
X157630476Y-33845169D02*
X157582857Y-33797550D01*
X157582857Y-33797550D02*
X157487619Y-33749931D01*
X155963809Y-34368978D02*
X155201905Y-34368978D01*
X153773333Y-33749931D02*
X153582857Y-33749931D01*
X153582857Y-33749931D02*
X153487619Y-33797550D01*
X153487619Y-33797550D02*
X153392381Y-33892788D01*
X153392381Y-33892788D02*
X153344762Y-34083264D01*
X153344762Y-34083264D02*
X153344762Y-34416597D01*
X153344762Y-34416597D02*
X153392381Y-34607073D01*
X153392381Y-34607073D02*
X153487619Y-34702312D01*
X153487619Y-34702312D02*
X153582857Y-34749931D01*
X153582857Y-34749931D02*
X153773333Y-34749931D01*
X153773333Y-34749931D02*
X153868571Y-34702312D01*
X153868571Y-34702312D02*
X153963809Y-34607073D01*
X153963809Y-34607073D02*
X154011428Y-34416597D01*
X154011428Y-34416597D02*
X154011428Y-34083264D01*
X154011428Y-34083264D02*
X153963809Y-33892788D01*
X153963809Y-33892788D02*
X153868571Y-33797550D01*
X153868571Y-33797550D02*
X153773333Y-33749931D01*
X152487619Y-34702312D02*
X152582857Y-34749931D01*
X152582857Y-34749931D02*
X152773333Y-34749931D01*
X152773333Y-34749931D02*
X152868571Y-34702312D01*
X152868571Y-34702312D02*
X152916190Y-34654692D01*
X152916190Y-34654692D02*
X152963809Y-34559454D01*
X152963809Y-34559454D02*
X152963809Y-34273740D01*
X152963809Y-34273740D02*
X152916190Y-34178502D01*
X152916190Y-34178502D02*
X152868571Y-34130883D01*
X152868571Y-34130883D02*
X152773333Y-34083264D01*
X152773333Y-34083264D02*
X152582857Y-34083264D01*
X152582857Y-34083264D02*
X152487619Y-34130883D01*
X152201904Y-34083264D02*
X151820952Y-34083264D01*
X152059047Y-33749931D02*
X152059047Y-34607073D01*
X152059047Y-34607073D02*
X152011428Y-34702312D01*
X152011428Y-34702312D02*
X151916190Y-34749931D01*
X151916190Y-34749931D02*
X151820952Y-34749931D01*
X150773332Y-33845169D02*
X150725713Y-33797550D01*
X150725713Y-33797550D02*
X150630475Y-33749931D01*
X150630475Y-33749931D02*
X150392380Y-33749931D01*
X150392380Y-33749931D02*
X150297142Y-33797550D01*
X150297142Y-33797550D02*
X150249523Y-33845169D01*
X150249523Y-33845169D02*
X150201904Y-33940407D01*
X150201904Y-33940407D02*
X150201904Y-34035645D01*
X150201904Y-34035645D02*
X150249523Y-34178502D01*
X150249523Y-34178502D02*
X150820951Y-34749931D01*
X150820951Y-34749931D02*
X150201904Y-34749931D01*
X149582856Y-33749931D02*
X149487618Y-33749931D01*
X149487618Y-33749931D02*
X149392380Y-33797550D01*
X149392380Y-33797550D02*
X149344761Y-33845169D01*
X149344761Y-33845169D02*
X149297142Y-33940407D01*
X149297142Y-33940407D02*
X149249523Y-34130883D01*
X149249523Y-34130883D02*
X149249523Y-34368978D01*
X149249523Y-34368978D02*
X149297142Y-34559454D01*
X149297142Y-34559454D02*
X149344761Y-34654692D01*
X149344761Y-34654692D02*
X149392380Y-34702312D01*
X149392380Y-34702312D02*
X149487618Y-34749931D01*
X149487618Y-34749931D02*
X149582856Y-34749931D01*
X149582856Y-34749931D02*
X149678094Y-34702312D01*
X149678094Y-34702312D02*
X149725713Y-34654692D01*
X149725713Y-34654692D02*
X149773332Y-34559454D01*
X149773332Y-34559454D02*
X149820951Y-34368978D01*
X149820951Y-34368978D02*
X149820951Y-34130883D01*
X149820951Y-34130883D02*
X149773332Y-33940407D01*
X149773332Y-33940407D02*
X149725713Y-33845169D01*
X149725713Y-33845169D02*
X149678094Y-33797550D01*
X149678094Y-33797550D02*
X149582856Y-33749931D01*
X148868570Y-33845169D02*
X148820951Y-33797550D01*
X148820951Y-33797550D02*
X148725713Y-33749931D01*
X148725713Y-33749931D02*
X148487618Y-33749931D01*
X148487618Y-33749931D02*
X148392380Y-33797550D01*
X148392380Y-33797550D02*
X148344761Y-33845169D01*
X148344761Y-33845169D02*
X148297142Y-33940407D01*
X148297142Y-33940407D02*
X148297142Y-34035645D01*
X148297142Y-34035645D02*
X148344761Y-34178502D01*
X148344761Y-34178502D02*
X148916189Y-34749931D01*
X148916189Y-34749931D02*
X148297142Y-34749931D01*
X147439999Y-34083264D02*
X147439999Y-34749931D01*
X147678094Y-33702312D02*
X147916189Y-34416597D01*
X147916189Y-34416597D02*
X147297142Y-34416597D01*
X159249524Y-36359875D02*
X159582857Y-35883684D01*
X159820952Y-36359875D02*
X159820952Y-35359875D01*
X159820952Y-35359875D02*
X159440000Y-35359875D01*
X159440000Y-35359875D02*
X159344762Y-35407494D01*
X159344762Y-35407494D02*
X159297143Y-35455113D01*
X159297143Y-35455113D02*
X159249524Y-35550351D01*
X159249524Y-35550351D02*
X159249524Y-35693208D01*
X159249524Y-35693208D02*
X159297143Y-35788446D01*
X159297143Y-35788446D02*
X159344762Y-35836065D01*
X159344762Y-35836065D02*
X159440000Y-35883684D01*
X159440000Y-35883684D02*
X159820952Y-35883684D01*
X158678095Y-36359875D02*
X158773333Y-36312256D01*
X158773333Y-36312256D02*
X158820952Y-36264636D01*
X158820952Y-36264636D02*
X158868571Y-36169398D01*
X158868571Y-36169398D02*
X158868571Y-35883684D01*
X158868571Y-35883684D02*
X158820952Y-35788446D01*
X158820952Y-35788446D02*
X158773333Y-35740827D01*
X158773333Y-35740827D02*
X158678095Y-35693208D01*
X158678095Y-35693208D02*
X158535238Y-35693208D01*
X158535238Y-35693208D02*
X158440000Y-35740827D01*
X158440000Y-35740827D02*
X158392381Y-35788446D01*
X158392381Y-35788446D02*
X158344762Y-35883684D01*
X158344762Y-35883684D02*
X158344762Y-36169398D01*
X158344762Y-36169398D02*
X158392381Y-36264636D01*
X158392381Y-36264636D02*
X158440000Y-36312256D01*
X158440000Y-36312256D02*
X158535238Y-36359875D01*
X158535238Y-36359875D02*
X158678095Y-36359875D01*
X157916190Y-36359875D02*
X157916190Y-35359875D01*
X157916190Y-35740827D02*
X157820952Y-35693208D01*
X157820952Y-35693208D02*
X157630476Y-35693208D01*
X157630476Y-35693208D02*
X157535238Y-35740827D01*
X157535238Y-35740827D02*
X157487619Y-35788446D01*
X157487619Y-35788446D02*
X157440000Y-35883684D01*
X157440000Y-35883684D02*
X157440000Y-36169398D01*
X157440000Y-36169398D02*
X157487619Y-36264636D01*
X157487619Y-36264636D02*
X157535238Y-36312256D01*
X157535238Y-36312256D02*
X157630476Y-36359875D01*
X157630476Y-36359875D02*
X157820952Y-36359875D01*
X157820952Y-36359875D02*
X157916190Y-36312256D01*
X156630476Y-36312256D02*
X156725714Y-36359875D01*
X156725714Y-36359875D02*
X156916190Y-36359875D01*
X156916190Y-36359875D02*
X157011428Y-36312256D01*
X157011428Y-36312256D02*
X157059047Y-36217017D01*
X157059047Y-36217017D02*
X157059047Y-35836065D01*
X157059047Y-35836065D02*
X157011428Y-35740827D01*
X157011428Y-35740827D02*
X156916190Y-35693208D01*
X156916190Y-35693208D02*
X156725714Y-35693208D01*
X156725714Y-35693208D02*
X156630476Y-35740827D01*
X156630476Y-35740827D02*
X156582857Y-35836065D01*
X156582857Y-35836065D02*
X156582857Y-35931303D01*
X156582857Y-35931303D02*
X157059047Y-36026541D01*
X156154285Y-36359875D02*
X156154285Y-35693208D01*
X156154285Y-35883684D02*
X156106666Y-35788446D01*
X156106666Y-35788446D02*
X156059047Y-35740827D01*
X156059047Y-35740827D02*
X155963809Y-35693208D01*
X155963809Y-35693208D02*
X155868571Y-35693208D01*
X155678094Y-35693208D02*
X155297142Y-35693208D01*
X155535237Y-35359875D02*
X155535237Y-36217017D01*
X155535237Y-36217017D02*
X155487618Y-36312256D01*
X155487618Y-36312256D02*
X155392380Y-36359875D01*
X155392380Y-36359875D02*
X155297142Y-36359875D01*
X154201903Y-36359875D02*
X154201903Y-35359875D01*
X154201903Y-35359875D02*
X153868570Y-36074160D01*
X153868570Y-36074160D02*
X153535237Y-35359875D01*
X153535237Y-35359875D02*
X153535237Y-36359875D01*
X152916189Y-36359875D02*
X153011427Y-36312256D01*
X153011427Y-36312256D02*
X153059046Y-36264636D01*
X153059046Y-36264636D02*
X153106665Y-36169398D01*
X153106665Y-36169398D02*
X153106665Y-35883684D01*
X153106665Y-35883684D02*
X153059046Y-35788446D01*
X153059046Y-35788446D02*
X153011427Y-35740827D01*
X153011427Y-35740827D02*
X152916189Y-35693208D01*
X152916189Y-35693208D02*
X152773332Y-35693208D01*
X152773332Y-35693208D02*
X152678094Y-35740827D01*
X152678094Y-35740827D02*
X152630475Y-35788446D01*
X152630475Y-35788446D02*
X152582856Y-35883684D01*
X152582856Y-35883684D02*
X152582856Y-36169398D01*
X152582856Y-36169398D02*
X152630475Y-36264636D01*
X152630475Y-36264636D02*
X152678094Y-36312256D01*
X152678094Y-36312256D02*
X152773332Y-36359875D01*
X152773332Y-36359875D02*
X152916189Y-36359875D01*
X152154284Y-35693208D02*
X152154284Y-36359875D01*
X152154284Y-35788446D02*
X152106665Y-35740827D01*
X152106665Y-35740827D02*
X152011427Y-35693208D01*
X152011427Y-35693208D02*
X151868570Y-35693208D01*
X151868570Y-35693208D02*
X151773332Y-35740827D01*
X151773332Y-35740827D02*
X151725713Y-35836065D01*
X151725713Y-35836065D02*
X151725713Y-36359875D01*
X150868570Y-36312256D02*
X150963808Y-36359875D01*
X150963808Y-36359875D02*
X151154284Y-36359875D01*
X151154284Y-36359875D02*
X151249522Y-36312256D01*
X151249522Y-36312256D02*
X151297141Y-36217017D01*
X151297141Y-36217017D02*
X151297141Y-35836065D01*
X151297141Y-35836065D02*
X151249522Y-35740827D01*
X151249522Y-35740827D02*
X151154284Y-35693208D01*
X151154284Y-35693208D02*
X150963808Y-35693208D01*
X150963808Y-35693208D02*
X150868570Y-35740827D01*
X150868570Y-35740827D02*
X150820951Y-35836065D01*
X150820951Y-35836065D02*
X150820951Y-35931303D01*
X150820951Y-35931303D02*
X151297141Y-36026541D01*
X150439998Y-36312256D02*
X150344760Y-36359875D01*
X150344760Y-36359875D02*
X150154284Y-36359875D01*
X150154284Y-36359875D02*
X150059046Y-36312256D01*
X150059046Y-36312256D02*
X150011427Y-36217017D01*
X150011427Y-36217017D02*
X150011427Y-36169398D01*
X150011427Y-36169398D02*
X150059046Y-36074160D01*
X150059046Y-36074160D02*
X150154284Y-36026541D01*
X150154284Y-36026541D02*
X150297141Y-36026541D01*
X150297141Y-36026541D02*
X150392379Y-35978922D01*
X150392379Y-35978922D02*
X150439998Y-35883684D01*
X150439998Y-35883684D02*
X150439998Y-35836065D01*
X150439998Y-35836065D02*
X150392379Y-35740827D01*
X150392379Y-35740827D02*
X150297141Y-35693208D01*
X150297141Y-35693208D02*
X150154284Y-35693208D01*
X150154284Y-35693208D02*
X150059046Y-35740827D01*
X160963810Y-37874580D02*
X161011429Y-37922200D01*
X161011429Y-37922200D02*
X161154286Y-37969819D01*
X161154286Y-37969819D02*
X161249524Y-37969819D01*
X161249524Y-37969819D02*
X161392381Y-37922200D01*
X161392381Y-37922200D02*
X161487619Y-37826961D01*
X161487619Y-37826961D02*
X161535238Y-37731723D01*
X161535238Y-37731723D02*
X161582857Y-37541247D01*
X161582857Y-37541247D02*
X161582857Y-37398390D01*
X161582857Y-37398390D02*
X161535238Y-37207914D01*
X161535238Y-37207914D02*
X161487619Y-37112676D01*
X161487619Y-37112676D02*
X161392381Y-37017438D01*
X161392381Y-37017438D02*
X161249524Y-36969819D01*
X161249524Y-36969819D02*
X161154286Y-36969819D01*
X161154286Y-36969819D02*
X161011429Y-37017438D01*
X161011429Y-37017438D02*
X160963810Y-37065057D01*
X160106667Y-37969819D02*
X160106667Y-37446009D01*
X160106667Y-37446009D02*
X160154286Y-37350771D01*
X160154286Y-37350771D02*
X160249524Y-37303152D01*
X160249524Y-37303152D02*
X160440000Y-37303152D01*
X160440000Y-37303152D02*
X160535238Y-37350771D01*
X160106667Y-37922200D02*
X160201905Y-37969819D01*
X160201905Y-37969819D02*
X160440000Y-37969819D01*
X160440000Y-37969819D02*
X160535238Y-37922200D01*
X160535238Y-37922200D02*
X160582857Y-37826961D01*
X160582857Y-37826961D02*
X160582857Y-37731723D01*
X160582857Y-37731723D02*
X160535238Y-37636485D01*
X160535238Y-37636485D02*
X160440000Y-37588866D01*
X160440000Y-37588866D02*
X160201905Y-37588866D01*
X160201905Y-37588866D02*
X160106667Y-37541247D01*
X159630476Y-37969819D02*
X159630476Y-37303152D01*
X159630476Y-37493628D02*
X159582857Y-37398390D01*
X159582857Y-37398390D02*
X159535238Y-37350771D01*
X159535238Y-37350771D02*
X159440000Y-37303152D01*
X159440000Y-37303152D02*
X159344762Y-37303152D01*
X159059047Y-37922200D02*
X158963809Y-37969819D01*
X158963809Y-37969819D02*
X158773333Y-37969819D01*
X158773333Y-37969819D02*
X158678095Y-37922200D01*
X158678095Y-37922200D02*
X158630476Y-37826961D01*
X158630476Y-37826961D02*
X158630476Y-37779342D01*
X158630476Y-37779342D02*
X158678095Y-37684104D01*
X158678095Y-37684104D02*
X158773333Y-37636485D01*
X158773333Y-37636485D02*
X158916190Y-37636485D01*
X158916190Y-37636485D02*
X159011428Y-37588866D01*
X159011428Y-37588866D02*
X159059047Y-37493628D01*
X159059047Y-37493628D02*
X159059047Y-37446009D01*
X159059047Y-37446009D02*
X159011428Y-37350771D01*
X159011428Y-37350771D02*
X158916190Y-37303152D01*
X158916190Y-37303152D02*
X158773333Y-37303152D01*
X158773333Y-37303152D02*
X158678095Y-37350771D01*
X158059047Y-37969819D02*
X158154285Y-37922200D01*
X158154285Y-37922200D02*
X158201904Y-37874580D01*
X158201904Y-37874580D02*
X158249523Y-37779342D01*
X158249523Y-37779342D02*
X158249523Y-37493628D01*
X158249523Y-37493628D02*
X158201904Y-37398390D01*
X158201904Y-37398390D02*
X158154285Y-37350771D01*
X158154285Y-37350771D02*
X158059047Y-37303152D01*
X158059047Y-37303152D02*
X157916190Y-37303152D01*
X157916190Y-37303152D02*
X157820952Y-37350771D01*
X157820952Y-37350771D02*
X157773333Y-37398390D01*
X157773333Y-37398390D02*
X157725714Y-37493628D01*
X157725714Y-37493628D02*
X157725714Y-37779342D01*
X157725714Y-37779342D02*
X157773333Y-37874580D01*
X157773333Y-37874580D02*
X157820952Y-37922200D01*
X157820952Y-37922200D02*
X157916190Y-37969819D01*
X157916190Y-37969819D02*
X158059047Y-37969819D01*
X157297142Y-37303152D02*
X157297142Y-37969819D01*
X157297142Y-37398390D02*
X157249523Y-37350771D01*
X157249523Y-37350771D02*
X157154285Y-37303152D01*
X157154285Y-37303152D02*
X157011428Y-37303152D01*
X157011428Y-37303152D02*
X156916190Y-37350771D01*
X156916190Y-37350771D02*
X156868571Y-37446009D01*
X156868571Y-37446009D02*
X156868571Y-37969819D01*
X155678094Y-37922200D02*
X155535237Y-37969819D01*
X155535237Y-37969819D02*
X155297142Y-37969819D01*
X155297142Y-37969819D02*
X155201904Y-37922200D01*
X155201904Y-37922200D02*
X155154285Y-37874580D01*
X155154285Y-37874580D02*
X155106666Y-37779342D01*
X155106666Y-37779342D02*
X155106666Y-37684104D01*
X155106666Y-37684104D02*
X155154285Y-37588866D01*
X155154285Y-37588866D02*
X155201904Y-37541247D01*
X155201904Y-37541247D02*
X155297142Y-37493628D01*
X155297142Y-37493628D02*
X155487618Y-37446009D01*
X155487618Y-37446009D02*
X155582856Y-37398390D01*
X155582856Y-37398390D02*
X155630475Y-37350771D01*
X155630475Y-37350771D02*
X155678094Y-37255533D01*
X155678094Y-37255533D02*
X155678094Y-37160295D01*
X155678094Y-37160295D02*
X155630475Y-37065057D01*
X155630475Y-37065057D02*
X155582856Y-37017438D01*
X155582856Y-37017438D02*
X155487618Y-36969819D01*
X155487618Y-36969819D02*
X155249523Y-36969819D01*
X155249523Y-36969819D02*
X155106666Y-37017438D01*
X154773332Y-37303152D02*
X154582856Y-37969819D01*
X154582856Y-37969819D02*
X154392380Y-37493628D01*
X154392380Y-37493628D02*
X154201904Y-37969819D01*
X154201904Y-37969819D02*
X154011428Y-37303152D01*
X153487618Y-37969819D02*
X153582856Y-37922200D01*
X153582856Y-37922200D02*
X153630475Y-37874580D01*
X153630475Y-37874580D02*
X153678094Y-37779342D01*
X153678094Y-37779342D02*
X153678094Y-37493628D01*
X153678094Y-37493628D02*
X153630475Y-37398390D01*
X153630475Y-37398390D02*
X153582856Y-37350771D01*
X153582856Y-37350771D02*
X153487618Y-37303152D01*
X153487618Y-37303152D02*
X153344761Y-37303152D01*
X153344761Y-37303152D02*
X153249523Y-37350771D01*
X153249523Y-37350771D02*
X153201904Y-37398390D01*
X153201904Y-37398390D02*
X153154285Y-37493628D01*
X153154285Y-37493628D02*
X153154285Y-37779342D01*
X153154285Y-37779342D02*
X153201904Y-37874580D01*
X153201904Y-37874580D02*
X153249523Y-37922200D01*
X153249523Y-37922200D02*
X153344761Y-37969819D01*
X153344761Y-37969819D02*
X153487618Y-37969819D01*
X152820951Y-37303152D02*
X152582856Y-37969819D01*
X152582856Y-37969819D02*
X152344761Y-37303152D01*
X151582856Y-37922200D02*
X151678094Y-37969819D01*
X151678094Y-37969819D02*
X151868570Y-37969819D01*
X151868570Y-37969819D02*
X151963808Y-37922200D01*
X151963808Y-37922200D02*
X152011427Y-37826961D01*
X152011427Y-37826961D02*
X152011427Y-37446009D01*
X152011427Y-37446009D02*
X151963808Y-37350771D01*
X151963808Y-37350771D02*
X151868570Y-37303152D01*
X151868570Y-37303152D02*
X151678094Y-37303152D01*
X151678094Y-37303152D02*
X151582856Y-37350771D01*
X151582856Y-37350771D02*
X151535237Y-37446009D01*
X151535237Y-37446009D02*
X151535237Y-37541247D01*
X151535237Y-37541247D02*
X152011427Y-37636485D01*
X150963808Y-37969819D02*
X151059046Y-37922200D01*
X151059046Y-37922200D02*
X151106665Y-37826961D01*
X151106665Y-37826961D02*
X151106665Y-36969819D01*
X150154284Y-37969819D02*
X150154284Y-37446009D01*
X150154284Y-37446009D02*
X150201903Y-37350771D01*
X150201903Y-37350771D02*
X150297141Y-37303152D01*
X150297141Y-37303152D02*
X150487617Y-37303152D01*
X150487617Y-37303152D02*
X150582855Y-37350771D01*
X150154284Y-37922200D02*
X150249522Y-37969819D01*
X150249522Y-37969819D02*
X150487617Y-37969819D01*
X150487617Y-37969819D02*
X150582855Y-37922200D01*
X150582855Y-37922200D02*
X150630474Y-37826961D01*
X150630474Y-37826961D02*
X150630474Y-37731723D01*
X150630474Y-37731723D02*
X150582855Y-37636485D01*
X150582855Y-37636485D02*
X150487617Y-37588866D01*
X150487617Y-37588866D02*
X150249522Y-37588866D01*
X150249522Y-37588866D02*
X150154284Y-37541247D01*
X149678093Y-37303152D02*
X149678093Y-37969819D01*
X149678093Y-37398390D02*
X149630474Y-37350771D01*
X149630474Y-37350771D02*
X149535236Y-37303152D01*
X149535236Y-37303152D02*
X149392379Y-37303152D01*
X149392379Y-37303152D02*
X149297141Y-37350771D01*
X149297141Y-37350771D02*
X149249522Y-37446009D01*
X149249522Y-37446009D02*
X149249522Y-37969819D01*
X148344760Y-37969819D02*
X148344760Y-36969819D01*
X148344760Y-37922200D02*
X148439998Y-37969819D01*
X148439998Y-37969819D02*
X148630474Y-37969819D01*
X148630474Y-37969819D02*
X148725712Y-37922200D01*
X148725712Y-37922200D02*
X148773331Y-37874580D01*
X148773331Y-37874580D02*
X148820950Y-37779342D01*
X148820950Y-37779342D02*
X148820950Y-37493628D01*
X148820950Y-37493628D02*
X148773331Y-37398390D01*
X148773331Y-37398390D02*
X148725712Y-37350771D01*
X148725712Y-37350771D02*
X148630474Y-37303152D01*
X148630474Y-37303152D02*
X148439998Y-37303152D01*
X148439998Y-37303152D02*
X148344760Y-37350771D01*
D11*
%TO.C,G\u002A\u002A\u002A*%
G36*
X198852357Y-69969944D02*
G01*
X198846351Y-70055818D01*
X198807740Y-70081069D01*
X198790906Y-70051115D01*
X198801034Y-69918791D01*
X198831611Y-69879602D01*
X198852357Y-69969944D01*
G37*
G36*
X164709231Y-81026000D02*
G01*
X164709231Y-82634666D01*
X162882810Y-82634666D01*
X161056388Y-82634666D01*
X161056388Y-81026000D01*
X161056388Y-79417333D01*
X162882810Y-79417333D01*
X164709231Y-79417333D01*
X164709231Y-81026000D01*
G37*
G36*
X175667760Y-82084333D02*
G01*
X175667760Y-86952666D01*
X170655720Y-86952666D01*
X165643679Y-86952666D01*
X165643679Y-82084333D01*
X165643679Y-77216000D01*
X170655720Y-77216000D01*
X175667760Y-77216000D01*
X175667760Y-82084333D01*
G37*
G36*
X169976121Y-88351384D02*
G01*
X169976121Y-88988102D01*
X168213412Y-88965217D01*
X166450703Y-88942333D01*
X166425744Y-88328500D01*
X166400785Y-87714666D01*
X168188453Y-87714666D01*
X169976121Y-87714666D01*
X169976121Y-88351384D01*
G37*
G36*
X173544014Y-73998666D02*
G01*
X173544014Y-76369333D01*
X170740669Y-76369333D01*
X167937325Y-76369333D01*
X167937325Y-73998666D01*
X167937325Y-71628000D01*
X170740669Y-71628000D01*
X173544014Y-71628000D01*
X173544014Y-73998666D01*
G37*
G36*
X175073111Y-88349666D02*
G01*
X175073111Y-88984666D01*
X173204215Y-88984666D01*
X171335318Y-88984666D01*
X171335318Y-88349666D01*
X171335318Y-87714666D01*
X173204215Y-87714666D01*
X175073111Y-87714666D01*
X175073111Y-88349666D01*
G37*
G36*
X173798863Y-95165333D02*
G01*
X173798863Y-98382666D01*
X173161740Y-98382666D01*
X172524616Y-98382666D01*
X172524616Y-95165333D01*
X172524616Y-91948000D01*
X173161740Y-91948000D01*
X173798863Y-91948000D01*
X173798863Y-95165333D01*
G37*
G36*
X164114582Y-84229222D02*
G01*
X164113813Y-84436288D01*
X164107133Y-84857327D01*
X164094698Y-85202697D01*
X164077854Y-85441179D01*
X164057949Y-85541555D01*
X164044044Y-85547932D01*
X163898405Y-85567598D01*
X163625167Y-85583493D01*
X163256900Y-85594124D01*
X162826177Y-85598000D01*
X161651037Y-85598000D01*
X161651037Y-84285666D01*
X161651037Y-82973333D01*
X162882810Y-82973333D01*
X164114582Y-82973333D01*
X164114582Y-84229222D01*
G37*
G36*
X178577291Y-79267413D02*
G01*
X180297526Y-79290333D01*
X180320798Y-80811486D01*
X180325713Y-81253122D01*
X180326537Y-81701426D01*
X180322674Y-82068452D01*
X180314459Y-82324863D01*
X180302227Y-82441320D01*
X180275812Y-82467707D01*
X180166093Y-82500268D01*
X179957186Y-82523677D01*
X179631428Y-82539034D01*
X179171160Y-82547442D01*
X178558720Y-82550000D01*
X176857057Y-82550000D01*
X176857057Y-80897246D01*
X176857057Y-79244493D01*
X178577291Y-79267413D01*
G37*
G36*
X168207944Y-95271166D02*
G01*
X168218821Y-95636175D01*
X168252729Y-96237012D01*
X168309923Y-96694686D01*
X168398470Y-97026319D01*
X168526439Y-97249033D01*
X168701899Y-97379950D01*
X168932917Y-97436190D01*
X169227563Y-97434876D01*
X169324261Y-97424918D01*
X169571098Y-97346834D01*
X169754801Y-97170561D01*
X169801278Y-97102630D01*
X169853175Y-96994726D01*
X169891045Y-96849868D01*
X169917963Y-96641580D01*
X169937002Y-96343388D01*
X169951238Y-95928818D01*
X169963745Y-95371395D01*
X169994749Y-93810666D01*
X170628602Y-93810666D01*
X171262455Y-93810666D01*
X171235174Y-95609833D01*
X171229122Y-95992516D01*
X171218874Y-96501562D01*
X171205856Y-96882600D01*
X171187291Y-97161333D01*
X171160401Y-97363464D01*
X171122408Y-97514694D01*
X171070533Y-97640726D01*
X171002000Y-97767262D01*
X170807321Y-98029417D01*
X170449826Y-98296362D01*
X170282329Y-98364698D01*
X169856211Y-98451418D01*
X169395221Y-98453507D01*
X168947852Y-98377275D01*
X168562600Y-98229030D01*
X168287960Y-98015084D01*
X168280617Y-98006313D01*
X168146516Y-97889543D01*
X168056522Y-97928008D01*
X167992542Y-98128666D01*
X167987133Y-98155276D01*
X167948432Y-98284583D01*
X167872004Y-98352328D01*
X167713794Y-98378395D01*
X167429750Y-98382666D01*
X166917927Y-98382666D01*
X166917927Y-96096666D01*
X166917927Y-93810666D01*
X167545415Y-93810666D01*
X168172903Y-93810666D01*
X168207944Y-95271166D01*
G37*
G36*
X163586374Y-67525800D02*
G01*
X163838880Y-67662079D01*
X164179564Y-67933676D01*
X164465530Y-68255413D01*
X164643791Y-68574726D01*
X164650806Y-68595727D01*
X164695404Y-68816721D01*
X164722890Y-69147140D01*
X164733009Y-69594337D01*
X164725503Y-70165667D01*
X164700116Y-70868482D01*
X164656591Y-71710136D01*
X164594672Y-72697983D01*
X164514101Y-73839375D01*
X164414623Y-75141666D01*
X164365908Y-75762040D01*
X164307290Y-76512427D01*
X164254020Y-77198690D01*
X164207436Y-77803384D01*
X164168872Y-78309059D01*
X164139667Y-78698268D01*
X164121156Y-78953564D01*
X164114675Y-79057500D01*
X164088038Y-79092629D01*
X163967381Y-79125874D01*
X163732399Y-79147712D01*
X163364611Y-79159684D01*
X162845540Y-79163333D01*
X161576498Y-79163333D01*
X161533690Y-78803500D01*
X161521470Y-78661816D01*
X161501739Y-78353639D01*
X161477347Y-77914440D01*
X161449212Y-77365051D01*
X161418250Y-76726307D01*
X161385377Y-76019042D01*
X161351511Y-75264089D01*
X161317569Y-74482282D01*
X161284466Y-73694454D01*
X161253121Y-72921440D01*
X161224449Y-72184073D01*
X161199367Y-71503187D01*
X161178793Y-70899616D01*
X161163643Y-70394194D01*
X161151031Y-69891508D01*
X161143961Y-69445321D01*
X161146624Y-69115566D01*
X161160815Y-68873968D01*
X161188328Y-68692249D01*
X161230957Y-68542134D01*
X161290498Y-68395344D01*
X161379588Y-68225155D01*
X161696874Y-67850380D01*
X162111671Y-67579621D01*
X162588504Y-67426314D01*
X163091897Y-67403895D01*
X163586374Y-67525800D01*
G37*
G36*
X176369560Y-93733380D02*
G01*
X176844864Y-93799935D01*
X177239332Y-93927288D01*
X177596972Y-94131819D01*
X177968054Y-94475798D01*
X178222247Y-94914218D01*
X178368133Y-95463233D01*
X178414293Y-96139000D01*
X178391968Y-96592185D01*
X178265577Y-97219593D01*
X178028619Y-97722031D01*
X177682261Y-98097327D01*
X177227671Y-98343312D01*
X177071485Y-98387367D01*
X176692141Y-98444146D01*
X176255039Y-98465044D01*
X175816267Y-98450719D01*
X175431911Y-98401830D01*
X175158061Y-98319035D01*
X175127106Y-98303523D01*
X174976483Y-98214515D01*
X174893771Y-98108373D01*
X174854812Y-97934383D01*
X174835445Y-97641833D01*
X174826487Y-97390460D01*
X174826029Y-97189671D01*
X174835445Y-97112709D01*
X174887016Y-97128265D01*
X175059957Y-97189770D01*
X175307634Y-97282042D01*
X175315811Y-97285129D01*
X175855646Y-97434602D01*
X176302157Y-97443168D01*
X176653193Y-97312243D01*
X176906598Y-97043242D01*
X177060221Y-96637578D01*
X177111907Y-96096666D01*
X177082745Y-95673763D01*
X176956193Y-95234889D01*
X176731605Y-94933354D01*
X176411337Y-94770943D01*
X175997748Y-94749443D01*
X175493196Y-94870640D01*
X175382058Y-94905886D01*
X175177865Y-94947412D01*
X175071807Y-94934140D01*
X175041942Y-94883709D01*
X174961177Y-94704572D01*
X174864080Y-94457252D01*
X174840247Y-94391853D01*
X174770854Y-94166911D01*
X174768124Y-94041495D01*
X174828802Y-93970723D01*
X174990468Y-93888927D01*
X175389178Y-93778835D01*
X175866603Y-93726666D01*
X176369560Y-93733380D01*
G37*
G36*
X183693053Y-96289571D02*
G01*
X183595051Y-96906812D01*
X183364195Y-97450580D01*
X183008755Y-97901805D01*
X182537000Y-98241417D01*
X182416568Y-98303302D01*
X182197942Y-98397584D01*
X181987091Y-98446941D01*
X181724963Y-98461923D01*
X181352509Y-98453084D01*
X181281069Y-98450186D01*
X180919361Y-98426027D01*
X180659184Y-98380819D01*
X180441665Y-98299939D01*
X180207932Y-98168761D01*
X180100462Y-98098075D01*
X179687479Y-97709497D01*
X179403560Y-97212556D01*
X179246943Y-96604384D01*
X179228299Y-96450834D01*
X179225876Y-96096666D01*
X180509900Y-96096666D01*
X180510058Y-96129592D01*
X180563650Y-96649352D01*
X180710091Y-97048394D01*
X180944578Y-97313268D01*
X180949836Y-97316867D01*
X181177280Y-97411959D01*
X181444348Y-97451333D01*
X181608222Y-97439060D01*
X181941552Y-97308811D01*
X182182779Y-97039217D01*
X182329370Y-96633946D01*
X182378796Y-96096666D01*
X182370331Y-95859099D01*
X182280485Y-95375871D01*
X182094519Y-95026166D01*
X181814963Y-94813653D01*
X181444348Y-94742000D01*
X181280474Y-94754272D01*
X180947144Y-94884521D01*
X180705918Y-95154115D01*
X180559326Y-95559387D01*
X180509900Y-96096666D01*
X179225876Y-96096666D01*
X179223590Y-95762421D01*
X179351642Y-95146658D01*
X179605772Y-94618460D01*
X179979299Y-94192741D01*
X180465540Y-93884417D01*
X180579384Y-93839362D01*
X181035980Y-93741155D01*
X181554946Y-93724387D01*
X182070326Y-93787612D01*
X182516163Y-93929382D01*
X182545184Y-93943069D01*
X182973310Y-94214800D01*
X183291692Y-94576929D01*
X183514690Y-95051241D01*
X183656666Y-95659522D01*
X183681912Y-96096666D01*
X183693053Y-96289571D01*
G37*
G36*
X165643679Y-98382666D02*
G01*
X165129880Y-98382666D01*
X165108379Y-98382658D01*
X164829878Y-98376443D01*
X164669409Y-98344805D01*
X164578075Y-98267447D01*
X164506985Y-98124070D01*
X164434668Y-97971931D01*
X164368447Y-97927064D01*
X164283530Y-98002810D01*
X164262552Y-98025614D01*
X164091922Y-98162009D01*
X163865789Y-98299997D01*
X163518191Y-98420165D01*
X163072537Y-98466221D01*
X162627653Y-98423898D01*
X162255793Y-98293488D01*
X162166889Y-98239765D01*
X161789770Y-97894392D01*
X161518304Y-97419495D01*
X161354185Y-96818958D01*
X161309223Y-96229380D01*
X162585674Y-96229380D01*
X162644441Y-96654576D01*
X162776597Y-97019589D01*
X162982142Y-97278148D01*
X163261908Y-97411913D01*
X163590108Y-97442796D01*
X163880972Y-97359883D01*
X163981747Y-97285002D01*
X164140246Y-97056072D01*
X164242959Y-96709662D01*
X164293491Y-96230502D01*
X164295445Y-95603320D01*
X164274455Y-95426174D01*
X164138505Y-95104372D01*
X163906807Y-94874299D01*
X163613852Y-94754028D01*
X163294133Y-94761632D01*
X162982142Y-94915184D01*
X162849707Y-95055370D01*
X162688306Y-95383509D01*
X162600295Y-95790268D01*
X162585674Y-96229380D01*
X161309223Y-96229380D01*
X161299102Y-96096666D01*
X161342289Y-95459003D01*
X161488454Y-94856267D01*
X161732484Y-94373669D01*
X162068705Y-94019139D01*
X162491446Y-93800606D01*
X162995033Y-93726000D01*
X163426752Y-93759924D01*
X163807955Y-93887852D01*
X164135820Y-94128226D01*
X164369432Y-94350347D01*
X164369432Y-93149173D01*
X164369432Y-91948000D01*
X165006556Y-91948000D01*
X165643679Y-91948000D01*
X165643679Y-95165333D01*
X165643679Y-95603320D01*
X165643679Y-98382666D01*
G37*
G36*
X199538663Y-95368298D02*
G01*
X199538663Y-98382666D01*
X198901539Y-98382666D01*
X198264415Y-98382666D01*
X198264415Y-97239666D01*
X198264415Y-96096666D01*
X197928234Y-96096666D01*
X197592054Y-96096666D01*
X196887599Y-97238183D01*
X196183144Y-98379700D01*
X195482308Y-98381183D01*
X195367102Y-98380562D01*
X195068888Y-98369697D01*
X194862008Y-98348067D01*
X194785723Y-98319166D01*
X194820183Y-98252988D01*
X194937071Y-98066010D01*
X195121693Y-97783667D01*
X195358468Y-97429738D01*
X195631815Y-97028000D01*
X195666019Y-96978088D01*
X195962164Y-96541282D01*
X196170773Y-96220847D01*
X196302267Y-95997425D01*
X196367065Y-95851660D01*
X196375589Y-95764192D01*
X196338258Y-95715666D01*
X195917474Y-95399441D01*
X195594740Y-95004660D01*
X195422400Y-94552551D01*
X195394060Y-94074635D01*
X196696926Y-94074635D01*
X196699040Y-94394081D01*
X196834074Y-94682991D01*
X197075891Y-94882111D01*
X197194342Y-94924689D01*
X197465560Y-94990342D01*
X197775954Y-95040804D01*
X198264415Y-95100177D01*
X198264415Y-94245053D01*
X198264415Y-93389929D01*
X197733479Y-93439333D01*
X197526469Y-93465214D01*
X197121784Y-93577839D01*
X196853094Y-93767214D01*
X196705357Y-94042159D01*
X196696926Y-94074635D01*
X195394060Y-94074635D01*
X195391213Y-94026631D01*
X195443724Y-93637551D01*
X195604623Y-93215997D01*
X195885099Y-92891622D01*
X196303045Y-92637160D01*
X196365740Y-92608470D01*
X196550596Y-92532628D01*
X196735795Y-92478387D01*
X196955248Y-92441146D01*
X197242864Y-92416302D01*
X197632554Y-92399254D01*
X198158228Y-92385400D01*
X199538663Y-92353930D01*
X199538663Y-93389929D01*
X199538663Y-95368298D01*
G37*
G36*
X194326430Y-96398230D02*
G01*
X194202879Y-96973234D01*
X193964342Y-97489603D01*
X193618598Y-97919353D01*
X193173430Y-98234500D01*
X192875282Y-98366078D01*
X192549210Y-98445685D01*
X192153471Y-98467333D01*
X191948949Y-98462905D01*
X191344934Y-98380507D01*
X190854772Y-98186709D01*
X190459975Y-97871946D01*
X190142050Y-97426650D01*
X190134688Y-97413385D01*
X190025599Y-97202163D01*
X189956073Y-97012620D01*
X189917308Y-96797015D01*
X189900503Y-96507610D01*
X189897391Y-96156886D01*
X191143718Y-96156886D01*
X191192600Y-96608806D01*
X191318926Y-96991674D01*
X191514052Y-97260833D01*
X191552666Y-97291582D01*
X191850990Y-97420120D01*
X192205598Y-97441584D01*
X192547074Y-97349983D01*
X192640545Y-97291702D01*
X192837263Y-97034521D01*
X192957059Y-96633943D01*
X192997526Y-96096666D01*
X192974594Y-95667301D01*
X192874327Y-95246276D01*
X192687220Y-94958920D01*
X192405487Y-94794429D01*
X192021342Y-94742000D01*
X191862611Y-94755987D01*
X191560405Y-94892648D01*
X191338323Y-95176595D01*
X191194454Y-95609833D01*
X191180925Y-95680568D01*
X191143718Y-96156886D01*
X189897391Y-96156886D01*
X189896857Y-96096666D01*
X189897872Y-95882101D01*
X189909518Y-95516192D01*
X189939592Y-95254213D01*
X189994798Y-95051459D01*
X190081842Y-94863224D01*
X190257248Y-94594716D01*
X190571974Y-94251701D01*
X190926871Y-93977529D01*
X191271279Y-93816773D01*
X191597370Y-93751230D01*
X192140974Y-93724750D01*
X192673421Y-93784823D01*
X193124950Y-93927288D01*
X193191357Y-93959273D01*
X193583385Y-94200613D01*
X193866939Y-94502403D01*
X194095275Y-94919080D01*
X194197449Y-95184248D01*
X194327213Y-95792573D01*
X194326820Y-96096666D01*
X194326430Y-96398230D01*
G37*
G36*
X188834984Y-98382666D02*
G01*
X188323464Y-98382666D01*
X188083251Y-98378709D01*
X187892947Y-98353359D01*
X187786300Y-98289706D01*
X187715179Y-98171000D01*
X187650155Y-98051326D01*
X187537997Y-97963974D01*
X187432820Y-98044791D01*
X187414280Y-98066839D01*
X187276030Y-98171932D01*
X187066770Y-98295050D01*
X186771609Y-98404453D01*
X186313050Y-98464390D01*
X185842721Y-98428344D01*
X185433570Y-98296261D01*
X185286502Y-98209543D01*
X184936437Y-97872046D01*
X184682203Y-97402228D01*
X184527183Y-96807849D01*
X184474758Y-96096666D01*
X185776790Y-96096666D01*
X185776948Y-96129592D01*
X185830539Y-96649352D01*
X185976981Y-97048394D01*
X186211467Y-97313268D01*
X186390065Y-97401072D01*
X186623952Y-97445966D01*
X186696528Y-97442447D01*
X187012460Y-97368885D01*
X187239426Y-97192208D01*
X187385012Y-96898461D01*
X187456808Y-96473688D01*
X187462402Y-95903933D01*
X187449178Y-95611614D01*
X187425246Y-95346711D01*
X187382834Y-95175934D01*
X187310040Y-95056664D01*
X187194962Y-94946279D01*
X187182535Y-94935839D01*
X186869724Y-94774910D01*
X186527552Y-94755074D01*
X186211467Y-94880065D01*
X186195847Y-94891302D01*
X185966241Y-95164171D01*
X185824954Y-95570442D01*
X185776790Y-96096666D01*
X184474758Y-96096666D01*
X184490512Y-95703644D01*
X184600077Y-95060389D01*
X184809818Y-94531233D01*
X185114739Y-94126981D01*
X185509844Y-93858436D01*
X185870461Y-93749618D01*
X186350319Y-93729079D01*
X186814339Y-93828468D01*
X187204784Y-94041548D01*
X187532805Y-94304274D01*
X187525533Y-93147303D01*
X187518261Y-91990333D01*
X188176623Y-91965605D01*
X188834984Y-91940877D01*
X188834984Y-95161771D01*
X188834984Y-95903933D01*
X188834984Y-98382666D01*
G37*
G36*
X181912981Y-51443277D02*
G01*
X182573226Y-51471938D01*
X183184787Y-51532779D01*
X183788539Y-51632918D01*
X184425359Y-51779476D01*
X185136122Y-51979575D01*
X185961704Y-52240334D01*
X187477690Y-52812564D01*
X188950792Y-53530914D01*
X190320698Y-54372018D01*
X191580258Y-55329823D01*
X192722319Y-56398276D01*
X193739733Y-57571322D01*
X194625348Y-58842907D01*
X195372013Y-60206980D01*
X195418481Y-60305076D01*
X195871716Y-61386100D01*
X196277524Y-62578902D01*
X196622132Y-63833876D01*
X196891766Y-65101417D01*
X197072653Y-66331922D01*
X197083195Y-66499584D01*
X197094756Y-66832322D01*
X197106608Y-67314831D01*
X197118631Y-67937051D01*
X197130703Y-68688922D01*
X197142705Y-69560383D01*
X197154516Y-70541375D01*
X197166014Y-71621836D01*
X197177079Y-72791708D01*
X197187591Y-74040929D01*
X197197429Y-75359440D01*
X197206472Y-76737180D01*
X197214599Y-78164089D01*
X197272942Y-89238666D01*
X192926538Y-89238666D01*
X188580134Y-89238666D01*
X188576279Y-80496833D01*
X188575327Y-79236595D01*
X188572434Y-77504541D01*
X188567615Y-75928891D01*
X188560694Y-74501929D01*
X188551497Y-73215936D01*
X188539846Y-72063198D01*
X188525565Y-71035995D01*
X188508480Y-70126612D01*
X188488414Y-69327331D01*
X188465192Y-68630435D01*
X188438636Y-68028208D01*
X188408573Y-67512932D01*
X188374825Y-67076890D01*
X188337217Y-66712365D01*
X188295573Y-66411641D01*
X188249717Y-66167000D01*
X188197810Y-65943597D01*
X188014152Y-65275371D01*
X187790101Y-64590204D01*
X187546787Y-63949667D01*
X187305343Y-63415333D01*
X187065459Y-62985818D01*
X186472161Y-62174742D01*
X185756294Y-61470252D01*
X184932122Y-60883352D01*
X184013909Y-60425046D01*
X183015920Y-60106338D01*
X182285186Y-59983825D01*
X181309746Y-59959536D01*
X180319749Y-60079777D01*
X179348332Y-60340003D01*
X178428629Y-60735666D01*
X178198220Y-60870614D01*
X177686378Y-61256635D01*
X177164625Y-61752376D01*
X176664078Y-62323776D01*
X176215852Y-62936772D01*
X175851062Y-63557302D01*
X175713553Y-63870107D01*
X175522683Y-64460975D01*
X175350971Y-65183281D01*
X175202234Y-66014673D01*
X175080287Y-66932797D01*
X174988949Y-67915302D01*
X174932034Y-68939833D01*
X174876400Y-70442666D01*
X170488727Y-70442666D01*
X166101053Y-70442666D01*
X166129117Y-69659500D01*
X166214559Y-68105550D01*
X166404277Y-66267214D01*
X166688393Y-64553539D01*
X167070075Y-62953509D01*
X167552492Y-61456106D01*
X168138815Y-60050313D01*
X168832212Y-58725113D01*
X169635853Y-57469491D01*
X169650467Y-57448773D01*
X170070883Y-56906840D01*
X170593984Y-56312257D01*
X171181576Y-55703072D01*
X171795466Y-55117336D01*
X172397460Y-54593100D01*
X172949365Y-54168413D01*
X173127002Y-54045388D01*
X174409850Y-53268194D01*
X175800094Y-52606239D01*
X177274314Y-52069517D01*
X178809089Y-51668022D01*
X179127426Y-51602820D01*
X179520705Y-51533562D01*
X179892789Y-51486808D01*
X180291431Y-51458263D01*
X180764383Y-51443632D01*
X181359398Y-51438619D01*
X181912981Y-51443277D01*
G37*
%TD*%
%LPC*%
D12*
%TO.C,J5*%
X150240000Y-43640000D03*
D13*
X154940000Y-40640000D03*
D14*
X154940000Y-46640000D03*
%TD*%
D15*
%TO.C,U3*%
X198115000Y-51170000D03*
D16*
X200655000Y-51170000D03*
X203195000Y-51170000D03*
X205735000Y-51170000D03*
X208275000Y-51170000D03*
X210815000Y-51170000D03*
X213355000Y-51170000D03*
X213355000Y-43550000D03*
X210815000Y-43550000D03*
X208275000Y-43550000D03*
X205735000Y-43550000D03*
X203195000Y-43550000D03*
X200655000Y-43550000D03*
D15*
X198115000Y-43550000D03*
%TD*%
D17*
%TO.C,H3*%
X150990000Y-122762944D03*
X150287056Y-124460000D03*
X150287056Y-121065888D03*
X148590000Y-125162944D03*
D18*
X148590000Y-122762944D03*
D17*
X148590000Y-120362944D03*
X146892944Y-124460000D03*
X146892944Y-121065888D03*
X146190000Y-122762944D03*
%TD*%
D16*
%TO.C,J3*%
X201930000Y-36830000D03*
D15*
X198430000Y-36830000D03*
%TD*%
%TO.C,J16*%
X176530000Y-113035000D03*
D16*
X176530000Y-110495000D03*
%TD*%
%TO.C,J1*%
X180340000Y-36830000D03*
D15*
X176840000Y-36830000D03*
%TD*%
%TO.C,J13*%
X162560000Y-113035000D03*
D16*
X162560000Y-110495000D03*
%TD*%
D15*
%TO.C,U4*%
X156845000Y-113665000D03*
D19*
X156845000Y-116205000D03*
X154305000Y-113665000D03*
X154305000Y-116205000D03*
X151765000Y-113665000D03*
X151765000Y-116205000D03*
X149225000Y-113665000D03*
X149225000Y-116205000D03*
%TD*%
D17*
%TO.C,H1*%
X214490000Y-110490000D03*
X213787056Y-112187056D03*
X213787056Y-108792944D03*
X212090000Y-112890000D03*
D18*
X212090000Y-110490000D03*
D17*
X212090000Y-108090000D03*
X210392944Y-112187056D03*
X210392944Y-108792944D03*
X209690000Y-110490000D03*
%TD*%
D15*
%TO.C,J15*%
X171450000Y-113035000D03*
D16*
X171450000Y-110495000D03*
%TD*%
D15*
%TO.C,U2*%
X176525000Y-51170000D03*
D16*
X179065000Y-51170000D03*
X181605000Y-51170000D03*
X184145000Y-51170000D03*
X186685000Y-51170000D03*
X189225000Y-51170000D03*
X191765000Y-51170000D03*
X191765000Y-43550000D03*
X189225000Y-43550000D03*
X186685000Y-43550000D03*
X184145000Y-43550000D03*
X181605000Y-43550000D03*
X179065000Y-43550000D03*
D15*
X176525000Y-43550000D03*
%TD*%
D16*
%TO.C,J8*%
X179055000Y-123190000D03*
X181595000Y-123190000D03*
D15*
X184135000Y-123190000D03*
%TD*%
%TO.C,J18*%
X170820000Y-103505000D03*
D16*
X168280000Y-103505000D03*
%TD*%
D15*
%TO.C,J9*%
X168910000Y-123190000D03*
D16*
X166370000Y-123190000D03*
X163830000Y-123190000D03*
%TD*%
%TO.C,U1*%
X192175000Y-79375000D03*
D15*
X192175000Y-81915000D03*
D16*
X192175000Y-84455000D03*
X144145000Y-73025000D03*
X146685000Y-73025000D03*
D15*
X149225000Y-73025000D03*
D16*
X151765000Y-73025000D03*
X154305000Y-73025000D03*
X156845000Y-73025000D03*
X159385000Y-73025000D03*
D15*
X161925000Y-73025000D03*
D16*
X164465000Y-73025000D03*
X167005000Y-73025000D03*
X169545000Y-73025000D03*
X172085000Y-73025000D03*
D15*
X174625000Y-73025000D03*
D16*
X177165000Y-73025000D03*
X179705000Y-73025000D03*
X182245000Y-73025000D03*
X184785000Y-73025000D03*
D15*
X187325000Y-73025000D03*
D16*
X189865000Y-73025000D03*
X192405000Y-73025000D03*
X192405000Y-90805000D03*
X189865000Y-90805000D03*
D15*
X187325000Y-90805000D03*
D16*
X184785000Y-90805000D03*
X182245000Y-90805000D03*
X179705000Y-90805000D03*
X177165000Y-90805000D03*
D15*
X174625000Y-90805000D03*
D16*
X172085000Y-90805000D03*
X169545000Y-90805000D03*
X167005000Y-90805000D03*
X164465000Y-90805000D03*
D15*
X161925000Y-90805000D03*
D16*
X159385000Y-90805000D03*
X156845000Y-90805000D03*
X154305000Y-90805000D03*
X151765000Y-90805000D03*
D15*
X149225000Y-90805000D03*
D16*
X146685000Y-90805000D03*
X144145000Y-90805000D03*
D20*
X144275000Y-79190000D03*
D21*
X147305000Y-79490000D03*
X147305000Y-84340000D03*
D20*
X144275000Y-84640000D03*
%TD*%
D15*
%TO.C,J17*%
X180340000Y-113035000D03*
D16*
X180340000Y-110495000D03*
%TD*%
D17*
%TO.C,H2*%
X170040000Y-38100000D03*
X169337056Y-39797056D03*
X169337056Y-36402944D03*
X167640000Y-40500000D03*
D18*
X167640000Y-38100000D03*
D17*
X167640000Y-35700000D03*
X165942944Y-39797056D03*
X165942944Y-36402944D03*
X165240000Y-38100000D03*
%TD*%
D15*
%TO.C,J7*%
X199390000Y-123190000D03*
D16*
X196850000Y-123190000D03*
X194310000Y-123190000D03*
%TD*%
D15*
%TO.C,J14*%
X167640000Y-113035000D03*
D16*
X167640000Y-110495000D03*
%TD*%
D15*
%TO.C,J10*%
X210820000Y-68570000D03*
D16*
X210820000Y-66030000D03*
X210820000Y-63490000D03*
X210820000Y-60950000D03*
%TD*%
%TO.C,J6*%
X209550000Y-123190000D03*
X212090000Y-123190000D03*
D15*
X214630000Y-123190000D03*
%TD*%
D16*
%TO.C,J2*%
X191770000Y-36830000D03*
D15*
X188270000Y-36830000D03*
%TD*%
D16*
%TO.C,J4*%
X213360000Y-36830000D03*
D15*
X209860000Y-36830000D03*
%TD*%
%TO.C,J11*%
X210820000Y-78740000D03*
D16*
X210820000Y-81280000D03*
X210820000Y-83820000D03*
X210820000Y-86360000D03*
X210820000Y-88900000D03*
X210820000Y-91440000D03*
X210820000Y-93980000D03*
X210820000Y-96520000D03*
X210820000Y-99060000D03*
%TD*%
%LPD*%
M02*
