M48
; DRILL file {KiCad 8.0.1-8.0.1-1~ubuntu22.04.1} date 2024-10-21T19:44:50-0400
; FORMAT={-:-/ absolute / metric / decimal}
; #@! TF.CreationDate,2024-10-21T19:44:50-04:00
; #@! TF.GenerationSoftware,Kicad,Pcbnew,8.0.1-8.0.1-1~ubuntu22.04.1
; #@! TF.FileFunction,Plated,1,4,PTH
FMAT,2
METRIC
; #@! TA.AperFunction,Plated,PTH,ViaDrill
T1C0.400
; #@! TA.AperFunction,Plated,PTH,ComponentDrill
T2C0.500
; #@! TA.AperFunction,Plated,PTH,ComponentDrill
T3C1.000
; #@! TA.AperFunction,Plated,PTH,ComponentDrill
T4C1.020
; #@! TA.AperFunction,Plated,PTH,ComponentDrill
T5C3.200
%
G90
G05
T1
X146.368Y-63.182
X147.32Y-45.72
X154.94Y-57.785
X158.02Y-111.125
X160.02Y-52.705
X177.165Y-117.475
X184.15Y-113.665
X189.23Y-118.11
X189.865Y-113.665
X196.215Y-113.665
X200.025Y-118.745
X202.565Y-113.665
X207.615Y-117.445
T2
X146.19Y-122.763
X146.893Y-121.066
X146.893Y-124.46
X148.59Y-120.363
X148.59Y-125.163
X150.287Y-121.066
X150.287Y-124.46
X150.99Y-122.763
X165.24Y-38.1
X165.943Y-36.403
X165.943Y-39.797
X167.64Y-35.7
X167.64Y-40.5
X169.337Y-36.403
X169.337Y-39.797
X170.04Y-38.1
X209.69Y-110.49
X210.393Y-108.793
X210.393Y-112.187
X212.09Y-108.09
X212.09Y-112.89
X213.787Y-108.793
X213.787Y-112.187
X214.49Y-110.49
T3
X149.225Y-113.665
X149.225Y-116.205
X151.765Y-113.665
X151.765Y-116.205
X154.305Y-113.665
X154.305Y-116.205
X156.845Y-113.665
X156.845Y-116.205
X162.56Y-110.495
X162.56Y-113.035
X163.83Y-123.19
X166.37Y-123.19
X167.64Y-110.495
X167.64Y-113.035
X168.28Y-103.505
X168.91Y-123.19
X170.82Y-103.505
X171.45Y-110.495
X171.45Y-113.035
X176.525Y-43.55
X176.525Y-51.17
X176.53Y-110.495
X176.53Y-113.035
X176.84Y-36.83
X179.055Y-123.19
X179.065Y-43.55
X179.065Y-51.17
X180.34Y-36.83
X180.34Y-110.495
X180.34Y-113.035
X181.595Y-123.19
X181.605Y-43.55
X181.605Y-51.17
X184.135Y-123.19
X184.145Y-43.55
X184.145Y-51.17
X186.685Y-43.55
X186.685Y-51.17
X188.27Y-36.83
X189.225Y-43.55
X189.225Y-51.17
X191.765Y-43.55
X191.765Y-51.17
X191.77Y-36.83
X194.31Y-123.19
X196.85Y-123.19
X198.115Y-43.55
X198.115Y-51.17
X198.43Y-36.83
X199.39Y-123.19
X200.655Y-43.55
X200.655Y-51.17
X201.93Y-36.83
X203.195Y-43.55
X203.195Y-51.17
X205.735Y-43.55
X205.735Y-51.17
X208.275Y-43.55
X208.275Y-51.17
X209.55Y-123.19
X209.86Y-36.83
X210.815Y-43.55
X210.815Y-51.17
X210.82Y-60.95
X210.82Y-63.49
X210.82Y-66.03
X210.82Y-68.57
X210.82Y-78.74
X210.82Y-81.28
X210.82Y-83.82
X210.82Y-86.36
X210.82Y-88.9
X210.82Y-91.44
X210.82Y-93.98
X210.82Y-96.52
X210.82Y-99.06
X212.09Y-123.19
X213.355Y-43.55
X213.355Y-51.17
X213.36Y-36.83
X214.63Y-123.19
T4
X144.145Y-73.025
X144.145Y-90.805
X146.685Y-73.025
X146.685Y-90.805
X149.225Y-73.025
X149.225Y-90.805
X151.765Y-73.025
X151.765Y-90.805
X154.305Y-73.025
X154.305Y-90.805
X156.845Y-73.025
X156.845Y-90.805
X159.385Y-73.025
X159.385Y-90.805
X161.925Y-73.025
X161.925Y-90.805
X164.465Y-73.025
X164.465Y-90.805
X167.005Y-73.025
X167.005Y-90.805
X169.545Y-73.025
X169.545Y-90.805
X172.085Y-73.025
X172.085Y-90.805
X174.625Y-73.025
X174.625Y-90.805
X177.165Y-73.025
X177.165Y-90.805
X179.705Y-73.025
X179.705Y-90.805
X182.245Y-73.025
X182.245Y-90.805
X184.785Y-73.025
X184.785Y-90.805
X187.325Y-73.025
X187.325Y-90.805
X189.865Y-73.025
X189.865Y-90.805
X192.175Y-79.375
X192.175Y-81.915
X192.175Y-84.455
X192.405Y-73.025
X192.405Y-90.805
T5
X148.59Y-122.763
X167.64Y-38.1
X212.09Y-110.49
T3
X150.24Y-42.64G85X150.24Y-44.64
G05
X155.94Y-40.64G85X153.94Y-40.64
G05
X155.94Y-46.64G85X153.94Y-46.64
G05
M30
