%TF.GenerationSoftware,KiCad,Pcbnew,8.0.1-8.0.1-1~ubuntu22.04.1*%
%TF.CreationDate,2024-10-21T19:50:32-04:00*%
%TF.ProjectId,RedRobotBreakout,52656452-6f62-46f7-9442-7265616b6f75,rev?*%
%TF.SameCoordinates,Original*%
%TF.FileFunction,Copper,L2,Inr*%
%TF.FilePolarity,Positive*%
%FSLAX46Y46*%
G04 Gerber Fmt 4.6, Leading zero omitted, Abs format (unit mm)*
G04 Created by KiCad (PCBNEW 8.0.1-8.0.1-1~ubuntu22.04.1) date 2024-10-21 19:50:32*
%MOMM*%
%LPD*%
G01*
G04 APERTURE LIST*
G04 Aperture macros list*
%AMRoundRect*
0 Rectangle with rounded corners*
0 $1 Rounding radius*
0 $2 $3 $4 $5 $6 $7 $8 $9 X,Y pos of 4 corners*
0 Add a 4 corners polygon primitive as box body*
4,1,4,$2,$3,$4,$5,$6,$7,$8,$9,$2,$3,0*
0 Add four circle primitives for the rounded corners*
1,1,$1+$1,$2,$3*
1,1,$1+$1,$4,$5*
1,1,$1+$1,$6,$7*
1,1,$1+$1,$8,$9*
0 Add four rect primitives between the rounded corners*
20,1,$1+$1,$2,$3,$4,$5,0*
20,1,$1+$1,$4,$5,$6,$7,0*
20,1,$1+$1,$6,$7,$8,$9,0*
20,1,$1+$1,$8,$9,$2,$3,0*%
G04 Aperture macros list end*
%TA.AperFunction,ComponentPad*%
%ADD10RoundRect,0.875000X-0.875000X0.875000X-0.875000X-0.875000X0.875000X-0.875000X0.875000X0.875000X0*%
%TD*%
%TA.AperFunction,ComponentPad*%
%ADD11RoundRect,0.750000X-1.000000X0.750000X-1.000000X-0.750000X1.000000X-0.750000X1.000000X0.750000X0*%
%TD*%
%TA.AperFunction,ComponentPad*%
%ADD12R,3.500000X3.500000*%
%TD*%
%TA.AperFunction,ComponentPad*%
%ADD13R,1.700000X1.700000*%
%TD*%
%TA.AperFunction,ComponentPad*%
%ADD14O,1.700000X1.700000*%
%TD*%
%TA.AperFunction,ComponentPad*%
%ADD15C,0.800000*%
%TD*%
%TA.AperFunction,ComponentPad*%
%ADD16C,6.400000*%
%TD*%
%TA.AperFunction,ComponentPad*%
%ADD17C,1.700000*%
%TD*%
%TA.AperFunction,ViaPad*%
%ADD18C,0.800000*%
%TD*%
G04 APERTURE END LIST*
D10*
%TO.N,GND*%
%TO.C,J5*%
X150240000Y-43640000D03*
D11*
X154940000Y-40640000D03*
D12*
%TO.N,+BATT*%
X154940000Y-46640000D03*
%TD*%
D13*
%TO.N,GND*%
%TO.C,U3*%
X198115000Y-51170000D03*
D14*
%TO.N,+3V3*%
X200655000Y-51170000D03*
%TO.N,MOTOR3_EN*%
X203195000Y-51170000D03*
%TO.N,MOTOR3_PH*%
X205735000Y-51170000D03*
%TO.N,MOTOR4_EN*%
X208275000Y-51170000D03*
%TO.N,MOTOR4_PH*%
X210815000Y-51170000D03*
%TO.N,+3V3*%
X213355000Y-51170000D03*
%TO.N,unconnected-(U3-VMM-Pad8)*%
X213355000Y-43550000D03*
%TO.N,/M4+*%
X210815000Y-43550000D03*
%TO.N,/M4-*%
X208275000Y-43550000D03*
%TO.N,/M3+*%
X205735000Y-43550000D03*
%TO.N,/M3-*%
X203195000Y-43550000D03*
%TO.N,+BATT*%
X200655000Y-43550000D03*
D13*
%TO.N,GND*%
X198115000Y-43550000D03*
%TD*%
D15*
%TO.N,N/C*%
%TO.C,H3*%
X150990000Y-122762944D03*
X150287056Y-124460000D03*
X150287056Y-121065888D03*
X148590000Y-125162944D03*
D16*
X148590000Y-122762944D03*
D15*
X148590000Y-120362944D03*
X146892944Y-124460000D03*
X146892944Y-121065888D03*
X146190000Y-122762944D03*
%TD*%
D14*
%TO.N,/M3+*%
%TO.C,J3*%
X201930000Y-36830000D03*
D13*
%TO.N,/M3-*%
X198430000Y-36830000D03*
%TD*%
%TO.N,GND*%
%TO.C,J16*%
X176530000Y-113035000D03*
D14*
%TO.N,+3V3*%
X176530000Y-110495000D03*
%TD*%
%TO.N,/M1+*%
%TO.C,J1*%
X180340000Y-36830000D03*
D13*
%TO.N,/M1-*%
X176840000Y-36830000D03*
%TD*%
%TO.N,GND*%
%TO.C,J13*%
X162560000Y-113035000D03*
D14*
%TO.N,+BATT*%
X162560000Y-110495000D03*
%TD*%
D13*
%TO.N,GND*%
%TO.C,U4*%
X156845000Y-113665000D03*
D17*
%TO.N,+3V3*%
X156845000Y-116205000D03*
%TO.N,NRF24_CE*%
X154305000Y-113665000D03*
%TO.N,SPI0_CSn*%
X154305000Y-116205000D03*
%TO.N,SPI0_SCK*%
X151765000Y-113665000D03*
%TO.N,SPI0_TX*%
X151765000Y-116205000D03*
%TO.N,SPI0_RX*%
X149225000Y-113665000D03*
%TO.N,unconnected-(U4-IRQ-Pad8)*%
X149225000Y-116205000D03*
%TD*%
D15*
%TO.N,N/C*%
%TO.C,H1*%
X214490000Y-110490000D03*
X213787056Y-112187056D03*
X213787056Y-108792944D03*
X212090000Y-112890000D03*
D16*
X212090000Y-110490000D03*
D15*
X212090000Y-108090000D03*
X210392944Y-112187056D03*
X210392944Y-108792944D03*
X209690000Y-110490000D03*
%TD*%
D13*
%TO.N,GND*%
%TO.C,J15*%
X171450000Y-113035000D03*
D14*
%TO.N,+5V*%
X171450000Y-110495000D03*
%TD*%
D13*
%TO.N,GND*%
%TO.C,U2*%
X176525000Y-51170000D03*
D14*
%TO.N,+3V3*%
X179065000Y-51170000D03*
%TO.N,MOTOR1_EN*%
X181605000Y-51170000D03*
%TO.N,MOTOR1_PH*%
X184145000Y-51170000D03*
%TO.N,MOTOR2_EN*%
X186685000Y-51170000D03*
%TO.N,MOTOR2_PH*%
X189225000Y-51170000D03*
%TO.N,+3V3*%
X191765000Y-51170000D03*
%TO.N,unconnected-(U2-VMM-Pad8)*%
X191765000Y-43550000D03*
%TO.N,/M2+*%
X189225000Y-43550000D03*
%TO.N,/M2-*%
X186685000Y-43550000D03*
%TO.N,/M1+*%
X184145000Y-43550000D03*
%TO.N,/M1-*%
X181605000Y-43550000D03*
%TO.N,+BATT*%
X179065000Y-43550000D03*
D13*
%TO.N,GND*%
X176525000Y-43550000D03*
%TD*%
D14*
%TO.N,GND*%
%TO.C,J8*%
X179055000Y-123190000D03*
%TO.N,+5V*%
X181595000Y-123190000D03*
D13*
%TO.N,Net-(J8-Pin_1)*%
X184135000Y-123190000D03*
%TD*%
%TO.N,GND*%
%TO.C,J18*%
X170820000Y-103505000D03*
D14*
%TO.N,+BATT*%
X168280000Y-103505000D03*
%TD*%
D13*
%TO.N,Net-(J9-Pin_1)*%
%TO.C,J9*%
X168910000Y-123190000D03*
D14*
%TO.N,+5V*%
X166370000Y-123190000D03*
%TO.N,GND*%
X163830000Y-123190000D03*
%TD*%
%TO.N,unconnected-(U1-SWDIO-Pad43)*%
%TO.C,U1*%
X192175000Y-79375000D03*
D13*
%TO.N,GND*%
X192175000Y-81915000D03*
D14*
%TO.N,unconnected-(U1-SWCLK-Pad41)*%
X192175000Y-84455000D03*
%TO.N,unconnected-(U1-VBUS-Pad40)*%
X144145000Y-73025000D03*
%TO.N,Net-(D2-K)*%
X146685000Y-73025000D03*
D13*
%TO.N,GND*%
X149225000Y-73025000D03*
D14*
%TO.N,unconnected-(U1-3V3_EN-Pad37)*%
X151765000Y-73025000D03*
%TO.N,+3V3*%
X154305000Y-73025000D03*
%TO.N,unconnected-(U1-ADC_VREF-Pad35)_0*%
X156845000Y-73025000D03*
%TO.N,GPIO_LED*%
X159385000Y-73025000D03*
D13*
%TO.N,GND*%
X161925000Y-73025000D03*
D14*
%TO.N,MOTOR1_EN*%
X164465000Y-73025000D03*
%TO.N,MOTOR1_PH*%
X167005000Y-73025000D03*
%TO.N,RSTb*%
X169545000Y-73025000D03*
%TO.N,NRF24_CE*%
X172085000Y-73025000D03*
D13*
%TO.N,GND*%
X174625000Y-73025000D03*
D14*
%TO.N,MOTOR2_EN*%
X177165000Y-73025000D03*
%TO.N,MOTOR2_PH*%
X179705000Y-73025000D03*
%TO.N,MOTOR3_EN*%
X182245000Y-73025000D03*
%TO.N,MOTOR3_PH*%
X184785000Y-73025000D03*
D13*
%TO.N,GND*%
X187325000Y-73025000D03*
D14*
%TO.N,MOTOR4_EN*%
X189865000Y-73025000D03*
%TO.N,MOTOR4_PH*%
X192405000Y-73025000D03*
%TO.N,SERVO1_PWM*%
X192405000Y-90805000D03*
%TO.N,SERVO2_PWM*%
X189865000Y-90805000D03*
D13*
%TO.N,GND*%
X187325000Y-90805000D03*
D14*
%TO.N,SERVO3_PWM*%
X184785000Y-90805000D03*
%TO.N,SERVO4_PWM*%
X182245000Y-90805000D03*
%TO.N,LINE_6*%
X179705000Y-90805000D03*
%TO.N,LINE_5*%
X177165000Y-90805000D03*
D13*
%TO.N,GND*%
X174625000Y-90805000D03*
D14*
%TO.N,LINE_4*%
X172085000Y-90805000D03*
%TO.N,LINE_3*%
X169545000Y-90805000D03*
%TO.N,LINE_2*%
X167005000Y-90805000D03*
%TO.N,LINE_1*%
X164465000Y-90805000D03*
D13*
%TO.N,GND*%
X161925000Y-90805000D03*
D14*
%TO.N,US_ECHO*%
X159385000Y-90805000D03*
%TO.N,US_TRIG*%
X156845000Y-90805000D03*
%TO.N,SPI0_TX*%
X154305000Y-90805000D03*
%TO.N,SPI0_SCK*%
X151765000Y-90805000D03*
D13*
%TO.N,GND*%
X149225000Y-90805000D03*
D14*
%TO.N,SPI0_CSn*%
X146685000Y-90805000D03*
%TO.N,SPI0_RX*%
X144145000Y-90805000D03*
%TD*%
D13*
%TO.N,GND*%
%TO.C,J17*%
X180340000Y-113035000D03*
D14*
%TO.N,+3V3*%
X180340000Y-110495000D03*
%TD*%
D15*
%TO.N,N/C*%
%TO.C,H2*%
X170040000Y-38100000D03*
X169337056Y-39797056D03*
X169337056Y-36402944D03*
X167640000Y-40500000D03*
D16*
X167640000Y-38100000D03*
D15*
X167640000Y-35700000D03*
X165942944Y-39797056D03*
X165942944Y-36402944D03*
X165240000Y-38100000D03*
%TD*%
D13*
%TO.N,Net-(J7-Pin_1)*%
%TO.C,J7*%
X199390000Y-123190000D03*
D14*
%TO.N,+5V*%
X196850000Y-123190000D03*
%TO.N,GND*%
X194310000Y-123190000D03*
%TD*%
D13*
%TO.N,GND*%
%TO.C,J14*%
X167640000Y-113035000D03*
D14*
%TO.N,+5V*%
X167640000Y-110495000D03*
%TD*%
D13*
%TO.N,GND*%
%TO.C,J10*%
X210820000Y-68570000D03*
D14*
%TO.N,US_ECHO*%
X210820000Y-66030000D03*
%TO.N,US_TRIG*%
X210820000Y-63490000D03*
%TO.N,+3V3*%
X210820000Y-60950000D03*
%TD*%
%TO.N,GND*%
%TO.C,J6*%
X209550000Y-123190000D03*
%TO.N,+5V*%
X212090000Y-123190000D03*
D13*
%TO.N,Net-(J6-Pin_1)*%
X214630000Y-123190000D03*
%TD*%
D14*
%TO.N,/M2+*%
%TO.C,J2*%
X191770000Y-36830000D03*
D13*
%TO.N,/M2-*%
X188270000Y-36830000D03*
%TD*%
D14*
%TO.N,/M4+*%
%TO.C,J4*%
X213360000Y-36830000D03*
D13*
%TO.N,/M4-*%
X209860000Y-36830000D03*
%TD*%
%TO.N,GND*%
%TO.C,J11*%
X210820000Y-78740000D03*
D14*
%TO.N,+3V3*%
X210820000Y-81280000D03*
%TO.N,unconnected-(J11-Pin_3-Pad3)*%
X210820000Y-83820000D03*
%TO.N,LINE_1*%
X210820000Y-86360000D03*
%TO.N,LINE_2*%
X210820000Y-88900000D03*
%TO.N,LINE_3*%
X210820000Y-91440000D03*
%TO.N,LINE_4*%
X210820000Y-93980000D03*
%TO.N,LINE_5*%
X210820000Y-96520000D03*
%TO.N,LINE_6*%
X210820000Y-99060000D03*
%TD*%
D18*
%TO.N,+5V*%
X147320000Y-45720000D03*
X160020000Y-52705000D03*
X154940000Y-57785000D03*
%TO.N,Net-(J6-Pin_1)*%
X207615000Y-117445000D03*
%TO.N,+3V3*%
X158020000Y-111125000D03*
%TO.N,SERVO1_PWM*%
X202565000Y-113665000D03*
%TO.N,SERVO2_PWM*%
X196215000Y-113665000D03*
%TO.N,SERVO3_PWM*%
X189865000Y-113665000D03*
%TO.N,SERVO4_PWM*%
X184150000Y-113665000D03*
%TO.N,Net-(J7-Pin_1)*%
X200025000Y-118745000D03*
%TO.N,Net-(J8-Pin_1)*%
X189230000Y-118110000D03*
%TO.N,Net-(J9-Pin_1)*%
X177165000Y-117475000D03*
%TO.N,GPIO_LED*%
X146367500Y-63182500D03*
%TD*%
%TA.AperFunction,Conductor*%
%TO.N,+3V3*%
G36*
X155429340Y-114553068D02*
G01*
X155485274Y-114594939D01*
X155502189Y-114625917D01*
X155551202Y-114757328D01*
X155551206Y-114757335D01*
X155637452Y-114872544D01*
X155637455Y-114872547D01*
X155752664Y-114958793D01*
X155752671Y-114958797D01*
X155797618Y-114975561D01*
X155887517Y-115009091D01*
X155947127Y-115015500D01*
X155957684Y-115015499D01*
X156024722Y-115035179D01*
X156045371Y-115051818D01*
X156715590Y-115722037D01*
X156652007Y-115739075D01*
X156537993Y-115804901D01*
X156444901Y-115897993D01*
X156379075Y-116012007D01*
X156362037Y-116075590D01*
X155730073Y-115443626D01*
X155676881Y-115519594D01*
X155622304Y-115563219D01*
X155552806Y-115570413D01*
X155490451Y-115538891D01*
X155473730Y-115519594D01*
X155343494Y-115333597D01*
X155176402Y-115166506D01*
X155176396Y-115166501D01*
X154990842Y-115036575D01*
X154947217Y-114981998D01*
X154940023Y-114912500D01*
X154971546Y-114850145D01*
X154990842Y-114833425D01*
X155013026Y-114817891D01*
X155176401Y-114703495D01*
X155298329Y-114581566D01*
X155359648Y-114548084D01*
X155429340Y-114553068D01*
G37*
%TD.AperFunction*%
%TA.AperFunction,Conductor*%
G36*
X218383039Y-30499685D02*
G01*
X218428794Y-30552489D01*
X218440000Y-30604000D01*
X218440000Y-129416000D01*
X218420315Y-129483039D01*
X218367511Y-129528794D01*
X218316000Y-129540000D01*
X142364000Y-129540000D01*
X142296961Y-129520315D01*
X142251206Y-129467511D01*
X142240000Y-129416000D01*
X142240000Y-122762944D01*
X144884422Y-122762944D01*
X144904722Y-123150283D01*
X144911013Y-123190000D01*
X144965398Y-123533377D01*
X144997628Y-123653663D01*
X145065788Y-123908038D01*
X145204787Y-124270141D01*
X145380877Y-124615737D01*
X145592122Y-124941026D01*
X145592124Y-124941028D01*
X145836219Y-125242460D01*
X146110484Y-125516725D01*
X146110488Y-125516728D01*
X146411917Y-125760821D01*
X146737206Y-125972066D01*
X146737211Y-125972069D01*
X147082806Y-126148158D01*
X147444913Y-126287158D01*
X147819567Y-126387546D01*
X148202662Y-126448222D01*
X148568576Y-126467399D01*
X148589999Y-126468522D01*
X148590000Y-126468522D01*
X148590001Y-126468522D01*
X148610301Y-126467458D01*
X148977338Y-126448222D01*
X149360433Y-126387546D01*
X149735087Y-126287158D01*
X150097194Y-126148158D01*
X150442789Y-125972069D01*
X150768084Y-125760820D01*
X151069516Y-125516725D01*
X151343781Y-125242460D01*
X151587876Y-124941028D01*
X151799125Y-124615733D01*
X151975214Y-124270138D01*
X152114214Y-123908031D01*
X152214602Y-123533377D01*
X152268987Y-123190000D01*
X162474341Y-123190000D01*
X162494936Y-123425403D01*
X162494938Y-123425413D01*
X162556094Y-123653655D01*
X162556096Y-123653659D01*
X162556097Y-123653663D01*
X162560000Y-123662032D01*
X162655965Y-123867830D01*
X162655967Y-123867834D01*
X162764281Y-124022521D01*
X162791505Y-124061401D01*
X162958599Y-124228495D01*
X163055384Y-124296265D01*
X163152165Y-124364032D01*
X163152167Y-124364033D01*
X163152170Y-124364035D01*
X163366337Y-124463903D01*
X163594592Y-124525063D01*
X163771034Y-124540500D01*
X163829999Y-124545659D01*
X163830000Y-124545659D01*
X163830001Y-124545659D01*
X163888966Y-124540500D01*
X164065408Y-124525063D01*
X164293663Y-124463903D01*
X164507830Y-124364035D01*
X164701401Y-124228495D01*
X164868495Y-124061401D01*
X164998425Y-123875842D01*
X165053002Y-123832217D01*
X165122500Y-123825023D01*
X165184855Y-123856546D01*
X165201575Y-123875842D01*
X165331500Y-124061395D01*
X165331505Y-124061401D01*
X165498599Y-124228495D01*
X165595384Y-124296265D01*
X165692165Y-124364032D01*
X165692167Y-124364033D01*
X165692170Y-124364035D01*
X165906337Y-124463903D01*
X166134592Y-124525063D01*
X166311034Y-124540500D01*
X166369999Y-124545659D01*
X166370000Y-124545659D01*
X166370001Y-124545659D01*
X166428966Y-124540500D01*
X166605408Y-124525063D01*
X166833663Y-124463903D01*
X167047830Y-124364035D01*
X167241401Y-124228495D01*
X167363329Y-124106566D01*
X167424648Y-124073084D01*
X167494340Y-124078068D01*
X167550274Y-124119939D01*
X167567189Y-124150917D01*
X167616202Y-124282328D01*
X167616206Y-124282335D01*
X167702452Y-124397544D01*
X167702455Y-124397547D01*
X167817664Y-124483793D01*
X167817671Y-124483797D01*
X167952517Y-124534091D01*
X167952516Y-124534091D01*
X167959444Y-124534835D01*
X168012127Y-124540500D01*
X169807872Y-124540499D01*
X169867483Y-124534091D01*
X170002331Y-124483796D01*
X170117546Y-124397546D01*
X170203796Y-124282331D01*
X170254091Y-124147483D01*
X170260500Y-124087873D01*
X170260499Y-123190000D01*
X177699341Y-123190000D01*
X177719936Y-123425403D01*
X177719938Y-123425413D01*
X177781094Y-123653655D01*
X177781096Y-123653659D01*
X177781097Y-123653663D01*
X177785000Y-123662032D01*
X177880965Y-123867830D01*
X177880967Y-123867834D01*
X177989281Y-124022521D01*
X178016505Y-124061401D01*
X178183599Y-124228495D01*
X178280384Y-124296265D01*
X178377165Y-124364032D01*
X178377167Y-124364033D01*
X178377170Y-124364035D01*
X178591337Y-124463903D01*
X178819592Y-124525063D01*
X178996034Y-124540500D01*
X179054999Y-124545659D01*
X179055000Y-124545659D01*
X179055001Y-124545659D01*
X179113966Y-124540500D01*
X179290408Y-124525063D01*
X179518663Y-124463903D01*
X179732830Y-124364035D01*
X179926401Y-124228495D01*
X180093495Y-124061401D01*
X180223425Y-123875842D01*
X180278002Y-123832217D01*
X180347500Y-123825023D01*
X180409855Y-123856546D01*
X180426575Y-123875842D01*
X180556500Y-124061395D01*
X180556505Y-124061401D01*
X180723599Y-124228495D01*
X180820384Y-124296265D01*
X180917165Y-124364032D01*
X180917167Y-124364033D01*
X180917170Y-124364035D01*
X181131337Y-124463903D01*
X181359592Y-124525063D01*
X181536034Y-124540500D01*
X181594999Y-124545659D01*
X181595000Y-124545659D01*
X181595001Y-124545659D01*
X181653966Y-124540500D01*
X181830408Y-124525063D01*
X182058663Y-124463903D01*
X182272830Y-124364035D01*
X182466401Y-124228495D01*
X182588329Y-124106566D01*
X182649648Y-124073084D01*
X182719340Y-124078068D01*
X182775274Y-124119939D01*
X182792189Y-124150917D01*
X182841202Y-124282328D01*
X182841206Y-124282335D01*
X182927452Y-124397544D01*
X182927455Y-124397547D01*
X183042664Y-124483793D01*
X183042671Y-124483797D01*
X183177517Y-124534091D01*
X183177516Y-124534091D01*
X183184444Y-124534835D01*
X183237127Y-124540500D01*
X185032872Y-124540499D01*
X185092483Y-124534091D01*
X185227331Y-124483796D01*
X185342546Y-124397546D01*
X185428796Y-124282331D01*
X185479091Y-124147483D01*
X185485500Y-124087873D01*
X185485499Y-123190000D01*
X192954341Y-123190000D01*
X192974936Y-123425403D01*
X192974938Y-123425413D01*
X193036094Y-123653655D01*
X193036096Y-123653659D01*
X193036097Y-123653663D01*
X193040000Y-123662032D01*
X193135965Y-123867830D01*
X193135967Y-123867834D01*
X193244281Y-124022521D01*
X193271505Y-124061401D01*
X193438599Y-124228495D01*
X193535384Y-124296265D01*
X193632165Y-124364032D01*
X193632167Y-124364033D01*
X193632170Y-124364035D01*
X193846337Y-124463903D01*
X194074592Y-124525063D01*
X194251034Y-124540500D01*
X194309999Y-124545659D01*
X194310000Y-124545659D01*
X194310001Y-124545659D01*
X194368966Y-124540500D01*
X194545408Y-124525063D01*
X194773663Y-124463903D01*
X194987830Y-124364035D01*
X195181401Y-124228495D01*
X195348495Y-124061401D01*
X195478425Y-123875842D01*
X195533002Y-123832217D01*
X195602500Y-123825023D01*
X195664855Y-123856546D01*
X195681575Y-123875842D01*
X195811500Y-124061395D01*
X195811505Y-124061401D01*
X195978599Y-124228495D01*
X196075384Y-124296265D01*
X196172165Y-124364032D01*
X196172167Y-124364033D01*
X196172170Y-124364035D01*
X196386337Y-124463903D01*
X196614592Y-124525063D01*
X196791034Y-124540500D01*
X196849999Y-124545659D01*
X196850000Y-124545659D01*
X196850001Y-124545659D01*
X196908966Y-124540500D01*
X197085408Y-124525063D01*
X197313663Y-124463903D01*
X197527830Y-124364035D01*
X197721401Y-124228495D01*
X197843329Y-124106566D01*
X197904648Y-124073084D01*
X197974340Y-124078068D01*
X198030274Y-124119939D01*
X198047189Y-124150917D01*
X198096202Y-124282328D01*
X198096206Y-124282335D01*
X198182452Y-124397544D01*
X198182455Y-124397547D01*
X198297664Y-124483793D01*
X198297671Y-124483797D01*
X198432517Y-124534091D01*
X198432516Y-124534091D01*
X198439444Y-124534835D01*
X198492127Y-124540500D01*
X200287872Y-124540499D01*
X200347483Y-124534091D01*
X200482331Y-124483796D01*
X200597546Y-124397546D01*
X200683796Y-124282331D01*
X200734091Y-124147483D01*
X200740500Y-124087873D01*
X200740499Y-123190000D01*
X208194341Y-123190000D01*
X208214936Y-123425403D01*
X208214938Y-123425413D01*
X208276094Y-123653655D01*
X208276096Y-123653659D01*
X208276097Y-123653663D01*
X208280000Y-123662032D01*
X208375965Y-123867830D01*
X208375967Y-123867834D01*
X208484281Y-124022521D01*
X208511505Y-124061401D01*
X208678599Y-124228495D01*
X208775384Y-124296265D01*
X208872165Y-124364032D01*
X208872167Y-124364033D01*
X208872170Y-124364035D01*
X209086337Y-124463903D01*
X209314592Y-124525063D01*
X209491034Y-124540500D01*
X209549999Y-124545659D01*
X209550000Y-124545659D01*
X209550001Y-124545659D01*
X209608966Y-124540500D01*
X209785408Y-124525063D01*
X210013663Y-124463903D01*
X210227830Y-124364035D01*
X210421401Y-124228495D01*
X210588495Y-124061401D01*
X210718425Y-123875842D01*
X210773002Y-123832217D01*
X210842500Y-123825023D01*
X210904855Y-123856546D01*
X210921575Y-123875842D01*
X211051500Y-124061395D01*
X211051505Y-124061401D01*
X211218599Y-124228495D01*
X211315384Y-124296265D01*
X211412165Y-124364032D01*
X211412167Y-124364033D01*
X211412170Y-124364035D01*
X211626337Y-124463903D01*
X211854592Y-124525063D01*
X212031034Y-124540500D01*
X212089999Y-124545659D01*
X212090000Y-124545659D01*
X212090001Y-124545659D01*
X212148966Y-124540500D01*
X212325408Y-124525063D01*
X212553663Y-124463903D01*
X212767830Y-124364035D01*
X212961401Y-124228495D01*
X213083329Y-124106566D01*
X213144648Y-124073084D01*
X213214340Y-124078068D01*
X213270274Y-124119939D01*
X213287189Y-124150917D01*
X213336202Y-124282328D01*
X213336206Y-124282335D01*
X213422452Y-124397544D01*
X213422455Y-124397547D01*
X213537664Y-124483793D01*
X213537671Y-124483797D01*
X213672517Y-124534091D01*
X213672516Y-124534091D01*
X213679444Y-124534835D01*
X213732127Y-124540500D01*
X215527872Y-124540499D01*
X215587483Y-124534091D01*
X215722331Y-124483796D01*
X215837546Y-124397546D01*
X215923796Y-124282331D01*
X215974091Y-124147483D01*
X215980500Y-124087873D01*
X215980499Y-122292128D01*
X215974091Y-122232517D01*
X215972810Y-122229083D01*
X215923797Y-122097671D01*
X215923793Y-122097664D01*
X215837547Y-121982455D01*
X215837544Y-121982452D01*
X215722335Y-121896206D01*
X215722328Y-121896202D01*
X215587482Y-121845908D01*
X215587483Y-121845908D01*
X215527883Y-121839501D01*
X215527881Y-121839500D01*
X215527873Y-121839500D01*
X215527864Y-121839500D01*
X213732129Y-121839500D01*
X213732123Y-121839501D01*
X213672516Y-121845908D01*
X213537671Y-121896202D01*
X213537664Y-121896206D01*
X213422455Y-121982452D01*
X213422452Y-121982455D01*
X213336206Y-122097664D01*
X213336203Y-122097669D01*
X213287189Y-122229083D01*
X213245317Y-122285016D01*
X213179853Y-122309433D01*
X213111580Y-122294581D01*
X213083326Y-122273430D01*
X212961402Y-122151506D01*
X212961395Y-122151501D01*
X212767834Y-122015967D01*
X212767830Y-122015965D01*
X212767828Y-122015964D01*
X212553663Y-121916097D01*
X212553659Y-121916096D01*
X212553655Y-121916094D01*
X212325413Y-121854938D01*
X212325403Y-121854936D01*
X212090001Y-121834341D01*
X212089999Y-121834341D01*
X211854596Y-121854936D01*
X211854586Y-121854938D01*
X211626344Y-121916094D01*
X211626335Y-121916098D01*
X211412171Y-122015964D01*
X211412169Y-122015965D01*
X211218597Y-122151505D01*
X211051505Y-122318597D01*
X210921575Y-122504158D01*
X210866998Y-122547783D01*
X210797500Y-122554977D01*
X210735145Y-122523454D01*
X210718425Y-122504158D01*
X210588494Y-122318597D01*
X210421402Y-122151506D01*
X210421395Y-122151501D01*
X210227834Y-122015967D01*
X210227830Y-122015965D01*
X210227828Y-122015964D01*
X210013663Y-121916097D01*
X210013659Y-121916096D01*
X210013655Y-121916094D01*
X209785413Y-121854938D01*
X209785403Y-121854936D01*
X209550001Y-121834341D01*
X209549999Y-121834341D01*
X209314596Y-121854936D01*
X209314586Y-121854938D01*
X209086344Y-121916094D01*
X209086335Y-121916098D01*
X208872171Y-122015964D01*
X208872169Y-122015965D01*
X208678597Y-122151505D01*
X208511505Y-122318597D01*
X208375965Y-122512169D01*
X208375964Y-122512171D01*
X208276098Y-122726335D01*
X208276094Y-122726344D01*
X208214938Y-122954586D01*
X208214936Y-122954596D01*
X208194341Y-123189999D01*
X208194341Y-123190000D01*
X200740499Y-123190000D01*
X200740499Y-122292128D01*
X200734091Y-122232517D01*
X200732810Y-122229083D01*
X200683797Y-122097671D01*
X200683793Y-122097664D01*
X200597547Y-121982455D01*
X200597544Y-121982452D01*
X200482335Y-121896206D01*
X200482328Y-121896202D01*
X200347482Y-121845908D01*
X200347483Y-121845908D01*
X200287883Y-121839501D01*
X200287881Y-121839500D01*
X200287873Y-121839500D01*
X200287864Y-121839500D01*
X198492129Y-121839500D01*
X198492123Y-121839501D01*
X198432516Y-121845908D01*
X198297671Y-121896202D01*
X198297664Y-121896206D01*
X198182455Y-121982452D01*
X198182452Y-121982455D01*
X198096206Y-122097664D01*
X198096203Y-122097669D01*
X198047189Y-122229083D01*
X198005317Y-122285016D01*
X197939853Y-122309433D01*
X197871580Y-122294581D01*
X197843326Y-122273430D01*
X197721402Y-122151506D01*
X197721395Y-122151501D01*
X197527834Y-122015967D01*
X197527830Y-122015965D01*
X197527828Y-122015964D01*
X197313663Y-121916097D01*
X197313659Y-121916096D01*
X197313655Y-121916094D01*
X197085413Y-121854938D01*
X197085403Y-121854936D01*
X196850001Y-121834341D01*
X196849999Y-121834341D01*
X196614596Y-121854936D01*
X196614586Y-121854938D01*
X196386344Y-121916094D01*
X196386335Y-121916098D01*
X196172171Y-122015964D01*
X196172169Y-122015965D01*
X195978597Y-122151505D01*
X195811505Y-122318597D01*
X195681575Y-122504158D01*
X195626998Y-122547783D01*
X195557500Y-122554977D01*
X195495145Y-122523454D01*
X195478425Y-122504158D01*
X195348494Y-122318597D01*
X195181402Y-122151506D01*
X195181395Y-122151501D01*
X194987834Y-122015967D01*
X194987830Y-122015965D01*
X194987828Y-122015964D01*
X194773663Y-121916097D01*
X194773659Y-121916096D01*
X194773655Y-121916094D01*
X194545413Y-121854938D01*
X194545403Y-121854936D01*
X194310001Y-121834341D01*
X194309999Y-121834341D01*
X194074596Y-121854936D01*
X194074586Y-121854938D01*
X193846344Y-121916094D01*
X193846335Y-121916098D01*
X193632171Y-122015964D01*
X193632169Y-122015965D01*
X193438597Y-122151505D01*
X193271505Y-122318597D01*
X193135965Y-122512169D01*
X193135964Y-122512171D01*
X193036098Y-122726335D01*
X193036094Y-122726344D01*
X192974938Y-122954586D01*
X192974936Y-122954596D01*
X192954341Y-123189999D01*
X192954341Y-123190000D01*
X185485499Y-123190000D01*
X185485499Y-122292128D01*
X185479091Y-122232517D01*
X185477810Y-122229083D01*
X185428797Y-122097671D01*
X185428793Y-122097664D01*
X185342547Y-121982455D01*
X185342544Y-121982452D01*
X185227335Y-121896206D01*
X185227328Y-121896202D01*
X185092482Y-121845908D01*
X185092483Y-121845908D01*
X185032883Y-121839501D01*
X185032881Y-121839500D01*
X185032873Y-121839500D01*
X185032864Y-121839500D01*
X183237129Y-121839500D01*
X183237123Y-121839501D01*
X183177516Y-121845908D01*
X183042671Y-121896202D01*
X183042664Y-121896206D01*
X182927455Y-121982452D01*
X182927452Y-121982455D01*
X182841206Y-122097664D01*
X182841203Y-122097669D01*
X182792189Y-122229083D01*
X182750317Y-122285016D01*
X182684853Y-122309433D01*
X182616580Y-122294581D01*
X182588326Y-122273430D01*
X182466402Y-122151506D01*
X182466395Y-122151501D01*
X182272834Y-122015967D01*
X182272830Y-122015965D01*
X182272828Y-122015964D01*
X182058663Y-121916097D01*
X182058659Y-121916096D01*
X182058655Y-121916094D01*
X181830413Y-121854938D01*
X181830403Y-121854936D01*
X181595001Y-121834341D01*
X181594999Y-121834341D01*
X181359596Y-121854936D01*
X181359586Y-121854938D01*
X181131344Y-121916094D01*
X181131335Y-121916098D01*
X180917171Y-122015964D01*
X180917169Y-122015965D01*
X180723597Y-122151505D01*
X180556505Y-122318597D01*
X180426575Y-122504158D01*
X180371998Y-122547783D01*
X180302500Y-122554977D01*
X180240145Y-122523454D01*
X180223425Y-122504158D01*
X180093494Y-122318597D01*
X179926402Y-122151506D01*
X179926395Y-122151501D01*
X179732834Y-122015967D01*
X179732830Y-122015965D01*
X179732828Y-122015964D01*
X179518663Y-121916097D01*
X179518659Y-121916096D01*
X179518655Y-121916094D01*
X179290413Y-121854938D01*
X179290403Y-121854936D01*
X179055001Y-121834341D01*
X179054999Y-121834341D01*
X178819596Y-121854936D01*
X178819586Y-121854938D01*
X178591344Y-121916094D01*
X178591335Y-121916098D01*
X178377171Y-122015964D01*
X178377169Y-122015965D01*
X178183597Y-122151505D01*
X178016505Y-122318597D01*
X177880965Y-122512169D01*
X177880964Y-122512171D01*
X177781098Y-122726335D01*
X177781094Y-122726344D01*
X177719938Y-122954586D01*
X177719936Y-122954596D01*
X177699341Y-123189999D01*
X177699341Y-123190000D01*
X170260499Y-123190000D01*
X170260499Y-122292128D01*
X170254091Y-122232517D01*
X170252810Y-122229083D01*
X170203797Y-122097671D01*
X170203793Y-122097664D01*
X170117547Y-121982455D01*
X170117544Y-121982452D01*
X170002335Y-121896206D01*
X170002328Y-121896202D01*
X169867482Y-121845908D01*
X169867483Y-121845908D01*
X169807883Y-121839501D01*
X169807881Y-121839500D01*
X169807873Y-121839500D01*
X169807864Y-121839500D01*
X168012129Y-121839500D01*
X168012123Y-121839501D01*
X167952516Y-121845908D01*
X167817671Y-121896202D01*
X167817664Y-121896206D01*
X167702455Y-121982452D01*
X167702452Y-121982455D01*
X167616206Y-122097664D01*
X167616203Y-122097669D01*
X167567189Y-122229083D01*
X167525317Y-122285016D01*
X167459853Y-122309433D01*
X167391580Y-122294581D01*
X167363326Y-122273430D01*
X167241402Y-122151506D01*
X167241395Y-122151501D01*
X167047834Y-122015967D01*
X167047830Y-122015965D01*
X167047828Y-122015964D01*
X166833663Y-121916097D01*
X166833659Y-121916096D01*
X166833655Y-121916094D01*
X166605413Y-121854938D01*
X166605403Y-121854936D01*
X166370001Y-121834341D01*
X166369999Y-121834341D01*
X166134596Y-121854936D01*
X166134586Y-121854938D01*
X165906344Y-121916094D01*
X165906335Y-121916098D01*
X165692171Y-122015964D01*
X165692169Y-122015965D01*
X165498597Y-122151505D01*
X165331505Y-122318597D01*
X165201575Y-122504158D01*
X165146998Y-122547783D01*
X165077500Y-122554977D01*
X165015145Y-122523454D01*
X164998425Y-122504158D01*
X164868494Y-122318597D01*
X164701402Y-122151506D01*
X164701395Y-122151501D01*
X164507834Y-122015967D01*
X164507830Y-122015965D01*
X164507828Y-122015964D01*
X164293663Y-121916097D01*
X164293659Y-121916096D01*
X164293655Y-121916094D01*
X164065413Y-121854938D01*
X164065403Y-121854936D01*
X163830001Y-121834341D01*
X163829999Y-121834341D01*
X163594596Y-121854936D01*
X163594586Y-121854938D01*
X163366344Y-121916094D01*
X163366335Y-121916098D01*
X163152171Y-122015964D01*
X163152169Y-122015965D01*
X162958597Y-122151505D01*
X162791505Y-122318597D01*
X162655965Y-122512169D01*
X162655964Y-122512171D01*
X162556098Y-122726335D01*
X162556094Y-122726344D01*
X162494938Y-122954586D01*
X162494936Y-122954596D01*
X162474341Y-123189999D01*
X162474341Y-123190000D01*
X152268987Y-123190000D01*
X152275278Y-123150282D01*
X152295578Y-122762944D01*
X152275278Y-122375606D01*
X152214602Y-121992511D01*
X152114214Y-121617857D01*
X151975214Y-121255750D01*
X151799125Y-120910155D01*
X151587876Y-120584860D01*
X151343781Y-120283428D01*
X151069516Y-120009163D01*
X150768084Y-119765068D01*
X150768082Y-119765066D01*
X150442793Y-119553821D01*
X150097197Y-119377731D01*
X149735094Y-119238732D01*
X149735087Y-119238730D01*
X149360433Y-119138342D01*
X149360429Y-119138341D01*
X149360428Y-119138341D01*
X148977339Y-119077666D01*
X148590001Y-119057366D01*
X148589999Y-119057366D01*
X148202660Y-119077666D01*
X147819572Y-119138341D01*
X147819570Y-119138341D01*
X147444905Y-119238732D01*
X147082802Y-119377731D01*
X146737206Y-119553821D01*
X146411917Y-119765066D01*
X146110488Y-120009159D01*
X146110480Y-120009166D01*
X145836222Y-120283424D01*
X145836215Y-120283432D01*
X145592122Y-120584861D01*
X145380877Y-120910150D01*
X145204787Y-121255746D01*
X145065788Y-121617849D01*
X144965397Y-121992514D01*
X144965397Y-121992516D01*
X144904722Y-122375604D01*
X144884422Y-122762943D01*
X144884422Y-122762944D01*
X142240000Y-122762944D01*
X142240000Y-116205000D01*
X147869341Y-116205000D01*
X147889936Y-116440403D01*
X147889938Y-116440413D01*
X147951094Y-116668655D01*
X147951096Y-116668659D01*
X147951097Y-116668663D01*
X148030800Y-116839586D01*
X148050965Y-116882830D01*
X148050967Y-116882834D01*
X148109462Y-116966373D01*
X148186505Y-117076401D01*
X148353599Y-117243495D01*
X148361257Y-117248857D01*
X148547165Y-117379032D01*
X148547167Y-117379033D01*
X148547170Y-117379035D01*
X148761337Y-117478903D01*
X148989592Y-117540063D01*
X149177918Y-117556539D01*
X149224999Y-117560659D01*
X149225000Y-117560659D01*
X149225001Y-117560659D01*
X149264234Y-117557226D01*
X149460408Y-117540063D01*
X149688663Y-117478903D01*
X149902830Y-117379035D01*
X150096401Y-117243495D01*
X150263495Y-117076401D01*
X150393425Y-116890842D01*
X150448002Y-116847217D01*
X150517500Y-116840023D01*
X150579855Y-116871546D01*
X150596575Y-116890842D01*
X150726500Y-117076395D01*
X150726505Y-117076401D01*
X150893599Y-117243495D01*
X150901257Y-117248857D01*
X151087165Y-117379032D01*
X151087167Y-117379033D01*
X151087170Y-117379035D01*
X151301337Y-117478903D01*
X151529592Y-117540063D01*
X151717918Y-117556539D01*
X151764999Y-117560659D01*
X151765000Y-117560659D01*
X151765001Y-117560659D01*
X151804234Y-117557226D01*
X152000408Y-117540063D01*
X152228663Y-117478903D01*
X152442830Y-117379035D01*
X152636401Y-117243495D01*
X152803495Y-117076401D01*
X152933425Y-116890842D01*
X152988002Y-116847217D01*
X153057500Y-116840023D01*
X153119855Y-116871546D01*
X153136575Y-116890842D01*
X153266500Y-117076395D01*
X153266505Y-117076401D01*
X153433599Y-117243495D01*
X153441257Y-117248857D01*
X153627165Y-117379032D01*
X153627167Y-117379033D01*
X153627170Y-117379035D01*
X153841337Y-117478903D01*
X154069592Y-117540063D01*
X154257918Y-117556539D01*
X154304999Y-117560659D01*
X154305000Y-117560659D01*
X154305001Y-117560659D01*
X154344234Y-117557226D01*
X154540408Y-117540063D01*
X154768663Y-117478903D01*
X154982830Y-117379035D01*
X155176401Y-117243495D01*
X155343495Y-117076401D01*
X155473732Y-116890403D01*
X155528307Y-116846780D01*
X155597805Y-116839586D01*
X155660160Y-116871109D01*
X155676880Y-116890405D01*
X155730073Y-116966373D01*
X156362037Y-116334409D01*
X156379075Y-116397993D01*
X156444901Y-116512007D01*
X156537993Y-116605099D01*
X156652007Y-116670925D01*
X156715590Y-116687962D01*
X156083625Y-117319925D01*
X156167421Y-117378599D01*
X156381507Y-117478429D01*
X156381516Y-117478433D01*
X156609673Y-117539567D01*
X156609684Y-117539569D01*
X156844998Y-117560157D01*
X156845002Y-117560157D01*
X157080315Y-117539569D01*
X157080326Y-117539567D01*
X157308483Y-117478433D01*
X157308492Y-117478429D01*
X157315846Y-117475000D01*
X176259540Y-117475000D01*
X176279326Y-117663256D01*
X176279327Y-117663259D01*
X176337818Y-117843277D01*
X176337821Y-117843284D01*
X176432467Y-118007216D01*
X176532117Y-118117888D01*
X176559129Y-118147888D01*
X176712265Y-118259148D01*
X176712270Y-118259151D01*
X176885192Y-118336142D01*
X176885197Y-118336144D01*
X177070354Y-118375500D01*
X177070355Y-118375500D01*
X177259644Y-118375500D01*
X177259646Y-118375500D01*
X177444803Y-118336144D01*
X177617730Y-118259151D01*
X177770871Y-118147888D01*
X177804986Y-118110000D01*
X188324540Y-118110000D01*
X188344326Y-118298256D01*
X188344327Y-118298259D01*
X188402818Y-118478277D01*
X188402821Y-118478284D01*
X188497467Y-118642216D01*
X188624129Y-118782888D01*
X188777265Y-118894148D01*
X188777270Y-118894151D01*
X188950192Y-118971142D01*
X188950197Y-118971144D01*
X189135354Y-119010500D01*
X189135355Y-119010500D01*
X189324644Y-119010500D01*
X189324646Y-119010500D01*
X189509803Y-118971144D01*
X189682730Y-118894151D01*
X189835871Y-118782888D01*
X189869986Y-118745000D01*
X199119540Y-118745000D01*
X199139326Y-118933256D01*
X199139327Y-118933259D01*
X199197818Y-119113277D01*
X199197821Y-119113284D01*
X199292467Y-119277216D01*
X199419129Y-119417888D01*
X199572265Y-119529148D01*
X199572270Y-119529151D01*
X199745192Y-119606142D01*
X199745197Y-119606144D01*
X199930354Y-119645500D01*
X199930355Y-119645500D01*
X200119644Y-119645500D01*
X200119646Y-119645500D01*
X200304803Y-119606144D01*
X200477730Y-119529151D01*
X200630871Y-119417888D01*
X200757533Y-119277216D01*
X200852179Y-119113284D01*
X200910674Y-118933256D01*
X200930460Y-118745000D01*
X200910674Y-118556744D01*
X200852179Y-118376716D01*
X200757533Y-118212784D01*
X200630871Y-118072112D01*
X200630870Y-118072111D01*
X200477734Y-117960851D01*
X200477729Y-117960848D01*
X200304807Y-117883857D01*
X200304802Y-117883855D01*
X200159001Y-117852865D01*
X200119646Y-117844500D01*
X199930354Y-117844500D01*
X199897897Y-117851398D01*
X199745197Y-117883855D01*
X199745192Y-117883857D01*
X199572270Y-117960848D01*
X199572265Y-117960851D01*
X199419129Y-118072111D01*
X199292466Y-118212785D01*
X199197821Y-118376715D01*
X199197818Y-118376722D01*
X199164819Y-118478284D01*
X199139326Y-118556744D01*
X199119540Y-118745000D01*
X189869986Y-118745000D01*
X189962533Y-118642216D01*
X190057179Y-118478284D01*
X190115674Y-118298256D01*
X190135460Y-118110000D01*
X190115674Y-117921744D01*
X190057179Y-117741716D01*
X189962533Y-117577784D01*
X189842973Y-117445000D01*
X206709540Y-117445000D01*
X206729326Y-117633256D01*
X206729327Y-117633259D01*
X206787818Y-117813277D01*
X206787821Y-117813284D01*
X206882467Y-117977216D01*
X206967911Y-118072111D01*
X207009129Y-118117888D01*
X207162265Y-118229148D01*
X207162270Y-118229151D01*
X207335192Y-118306142D01*
X207335197Y-118306144D01*
X207520354Y-118345500D01*
X207520355Y-118345500D01*
X207709644Y-118345500D01*
X207709646Y-118345500D01*
X207894803Y-118306144D01*
X208067730Y-118229151D01*
X208220871Y-118117888D01*
X208347533Y-117977216D01*
X208442179Y-117813284D01*
X208500674Y-117633256D01*
X208520460Y-117445000D01*
X208500674Y-117256744D01*
X208442179Y-117076716D01*
X208347533Y-116912784D01*
X208220871Y-116772112D01*
X208220870Y-116772111D01*
X208067734Y-116660851D01*
X208067729Y-116660848D01*
X207894807Y-116583857D01*
X207894802Y-116583855D01*
X207749001Y-116552865D01*
X207709646Y-116544500D01*
X207520354Y-116544500D01*
X207487897Y-116551398D01*
X207335197Y-116583855D01*
X207335192Y-116583857D01*
X207162270Y-116660848D01*
X207162265Y-116660851D01*
X207009129Y-116772111D01*
X206882466Y-116912785D01*
X206787821Y-117076715D01*
X206787818Y-117076722D01*
X206729327Y-117256740D01*
X206729326Y-117256744D01*
X206709540Y-117445000D01*
X189842973Y-117445000D01*
X189835871Y-117437112D01*
X189755935Y-117379035D01*
X189682734Y-117325851D01*
X189682729Y-117325848D01*
X189509807Y-117248857D01*
X189509802Y-117248855D01*
X189364001Y-117217865D01*
X189324646Y-117209500D01*
X189135354Y-117209500D01*
X189102897Y-117216398D01*
X188950197Y-117248855D01*
X188950192Y-117248857D01*
X188777270Y-117325848D01*
X188777265Y-117325851D01*
X188624129Y-117437111D01*
X188497466Y-117577785D01*
X188402821Y-117741715D01*
X188402818Y-117741722D01*
X188356636Y-117883857D01*
X188344326Y-117921744D01*
X188324540Y-118110000D01*
X177804986Y-118110000D01*
X177897533Y-118007216D01*
X177992179Y-117843284D01*
X178050674Y-117663256D01*
X178070460Y-117475000D01*
X178050674Y-117286744D01*
X177992179Y-117106716D01*
X177897533Y-116942784D01*
X177770871Y-116802112D01*
X177770870Y-116802111D01*
X177617734Y-116690851D01*
X177617729Y-116690848D01*
X177444807Y-116613857D01*
X177444802Y-116613855D01*
X177299001Y-116582865D01*
X177259646Y-116574500D01*
X177070354Y-116574500D01*
X177037897Y-116581398D01*
X176885197Y-116613855D01*
X176885192Y-116613857D01*
X176712270Y-116690848D01*
X176712265Y-116690851D01*
X176559129Y-116802111D01*
X176432466Y-116942785D01*
X176337821Y-117106715D01*
X176337818Y-117106722D01*
X176279327Y-117286740D01*
X176279326Y-117286744D01*
X176259540Y-117475000D01*
X157315846Y-117475000D01*
X157522578Y-117378600D01*
X157522582Y-117378598D01*
X157606373Y-117319926D01*
X157606373Y-117319925D01*
X156974409Y-116687962D01*
X157037993Y-116670925D01*
X157152007Y-116605099D01*
X157245099Y-116512007D01*
X157310925Y-116397993D01*
X157327962Y-116334410D01*
X157959925Y-116966373D01*
X157959926Y-116966373D01*
X158018598Y-116882582D01*
X158018600Y-116882578D01*
X158118429Y-116668492D01*
X158118433Y-116668483D01*
X158179567Y-116440326D01*
X158179569Y-116440315D01*
X158200157Y-116205001D01*
X158200157Y-116204998D01*
X158179569Y-115969684D01*
X158179567Y-115969673D01*
X158118433Y-115741516D01*
X158118429Y-115741507D01*
X158018600Y-115527423D01*
X158018599Y-115527421D01*
X157959925Y-115443626D01*
X157959925Y-115443625D01*
X157327962Y-116075589D01*
X157310925Y-116012007D01*
X157245099Y-115897993D01*
X157152007Y-115804901D01*
X157037993Y-115739075D01*
X156974410Y-115722037D01*
X157644629Y-115051818D01*
X157705952Y-115018333D01*
X157732309Y-115015499D01*
X157742872Y-115015499D01*
X157802483Y-115009091D01*
X157937331Y-114958796D01*
X158052546Y-114872546D01*
X158138796Y-114757331D01*
X158189091Y-114622483D01*
X158195500Y-114562873D01*
X158195499Y-112767128D01*
X158189091Y-112707517D01*
X158187810Y-112704083D01*
X158138797Y-112572671D01*
X158138793Y-112572664D01*
X158052547Y-112457455D01*
X158052544Y-112457452D01*
X157937335Y-112371206D01*
X157937328Y-112371202D01*
X157802482Y-112320908D01*
X157802483Y-112320908D01*
X157742883Y-112314501D01*
X157742881Y-112314500D01*
X157742873Y-112314500D01*
X157742864Y-112314500D01*
X155947129Y-112314500D01*
X155947123Y-112314501D01*
X155887516Y-112320908D01*
X155752671Y-112371202D01*
X155752664Y-112371206D01*
X155637455Y-112457452D01*
X155637452Y-112457455D01*
X155551206Y-112572664D01*
X155551203Y-112572669D01*
X155502189Y-112704083D01*
X155460317Y-112760016D01*
X155394853Y-112784433D01*
X155326580Y-112769581D01*
X155298326Y-112748430D01*
X155176402Y-112626506D01*
X155176395Y-112626501D01*
X154982834Y-112490967D01*
X154982830Y-112490965D01*
X154982828Y-112490964D01*
X154768663Y-112391097D01*
X154768659Y-112391096D01*
X154768655Y-112391094D01*
X154540413Y-112329938D01*
X154540403Y-112329936D01*
X154305001Y-112309341D01*
X154304999Y-112309341D01*
X154069596Y-112329936D01*
X154069586Y-112329938D01*
X153841344Y-112391094D01*
X153841335Y-112391098D01*
X153627171Y-112490964D01*
X153627169Y-112490965D01*
X153433597Y-112626505D01*
X153266505Y-112793597D01*
X153136575Y-112979158D01*
X153081998Y-113022783D01*
X153012500Y-113029977D01*
X152950145Y-112998454D01*
X152933425Y-112979158D01*
X152803494Y-112793597D01*
X152636402Y-112626506D01*
X152636395Y-112626501D01*
X152442834Y-112490967D01*
X152442830Y-112490965D01*
X152442828Y-112490964D01*
X152228663Y-112391097D01*
X152228659Y-112391096D01*
X152228655Y-112391094D01*
X152000413Y-112329938D01*
X152000403Y-112329936D01*
X151765001Y-112309341D01*
X151764999Y-112309341D01*
X151529596Y-112329936D01*
X151529586Y-112329938D01*
X151301344Y-112391094D01*
X151301335Y-112391098D01*
X151087171Y-112490964D01*
X151087169Y-112490965D01*
X150893597Y-112626505D01*
X150726505Y-112793597D01*
X150596575Y-112979158D01*
X150541998Y-113022783D01*
X150472500Y-113029977D01*
X150410145Y-112998454D01*
X150393425Y-112979158D01*
X150263494Y-112793597D01*
X150096402Y-112626506D01*
X150096395Y-112626501D01*
X149902834Y-112490967D01*
X149902830Y-112490965D01*
X149902828Y-112490964D01*
X149688663Y-112391097D01*
X149688659Y-112391096D01*
X149688655Y-112391094D01*
X149460413Y-112329938D01*
X149460403Y-112329936D01*
X149225001Y-112309341D01*
X149224999Y-112309341D01*
X148989596Y-112329936D01*
X148989586Y-112329938D01*
X148761344Y-112391094D01*
X148761335Y-112391098D01*
X148547171Y-112490964D01*
X148547169Y-112490965D01*
X148353597Y-112626505D01*
X148186505Y-112793597D01*
X148050965Y-112987169D01*
X148050964Y-112987171D01*
X147951098Y-113201335D01*
X147951094Y-113201344D01*
X147889938Y-113429586D01*
X147889936Y-113429596D01*
X147869341Y-113664999D01*
X147869341Y-113665000D01*
X147889936Y-113900403D01*
X147889938Y-113900413D01*
X147951094Y-114128655D01*
X147951096Y-114128659D01*
X147951097Y-114128663D01*
X147955000Y-114137032D01*
X148050965Y-114342830D01*
X148050967Y-114342834D01*
X148125412Y-114449151D01*
X148186501Y-114536396D01*
X148186506Y-114536402D01*
X148353597Y-114703493D01*
X148353603Y-114703498D01*
X148539158Y-114833425D01*
X148582783Y-114888002D01*
X148589977Y-114957500D01*
X148558454Y-115019855D01*
X148539158Y-115036575D01*
X148353597Y-115166505D01*
X148186505Y-115333597D01*
X148050965Y-115527169D01*
X148050964Y-115527171D01*
X147951098Y-115741335D01*
X147951094Y-115741344D01*
X147889938Y-115969586D01*
X147889936Y-115969596D01*
X147869341Y-116204999D01*
X147869341Y-116205000D01*
X142240000Y-116205000D01*
X142240000Y-110495000D01*
X161204341Y-110495000D01*
X161224936Y-110730403D01*
X161224938Y-110730413D01*
X161286094Y-110958655D01*
X161286096Y-110958659D01*
X161286097Y-110958663D01*
X161385847Y-111172578D01*
X161385965Y-111172830D01*
X161385967Y-111172834D01*
X161447305Y-111260433D01*
X161521501Y-111366396D01*
X161521506Y-111366402D01*
X161643430Y-111488326D01*
X161676915Y-111549649D01*
X161671931Y-111619341D01*
X161630059Y-111675274D01*
X161599083Y-111692189D01*
X161467669Y-111741203D01*
X161467664Y-111741206D01*
X161352455Y-111827452D01*
X161352452Y-111827455D01*
X161266206Y-111942664D01*
X161266202Y-111942671D01*
X161215908Y-112077517D01*
X161209501Y-112137116D01*
X161209501Y-112137123D01*
X161209500Y-112137135D01*
X161209500Y-113932870D01*
X161209501Y-113932876D01*
X161215908Y-113992483D01*
X161266202Y-114127328D01*
X161266206Y-114127335D01*
X161352452Y-114242544D01*
X161352455Y-114242547D01*
X161467664Y-114328793D01*
X161467671Y-114328797D01*
X161602517Y-114379091D01*
X161602516Y-114379091D01*
X161609444Y-114379835D01*
X161662127Y-114385500D01*
X163457872Y-114385499D01*
X163517483Y-114379091D01*
X163652331Y-114328796D01*
X163767546Y-114242546D01*
X163853796Y-114127331D01*
X163904091Y-113992483D01*
X163910500Y-113932873D01*
X163910499Y-112137128D01*
X163904091Y-112077517D01*
X163874132Y-111997194D01*
X163853797Y-111942671D01*
X163853793Y-111942664D01*
X163767547Y-111827455D01*
X163767544Y-111827452D01*
X163652335Y-111741206D01*
X163652328Y-111741202D01*
X163520917Y-111692189D01*
X163464983Y-111650318D01*
X163440566Y-111584853D01*
X163455418Y-111516580D01*
X163476563Y-111488332D01*
X163598495Y-111366401D01*
X163734035Y-111172830D01*
X163833903Y-110958663D01*
X163895063Y-110730408D01*
X163915659Y-110495000D01*
X166284341Y-110495000D01*
X166304936Y-110730403D01*
X166304938Y-110730413D01*
X166366094Y-110958655D01*
X166366096Y-110958659D01*
X166366097Y-110958663D01*
X166465847Y-111172578D01*
X166465965Y-111172830D01*
X166465967Y-111172834D01*
X166527305Y-111260433D01*
X166601501Y-111366396D01*
X166601506Y-111366402D01*
X166723430Y-111488326D01*
X166756915Y-111549649D01*
X166751931Y-111619341D01*
X166710059Y-111675274D01*
X166679083Y-111692189D01*
X166547669Y-111741203D01*
X166547664Y-111741206D01*
X166432455Y-111827452D01*
X166432452Y-111827455D01*
X166346206Y-111942664D01*
X166346202Y-111942671D01*
X166295908Y-112077517D01*
X166289501Y-112137116D01*
X166289501Y-112137123D01*
X166289500Y-112137135D01*
X166289500Y-113932870D01*
X166289501Y-113932876D01*
X166295908Y-113992483D01*
X166346202Y-114127328D01*
X166346206Y-114127335D01*
X166432452Y-114242544D01*
X166432455Y-114242547D01*
X166547664Y-114328793D01*
X166547671Y-114328797D01*
X166682517Y-114379091D01*
X166682516Y-114379091D01*
X166689444Y-114379835D01*
X166742127Y-114385500D01*
X168537872Y-114385499D01*
X168597483Y-114379091D01*
X168732331Y-114328796D01*
X168847546Y-114242546D01*
X168933796Y-114127331D01*
X168984091Y-113992483D01*
X168990500Y-113932873D01*
X168990499Y-112137128D01*
X168984091Y-112077517D01*
X168954132Y-111997194D01*
X168933797Y-111942671D01*
X168933793Y-111942664D01*
X168847547Y-111827455D01*
X168847544Y-111827452D01*
X168732335Y-111741206D01*
X168732328Y-111741202D01*
X168600917Y-111692189D01*
X168544983Y-111650318D01*
X168520566Y-111584853D01*
X168535418Y-111516580D01*
X168556563Y-111488332D01*
X168678495Y-111366401D01*
X168814035Y-111172830D01*
X168913903Y-110958663D01*
X168975063Y-110730408D01*
X168995659Y-110495000D01*
X170094341Y-110495000D01*
X170114936Y-110730403D01*
X170114938Y-110730413D01*
X170176094Y-110958655D01*
X170176096Y-110958659D01*
X170176097Y-110958663D01*
X170275847Y-111172578D01*
X170275965Y-111172830D01*
X170275967Y-111172834D01*
X170337305Y-111260433D01*
X170411501Y-111366396D01*
X170411506Y-111366402D01*
X170533430Y-111488326D01*
X170566915Y-111549649D01*
X170561931Y-111619341D01*
X170520059Y-111675274D01*
X170489083Y-111692189D01*
X170357669Y-111741203D01*
X170357664Y-111741206D01*
X170242455Y-111827452D01*
X170242452Y-111827455D01*
X170156206Y-111942664D01*
X170156202Y-111942671D01*
X170105908Y-112077517D01*
X170099501Y-112137116D01*
X170099501Y-112137123D01*
X170099500Y-112137135D01*
X170099500Y-113932870D01*
X170099501Y-113932876D01*
X170105908Y-113992483D01*
X170156202Y-114127328D01*
X170156206Y-114127335D01*
X170242452Y-114242544D01*
X170242455Y-114242547D01*
X170357664Y-114328793D01*
X170357671Y-114328797D01*
X170492517Y-114379091D01*
X170492516Y-114379091D01*
X170499444Y-114379835D01*
X170552127Y-114385500D01*
X172347872Y-114385499D01*
X172407483Y-114379091D01*
X172542331Y-114328796D01*
X172657546Y-114242546D01*
X172743796Y-114127331D01*
X172794091Y-113992483D01*
X172800500Y-113932873D01*
X172800500Y-113932870D01*
X175179500Y-113932870D01*
X175179501Y-113932876D01*
X175185908Y-113992483D01*
X175236202Y-114127328D01*
X175236206Y-114127335D01*
X175322452Y-114242544D01*
X175322455Y-114242547D01*
X175437664Y-114328793D01*
X175437671Y-114328797D01*
X175572517Y-114379091D01*
X175572516Y-114379091D01*
X175579444Y-114379835D01*
X175632127Y-114385500D01*
X177427872Y-114385499D01*
X177487483Y-114379091D01*
X177622331Y-114328796D01*
X177737546Y-114242546D01*
X177823796Y-114127331D01*
X177874091Y-113992483D01*
X177880500Y-113932873D01*
X177880500Y-113932870D01*
X178989500Y-113932870D01*
X178989501Y-113932876D01*
X178995908Y-113992483D01*
X179046202Y-114127328D01*
X179046206Y-114127335D01*
X179132452Y-114242544D01*
X179132455Y-114242547D01*
X179247664Y-114328793D01*
X179247671Y-114328797D01*
X179382517Y-114379091D01*
X179382516Y-114379091D01*
X179389444Y-114379835D01*
X179442127Y-114385500D01*
X181237872Y-114385499D01*
X181297483Y-114379091D01*
X181432331Y-114328796D01*
X181547546Y-114242546D01*
X181633796Y-114127331D01*
X181684091Y-113992483D01*
X181690500Y-113932873D01*
X181690500Y-113665000D01*
X183244540Y-113665000D01*
X183264326Y-113853256D01*
X183264327Y-113853259D01*
X183322818Y-114033277D01*
X183322821Y-114033284D01*
X183417467Y-114197216D01*
X183510035Y-114300023D01*
X183544129Y-114337888D01*
X183697265Y-114449148D01*
X183697270Y-114449151D01*
X183870192Y-114526142D01*
X183870197Y-114526144D01*
X184055354Y-114565500D01*
X184055355Y-114565500D01*
X184244644Y-114565500D01*
X184244646Y-114565500D01*
X184429803Y-114526144D01*
X184602730Y-114449151D01*
X184755871Y-114337888D01*
X184882533Y-114197216D01*
X184977179Y-114033284D01*
X185035674Y-113853256D01*
X185055460Y-113665000D01*
X188959540Y-113665000D01*
X188979326Y-113853256D01*
X188979327Y-113853259D01*
X189037818Y-114033277D01*
X189037821Y-114033284D01*
X189132467Y-114197216D01*
X189225035Y-114300023D01*
X189259129Y-114337888D01*
X189412265Y-114449148D01*
X189412270Y-114449151D01*
X189585192Y-114526142D01*
X189585197Y-114526144D01*
X189770354Y-114565500D01*
X189770355Y-114565500D01*
X189959644Y-114565500D01*
X189959646Y-114565500D01*
X190144803Y-114526144D01*
X190317730Y-114449151D01*
X190470871Y-114337888D01*
X190597533Y-114197216D01*
X190692179Y-114033284D01*
X190750674Y-113853256D01*
X190770460Y-113665000D01*
X195309540Y-113665000D01*
X195329326Y-113853256D01*
X195329327Y-113853259D01*
X195387818Y-114033277D01*
X195387821Y-114033284D01*
X195482467Y-114197216D01*
X195575035Y-114300023D01*
X195609129Y-114337888D01*
X195762265Y-114449148D01*
X195762270Y-114449151D01*
X195935192Y-114526142D01*
X195935197Y-114526144D01*
X196120354Y-114565500D01*
X196120355Y-114565500D01*
X196309644Y-114565500D01*
X196309646Y-114565500D01*
X196494803Y-114526144D01*
X196667730Y-114449151D01*
X196820871Y-114337888D01*
X196947533Y-114197216D01*
X197042179Y-114033284D01*
X197100674Y-113853256D01*
X197120460Y-113665000D01*
X201659540Y-113665000D01*
X201679326Y-113853256D01*
X201679327Y-113853259D01*
X201737818Y-114033277D01*
X201737821Y-114033284D01*
X201832467Y-114197216D01*
X201925035Y-114300023D01*
X201959129Y-114337888D01*
X202112265Y-114449148D01*
X202112270Y-114449151D01*
X202285192Y-114526142D01*
X202285197Y-114526144D01*
X202470354Y-114565500D01*
X202470355Y-114565500D01*
X202659644Y-114565500D01*
X202659646Y-114565500D01*
X202844803Y-114526144D01*
X203017730Y-114449151D01*
X203170871Y-114337888D01*
X203297533Y-114197216D01*
X203392179Y-114033284D01*
X203450674Y-113853256D01*
X203470460Y-113665000D01*
X203450674Y-113476744D01*
X203392179Y-113296716D01*
X203297533Y-113132784D01*
X203170871Y-112992112D01*
X203170870Y-112992111D01*
X203017734Y-112880851D01*
X203017729Y-112880848D01*
X202844807Y-112803857D01*
X202844802Y-112803855D01*
X202683550Y-112769581D01*
X202659646Y-112764500D01*
X202470354Y-112764500D01*
X202446450Y-112769581D01*
X202285197Y-112803855D01*
X202285192Y-112803857D01*
X202112270Y-112880848D01*
X202112265Y-112880851D01*
X201959129Y-112992111D01*
X201832466Y-113132785D01*
X201737821Y-113296715D01*
X201737818Y-113296722D01*
X201694645Y-113429596D01*
X201679326Y-113476744D01*
X201659540Y-113665000D01*
X197120460Y-113665000D01*
X197100674Y-113476744D01*
X197042179Y-113296716D01*
X196947533Y-113132784D01*
X196820871Y-112992112D01*
X196820870Y-112992111D01*
X196667734Y-112880851D01*
X196667729Y-112880848D01*
X196494807Y-112803857D01*
X196494802Y-112803855D01*
X196333550Y-112769581D01*
X196309646Y-112764500D01*
X196120354Y-112764500D01*
X196096450Y-112769581D01*
X195935197Y-112803855D01*
X195935192Y-112803857D01*
X195762270Y-112880848D01*
X195762265Y-112880851D01*
X195609129Y-112992111D01*
X195482466Y-113132785D01*
X195387821Y-113296715D01*
X195387818Y-113296722D01*
X195344645Y-113429596D01*
X195329326Y-113476744D01*
X195309540Y-113665000D01*
X190770460Y-113665000D01*
X190750674Y-113476744D01*
X190692179Y-113296716D01*
X190597533Y-113132784D01*
X190470871Y-112992112D01*
X190470870Y-112992111D01*
X190317734Y-112880851D01*
X190317729Y-112880848D01*
X190144807Y-112803857D01*
X190144802Y-112803855D01*
X189983550Y-112769581D01*
X189959646Y-112764500D01*
X189770354Y-112764500D01*
X189746450Y-112769581D01*
X189585197Y-112803855D01*
X189585192Y-112803857D01*
X189412270Y-112880848D01*
X189412265Y-112880851D01*
X189259129Y-112992111D01*
X189132466Y-113132785D01*
X189037821Y-113296715D01*
X189037818Y-113296722D01*
X188994645Y-113429596D01*
X188979326Y-113476744D01*
X188959540Y-113665000D01*
X185055460Y-113665000D01*
X185035674Y-113476744D01*
X184977179Y-113296716D01*
X184882533Y-113132784D01*
X184755871Y-112992112D01*
X184755870Y-112992111D01*
X184602734Y-112880851D01*
X184602729Y-112880848D01*
X184429807Y-112803857D01*
X184429802Y-112803855D01*
X184268550Y-112769581D01*
X184244646Y-112764500D01*
X184055354Y-112764500D01*
X184031450Y-112769581D01*
X183870197Y-112803855D01*
X183870192Y-112803857D01*
X183697270Y-112880848D01*
X183697265Y-112880851D01*
X183544129Y-112992111D01*
X183417466Y-113132785D01*
X183322821Y-113296715D01*
X183322818Y-113296722D01*
X183279645Y-113429596D01*
X183264326Y-113476744D01*
X183244540Y-113665000D01*
X181690500Y-113665000D01*
X181690499Y-112137128D01*
X181684091Y-112077517D01*
X181654132Y-111997194D01*
X181633797Y-111942671D01*
X181633793Y-111942664D01*
X181547547Y-111827455D01*
X181547544Y-111827452D01*
X181432335Y-111741206D01*
X181432328Y-111741202D01*
X181300401Y-111691997D01*
X181244467Y-111650126D01*
X181220050Y-111584662D01*
X181234902Y-111516389D01*
X181256053Y-111488133D01*
X181378108Y-111366078D01*
X181513600Y-111172578D01*
X181613429Y-110958492D01*
X181613432Y-110958486D01*
X181670636Y-110745000D01*
X180773012Y-110745000D01*
X180805925Y-110687993D01*
X180840000Y-110560826D01*
X180840000Y-110490000D01*
X208384422Y-110490000D01*
X208404722Y-110877339D01*
X208417603Y-110958664D01*
X208465398Y-111260433D01*
X208561515Y-111619149D01*
X208565788Y-111635094D01*
X208704787Y-111997197D01*
X208880877Y-112342793D01*
X209092122Y-112668082D01*
X209193762Y-112793597D01*
X209336219Y-112969516D01*
X209610484Y-113243781D01*
X209610488Y-113243784D01*
X209911917Y-113487877D01*
X210184663Y-113665000D01*
X210237211Y-113699125D01*
X210582806Y-113875214D01*
X210944913Y-114014214D01*
X211319567Y-114114602D01*
X211702662Y-114175278D01*
X212068576Y-114194455D01*
X212089999Y-114195578D01*
X212090000Y-114195578D01*
X212090001Y-114195578D01*
X212110301Y-114194514D01*
X212477338Y-114175278D01*
X212860433Y-114114602D01*
X213235087Y-114014214D01*
X213597194Y-113875214D01*
X213942789Y-113699125D01*
X214268084Y-113487876D01*
X214569516Y-113243781D01*
X214843781Y-112969516D01*
X215087876Y-112668084D01*
X215299125Y-112342789D01*
X215475214Y-111997194D01*
X215614214Y-111635087D01*
X215714602Y-111260433D01*
X215775278Y-110877338D01*
X215795578Y-110490000D01*
X215775278Y-110102662D01*
X215714602Y-109719567D01*
X215614214Y-109344913D01*
X215475214Y-108982806D01*
X215299125Y-108637211D01*
X215087876Y-108311916D01*
X214843781Y-108010484D01*
X214569516Y-107736219D01*
X214268084Y-107492124D01*
X214268082Y-107492122D01*
X213942793Y-107280877D01*
X213597197Y-107104787D01*
X213235094Y-106965788D01*
X213235087Y-106965786D01*
X212860433Y-106865398D01*
X212860429Y-106865397D01*
X212860428Y-106865397D01*
X212477339Y-106804722D01*
X212090001Y-106784422D01*
X212089999Y-106784422D01*
X211702660Y-106804722D01*
X211319572Y-106865397D01*
X211319570Y-106865397D01*
X210944905Y-106965788D01*
X210582802Y-107104787D01*
X210237206Y-107280877D01*
X209911917Y-107492122D01*
X209610488Y-107736215D01*
X209610480Y-107736222D01*
X209336222Y-108010480D01*
X209336215Y-108010488D01*
X209092122Y-108311917D01*
X208880877Y-108637206D01*
X208704787Y-108982802D01*
X208565788Y-109344905D01*
X208465397Y-109719570D01*
X208465397Y-109719572D01*
X208404722Y-110102660D01*
X208384422Y-110489999D01*
X208384422Y-110490000D01*
X180840000Y-110490000D01*
X180840000Y-110429174D01*
X180805925Y-110302007D01*
X180773012Y-110245000D01*
X181670636Y-110245000D01*
X181670635Y-110244999D01*
X181613432Y-110031513D01*
X181613429Y-110031507D01*
X181513600Y-109817422D01*
X181513599Y-109817420D01*
X181378113Y-109623926D01*
X181378108Y-109623920D01*
X181211082Y-109456894D01*
X181017578Y-109321399D01*
X180803492Y-109221570D01*
X180803486Y-109221567D01*
X180590000Y-109164364D01*
X180590000Y-110061988D01*
X180532993Y-110029075D01*
X180405826Y-109995000D01*
X180274174Y-109995000D01*
X180147007Y-110029075D01*
X180090000Y-110061988D01*
X180090000Y-109164364D01*
X180089999Y-109164364D01*
X179876513Y-109221567D01*
X179876507Y-109221570D01*
X179662422Y-109321399D01*
X179662420Y-109321400D01*
X179468926Y-109456886D01*
X179468920Y-109456891D01*
X179301891Y-109623920D01*
X179301886Y-109623926D01*
X179166400Y-109817420D01*
X179166399Y-109817422D01*
X179066570Y-110031507D01*
X179066567Y-110031513D01*
X179009364Y-110244999D01*
X179009364Y-110245000D01*
X179906988Y-110245000D01*
X179874075Y-110302007D01*
X179840000Y-110429174D01*
X179840000Y-110560826D01*
X179874075Y-110687993D01*
X179906988Y-110745000D01*
X179009364Y-110745000D01*
X179066567Y-110958486D01*
X179066570Y-110958492D01*
X179166399Y-111172578D01*
X179301894Y-111366082D01*
X179423946Y-111488134D01*
X179457431Y-111549457D01*
X179452447Y-111619149D01*
X179410575Y-111675082D01*
X179379598Y-111691997D01*
X179247671Y-111741202D01*
X179247664Y-111741206D01*
X179132455Y-111827452D01*
X179132452Y-111827455D01*
X179046206Y-111942664D01*
X179046202Y-111942671D01*
X178995908Y-112077517D01*
X178989501Y-112137116D01*
X178989501Y-112137123D01*
X178989500Y-112137135D01*
X178989500Y-113932870D01*
X177880500Y-113932870D01*
X177880499Y-112137128D01*
X177874091Y-112077517D01*
X177844132Y-111997194D01*
X177823797Y-111942671D01*
X177823793Y-111942664D01*
X177737547Y-111827455D01*
X177737544Y-111827452D01*
X177622335Y-111741206D01*
X177622328Y-111741202D01*
X177490401Y-111691997D01*
X177434467Y-111650126D01*
X177410050Y-111584662D01*
X177424902Y-111516389D01*
X177446053Y-111488133D01*
X177568108Y-111366078D01*
X177703600Y-111172578D01*
X177803429Y-110958492D01*
X177803432Y-110958486D01*
X177860636Y-110745000D01*
X176963012Y-110745000D01*
X176995925Y-110687993D01*
X177030000Y-110560826D01*
X177030000Y-110429174D01*
X176995925Y-110302007D01*
X176963012Y-110245000D01*
X177860636Y-110245000D01*
X177860635Y-110244999D01*
X177803432Y-110031513D01*
X177803429Y-110031507D01*
X177703600Y-109817422D01*
X177703599Y-109817420D01*
X177568113Y-109623926D01*
X177568108Y-109623920D01*
X177401082Y-109456894D01*
X177207578Y-109321399D01*
X176993492Y-109221570D01*
X176993486Y-109221567D01*
X176780000Y-109164364D01*
X176780000Y-110061988D01*
X176722993Y-110029075D01*
X176595826Y-109995000D01*
X176464174Y-109995000D01*
X176337007Y-110029075D01*
X176280000Y-110061988D01*
X176280000Y-109164364D01*
X176279999Y-109164364D01*
X176066513Y-109221567D01*
X176066507Y-109221570D01*
X175852422Y-109321399D01*
X175852420Y-109321400D01*
X175658926Y-109456886D01*
X175658920Y-109456891D01*
X175491891Y-109623920D01*
X175491886Y-109623926D01*
X175356400Y-109817420D01*
X175356399Y-109817422D01*
X175256570Y-110031507D01*
X175256567Y-110031513D01*
X175199364Y-110244999D01*
X175199364Y-110245000D01*
X176096988Y-110245000D01*
X176064075Y-110302007D01*
X176030000Y-110429174D01*
X176030000Y-110560826D01*
X176064075Y-110687993D01*
X176096988Y-110745000D01*
X175199364Y-110745000D01*
X175256567Y-110958486D01*
X175256570Y-110958492D01*
X175356399Y-111172578D01*
X175491894Y-111366082D01*
X175613946Y-111488134D01*
X175647431Y-111549457D01*
X175642447Y-111619149D01*
X175600575Y-111675082D01*
X175569598Y-111691997D01*
X175437671Y-111741202D01*
X175437664Y-111741206D01*
X175322455Y-111827452D01*
X175322452Y-111827455D01*
X175236206Y-111942664D01*
X175236202Y-111942671D01*
X175185908Y-112077517D01*
X175179501Y-112137116D01*
X175179501Y-112137123D01*
X175179500Y-112137135D01*
X175179500Y-113932870D01*
X172800500Y-113932870D01*
X172800499Y-112137128D01*
X172794091Y-112077517D01*
X172764132Y-111997194D01*
X172743797Y-111942671D01*
X172743793Y-111942664D01*
X172657547Y-111827455D01*
X172657544Y-111827452D01*
X172542335Y-111741206D01*
X172542328Y-111741202D01*
X172410917Y-111692189D01*
X172354983Y-111650318D01*
X172330566Y-111584853D01*
X172345418Y-111516580D01*
X172366563Y-111488332D01*
X172488495Y-111366401D01*
X172624035Y-111172830D01*
X172723903Y-110958663D01*
X172785063Y-110730408D01*
X172805659Y-110495000D01*
X172805221Y-110489999D01*
X172785063Y-110259596D01*
X172785063Y-110259592D01*
X172723903Y-110031337D01*
X172624035Y-109817171D01*
X172555695Y-109719570D01*
X172488494Y-109623597D01*
X172321402Y-109456506D01*
X172321395Y-109456501D01*
X172127834Y-109320967D01*
X172127830Y-109320965D01*
X172127828Y-109320964D01*
X171913663Y-109221097D01*
X171913659Y-109221096D01*
X171913655Y-109221094D01*
X171685413Y-109159938D01*
X171685403Y-109159936D01*
X171450001Y-109139341D01*
X171449999Y-109139341D01*
X171214596Y-109159936D01*
X171214586Y-109159938D01*
X170986344Y-109221094D01*
X170986335Y-109221098D01*
X170772171Y-109320964D01*
X170772169Y-109320965D01*
X170578597Y-109456505D01*
X170411505Y-109623597D01*
X170275965Y-109817169D01*
X170275964Y-109817171D01*
X170176098Y-110031335D01*
X170176094Y-110031344D01*
X170114938Y-110259586D01*
X170114936Y-110259596D01*
X170094341Y-110494999D01*
X170094341Y-110495000D01*
X168995659Y-110495000D01*
X168995221Y-110489999D01*
X168975063Y-110259596D01*
X168975063Y-110259592D01*
X168913903Y-110031337D01*
X168814035Y-109817171D01*
X168745695Y-109719570D01*
X168678494Y-109623597D01*
X168511402Y-109456506D01*
X168511395Y-109456501D01*
X168317834Y-109320967D01*
X168317830Y-109320965D01*
X168317828Y-109320964D01*
X168103663Y-109221097D01*
X168103659Y-109221096D01*
X168103655Y-109221094D01*
X167875413Y-109159938D01*
X167875403Y-109159936D01*
X167640001Y-109139341D01*
X167639999Y-109139341D01*
X167404596Y-109159936D01*
X167404586Y-109159938D01*
X167176344Y-109221094D01*
X167176335Y-109221098D01*
X166962171Y-109320964D01*
X166962169Y-109320965D01*
X166768597Y-109456505D01*
X166601505Y-109623597D01*
X166465965Y-109817169D01*
X166465964Y-109817171D01*
X166366098Y-110031335D01*
X166366094Y-110031344D01*
X166304938Y-110259586D01*
X166304936Y-110259596D01*
X166284341Y-110494999D01*
X166284341Y-110495000D01*
X163915659Y-110495000D01*
X163915221Y-110489999D01*
X163895063Y-110259596D01*
X163895063Y-110259592D01*
X163833903Y-110031337D01*
X163734035Y-109817171D01*
X163665695Y-109719570D01*
X163598494Y-109623597D01*
X163431402Y-109456506D01*
X163431395Y-109456501D01*
X163237834Y-109320967D01*
X163237830Y-109320965D01*
X163237828Y-109320964D01*
X163023663Y-109221097D01*
X163023659Y-109221096D01*
X163023655Y-109221094D01*
X162795413Y-109159938D01*
X162795403Y-109159936D01*
X162560001Y-109139341D01*
X162559999Y-109139341D01*
X162324596Y-109159936D01*
X162324586Y-109159938D01*
X162096344Y-109221094D01*
X162096335Y-109221098D01*
X161882171Y-109320964D01*
X161882169Y-109320965D01*
X161688597Y-109456505D01*
X161521505Y-109623597D01*
X161385965Y-109817169D01*
X161385964Y-109817171D01*
X161286098Y-110031335D01*
X161286094Y-110031344D01*
X161224938Y-110259586D01*
X161224936Y-110259596D01*
X161204341Y-110494999D01*
X161204341Y-110495000D01*
X142240000Y-110495000D01*
X142240000Y-103505000D01*
X166924341Y-103505000D01*
X166944936Y-103740403D01*
X166944938Y-103740413D01*
X167006094Y-103968655D01*
X167006096Y-103968659D01*
X167006097Y-103968663D01*
X167090499Y-104149663D01*
X167105965Y-104182830D01*
X167105967Y-104182834D01*
X167214281Y-104337521D01*
X167241505Y-104376401D01*
X167408599Y-104543495D01*
X167505384Y-104611265D01*
X167602165Y-104679032D01*
X167602167Y-104679033D01*
X167602170Y-104679035D01*
X167816337Y-104778903D01*
X168044592Y-104840063D01*
X168221034Y-104855500D01*
X168279999Y-104860659D01*
X168280000Y-104860659D01*
X168280001Y-104860659D01*
X168338966Y-104855500D01*
X168515408Y-104840063D01*
X168743663Y-104778903D01*
X168957830Y-104679035D01*
X169151401Y-104543495D01*
X169273329Y-104421566D01*
X169334648Y-104388084D01*
X169404340Y-104393068D01*
X169460274Y-104434939D01*
X169477189Y-104465917D01*
X169526202Y-104597328D01*
X169526206Y-104597335D01*
X169612452Y-104712544D01*
X169612455Y-104712547D01*
X169727664Y-104798793D01*
X169727671Y-104798797D01*
X169862517Y-104849091D01*
X169862516Y-104849091D01*
X169869444Y-104849835D01*
X169922127Y-104855500D01*
X171717872Y-104855499D01*
X171777483Y-104849091D01*
X171912331Y-104798796D01*
X172027546Y-104712546D01*
X172113796Y-104597331D01*
X172164091Y-104462483D01*
X172170500Y-104402873D01*
X172170499Y-102607128D01*
X172164091Y-102547517D01*
X172162810Y-102544083D01*
X172113797Y-102412671D01*
X172113793Y-102412664D01*
X172027547Y-102297455D01*
X172027544Y-102297452D01*
X171912335Y-102211206D01*
X171912328Y-102211202D01*
X171777482Y-102160908D01*
X171777483Y-102160908D01*
X171717883Y-102154501D01*
X171717881Y-102154500D01*
X171717873Y-102154500D01*
X171717864Y-102154500D01*
X169922129Y-102154500D01*
X169922123Y-102154501D01*
X169862516Y-102160908D01*
X169727671Y-102211202D01*
X169727664Y-102211206D01*
X169612455Y-102297452D01*
X169612452Y-102297455D01*
X169526206Y-102412664D01*
X169526203Y-102412669D01*
X169477189Y-102544083D01*
X169435317Y-102600016D01*
X169369853Y-102624433D01*
X169301580Y-102609581D01*
X169273326Y-102588430D01*
X169151402Y-102466506D01*
X169151395Y-102466501D01*
X168957834Y-102330967D01*
X168957830Y-102330965D01*
X168957828Y-102330964D01*
X168743663Y-102231097D01*
X168743659Y-102231096D01*
X168743655Y-102231094D01*
X168515413Y-102169938D01*
X168515403Y-102169936D01*
X168280001Y-102149341D01*
X168279999Y-102149341D01*
X168044596Y-102169936D01*
X168044586Y-102169938D01*
X167816344Y-102231094D01*
X167816335Y-102231098D01*
X167602171Y-102330964D01*
X167602169Y-102330965D01*
X167408597Y-102466505D01*
X167241505Y-102633597D01*
X167105965Y-102827169D01*
X167105964Y-102827171D01*
X167006098Y-103041335D01*
X167006094Y-103041344D01*
X166944938Y-103269586D01*
X166944936Y-103269596D01*
X166924341Y-103504999D01*
X166924341Y-103505000D01*
X142240000Y-103505000D01*
X142240000Y-99060000D01*
X209464341Y-99060000D01*
X209484936Y-99295403D01*
X209484938Y-99295413D01*
X209546094Y-99523655D01*
X209546096Y-99523659D01*
X209546097Y-99523663D01*
X209645965Y-99737830D01*
X209645967Y-99737834D01*
X209754281Y-99892521D01*
X209781505Y-99931401D01*
X209948599Y-100098495D01*
X210045384Y-100166265D01*
X210142165Y-100234032D01*
X210142167Y-100234033D01*
X210142170Y-100234035D01*
X210356337Y-100333903D01*
X210584592Y-100395063D01*
X210772918Y-100411539D01*
X210819999Y-100415659D01*
X210820000Y-100415659D01*
X210820001Y-100415659D01*
X210859234Y-100412226D01*
X211055408Y-100395063D01*
X211283663Y-100333903D01*
X211497830Y-100234035D01*
X211691401Y-100098495D01*
X211858495Y-99931401D01*
X211994035Y-99737830D01*
X212093903Y-99523663D01*
X212155063Y-99295408D01*
X212175659Y-99060000D01*
X212155063Y-98824592D01*
X212093903Y-98596337D01*
X211994035Y-98382171D01*
X211858495Y-98188599D01*
X211858494Y-98188597D01*
X211691402Y-98021506D01*
X211691396Y-98021501D01*
X211505842Y-97891575D01*
X211462217Y-97836998D01*
X211455023Y-97767500D01*
X211486546Y-97705145D01*
X211505842Y-97688425D01*
X211528026Y-97672891D01*
X211691401Y-97558495D01*
X211858495Y-97391401D01*
X211994035Y-97197830D01*
X212093903Y-96983663D01*
X212155063Y-96755408D01*
X212175659Y-96520000D01*
X212155063Y-96284592D01*
X212093903Y-96056337D01*
X211994035Y-95842171D01*
X211858495Y-95648599D01*
X211858494Y-95648597D01*
X211691402Y-95481506D01*
X211691396Y-95481501D01*
X211505842Y-95351575D01*
X211462217Y-95296998D01*
X211455023Y-95227500D01*
X211486546Y-95165145D01*
X211505842Y-95148425D01*
X211528026Y-95132891D01*
X211691401Y-95018495D01*
X211858495Y-94851401D01*
X211994035Y-94657830D01*
X212093903Y-94443663D01*
X212155063Y-94215408D01*
X212175659Y-93980000D01*
X212155063Y-93744592D01*
X212093903Y-93516337D01*
X211994035Y-93302171D01*
X211858495Y-93108599D01*
X211858494Y-93108597D01*
X211691402Y-92941506D01*
X211691396Y-92941501D01*
X211505842Y-92811575D01*
X211462217Y-92756998D01*
X211455023Y-92687500D01*
X211486546Y-92625145D01*
X211505842Y-92608425D01*
X211528026Y-92592891D01*
X211691401Y-92478495D01*
X211858495Y-92311401D01*
X211994035Y-92117830D01*
X212093903Y-91903663D01*
X212155063Y-91675408D01*
X212175659Y-91440000D01*
X212155063Y-91204592D01*
X212093903Y-90976337D01*
X211994035Y-90762171D01*
X211859194Y-90569596D01*
X211858494Y-90568597D01*
X211691402Y-90401506D01*
X211691396Y-90401501D01*
X211505842Y-90271575D01*
X211462217Y-90216998D01*
X211455023Y-90147500D01*
X211486546Y-90085145D01*
X211505842Y-90068425D01*
X211528026Y-90052891D01*
X211691401Y-89938495D01*
X211858495Y-89771401D01*
X211994035Y-89577830D01*
X212093903Y-89363663D01*
X212155063Y-89135408D01*
X212175659Y-88900000D01*
X212155063Y-88664592D01*
X212093903Y-88436337D01*
X211994035Y-88222171D01*
X211858495Y-88028599D01*
X211858494Y-88028597D01*
X211691402Y-87861506D01*
X211691396Y-87861501D01*
X211505842Y-87731575D01*
X211462217Y-87676998D01*
X211455023Y-87607500D01*
X211486546Y-87545145D01*
X211505842Y-87528425D01*
X211528026Y-87512891D01*
X211691401Y-87398495D01*
X211858495Y-87231401D01*
X211994035Y-87037830D01*
X212093903Y-86823663D01*
X212155063Y-86595408D01*
X212175659Y-86360000D01*
X212155063Y-86124592D01*
X212093903Y-85896337D01*
X211994035Y-85682171D01*
X211988257Y-85673918D01*
X211858494Y-85488597D01*
X211691402Y-85321506D01*
X211691396Y-85321501D01*
X211505842Y-85191575D01*
X211462217Y-85136998D01*
X211455023Y-85067500D01*
X211486546Y-85005145D01*
X211505842Y-84988425D01*
X211605472Y-84918663D01*
X211691401Y-84858495D01*
X211858495Y-84691401D01*
X211994035Y-84497830D01*
X212093903Y-84283663D01*
X212155063Y-84055408D01*
X212175659Y-83820000D01*
X212155063Y-83584592D01*
X212105696Y-83400351D01*
X212093905Y-83356344D01*
X212093904Y-83356343D01*
X212093903Y-83356337D01*
X211994035Y-83142171D01*
X211980295Y-83122547D01*
X211858494Y-82948597D01*
X211691402Y-82781506D01*
X211691401Y-82781505D01*
X211505405Y-82651269D01*
X211461781Y-82596692D01*
X211454588Y-82527193D01*
X211486110Y-82464839D01*
X211505405Y-82448119D01*
X211691082Y-82318105D01*
X211858105Y-82151082D01*
X211993600Y-81957578D01*
X212093429Y-81743492D01*
X212093432Y-81743486D01*
X212150636Y-81530000D01*
X211253012Y-81530000D01*
X211285925Y-81472993D01*
X211320000Y-81345826D01*
X211320000Y-81214174D01*
X211285925Y-81087007D01*
X211253012Y-81030000D01*
X212150636Y-81030000D01*
X212150635Y-81029999D01*
X212093432Y-80816513D01*
X212093429Y-80816507D01*
X211993600Y-80602422D01*
X211993599Y-80602420D01*
X211858113Y-80408926D01*
X211858108Y-80408920D01*
X211736053Y-80286865D01*
X211702568Y-80225542D01*
X211707552Y-80155850D01*
X211749424Y-80099917D01*
X211780400Y-80083002D01*
X211912331Y-80033796D01*
X212027546Y-79947546D01*
X212113796Y-79832331D01*
X212164091Y-79697483D01*
X212170500Y-79637873D01*
X212170499Y-77842128D01*
X212164091Y-77782517D01*
X212113796Y-77647669D01*
X212113795Y-77647668D01*
X212113793Y-77647664D01*
X212027547Y-77532455D01*
X212027544Y-77532452D01*
X211912335Y-77446206D01*
X211912328Y-77446202D01*
X211777482Y-77395908D01*
X211777483Y-77395908D01*
X211717883Y-77389501D01*
X211717881Y-77389500D01*
X211717873Y-77389500D01*
X211717864Y-77389500D01*
X209922129Y-77389500D01*
X209922123Y-77389501D01*
X209862516Y-77395908D01*
X209727671Y-77446202D01*
X209727664Y-77446206D01*
X209612455Y-77532452D01*
X209612452Y-77532455D01*
X209526206Y-77647664D01*
X209526202Y-77647671D01*
X209475908Y-77782517D01*
X209471051Y-77827702D01*
X209469501Y-77842123D01*
X209469500Y-77842135D01*
X209469500Y-79637870D01*
X209469501Y-79637876D01*
X209475908Y-79697483D01*
X209526202Y-79832328D01*
X209526206Y-79832335D01*
X209612452Y-79947544D01*
X209612455Y-79947547D01*
X209727664Y-80033793D01*
X209727671Y-80033797D01*
X209779552Y-80053147D01*
X209859598Y-80083002D01*
X209915531Y-80124873D01*
X209939949Y-80190337D01*
X209925098Y-80258610D01*
X209903947Y-80286865D01*
X209781886Y-80408926D01*
X209646400Y-80602420D01*
X209646399Y-80602422D01*
X209546570Y-80816507D01*
X209546567Y-80816513D01*
X209489364Y-81029999D01*
X209489364Y-81030000D01*
X210386988Y-81030000D01*
X210354075Y-81087007D01*
X210320000Y-81214174D01*
X210320000Y-81345826D01*
X210354075Y-81472993D01*
X210386988Y-81530000D01*
X209489364Y-81530000D01*
X209546567Y-81743486D01*
X209546570Y-81743492D01*
X209646399Y-81957578D01*
X209781894Y-82151082D01*
X209948917Y-82318105D01*
X210134595Y-82448119D01*
X210178219Y-82502696D01*
X210185412Y-82572195D01*
X210153890Y-82634549D01*
X210134595Y-82651269D01*
X209948594Y-82781508D01*
X209781505Y-82948597D01*
X209645965Y-83142169D01*
X209645964Y-83142171D01*
X209546098Y-83356335D01*
X209546094Y-83356344D01*
X209484938Y-83584586D01*
X209484936Y-83584596D01*
X209464341Y-83819999D01*
X209464341Y-83820000D01*
X209484936Y-84055403D01*
X209484938Y-84055413D01*
X209546094Y-84283655D01*
X209546096Y-84283659D01*
X209546097Y-84283663D01*
X209604399Y-84408691D01*
X209645965Y-84497830D01*
X209645967Y-84497834D01*
X209781501Y-84691395D01*
X209781506Y-84691402D01*
X209948597Y-84858493D01*
X209948603Y-84858498D01*
X210134158Y-84988425D01*
X210177783Y-85043002D01*
X210184977Y-85112500D01*
X210153454Y-85174855D01*
X210134158Y-85191575D01*
X209948597Y-85321505D01*
X209781505Y-85488597D01*
X209645965Y-85682169D01*
X209645964Y-85682171D01*
X209546098Y-85896335D01*
X209546094Y-85896344D01*
X209484938Y-86124586D01*
X209484936Y-86124596D01*
X209464341Y-86359999D01*
X209464341Y-86360000D01*
X209484936Y-86595403D01*
X209484938Y-86595413D01*
X209546094Y-86823655D01*
X209546096Y-86823659D01*
X209546097Y-86823663D01*
X209645965Y-87037830D01*
X209645967Y-87037834D01*
X209781501Y-87231395D01*
X209781506Y-87231402D01*
X209948597Y-87398493D01*
X209948603Y-87398498D01*
X210134158Y-87528425D01*
X210177783Y-87583002D01*
X210184977Y-87652500D01*
X210153454Y-87714855D01*
X210134158Y-87731575D01*
X209948597Y-87861505D01*
X209781505Y-88028597D01*
X209645965Y-88222169D01*
X209645964Y-88222171D01*
X209546098Y-88436335D01*
X209546094Y-88436344D01*
X209484938Y-88664586D01*
X209484936Y-88664596D01*
X209464341Y-88899999D01*
X209464341Y-88900000D01*
X209484936Y-89135403D01*
X209484938Y-89135413D01*
X209546094Y-89363655D01*
X209546096Y-89363659D01*
X209546097Y-89363663D01*
X209645965Y-89577830D01*
X209645967Y-89577834D01*
X209740377Y-89712664D01*
X209778077Y-89766506D01*
X209781501Y-89771395D01*
X209781506Y-89771402D01*
X209948597Y-89938493D01*
X209948603Y-89938498D01*
X210134158Y-90068425D01*
X210177783Y-90123002D01*
X210184977Y-90192500D01*
X210153454Y-90254855D01*
X210134158Y-90271575D01*
X209948597Y-90401505D01*
X209781505Y-90568597D01*
X209645965Y-90762169D01*
X209645964Y-90762171D01*
X209546098Y-90976335D01*
X209546094Y-90976344D01*
X209484938Y-91204586D01*
X209484936Y-91204596D01*
X209464341Y-91439999D01*
X209464341Y-91440000D01*
X209484936Y-91675403D01*
X209484938Y-91675413D01*
X209546094Y-91903655D01*
X209546096Y-91903659D01*
X209546097Y-91903663D01*
X209581244Y-91979035D01*
X209645965Y-92117830D01*
X209645967Y-92117834D01*
X209781501Y-92311395D01*
X209781506Y-92311402D01*
X209948597Y-92478493D01*
X209948603Y-92478498D01*
X210134158Y-92608425D01*
X210177783Y-92663002D01*
X210184977Y-92732500D01*
X210153454Y-92794855D01*
X210134158Y-92811575D01*
X209948597Y-92941505D01*
X209781505Y-93108597D01*
X209645965Y-93302169D01*
X209645964Y-93302171D01*
X209546098Y-93516335D01*
X209546094Y-93516344D01*
X209484938Y-93744586D01*
X209484936Y-93744596D01*
X209464341Y-93979999D01*
X209464341Y-93980000D01*
X209484936Y-94215403D01*
X209484938Y-94215413D01*
X209546094Y-94443655D01*
X209546096Y-94443659D01*
X209546097Y-94443663D01*
X209645965Y-94657830D01*
X209645967Y-94657834D01*
X209781501Y-94851395D01*
X209781506Y-94851402D01*
X209948597Y-95018493D01*
X209948603Y-95018498D01*
X210134158Y-95148425D01*
X210177783Y-95203002D01*
X210184977Y-95272500D01*
X210153454Y-95334855D01*
X210134158Y-95351575D01*
X209948597Y-95481505D01*
X209781505Y-95648597D01*
X209645965Y-95842169D01*
X209645964Y-95842171D01*
X209546098Y-96056335D01*
X209546094Y-96056344D01*
X209484938Y-96284586D01*
X209484936Y-96284596D01*
X209464341Y-96519999D01*
X209464341Y-96520000D01*
X209484936Y-96755403D01*
X209484938Y-96755413D01*
X209546094Y-96983655D01*
X209546096Y-96983659D01*
X209546097Y-96983663D01*
X209645965Y-97197830D01*
X209645967Y-97197834D01*
X209781501Y-97391395D01*
X209781506Y-97391402D01*
X209948597Y-97558493D01*
X209948603Y-97558498D01*
X210134158Y-97688425D01*
X210177783Y-97743002D01*
X210184977Y-97812500D01*
X210153454Y-97874855D01*
X210134158Y-97891575D01*
X209948597Y-98021505D01*
X209781505Y-98188597D01*
X209645965Y-98382169D01*
X209645964Y-98382171D01*
X209546098Y-98596335D01*
X209546094Y-98596344D01*
X209484938Y-98824586D01*
X209484936Y-98824596D01*
X209464341Y-99059999D01*
X209464341Y-99060000D01*
X142240000Y-99060000D01*
X142240000Y-90805000D01*
X142789341Y-90805000D01*
X142809936Y-91040403D01*
X142809938Y-91040413D01*
X142871094Y-91268655D01*
X142871096Y-91268659D01*
X142871097Y-91268663D01*
X142875000Y-91277032D01*
X142970965Y-91482830D01*
X142970967Y-91482834D01*
X143079281Y-91637521D01*
X143106505Y-91676401D01*
X143273599Y-91843495D01*
X143359516Y-91903655D01*
X143467165Y-91979032D01*
X143467167Y-91979033D01*
X143467170Y-91979035D01*
X143681337Y-92078903D01*
X143909592Y-92140063D01*
X144086034Y-92155500D01*
X144144999Y-92160659D01*
X144145000Y-92160659D01*
X144145001Y-92160659D01*
X144203966Y-92155500D01*
X144380408Y-92140063D01*
X144608663Y-92078903D01*
X144822830Y-91979035D01*
X145016401Y-91843495D01*
X145183495Y-91676401D01*
X145313425Y-91490842D01*
X145368002Y-91447217D01*
X145437500Y-91440023D01*
X145499855Y-91471546D01*
X145516575Y-91490842D01*
X145646500Y-91676395D01*
X145646505Y-91676401D01*
X145813599Y-91843495D01*
X145899516Y-91903655D01*
X146007165Y-91979032D01*
X146007167Y-91979033D01*
X146007170Y-91979035D01*
X146221337Y-92078903D01*
X146449592Y-92140063D01*
X146626034Y-92155500D01*
X146684999Y-92160659D01*
X146685000Y-92160659D01*
X146685001Y-92160659D01*
X146743966Y-92155500D01*
X146920408Y-92140063D01*
X147148663Y-92078903D01*
X147362830Y-91979035D01*
X147556401Y-91843495D01*
X147678329Y-91721566D01*
X147739648Y-91688084D01*
X147809340Y-91693068D01*
X147865274Y-91734939D01*
X147882189Y-91765917D01*
X147931202Y-91897328D01*
X147931206Y-91897335D01*
X148017452Y-92012544D01*
X148017455Y-92012547D01*
X148132664Y-92098793D01*
X148132671Y-92098797D01*
X148267517Y-92149091D01*
X148267516Y-92149091D01*
X148274444Y-92149835D01*
X148327127Y-92155500D01*
X150122872Y-92155499D01*
X150182483Y-92149091D01*
X150317331Y-92098796D01*
X150432546Y-92012546D01*
X150518796Y-91897331D01*
X150567810Y-91765916D01*
X150609681Y-91709984D01*
X150675145Y-91685566D01*
X150743418Y-91700417D01*
X150771673Y-91721569D01*
X150893599Y-91843495D01*
X150979516Y-91903655D01*
X151087165Y-91979032D01*
X151087167Y-91979033D01*
X151087170Y-91979035D01*
X151301337Y-92078903D01*
X151529592Y-92140063D01*
X151706034Y-92155500D01*
X151764999Y-92160659D01*
X151765000Y-92160659D01*
X151765001Y-92160659D01*
X151823966Y-92155500D01*
X152000408Y-92140063D01*
X152228663Y-92078903D01*
X152442830Y-91979035D01*
X152636401Y-91843495D01*
X152803495Y-91676401D01*
X152933425Y-91490842D01*
X152988002Y-91447217D01*
X153057500Y-91440023D01*
X153119855Y-91471546D01*
X153136575Y-91490842D01*
X153266500Y-91676395D01*
X153266505Y-91676401D01*
X153433599Y-91843495D01*
X153519516Y-91903655D01*
X153627165Y-91979032D01*
X153627167Y-91979033D01*
X153627170Y-91979035D01*
X153841337Y-92078903D01*
X154069592Y-92140063D01*
X154246034Y-92155500D01*
X154304999Y-92160659D01*
X154305000Y-92160659D01*
X154305001Y-92160659D01*
X154363966Y-92155500D01*
X154540408Y-92140063D01*
X154768663Y-92078903D01*
X154982830Y-91979035D01*
X155176401Y-91843495D01*
X155343495Y-91676401D01*
X155473425Y-91490842D01*
X155528002Y-91447217D01*
X155597500Y-91440023D01*
X155659855Y-91471546D01*
X155676575Y-91490842D01*
X155806500Y-91676395D01*
X155806505Y-91676401D01*
X155973599Y-91843495D01*
X156059516Y-91903655D01*
X156167165Y-91979032D01*
X156167167Y-91979033D01*
X156167170Y-91979035D01*
X156381337Y-92078903D01*
X156609592Y-92140063D01*
X156786034Y-92155500D01*
X156844999Y-92160659D01*
X156845000Y-92160659D01*
X156845001Y-92160659D01*
X156903966Y-92155500D01*
X157080408Y-92140063D01*
X157308663Y-92078903D01*
X157522830Y-91979035D01*
X157716401Y-91843495D01*
X157883495Y-91676401D01*
X158013425Y-91490842D01*
X158068002Y-91447217D01*
X158137500Y-91440023D01*
X158199855Y-91471546D01*
X158216575Y-91490842D01*
X158346500Y-91676395D01*
X158346505Y-91676401D01*
X158513599Y-91843495D01*
X158599516Y-91903655D01*
X158707165Y-91979032D01*
X158707167Y-91979033D01*
X158707170Y-91979035D01*
X158921337Y-92078903D01*
X159149592Y-92140063D01*
X159326034Y-92155500D01*
X159384999Y-92160659D01*
X159385000Y-92160659D01*
X159385001Y-92160659D01*
X159443966Y-92155500D01*
X159620408Y-92140063D01*
X159848663Y-92078903D01*
X160062830Y-91979035D01*
X160256401Y-91843495D01*
X160378329Y-91721566D01*
X160439648Y-91688084D01*
X160509340Y-91693068D01*
X160565274Y-91734939D01*
X160582189Y-91765917D01*
X160631202Y-91897328D01*
X160631206Y-91897335D01*
X160717452Y-92012544D01*
X160717455Y-92012547D01*
X160832664Y-92098793D01*
X160832671Y-92098797D01*
X160967517Y-92149091D01*
X160967516Y-92149091D01*
X160974444Y-92149835D01*
X161027127Y-92155500D01*
X162822872Y-92155499D01*
X162882483Y-92149091D01*
X163017331Y-92098796D01*
X163132546Y-92012546D01*
X163218796Y-91897331D01*
X163267810Y-91765916D01*
X163309681Y-91709984D01*
X163375145Y-91685566D01*
X163443418Y-91700417D01*
X163471673Y-91721569D01*
X163593599Y-91843495D01*
X163679516Y-91903655D01*
X163787165Y-91979032D01*
X163787167Y-91979033D01*
X163787170Y-91979035D01*
X164001337Y-92078903D01*
X164229592Y-92140063D01*
X164406034Y-92155500D01*
X164464999Y-92160659D01*
X164465000Y-92160659D01*
X164465001Y-92160659D01*
X164523966Y-92155500D01*
X164700408Y-92140063D01*
X164928663Y-92078903D01*
X165142830Y-91979035D01*
X165336401Y-91843495D01*
X165503495Y-91676401D01*
X165633425Y-91490842D01*
X165688002Y-91447217D01*
X165757500Y-91440023D01*
X165819855Y-91471546D01*
X165836575Y-91490842D01*
X165966500Y-91676395D01*
X165966505Y-91676401D01*
X166133599Y-91843495D01*
X166219516Y-91903655D01*
X166327165Y-91979032D01*
X166327167Y-91979033D01*
X166327170Y-91979035D01*
X166541337Y-92078903D01*
X166769592Y-92140063D01*
X166946034Y-92155500D01*
X167004999Y-92160659D01*
X167005000Y-92160659D01*
X167005001Y-92160659D01*
X167063966Y-92155500D01*
X167240408Y-92140063D01*
X167468663Y-92078903D01*
X167682830Y-91979035D01*
X167876401Y-91843495D01*
X168043495Y-91676401D01*
X168173425Y-91490842D01*
X168228002Y-91447217D01*
X168297500Y-91440023D01*
X168359855Y-91471546D01*
X168376575Y-91490842D01*
X168506500Y-91676395D01*
X168506505Y-91676401D01*
X168673599Y-91843495D01*
X168759516Y-91903655D01*
X168867165Y-91979032D01*
X168867167Y-91979033D01*
X168867170Y-91979035D01*
X169081337Y-92078903D01*
X169309592Y-92140063D01*
X169486034Y-92155500D01*
X169544999Y-92160659D01*
X169545000Y-92160659D01*
X169545001Y-92160659D01*
X169603966Y-92155500D01*
X169780408Y-92140063D01*
X170008663Y-92078903D01*
X170222830Y-91979035D01*
X170416401Y-91843495D01*
X170583495Y-91676401D01*
X170713425Y-91490842D01*
X170768002Y-91447217D01*
X170837500Y-91440023D01*
X170899855Y-91471546D01*
X170916575Y-91490842D01*
X171046500Y-91676395D01*
X171046505Y-91676401D01*
X171213599Y-91843495D01*
X171299516Y-91903655D01*
X171407165Y-91979032D01*
X171407167Y-91979033D01*
X171407170Y-91979035D01*
X171621337Y-92078903D01*
X171849592Y-92140063D01*
X172026034Y-92155500D01*
X172084999Y-92160659D01*
X172085000Y-92160659D01*
X172085001Y-92160659D01*
X172143966Y-92155500D01*
X172320408Y-92140063D01*
X172548663Y-92078903D01*
X172762830Y-91979035D01*
X172956401Y-91843495D01*
X173078329Y-91721566D01*
X173139648Y-91688084D01*
X173209340Y-91693068D01*
X173265274Y-91734939D01*
X173282189Y-91765917D01*
X173331202Y-91897328D01*
X173331206Y-91897335D01*
X173417452Y-92012544D01*
X173417455Y-92012547D01*
X173532664Y-92098793D01*
X173532671Y-92098797D01*
X173667517Y-92149091D01*
X173667516Y-92149091D01*
X173674444Y-92149835D01*
X173727127Y-92155500D01*
X175522872Y-92155499D01*
X175582483Y-92149091D01*
X175717331Y-92098796D01*
X175832546Y-92012546D01*
X175918796Y-91897331D01*
X175967810Y-91765916D01*
X176009681Y-91709984D01*
X176075145Y-91685566D01*
X176143418Y-91700417D01*
X176171673Y-91721569D01*
X176293599Y-91843495D01*
X176379516Y-91903655D01*
X176487165Y-91979032D01*
X176487167Y-91979033D01*
X176487170Y-91979035D01*
X176701337Y-92078903D01*
X176929592Y-92140063D01*
X177106034Y-92155500D01*
X177164999Y-92160659D01*
X177165000Y-92160659D01*
X177165001Y-92160659D01*
X177223966Y-92155500D01*
X177400408Y-92140063D01*
X177628663Y-92078903D01*
X177842830Y-91979035D01*
X178036401Y-91843495D01*
X178203495Y-91676401D01*
X178333425Y-91490842D01*
X178388002Y-91447217D01*
X178457500Y-91440023D01*
X178519855Y-91471546D01*
X178536575Y-91490842D01*
X178666500Y-91676395D01*
X178666505Y-91676401D01*
X178833599Y-91843495D01*
X178919516Y-91903655D01*
X179027165Y-91979032D01*
X179027167Y-91979033D01*
X179027170Y-91979035D01*
X179241337Y-92078903D01*
X179469592Y-92140063D01*
X179646034Y-92155500D01*
X179704999Y-92160659D01*
X179705000Y-92160659D01*
X179705001Y-92160659D01*
X179763966Y-92155500D01*
X179940408Y-92140063D01*
X180168663Y-92078903D01*
X180382830Y-91979035D01*
X180576401Y-91843495D01*
X180743495Y-91676401D01*
X180873425Y-91490842D01*
X180928002Y-91447217D01*
X180997500Y-91440023D01*
X181059855Y-91471546D01*
X181076575Y-91490842D01*
X181206500Y-91676395D01*
X181206505Y-91676401D01*
X181373599Y-91843495D01*
X181459516Y-91903655D01*
X181567165Y-91979032D01*
X181567167Y-91979033D01*
X181567170Y-91979035D01*
X181781337Y-92078903D01*
X182009592Y-92140063D01*
X182186034Y-92155500D01*
X182244999Y-92160659D01*
X182245000Y-92160659D01*
X182245001Y-92160659D01*
X182303966Y-92155500D01*
X182480408Y-92140063D01*
X182708663Y-92078903D01*
X182922830Y-91979035D01*
X183116401Y-91843495D01*
X183283495Y-91676401D01*
X183413425Y-91490842D01*
X183468002Y-91447217D01*
X183537500Y-91440023D01*
X183599855Y-91471546D01*
X183616575Y-91490842D01*
X183746500Y-91676395D01*
X183746505Y-91676401D01*
X183913599Y-91843495D01*
X183999516Y-91903655D01*
X184107165Y-91979032D01*
X184107167Y-91979033D01*
X184107170Y-91979035D01*
X184321337Y-92078903D01*
X184549592Y-92140063D01*
X184726034Y-92155500D01*
X184784999Y-92160659D01*
X184785000Y-92160659D01*
X184785001Y-92160659D01*
X184843966Y-92155500D01*
X185020408Y-92140063D01*
X185248663Y-92078903D01*
X185462830Y-91979035D01*
X185656401Y-91843495D01*
X185778329Y-91721566D01*
X185839648Y-91688084D01*
X185909340Y-91693068D01*
X185965274Y-91734939D01*
X185982189Y-91765917D01*
X186031202Y-91897328D01*
X186031206Y-91897335D01*
X186117452Y-92012544D01*
X186117455Y-92012547D01*
X186232664Y-92098793D01*
X186232671Y-92098797D01*
X186367517Y-92149091D01*
X186367516Y-92149091D01*
X186374444Y-92149835D01*
X186427127Y-92155500D01*
X188222872Y-92155499D01*
X188282483Y-92149091D01*
X188417331Y-92098796D01*
X188532546Y-92012546D01*
X188618796Y-91897331D01*
X188667810Y-91765916D01*
X188709681Y-91709984D01*
X188775145Y-91685566D01*
X188843418Y-91700417D01*
X188871673Y-91721569D01*
X188993599Y-91843495D01*
X189079516Y-91903655D01*
X189187165Y-91979032D01*
X189187167Y-91979033D01*
X189187170Y-91979035D01*
X189401337Y-92078903D01*
X189629592Y-92140063D01*
X189806034Y-92155500D01*
X189864999Y-92160659D01*
X189865000Y-92160659D01*
X189865001Y-92160659D01*
X189923966Y-92155500D01*
X190100408Y-92140063D01*
X190328663Y-92078903D01*
X190542830Y-91979035D01*
X190736401Y-91843495D01*
X190903495Y-91676401D01*
X191033425Y-91490842D01*
X191088002Y-91447217D01*
X191157500Y-91440023D01*
X191219855Y-91471546D01*
X191236575Y-91490842D01*
X191366500Y-91676395D01*
X191366505Y-91676401D01*
X191533599Y-91843495D01*
X191619516Y-91903655D01*
X191727165Y-91979032D01*
X191727167Y-91979033D01*
X191727170Y-91979035D01*
X191941337Y-92078903D01*
X192169592Y-92140063D01*
X192346034Y-92155500D01*
X192404999Y-92160659D01*
X192405000Y-92160659D01*
X192405001Y-92160659D01*
X192463966Y-92155500D01*
X192640408Y-92140063D01*
X192868663Y-92078903D01*
X193082830Y-91979035D01*
X193276401Y-91843495D01*
X193443495Y-91676401D01*
X193579035Y-91482830D01*
X193678903Y-91268663D01*
X193740063Y-91040408D01*
X193760659Y-90805000D01*
X193740063Y-90569592D01*
X193678903Y-90341337D01*
X193579035Y-90127171D01*
X193573425Y-90119158D01*
X193443494Y-89933597D01*
X193276402Y-89766506D01*
X193276395Y-89766501D01*
X193082834Y-89630967D01*
X193082830Y-89630965D01*
X193082828Y-89630964D01*
X192868663Y-89531097D01*
X192868659Y-89531096D01*
X192868655Y-89531094D01*
X192640413Y-89469938D01*
X192640403Y-89469936D01*
X192405001Y-89449341D01*
X192404999Y-89449341D01*
X192169596Y-89469936D01*
X192169586Y-89469938D01*
X191941344Y-89531094D01*
X191941335Y-89531098D01*
X191727171Y-89630964D01*
X191727169Y-89630965D01*
X191533597Y-89766505D01*
X191366505Y-89933597D01*
X191236575Y-90119158D01*
X191181998Y-90162783D01*
X191112500Y-90169977D01*
X191050145Y-90138454D01*
X191033425Y-90119158D01*
X190903494Y-89933597D01*
X190736402Y-89766506D01*
X190736395Y-89766501D01*
X190542834Y-89630967D01*
X190542830Y-89630965D01*
X190542828Y-89630964D01*
X190328663Y-89531097D01*
X190328659Y-89531096D01*
X190328655Y-89531094D01*
X190100413Y-89469938D01*
X190100403Y-89469936D01*
X189865001Y-89449341D01*
X189864999Y-89449341D01*
X189629596Y-89469936D01*
X189629586Y-89469938D01*
X189401344Y-89531094D01*
X189401335Y-89531098D01*
X189187171Y-89630964D01*
X189187169Y-89630965D01*
X188993600Y-89766503D01*
X188871673Y-89888430D01*
X188810350Y-89921914D01*
X188740658Y-89916930D01*
X188684725Y-89875058D01*
X188667810Y-89844081D01*
X188618797Y-89712671D01*
X188618793Y-89712664D01*
X188532547Y-89597455D01*
X188532544Y-89597452D01*
X188417335Y-89511206D01*
X188417328Y-89511202D01*
X188282482Y-89460908D01*
X188282483Y-89460908D01*
X188222883Y-89454501D01*
X188222881Y-89454500D01*
X188222873Y-89454500D01*
X188222864Y-89454500D01*
X186427129Y-89454500D01*
X186427123Y-89454501D01*
X186367516Y-89460908D01*
X186232671Y-89511202D01*
X186232664Y-89511206D01*
X186117455Y-89597452D01*
X186117452Y-89597455D01*
X186031206Y-89712664D01*
X186031203Y-89712669D01*
X185982189Y-89844083D01*
X185940317Y-89900016D01*
X185874853Y-89924433D01*
X185806580Y-89909581D01*
X185778326Y-89888430D01*
X185656402Y-89766506D01*
X185656395Y-89766501D01*
X185462834Y-89630967D01*
X185462830Y-89630965D01*
X185462828Y-89630964D01*
X185248663Y-89531097D01*
X185248659Y-89531096D01*
X185248655Y-89531094D01*
X185020413Y-89469938D01*
X185020403Y-89469936D01*
X184785001Y-89449341D01*
X184784999Y-89449341D01*
X184549596Y-89469936D01*
X184549586Y-89469938D01*
X184321344Y-89531094D01*
X184321335Y-89531098D01*
X184107171Y-89630964D01*
X184107169Y-89630965D01*
X183913597Y-89766505D01*
X183746505Y-89933597D01*
X183616575Y-90119158D01*
X183561998Y-90162783D01*
X183492500Y-90169977D01*
X183430145Y-90138454D01*
X183413425Y-90119158D01*
X183283494Y-89933597D01*
X183116402Y-89766506D01*
X183116395Y-89766501D01*
X182922834Y-89630967D01*
X182922830Y-89630965D01*
X182922828Y-89630964D01*
X182708663Y-89531097D01*
X182708659Y-89531096D01*
X182708655Y-89531094D01*
X182480413Y-89469938D01*
X182480403Y-89469936D01*
X182245001Y-89449341D01*
X182244999Y-89449341D01*
X182009596Y-89469936D01*
X182009586Y-89469938D01*
X181781344Y-89531094D01*
X181781335Y-89531098D01*
X181567171Y-89630964D01*
X181567169Y-89630965D01*
X181373597Y-89766505D01*
X181206505Y-89933597D01*
X181076575Y-90119158D01*
X181021998Y-90162783D01*
X180952500Y-90169977D01*
X180890145Y-90138454D01*
X180873425Y-90119158D01*
X180743494Y-89933597D01*
X180576402Y-89766506D01*
X180576395Y-89766501D01*
X180382834Y-89630967D01*
X180382830Y-89630965D01*
X180382828Y-89630964D01*
X180168663Y-89531097D01*
X180168659Y-89531096D01*
X180168655Y-89531094D01*
X179940413Y-89469938D01*
X179940403Y-89469936D01*
X179705001Y-89449341D01*
X179704999Y-89449341D01*
X179469596Y-89469936D01*
X179469586Y-89469938D01*
X179241344Y-89531094D01*
X179241335Y-89531098D01*
X179027171Y-89630964D01*
X179027169Y-89630965D01*
X178833597Y-89766505D01*
X178666505Y-89933597D01*
X178536575Y-90119158D01*
X178481998Y-90162783D01*
X178412500Y-90169977D01*
X178350145Y-90138454D01*
X178333425Y-90119158D01*
X178203494Y-89933597D01*
X178036402Y-89766506D01*
X178036395Y-89766501D01*
X177842834Y-89630967D01*
X177842830Y-89630965D01*
X177842828Y-89630964D01*
X177628663Y-89531097D01*
X177628659Y-89531096D01*
X177628655Y-89531094D01*
X177400413Y-89469938D01*
X177400403Y-89469936D01*
X177165001Y-89449341D01*
X177164999Y-89449341D01*
X176929596Y-89469936D01*
X176929586Y-89469938D01*
X176701344Y-89531094D01*
X176701335Y-89531098D01*
X176487171Y-89630964D01*
X176487169Y-89630965D01*
X176293600Y-89766503D01*
X176171673Y-89888430D01*
X176110350Y-89921914D01*
X176040658Y-89916930D01*
X175984725Y-89875058D01*
X175967810Y-89844081D01*
X175918797Y-89712671D01*
X175918793Y-89712664D01*
X175832547Y-89597455D01*
X175832544Y-89597452D01*
X175717335Y-89511206D01*
X175717328Y-89511202D01*
X175582482Y-89460908D01*
X175582483Y-89460908D01*
X175522883Y-89454501D01*
X175522881Y-89454500D01*
X175522873Y-89454500D01*
X175522864Y-89454500D01*
X173727129Y-89454500D01*
X173727123Y-89454501D01*
X173667516Y-89460908D01*
X173532671Y-89511202D01*
X173532664Y-89511206D01*
X173417455Y-89597452D01*
X173417452Y-89597455D01*
X173331206Y-89712664D01*
X173331203Y-89712669D01*
X173282189Y-89844083D01*
X173240317Y-89900016D01*
X173174853Y-89924433D01*
X173106580Y-89909581D01*
X173078326Y-89888430D01*
X172956402Y-89766506D01*
X172956395Y-89766501D01*
X172762834Y-89630967D01*
X172762830Y-89630965D01*
X172762828Y-89630964D01*
X172548663Y-89531097D01*
X172548659Y-89531096D01*
X172548655Y-89531094D01*
X172320413Y-89469938D01*
X172320403Y-89469936D01*
X172085001Y-89449341D01*
X172084999Y-89449341D01*
X171849596Y-89469936D01*
X171849586Y-89469938D01*
X171621344Y-89531094D01*
X171621335Y-89531098D01*
X171407171Y-89630964D01*
X171407169Y-89630965D01*
X171213597Y-89766505D01*
X171046505Y-89933597D01*
X170916575Y-90119158D01*
X170861998Y-90162783D01*
X170792500Y-90169977D01*
X170730145Y-90138454D01*
X170713425Y-90119158D01*
X170583494Y-89933597D01*
X170416402Y-89766506D01*
X170416395Y-89766501D01*
X170222834Y-89630967D01*
X170222830Y-89630965D01*
X170222828Y-89630964D01*
X170008663Y-89531097D01*
X170008659Y-89531096D01*
X170008655Y-89531094D01*
X169780413Y-89469938D01*
X169780403Y-89469936D01*
X169545001Y-89449341D01*
X169544999Y-89449341D01*
X169309596Y-89469936D01*
X169309586Y-89469938D01*
X169081344Y-89531094D01*
X169081335Y-89531098D01*
X168867171Y-89630964D01*
X168867169Y-89630965D01*
X168673597Y-89766505D01*
X168506505Y-89933597D01*
X168376575Y-90119158D01*
X168321998Y-90162783D01*
X168252500Y-90169977D01*
X168190145Y-90138454D01*
X168173425Y-90119158D01*
X168043494Y-89933597D01*
X167876402Y-89766506D01*
X167876395Y-89766501D01*
X167682834Y-89630967D01*
X167682830Y-89630965D01*
X167682828Y-89630964D01*
X167468663Y-89531097D01*
X167468659Y-89531096D01*
X167468655Y-89531094D01*
X167240413Y-89469938D01*
X167240403Y-89469936D01*
X167005001Y-89449341D01*
X167004999Y-89449341D01*
X166769596Y-89469936D01*
X166769586Y-89469938D01*
X166541344Y-89531094D01*
X166541335Y-89531098D01*
X166327171Y-89630964D01*
X166327169Y-89630965D01*
X166133597Y-89766505D01*
X165966505Y-89933597D01*
X165836575Y-90119158D01*
X165781998Y-90162783D01*
X165712500Y-90169977D01*
X165650145Y-90138454D01*
X165633425Y-90119158D01*
X165503494Y-89933597D01*
X165336402Y-89766506D01*
X165336395Y-89766501D01*
X165142834Y-89630967D01*
X165142830Y-89630965D01*
X165142828Y-89630964D01*
X164928663Y-89531097D01*
X164928659Y-89531096D01*
X164928655Y-89531094D01*
X164700413Y-89469938D01*
X164700403Y-89469936D01*
X164465001Y-89449341D01*
X164464999Y-89449341D01*
X164229596Y-89469936D01*
X164229586Y-89469938D01*
X164001344Y-89531094D01*
X164001335Y-89531098D01*
X163787171Y-89630964D01*
X163787169Y-89630965D01*
X163593600Y-89766503D01*
X163471673Y-89888430D01*
X163410350Y-89921914D01*
X163340658Y-89916930D01*
X163284725Y-89875058D01*
X163267810Y-89844081D01*
X163218797Y-89712671D01*
X163218793Y-89712664D01*
X163132547Y-89597455D01*
X163132544Y-89597452D01*
X163017335Y-89511206D01*
X163017328Y-89511202D01*
X162882482Y-89460908D01*
X162882483Y-89460908D01*
X162822883Y-89454501D01*
X162822881Y-89454500D01*
X162822873Y-89454500D01*
X162822864Y-89454500D01*
X161027129Y-89454500D01*
X161027123Y-89454501D01*
X160967516Y-89460908D01*
X160832671Y-89511202D01*
X160832664Y-89511206D01*
X160717455Y-89597452D01*
X160717452Y-89597455D01*
X160631206Y-89712664D01*
X160631203Y-89712669D01*
X160582189Y-89844083D01*
X160540317Y-89900016D01*
X160474853Y-89924433D01*
X160406580Y-89909581D01*
X160378326Y-89888430D01*
X160256402Y-89766506D01*
X160256395Y-89766501D01*
X160062834Y-89630967D01*
X160062830Y-89630965D01*
X160062828Y-89630964D01*
X159848663Y-89531097D01*
X159848659Y-89531096D01*
X159848655Y-89531094D01*
X159620413Y-89469938D01*
X159620403Y-89469936D01*
X159385001Y-89449341D01*
X159384999Y-89449341D01*
X159149596Y-89469936D01*
X159149586Y-89469938D01*
X158921344Y-89531094D01*
X158921335Y-89531098D01*
X158707171Y-89630964D01*
X158707169Y-89630965D01*
X158513597Y-89766505D01*
X158346505Y-89933597D01*
X158216575Y-90119158D01*
X158161998Y-90162783D01*
X158092500Y-90169977D01*
X158030145Y-90138454D01*
X158013425Y-90119158D01*
X157883494Y-89933597D01*
X157716402Y-89766506D01*
X157716395Y-89766501D01*
X157522834Y-89630967D01*
X157522830Y-89630965D01*
X157522828Y-89630964D01*
X157308663Y-89531097D01*
X157308659Y-89531096D01*
X157308655Y-89531094D01*
X157080413Y-89469938D01*
X157080403Y-89469936D01*
X156845001Y-89449341D01*
X156844999Y-89449341D01*
X156609596Y-89469936D01*
X156609586Y-89469938D01*
X156381344Y-89531094D01*
X156381335Y-89531098D01*
X156167171Y-89630964D01*
X156167169Y-89630965D01*
X155973597Y-89766505D01*
X155806505Y-89933597D01*
X155676575Y-90119158D01*
X155621998Y-90162783D01*
X155552500Y-90169977D01*
X155490145Y-90138454D01*
X155473425Y-90119158D01*
X155343494Y-89933597D01*
X155176402Y-89766506D01*
X155176395Y-89766501D01*
X154982834Y-89630967D01*
X154982830Y-89630965D01*
X154982828Y-89630964D01*
X154768663Y-89531097D01*
X154768659Y-89531096D01*
X154768655Y-89531094D01*
X154540413Y-89469938D01*
X154540403Y-89469936D01*
X154305001Y-89449341D01*
X154304999Y-89449341D01*
X154069596Y-89469936D01*
X154069586Y-89469938D01*
X153841344Y-89531094D01*
X153841335Y-89531098D01*
X153627171Y-89630964D01*
X153627169Y-89630965D01*
X153433597Y-89766505D01*
X153266505Y-89933597D01*
X153136575Y-90119158D01*
X153081998Y-90162783D01*
X153012500Y-90169977D01*
X152950145Y-90138454D01*
X152933425Y-90119158D01*
X152803494Y-89933597D01*
X152636402Y-89766506D01*
X152636395Y-89766501D01*
X152442834Y-89630967D01*
X152442830Y-89630965D01*
X152442828Y-89630964D01*
X152228663Y-89531097D01*
X152228659Y-89531096D01*
X152228655Y-89531094D01*
X152000413Y-89469938D01*
X152000403Y-89469936D01*
X151765001Y-89449341D01*
X151764999Y-89449341D01*
X151529596Y-89469936D01*
X151529586Y-89469938D01*
X151301344Y-89531094D01*
X151301335Y-89531098D01*
X151087171Y-89630964D01*
X151087169Y-89630965D01*
X150893600Y-89766503D01*
X150771673Y-89888430D01*
X150710350Y-89921914D01*
X150640658Y-89916930D01*
X150584725Y-89875058D01*
X150567810Y-89844081D01*
X150518797Y-89712671D01*
X150518793Y-89712664D01*
X150432547Y-89597455D01*
X150432544Y-89597452D01*
X150317335Y-89511206D01*
X150317328Y-89511202D01*
X150182482Y-89460908D01*
X150182483Y-89460908D01*
X150122883Y-89454501D01*
X150122881Y-89454500D01*
X150122873Y-89454500D01*
X150122864Y-89454500D01*
X148327129Y-89454500D01*
X148327123Y-89454501D01*
X148267516Y-89460908D01*
X148132671Y-89511202D01*
X148132664Y-89511206D01*
X148017455Y-89597452D01*
X148017452Y-89597455D01*
X147931206Y-89712664D01*
X147931203Y-89712669D01*
X147882189Y-89844083D01*
X147840317Y-89900016D01*
X147774853Y-89924433D01*
X147706580Y-89909581D01*
X147678326Y-89888430D01*
X147556402Y-89766506D01*
X147556395Y-89766501D01*
X147362834Y-89630967D01*
X147362830Y-89630965D01*
X147362828Y-89630964D01*
X147148663Y-89531097D01*
X147148659Y-89531096D01*
X147148655Y-89531094D01*
X146920413Y-89469938D01*
X146920403Y-89469936D01*
X146685001Y-89449341D01*
X146684999Y-89449341D01*
X146449596Y-89469936D01*
X146449586Y-89469938D01*
X146221344Y-89531094D01*
X146221335Y-89531098D01*
X146007171Y-89630964D01*
X146007169Y-89630965D01*
X145813597Y-89766505D01*
X145646505Y-89933597D01*
X145516575Y-90119158D01*
X145461998Y-90162783D01*
X145392500Y-90169977D01*
X145330145Y-90138454D01*
X145313425Y-90119158D01*
X145183494Y-89933597D01*
X145016402Y-89766506D01*
X145016395Y-89766501D01*
X144822834Y-89630967D01*
X144822830Y-89630965D01*
X144822828Y-89630964D01*
X144608663Y-89531097D01*
X144608659Y-89531096D01*
X144608655Y-89531094D01*
X144380413Y-89469938D01*
X144380403Y-89469936D01*
X144145001Y-89449341D01*
X144144999Y-89449341D01*
X143909596Y-89469936D01*
X143909586Y-89469938D01*
X143681344Y-89531094D01*
X143681335Y-89531098D01*
X143467171Y-89630964D01*
X143467169Y-89630965D01*
X143273597Y-89766505D01*
X143106505Y-89933597D01*
X142970965Y-90127169D01*
X142970964Y-90127171D01*
X142871098Y-90341335D01*
X142871094Y-90341344D01*
X142809938Y-90569586D01*
X142809936Y-90569596D01*
X142789341Y-90804999D01*
X142789341Y-90805000D01*
X142240000Y-90805000D01*
X142240000Y-84640006D01*
X142869700Y-84640006D01*
X142888864Y-84871297D01*
X142888866Y-84871308D01*
X142945842Y-85096300D01*
X143039075Y-85308848D01*
X143166016Y-85503147D01*
X143166019Y-85503151D01*
X143166021Y-85503153D01*
X143323216Y-85673913D01*
X143323219Y-85673915D01*
X143323222Y-85673918D01*
X143506365Y-85816464D01*
X143506371Y-85816468D01*
X143506374Y-85816470D01*
X143710497Y-85926936D01*
X143824487Y-85966068D01*
X143930015Y-86002297D01*
X143930017Y-86002297D01*
X143930019Y-86002298D01*
X144158951Y-86040500D01*
X144158952Y-86040500D01*
X144391048Y-86040500D01*
X144391049Y-86040500D01*
X144619981Y-86002298D01*
X144839503Y-85926936D01*
X145043626Y-85816470D01*
X145077557Y-85790061D01*
X145156130Y-85728905D01*
X145226784Y-85673913D01*
X145383979Y-85503153D01*
X145510924Y-85308849D01*
X145604157Y-85096300D01*
X145661134Y-84871305D01*
X145661135Y-84871297D01*
X145680300Y-84640006D01*
X145680300Y-84639993D01*
X145661135Y-84408702D01*
X145661133Y-84408691D01*
X145643738Y-84340002D01*
X146049723Y-84340002D01*
X146068793Y-84557975D01*
X146068793Y-84557979D01*
X146125422Y-84769322D01*
X146125424Y-84769326D01*
X146125425Y-84769330D01*
X146167002Y-84858493D01*
X146217897Y-84967638D01*
X146236381Y-84994035D01*
X146343402Y-85146877D01*
X146498123Y-85301598D01*
X146677361Y-85427102D01*
X146875670Y-85519575D01*
X147087023Y-85576207D01*
X147269926Y-85592208D01*
X147304998Y-85595277D01*
X147305000Y-85595277D01*
X147305002Y-85595277D01*
X147333254Y-85592805D01*
X147522977Y-85576207D01*
X147734330Y-85519575D01*
X147932639Y-85427102D01*
X148111877Y-85301598D01*
X148266598Y-85146877D01*
X148392102Y-84967639D01*
X148484575Y-84769330D01*
X148541207Y-84557977D01*
X148550216Y-84455000D01*
X190819341Y-84455000D01*
X190839936Y-84690403D01*
X190839938Y-84690413D01*
X190901094Y-84918655D01*
X190901096Y-84918659D01*
X190901097Y-84918663D01*
X190970501Y-85067500D01*
X191000965Y-85132830D01*
X191000967Y-85132834D01*
X191109281Y-85287521D01*
X191136505Y-85326401D01*
X191303599Y-85493495D01*
X191340848Y-85519577D01*
X191497165Y-85629032D01*
X191497167Y-85629033D01*
X191497170Y-85629035D01*
X191711337Y-85728903D01*
X191939592Y-85790063D01*
X192127918Y-85806539D01*
X192174999Y-85810659D01*
X192175000Y-85810659D01*
X192175001Y-85810659D01*
X192214234Y-85807226D01*
X192410408Y-85790063D01*
X192638663Y-85728903D01*
X192852830Y-85629035D01*
X193046401Y-85493495D01*
X193213495Y-85326401D01*
X193349035Y-85132830D01*
X193448903Y-84918663D01*
X193510063Y-84690408D01*
X193530659Y-84455000D01*
X193510063Y-84219592D01*
X193448903Y-83991337D01*
X193349035Y-83777171D01*
X193348808Y-83776847D01*
X193213496Y-83583600D01*
X193163017Y-83533121D01*
X193091567Y-83461671D01*
X193058084Y-83400351D01*
X193063068Y-83330659D01*
X193104939Y-83274725D01*
X193135915Y-83257810D01*
X193267331Y-83208796D01*
X193382546Y-83122546D01*
X193468796Y-83007331D01*
X193519091Y-82872483D01*
X193525500Y-82812873D01*
X193525499Y-81017128D01*
X193519091Y-80957517D01*
X193468796Y-80822669D01*
X193468795Y-80822668D01*
X193468793Y-80822664D01*
X193382547Y-80707455D01*
X193382544Y-80707452D01*
X193267335Y-80621206D01*
X193267328Y-80621202D01*
X193135917Y-80572189D01*
X193079983Y-80530318D01*
X193055566Y-80464853D01*
X193070418Y-80396580D01*
X193091563Y-80368332D01*
X193213495Y-80246401D01*
X193349035Y-80052830D01*
X193448903Y-79838663D01*
X193510063Y-79610408D01*
X193530659Y-79375000D01*
X193510063Y-79139592D01*
X193448903Y-78911337D01*
X193349035Y-78697171D01*
X193339200Y-78683124D01*
X193213494Y-78503597D01*
X193046402Y-78336506D01*
X193046395Y-78336501D01*
X192852834Y-78200967D01*
X192852830Y-78200965D01*
X192756589Y-78156087D01*
X192638663Y-78101097D01*
X192638659Y-78101096D01*
X192638655Y-78101094D01*
X192410413Y-78039938D01*
X192410403Y-78039936D01*
X192175001Y-78019341D01*
X192174999Y-78019341D01*
X191939596Y-78039936D01*
X191939586Y-78039938D01*
X191711344Y-78101094D01*
X191711335Y-78101098D01*
X191497171Y-78200964D01*
X191497169Y-78200965D01*
X191303597Y-78336505D01*
X191136505Y-78503597D01*
X191000965Y-78697169D01*
X191000964Y-78697171D01*
X190901098Y-78911335D01*
X190901094Y-78911344D01*
X190839938Y-79139586D01*
X190839936Y-79139596D01*
X190819341Y-79374999D01*
X190819341Y-79375000D01*
X190839936Y-79610403D01*
X190839938Y-79610413D01*
X190901094Y-79838655D01*
X190901096Y-79838659D01*
X190901097Y-79838663D01*
X190951869Y-79947544D01*
X191000965Y-80052830D01*
X191000967Y-80052834D01*
X191109281Y-80207521D01*
X191136501Y-80246396D01*
X191136506Y-80246402D01*
X191258430Y-80368326D01*
X191291915Y-80429649D01*
X191286931Y-80499341D01*
X191245059Y-80555274D01*
X191214083Y-80572189D01*
X191082669Y-80621203D01*
X191082664Y-80621206D01*
X190967455Y-80707452D01*
X190967452Y-80707455D01*
X190881206Y-80822664D01*
X190881202Y-80822671D01*
X190830908Y-80957517D01*
X190824501Y-81017116D01*
X190824501Y-81017123D01*
X190824500Y-81017135D01*
X190824500Y-82812870D01*
X190824501Y-82812876D01*
X190830908Y-82872483D01*
X190881202Y-83007328D01*
X190881206Y-83007335D01*
X190967452Y-83122544D01*
X190967455Y-83122547D01*
X191082664Y-83208793D01*
X191082671Y-83208797D01*
X191214081Y-83257810D01*
X191270015Y-83299681D01*
X191294432Y-83365145D01*
X191279580Y-83433418D01*
X191258430Y-83461673D01*
X191136503Y-83583600D01*
X191000965Y-83777169D01*
X191000964Y-83777171D01*
X190901098Y-83991335D01*
X190901094Y-83991344D01*
X190839938Y-84219586D01*
X190839936Y-84219596D01*
X190819341Y-84454999D01*
X190819341Y-84455000D01*
X148550216Y-84455000D01*
X148560277Y-84340000D01*
X148541207Y-84122023D01*
X148484575Y-83910670D01*
X148392102Y-83712362D01*
X148392100Y-83712359D01*
X148392099Y-83712357D01*
X148266599Y-83533124D01*
X148195148Y-83461673D01*
X148111877Y-83378402D01*
X147963811Y-83274725D01*
X147932638Y-83252897D01*
X147833484Y-83206661D01*
X147734330Y-83160425D01*
X147734326Y-83160424D01*
X147734322Y-83160422D01*
X147522977Y-83103793D01*
X147305002Y-83084723D01*
X147304998Y-83084723D01*
X147159682Y-83097436D01*
X147087023Y-83103793D01*
X147087020Y-83103793D01*
X146875677Y-83160422D01*
X146875668Y-83160426D01*
X146677361Y-83252898D01*
X146677357Y-83252900D01*
X146498121Y-83378402D01*
X146343402Y-83533121D01*
X146217900Y-83712357D01*
X146217898Y-83712361D01*
X146125426Y-83910668D01*
X146125422Y-83910677D01*
X146068793Y-84122020D01*
X146068793Y-84122024D01*
X146049723Y-84339997D01*
X146049723Y-84340002D01*
X145643738Y-84340002D01*
X145604157Y-84183699D01*
X145510924Y-83971151D01*
X145383983Y-83776852D01*
X145383980Y-83776849D01*
X145383979Y-83776847D01*
X145226784Y-83606087D01*
X145226779Y-83606083D01*
X145226777Y-83606081D01*
X145043634Y-83463535D01*
X145043628Y-83463531D01*
X144839504Y-83353064D01*
X144839495Y-83353061D01*
X144619984Y-83277702D01*
X144448282Y-83249050D01*
X144391049Y-83239500D01*
X144158951Y-83239500D01*
X144113164Y-83247140D01*
X143930015Y-83277702D01*
X143710504Y-83353061D01*
X143710495Y-83353064D01*
X143506371Y-83463531D01*
X143506365Y-83463535D01*
X143323222Y-83606081D01*
X143323219Y-83606084D01*
X143166016Y-83776852D01*
X143039075Y-83971151D01*
X142945842Y-84183699D01*
X142888866Y-84408691D01*
X142888864Y-84408702D01*
X142869700Y-84639993D01*
X142869700Y-84640006D01*
X142240000Y-84640006D01*
X142240000Y-79190006D01*
X142869700Y-79190006D01*
X142888864Y-79421297D01*
X142888866Y-79421308D01*
X142945842Y-79646300D01*
X143039075Y-79858848D01*
X143166016Y-80053147D01*
X143166019Y-80053151D01*
X143166021Y-80053153D01*
X143323216Y-80223913D01*
X143323219Y-80223915D01*
X143323222Y-80223918D01*
X143506365Y-80366464D01*
X143506371Y-80366468D01*
X143506374Y-80366470D01*
X143710497Y-80476936D01*
X143775761Y-80499341D01*
X143930015Y-80552297D01*
X143930017Y-80552297D01*
X143930019Y-80552298D01*
X144158951Y-80590500D01*
X144158952Y-80590500D01*
X144391048Y-80590500D01*
X144391049Y-80590500D01*
X144619981Y-80552298D01*
X144839503Y-80476936D01*
X145043626Y-80366470D01*
X145226784Y-80223913D01*
X145383979Y-80053153D01*
X145510924Y-79858849D01*
X145604157Y-79646300D01*
X145643738Y-79490000D01*
X146049723Y-79490000D01*
X146060257Y-79610413D01*
X146068793Y-79707975D01*
X146068793Y-79707979D01*
X146125422Y-79919322D01*
X146125424Y-79919326D01*
X146125425Y-79919330D01*
X146138583Y-79947547D01*
X146217897Y-80117638D01*
X146217898Y-80117639D01*
X146343402Y-80296877D01*
X146498123Y-80451598D01*
X146677361Y-80577102D01*
X146875670Y-80669575D01*
X147087023Y-80726207D01*
X147269926Y-80742208D01*
X147304998Y-80745277D01*
X147305000Y-80745277D01*
X147305002Y-80745277D01*
X147333254Y-80742805D01*
X147522977Y-80726207D01*
X147734330Y-80669575D01*
X147932639Y-80577102D01*
X148111877Y-80451598D01*
X148266598Y-80296877D01*
X148392102Y-80117639D01*
X148484575Y-79919330D01*
X148541207Y-79707977D01*
X148560277Y-79490000D01*
X148541207Y-79272023D01*
X148484575Y-79060670D01*
X148392102Y-78862362D01*
X148392100Y-78862359D01*
X148392099Y-78862357D01*
X148266599Y-78683124D01*
X148266596Y-78683121D01*
X148111877Y-78528402D01*
X147932639Y-78402898D01*
X147932640Y-78402898D01*
X147932638Y-78402897D01*
X147833484Y-78356661D01*
X147734330Y-78310425D01*
X147734326Y-78310424D01*
X147734322Y-78310422D01*
X147522977Y-78253793D01*
X147305002Y-78234723D01*
X147304998Y-78234723D01*
X147159682Y-78247436D01*
X147087023Y-78253793D01*
X147087020Y-78253793D01*
X146875677Y-78310422D01*
X146875668Y-78310426D01*
X146677361Y-78402898D01*
X146677357Y-78402900D01*
X146498121Y-78528402D01*
X146343402Y-78683121D01*
X146217900Y-78862357D01*
X146217898Y-78862361D01*
X146125426Y-79060668D01*
X146125422Y-79060677D01*
X146068793Y-79272020D01*
X146068793Y-79272024D01*
X146055733Y-79421308D01*
X146049723Y-79490000D01*
X145643738Y-79490000D01*
X145661134Y-79421305D01*
X145664971Y-79374999D01*
X145680300Y-79190006D01*
X145680300Y-79189993D01*
X145661135Y-78958702D01*
X145661133Y-78958691D01*
X145604157Y-78733699D01*
X145510924Y-78521151D01*
X145383983Y-78326852D01*
X145383980Y-78326849D01*
X145383979Y-78326847D01*
X145226784Y-78156087D01*
X145226779Y-78156083D01*
X145226777Y-78156081D01*
X145043634Y-78013535D01*
X145043628Y-78013531D01*
X144839504Y-77903064D01*
X144839495Y-77903061D01*
X144619984Y-77827702D01*
X144448282Y-77799050D01*
X144391049Y-77789500D01*
X144158951Y-77789500D01*
X144113164Y-77797140D01*
X143930015Y-77827702D01*
X143710504Y-77903061D01*
X143710495Y-77903064D01*
X143506371Y-78013531D01*
X143506365Y-78013535D01*
X143323222Y-78156081D01*
X143323219Y-78156084D01*
X143166016Y-78326852D01*
X143039075Y-78521151D01*
X142945842Y-78733699D01*
X142888866Y-78958691D01*
X142888864Y-78958702D01*
X142869700Y-79189993D01*
X142869700Y-79190006D01*
X142240000Y-79190006D01*
X142240000Y-73025000D01*
X142789341Y-73025000D01*
X142809936Y-73260403D01*
X142809938Y-73260413D01*
X142871094Y-73488655D01*
X142871096Y-73488659D01*
X142871097Y-73488663D01*
X142950801Y-73659588D01*
X142970965Y-73702830D01*
X142970967Y-73702834D01*
X143079281Y-73857521D01*
X143106505Y-73896401D01*
X143273599Y-74063495D01*
X143370384Y-74131265D01*
X143467165Y-74199032D01*
X143467167Y-74199033D01*
X143467170Y-74199035D01*
X143681337Y-74298903D01*
X143909592Y-74360063D01*
X144086034Y-74375500D01*
X144144999Y-74380659D01*
X144145000Y-74380659D01*
X144145001Y-74380659D01*
X144203966Y-74375500D01*
X144380408Y-74360063D01*
X144608663Y-74298903D01*
X144822830Y-74199035D01*
X145016401Y-74063495D01*
X145183495Y-73896401D01*
X145313425Y-73710842D01*
X145368002Y-73667217D01*
X145437500Y-73660023D01*
X145499855Y-73691546D01*
X145516575Y-73710842D01*
X145646500Y-73896395D01*
X145646505Y-73896401D01*
X145813599Y-74063495D01*
X145910384Y-74131265D01*
X146007165Y-74199032D01*
X146007167Y-74199033D01*
X146007170Y-74199035D01*
X146221337Y-74298903D01*
X146449592Y-74360063D01*
X146626034Y-74375500D01*
X146684999Y-74380659D01*
X146685000Y-74380659D01*
X146685001Y-74380659D01*
X146743966Y-74375500D01*
X146920408Y-74360063D01*
X147148663Y-74298903D01*
X147362830Y-74199035D01*
X147556401Y-74063495D01*
X147678329Y-73941566D01*
X147739648Y-73908084D01*
X147809340Y-73913068D01*
X147865274Y-73954939D01*
X147882189Y-73985917D01*
X147931202Y-74117328D01*
X147931206Y-74117335D01*
X148017452Y-74232544D01*
X148017455Y-74232547D01*
X148132664Y-74318793D01*
X148132671Y-74318797D01*
X148267517Y-74369091D01*
X148267516Y-74369091D01*
X148274444Y-74369835D01*
X148327127Y-74375500D01*
X150122872Y-74375499D01*
X150182483Y-74369091D01*
X150317331Y-74318796D01*
X150432546Y-74232546D01*
X150518796Y-74117331D01*
X150567810Y-73985916D01*
X150609681Y-73929984D01*
X150675145Y-73905566D01*
X150743418Y-73920417D01*
X150771673Y-73941569D01*
X150893599Y-74063495D01*
X150990384Y-74131265D01*
X151087165Y-74199032D01*
X151087167Y-74199033D01*
X151087170Y-74199035D01*
X151301337Y-74298903D01*
X151529592Y-74360063D01*
X151706034Y-74375500D01*
X151764999Y-74380659D01*
X151765000Y-74380659D01*
X151765001Y-74380659D01*
X151823966Y-74375500D01*
X152000408Y-74360063D01*
X152228663Y-74298903D01*
X152442830Y-74199035D01*
X152636401Y-74063495D01*
X152803495Y-73896401D01*
X152933730Y-73710405D01*
X152988307Y-73666781D01*
X153057805Y-73659587D01*
X153120160Y-73691110D01*
X153136879Y-73710405D01*
X153266890Y-73896078D01*
X153433917Y-74063105D01*
X153627421Y-74198600D01*
X153841507Y-74298429D01*
X153841516Y-74298433D01*
X154055000Y-74355634D01*
X154055000Y-73469560D01*
X154108147Y-73500245D01*
X154237857Y-73535000D01*
X154372143Y-73535000D01*
X154501853Y-73500245D01*
X154555000Y-73469560D01*
X154555000Y-74355634D01*
X154768483Y-74298433D01*
X154768492Y-74298429D01*
X154982578Y-74198600D01*
X155176082Y-74063105D01*
X155343105Y-73896082D01*
X155473119Y-73710405D01*
X155527696Y-73666781D01*
X155597195Y-73659588D01*
X155659549Y-73691110D01*
X155676269Y-73710405D01*
X155806505Y-73896401D01*
X155973599Y-74063495D01*
X156070384Y-74131265D01*
X156167165Y-74199032D01*
X156167167Y-74199033D01*
X156167170Y-74199035D01*
X156381337Y-74298903D01*
X156609592Y-74360063D01*
X156786034Y-74375500D01*
X156844999Y-74380659D01*
X156845000Y-74380659D01*
X156845001Y-74380659D01*
X156903966Y-74375500D01*
X157080408Y-74360063D01*
X157308663Y-74298903D01*
X157522830Y-74199035D01*
X157716401Y-74063495D01*
X157883495Y-73896401D01*
X158013425Y-73710842D01*
X158068002Y-73667217D01*
X158137500Y-73660023D01*
X158199855Y-73691546D01*
X158216575Y-73710842D01*
X158346500Y-73896395D01*
X158346505Y-73896401D01*
X158513599Y-74063495D01*
X158610384Y-74131265D01*
X158707165Y-74199032D01*
X158707167Y-74199033D01*
X158707170Y-74199035D01*
X158921337Y-74298903D01*
X159149592Y-74360063D01*
X159326034Y-74375500D01*
X159384999Y-74380659D01*
X159385000Y-74380659D01*
X159385001Y-74380659D01*
X159443966Y-74375500D01*
X159620408Y-74360063D01*
X159848663Y-74298903D01*
X160062830Y-74199035D01*
X160256401Y-74063495D01*
X160378329Y-73941566D01*
X160439648Y-73908084D01*
X160509340Y-73913068D01*
X160565274Y-73954939D01*
X160582189Y-73985917D01*
X160631202Y-74117328D01*
X160631206Y-74117335D01*
X160717452Y-74232544D01*
X160717455Y-74232547D01*
X160832664Y-74318793D01*
X160832671Y-74318797D01*
X160967517Y-74369091D01*
X160967516Y-74369091D01*
X160974444Y-74369835D01*
X161027127Y-74375500D01*
X162822872Y-74375499D01*
X162882483Y-74369091D01*
X163017331Y-74318796D01*
X163132546Y-74232546D01*
X163218796Y-74117331D01*
X163267810Y-73985916D01*
X163309681Y-73929984D01*
X163375145Y-73905566D01*
X163443418Y-73920417D01*
X163471673Y-73941569D01*
X163593599Y-74063495D01*
X163690384Y-74131265D01*
X163787165Y-74199032D01*
X163787167Y-74199033D01*
X163787170Y-74199035D01*
X164001337Y-74298903D01*
X164229592Y-74360063D01*
X164406034Y-74375500D01*
X164464999Y-74380659D01*
X164465000Y-74380659D01*
X164465001Y-74380659D01*
X164523966Y-74375500D01*
X164700408Y-74360063D01*
X164928663Y-74298903D01*
X165142830Y-74199035D01*
X165336401Y-74063495D01*
X165503495Y-73896401D01*
X165633425Y-73710842D01*
X165688002Y-73667217D01*
X165757500Y-73660023D01*
X165819855Y-73691546D01*
X165836575Y-73710842D01*
X165966500Y-73896395D01*
X165966505Y-73896401D01*
X166133599Y-74063495D01*
X166230384Y-74131265D01*
X166327165Y-74199032D01*
X166327167Y-74199033D01*
X166327170Y-74199035D01*
X166541337Y-74298903D01*
X166769592Y-74360063D01*
X166946034Y-74375500D01*
X167004999Y-74380659D01*
X167005000Y-74380659D01*
X167005001Y-74380659D01*
X167063966Y-74375500D01*
X167240408Y-74360063D01*
X167468663Y-74298903D01*
X167682830Y-74199035D01*
X167876401Y-74063495D01*
X168043495Y-73896401D01*
X168173425Y-73710842D01*
X168228002Y-73667217D01*
X168297500Y-73660023D01*
X168359855Y-73691546D01*
X168376575Y-73710842D01*
X168506500Y-73896395D01*
X168506505Y-73896401D01*
X168673599Y-74063495D01*
X168770384Y-74131265D01*
X168867165Y-74199032D01*
X168867167Y-74199033D01*
X168867170Y-74199035D01*
X169081337Y-74298903D01*
X169309592Y-74360063D01*
X169486034Y-74375500D01*
X169544999Y-74380659D01*
X169545000Y-74380659D01*
X169545001Y-74380659D01*
X169603966Y-74375500D01*
X169780408Y-74360063D01*
X170008663Y-74298903D01*
X170222830Y-74199035D01*
X170416401Y-74063495D01*
X170583495Y-73896401D01*
X170713425Y-73710842D01*
X170768002Y-73667217D01*
X170837500Y-73660023D01*
X170899855Y-73691546D01*
X170916575Y-73710842D01*
X171046500Y-73896395D01*
X171046505Y-73896401D01*
X171213599Y-74063495D01*
X171310384Y-74131265D01*
X171407165Y-74199032D01*
X171407167Y-74199033D01*
X171407170Y-74199035D01*
X171621337Y-74298903D01*
X171849592Y-74360063D01*
X172026034Y-74375500D01*
X172084999Y-74380659D01*
X172085000Y-74380659D01*
X172085001Y-74380659D01*
X172143966Y-74375500D01*
X172320408Y-74360063D01*
X172548663Y-74298903D01*
X172762830Y-74199035D01*
X172956401Y-74063495D01*
X173078329Y-73941566D01*
X173139648Y-73908084D01*
X173209340Y-73913068D01*
X173265274Y-73954939D01*
X173282189Y-73985917D01*
X173331202Y-74117328D01*
X173331206Y-74117335D01*
X173417452Y-74232544D01*
X173417455Y-74232547D01*
X173532664Y-74318793D01*
X173532671Y-74318797D01*
X173667517Y-74369091D01*
X173667516Y-74369091D01*
X173674444Y-74369835D01*
X173727127Y-74375500D01*
X175522872Y-74375499D01*
X175582483Y-74369091D01*
X175717331Y-74318796D01*
X175832546Y-74232546D01*
X175918796Y-74117331D01*
X175967810Y-73985916D01*
X176009681Y-73929984D01*
X176075145Y-73905566D01*
X176143418Y-73920417D01*
X176171673Y-73941569D01*
X176293599Y-74063495D01*
X176390384Y-74131265D01*
X176487165Y-74199032D01*
X176487167Y-74199033D01*
X176487170Y-74199035D01*
X176701337Y-74298903D01*
X176929592Y-74360063D01*
X177106034Y-74375500D01*
X177164999Y-74380659D01*
X177165000Y-74380659D01*
X177165001Y-74380659D01*
X177223966Y-74375500D01*
X177400408Y-74360063D01*
X177628663Y-74298903D01*
X177842830Y-74199035D01*
X178036401Y-74063495D01*
X178203495Y-73896401D01*
X178333425Y-73710842D01*
X178388002Y-73667217D01*
X178457500Y-73660023D01*
X178519855Y-73691546D01*
X178536575Y-73710842D01*
X178666500Y-73896395D01*
X178666505Y-73896401D01*
X178833599Y-74063495D01*
X178930384Y-74131265D01*
X179027165Y-74199032D01*
X179027167Y-74199033D01*
X179027170Y-74199035D01*
X179241337Y-74298903D01*
X179469592Y-74360063D01*
X179646034Y-74375500D01*
X179704999Y-74380659D01*
X179705000Y-74380659D01*
X179705001Y-74380659D01*
X179763966Y-74375500D01*
X179940408Y-74360063D01*
X180168663Y-74298903D01*
X180382830Y-74199035D01*
X180576401Y-74063495D01*
X180743495Y-73896401D01*
X180873425Y-73710842D01*
X180928002Y-73667217D01*
X180997500Y-73660023D01*
X181059855Y-73691546D01*
X181076575Y-73710842D01*
X181206500Y-73896395D01*
X181206505Y-73896401D01*
X181373599Y-74063495D01*
X181470384Y-74131265D01*
X181567165Y-74199032D01*
X181567167Y-74199033D01*
X181567170Y-74199035D01*
X181781337Y-74298903D01*
X182009592Y-74360063D01*
X182186034Y-74375500D01*
X182244999Y-74380659D01*
X182245000Y-74380659D01*
X182245001Y-74380659D01*
X182303966Y-74375500D01*
X182480408Y-74360063D01*
X182708663Y-74298903D01*
X182922830Y-74199035D01*
X183116401Y-74063495D01*
X183283495Y-73896401D01*
X183413425Y-73710842D01*
X183468002Y-73667217D01*
X183537500Y-73660023D01*
X183599855Y-73691546D01*
X183616575Y-73710842D01*
X183746500Y-73896395D01*
X183746505Y-73896401D01*
X183913599Y-74063495D01*
X184010384Y-74131265D01*
X184107165Y-74199032D01*
X184107167Y-74199033D01*
X184107170Y-74199035D01*
X184321337Y-74298903D01*
X184549592Y-74360063D01*
X184726034Y-74375500D01*
X184784999Y-74380659D01*
X184785000Y-74380659D01*
X184785001Y-74380659D01*
X184843966Y-74375500D01*
X185020408Y-74360063D01*
X185248663Y-74298903D01*
X185462830Y-74199035D01*
X185656401Y-74063495D01*
X185778329Y-73941566D01*
X185839648Y-73908084D01*
X185909340Y-73913068D01*
X185965274Y-73954939D01*
X185982189Y-73985917D01*
X186031202Y-74117328D01*
X186031206Y-74117335D01*
X186117452Y-74232544D01*
X186117455Y-74232547D01*
X186232664Y-74318793D01*
X186232671Y-74318797D01*
X186367517Y-74369091D01*
X186367516Y-74369091D01*
X186374444Y-74369835D01*
X186427127Y-74375500D01*
X188222872Y-74375499D01*
X188282483Y-74369091D01*
X188417331Y-74318796D01*
X188532546Y-74232546D01*
X188618796Y-74117331D01*
X188667810Y-73985916D01*
X188709681Y-73929984D01*
X188775145Y-73905566D01*
X188843418Y-73920417D01*
X188871673Y-73941569D01*
X188993599Y-74063495D01*
X189090384Y-74131265D01*
X189187165Y-74199032D01*
X189187167Y-74199033D01*
X189187170Y-74199035D01*
X189401337Y-74298903D01*
X189629592Y-74360063D01*
X189806034Y-74375500D01*
X189864999Y-74380659D01*
X189865000Y-74380659D01*
X189865001Y-74380659D01*
X189923966Y-74375500D01*
X190100408Y-74360063D01*
X190328663Y-74298903D01*
X190542830Y-74199035D01*
X190736401Y-74063495D01*
X190903495Y-73896401D01*
X191033425Y-73710842D01*
X191088002Y-73667217D01*
X191157500Y-73660023D01*
X191219855Y-73691546D01*
X191236575Y-73710842D01*
X191366500Y-73896395D01*
X191366505Y-73896401D01*
X191533599Y-74063495D01*
X191630384Y-74131265D01*
X191727165Y-74199032D01*
X191727167Y-74199033D01*
X191727170Y-74199035D01*
X191941337Y-74298903D01*
X192169592Y-74360063D01*
X192346034Y-74375500D01*
X192404999Y-74380659D01*
X192405000Y-74380659D01*
X192405001Y-74380659D01*
X192463966Y-74375500D01*
X192640408Y-74360063D01*
X192868663Y-74298903D01*
X193082830Y-74199035D01*
X193276401Y-74063495D01*
X193443495Y-73896401D01*
X193579035Y-73702830D01*
X193678903Y-73488663D01*
X193740063Y-73260408D01*
X193760659Y-73025000D01*
X193740063Y-72789592D01*
X193678903Y-72561337D01*
X193579035Y-72347171D01*
X193573731Y-72339595D01*
X193443494Y-72153597D01*
X193276402Y-71986506D01*
X193276395Y-71986501D01*
X193082834Y-71850967D01*
X193082830Y-71850965D01*
X193082828Y-71850964D01*
X192868663Y-71751097D01*
X192868659Y-71751096D01*
X192868655Y-71751094D01*
X192640413Y-71689938D01*
X192640403Y-71689936D01*
X192405001Y-71669341D01*
X192404999Y-71669341D01*
X192169596Y-71689936D01*
X192169586Y-71689938D01*
X191941344Y-71751094D01*
X191941335Y-71751098D01*
X191727171Y-71850964D01*
X191727169Y-71850965D01*
X191533597Y-71986505D01*
X191366505Y-72153597D01*
X191236575Y-72339158D01*
X191181998Y-72382783D01*
X191112500Y-72389977D01*
X191050145Y-72358454D01*
X191033425Y-72339158D01*
X190903494Y-72153597D01*
X190736402Y-71986506D01*
X190736395Y-71986501D01*
X190542834Y-71850967D01*
X190542830Y-71850965D01*
X190542828Y-71850964D01*
X190328663Y-71751097D01*
X190328659Y-71751096D01*
X190328655Y-71751094D01*
X190100413Y-71689938D01*
X190100403Y-71689936D01*
X189865001Y-71669341D01*
X189864999Y-71669341D01*
X189629596Y-71689936D01*
X189629586Y-71689938D01*
X189401344Y-71751094D01*
X189401335Y-71751098D01*
X189187171Y-71850964D01*
X189187169Y-71850965D01*
X188993600Y-71986503D01*
X188871673Y-72108430D01*
X188810350Y-72141914D01*
X188740658Y-72136930D01*
X188684725Y-72095058D01*
X188667810Y-72064081D01*
X188618797Y-71932671D01*
X188618793Y-71932664D01*
X188532547Y-71817455D01*
X188532544Y-71817452D01*
X188417335Y-71731206D01*
X188417328Y-71731202D01*
X188282482Y-71680908D01*
X188282483Y-71680908D01*
X188222883Y-71674501D01*
X188222881Y-71674500D01*
X188222873Y-71674500D01*
X188222864Y-71674500D01*
X186427129Y-71674500D01*
X186427123Y-71674501D01*
X186367516Y-71680908D01*
X186232671Y-71731202D01*
X186232664Y-71731206D01*
X186117455Y-71817452D01*
X186117452Y-71817455D01*
X186031206Y-71932664D01*
X186031203Y-71932669D01*
X185982189Y-72064083D01*
X185940317Y-72120016D01*
X185874853Y-72144433D01*
X185806580Y-72129581D01*
X185778326Y-72108430D01*
X185656402Y-71986506D01*
X185656395Y-71986501D01*
X185462834Y-71850967D01*
X185462830Y-71850965D01*
X185462828Y-71850964D01*
X185248663Y-71751097D01*
X185248659Y-71751096D01*
X185248655Y-71751094D01*
X185020413Y-71689938D01*
X185020403Y-71689936D01*
X184785001Y-71669341D01*
X184784999Y-71669341D01*
X184549596Y-71689936D01*
X184549586Y-71689938D01*
X184321344Y-71751094D01*
X184321335Y-71751098D01*
X184107171Y-71850964D01*
X184107169Y-71850965D01*
X183913597Y-71986505D01*
X183746505Y-72153597D01*
X183616575Y-72339158D01*
X183561998Y-72382783D01*
X183492500Y-72389977D01*
X183430145Y-72358454D01*
X183413425Y-72339158D01*
X183283494Y-72153597D01*
X183116402Y-71986506D01*
X183116395Y-71986501D01*
X182922834Y-71850967D01*
X182922830Y-71850965D01*
X182922828Y-71850964D01*
X182708663Y-71751097D01*
X182708659Y-71751096D01*
X182708655Y-71751094D01*
X182480413Y-71689938D01*
X182480403Y-71689936D01*
X182245001Y-71669341D01*
X182244999Y-71669341D01*
X182009596Y-71689936D01*
X182009586Y-71689938D01*
X181781344Y-71751094D01*
X181781335Y-71751098D01*
X181567171Y-71850964D01*
X181567169Y-71850965D01*
X181373597Y-71986505D01*
X181206505Y-72153597D01*
X181076575Y-72339158D01*
X181021998Y-72382783D01*
X180952500Y-72389977D01*
X180890145Y-72358454D01*
X180873425Y-72339158D01*
X180743494Y-72153597D01*
X180576402Y-71986506D01*
X180576395Y-71986501D01*
X180382834Y-71850967D01*
X180382830Y-71850965D01*
X180382828Y-71850964D01*
X180168663Y-71751097D01*
X180168659Y-71751096D01*
X180168655Y-71751094D01*
X179940413Y-71689938D01*
X179940403Y-71689936D01*
X179705001Y-71669341D01*
X179704999Y-71669341D01*
X179469596Y-71689936D01*
X179469586Y-71689938D01*
X179241344Y-71751094D01*
X179241335Y-71751098D01*
X179027171Y-71850964D01*
X179027169Y-71850965D01*
X178833597Y-71986505D01*
X178666505Y-72153597D01*
X178536575Y-72339158D01*
X178481998Y-72382783D01*
X178412500Y-72389977D01*
X178350145Y-72358454D01*
X178333425Y-72339158D01*
X178203494Y-72153597D01*
X178036402Y-71986506D01*
X178036395Y-71986501D01*
X177842834Y-71850967D01*
X177842830Y-71850965D01*
X177842828Y-71850964D01*
X177628663Y-71751097D01*
X177628659Y-71751096D01*
X177628655Y-71751094D01*
X177400413Y-71689938D01*
X177400403Y-71689936D01*
X177165001Y-71669341D01*
X177164999Y-71669341D01*
X176929596Y-71689936D01*
X176929586Y-71689938D01*
X176701344Y-71751094D01*
X176701335Y-71751098D01*
X176487171Y-71850964D01*
X176487169Y-71850965D01*
X176293600Y-71986503D01*
X176171673Y-72108430D01*
X176110350Y-72141914D01*
X176040658Y-72136930D01*
X175984725Y-72095058D01*
X175967810Y-72064081D01*
X175918797Y-71932671D01*
X175918793Y-71932664D01*
X175832547Y-71817455D01*
X175832544Y-71817452D01*
X175717335Y-71731206D01*
X175717328Y-71731202D01*
X175582482Y-71680908D01*
X175582483Y-71680908D01*
X175522883Y-71674501D01*
X175522881Y-71674500D01*
X175522873Y-71674500D01*
X175522864Y-71674500D01*
X173727129Y-71674500D01*
X173727123Y-71674501D01*
X173667516Y-71680908D01*
X173532671Y-71731202D01*
X173532664Y-71731206D01*
X173417455Y-71817452D01*
X173417452Y-71817455D01*
X173331206Y-71932664D01*
X173331203Y-71932669D01*
X173282189Y-72064083D01*
X173240317Y-72120016D01*
X173174853Y-72144433D01*
X173106580Y-72129581D01*
X173078326Y-72108430D01*
X172956402Y-71986506D01*
X172956395Y-71986501D01*
X172762834Y-71850967D01*
X172762830Y-71850965D01*
X172762828Y-71850964D01*
X172548663Y-71751097D01*
X172548659Y-71751096D01*
X172548655Y-71751094D01*
X172320413Y-71689938D01*
X172320403Y-71689936D01*
X172085001Y-71669341D01*
X172084999Y-71669341D01*
X171849596Y-71689936D01*
X171849586Y-71689938D01*
X171621344Y-71751094D01*
X171621335Y-71751098D01*
X171407171Y-71850964D01*
X171407169Y-71850965D01*
X171213597Y-71986505D01*
X171046505Y-72153597D01*
X170916575Y-72339158D01*
X170861998Y-72382783D01*
X170792500Y-72389977D01*
X170730145Y-72358454D01*
X170713425Y-72339158D01*
X170583494Y-72153597D01*
X170416402Y-71986506D01*
X170416395Y-71986501D01*
X170222834Y-71850967D01*
X170222830Y-71850965D01*
X170222828Y-71850964D01*
X170008663Y-71751097D01*
X170008659Y-71751096D01*
X170008655Y-71751094D01*
X169780413Y-71689938D01*
X169780403Y-71689936D01*
X169545001Y-71669341D01*
X169544999Y-71669341D01*
X169309596Y-71689936D01*
X169309586Y-71689938D01*
X169081344Y-71751094D01*
X169081335Y-71751098D01*
X168867171Y-71850964D01*
X168867169Y-71850965D01*
X168673597Y-71986505D01*
X168506505Y-72153597D01*
X168376575Y-72339158D01*
X168321998Y-72382783D01*
X168252500Y-72389977D01*
X168190145Y-72358454D01*
X168173425Y-72339158D01*
X168043494Y-72153597D01*
X167876402Y-71986506D01*
X167876395Y-71986501D01*
X167682834Y-71850967D01*
X167682830Y-71850965D01*
X167682828Y-71850964D01*
X167468663Y-71751097D01*
X167468659Y-71751096D01*
X167468655Y-71751094D01*
X167240413Y-71689938D01*
X167240403Y-71689936D01*
X167005001Y-71669341D01*
X167004999Y-71669341D01*
X166769596Y-71689936D01*
X166769586Y-71689938D01*
X166541344Y-71751094D01*
X166541335Y-71751098D01*
X166327171Y-71850964D01*
X166327169Y-71850965D01*
X166133597Y-71986505D01*
X165966505Y-72153597D01*
X165836575Y-72339158D01*
X165781998Y-72382783D01*
X165712500Y-72389977D01*
X165650145Y-72358454D01*
X165633425Y-72339158D01*
X165503494Y-72153597D01*
X165336402Y-71986506D01*
X165336395Y-71986501D01*
X165142834Y-71850967D01*
X165142830Y-71850965D01*
X165142828Y-71850964D01*
X164928663Y-71751097D01*
X164928659Y-71751096D01*
X164928655Y-71751094D01*
X164700413Y-71689938D01*
X164700403Y-71689936D01*
X164465001Y-71669341D01*
X164464999Y-71669341D01*
X164229596Y-71689936D01*
X164229586Y-71689938D01*
X164001344Y-71751094D01*
X164001335Y-71751098D01*
X163787171Y-71850964D01*
X163787169Y-71850965D01*
X163593600Y-71986503D01*
X163471673Y-72108430D01*
X163410350Y-72141914D01*
X163340658Y-72136930D01*
X163284725Y-72095058D01*
X163267810Y-72064081D01*
X163218797Y-71932671D01*
X163218793Y-71932664D01*
X163132547Y-71817455D01*
X163132544Y-71817452D01*
X163017335Y-71731206D01*
X163017328Y-71731202D01*
X162882482Y-71680908D01*
X162882483Y-71680908D01*
X162822883Y-71674501D01*
X162822881Y-71674500D01*
X162822873Y-71674500D01*
X162822864Y-71674500D01*
X161027129Y-71674500D01*
X161027123Y-71674501D01*
X160967516Y-71680908D01*
X160832671Y-71731202D01*
X160832664Y-71731206D01*
X160717455Y-71817452D01*
X160717452Y-71817455D01*
X160631206Y-71932664D01*
X160631203Y-71932669D01*
X160582189Y-72064083D01*
X160540317Y-72120016D01*
X160474853Y-72144433D01*
X160406580Y-72129581D01*
X160378326Y-72108430D01*
X160256402Y-71986506D01*
X160256395Y-71986501D01*
X160062834Y-71850967D01*
X160062830Y-71850965D01*
X160062828Y-71850964D01*
X159848663Y-71751097D01*
X159848659Y-71751096D01*
X159848655Y-71751094D01*
X159620413Y-71689938D01*
X159620403Y-71689936D01*
X159385001Y-71669341D01*
X159384999Y-71669341D01*
X159149596Y-71689936D01*
X159149586Y-71689938D01*
X158921344Y-71751094D01*
X158921335Y-71751098D01*
X158707171Y-71850964D01*
X158707169Y-71850965D01*
X158513597Y-71986505D01*
X158346505Y-72153597D01*
X158216575Y-72339158D01*
X158161998Y-72382783D01*
X158092500Y-72389977D01*
X158030145Y-72358454D01*
X158013425Y-72339158D01*
X157883494Y-72153597D01*
X157716402Y-71986506D01*
X157716395Y-71986501D01*
X157522834Y-71850967D01*
X157522830Y-71850965D01*
X157522828Y-71850964D01*
X157308663Y-71751097D01*
X157308659Y-71751096D01*
X157308655Y-71751094D01*
X157080413Y-71689938D01*
X157080403Y-71689936D01*
X156845001Y-71669341D01*
X156844999Y-71669341D01*
X156609596Y-71689936D01*
X156609586Y-71689938D01*
X156381344Y-71751094D01*
X156381335Y-71751098D01*
X156167171Y-71850964D01*
X156167169Y-71850965D01*
X155973597Y-71986505D01*
X155806508Y-72153594D01*
X155676269Y-72339595D01*
X155621692Y-72383219D01*
X155552193Y-72390412D01*
X155489839Y-72358890D01*
X155473119Y-72339594D01*
X155343113Y-72153926D01*
X155343108Y-72153920D01*
X155176082Y-71986894D01*
X154982578Y-71851399D01*
X154768492Y-71751570D01*
X154768486Y-71751567D01*
X154555000Y-71694364D01*
X154555000Y-72580439D01*
X154501853Y-72549755D01*
X154372143Y-72515000D01*
X154237857Y-72515000D01*
X154108147Y-72549755D01*
X154055000Y-72580439D01*
X154055000Y-71694364D01*
X154054999Y-71694364D01*
X153841513Y-71751567D01*
X153841507Y-71751570D01*
X153627422Y-71851399D01*
X153627420Y-71851400D01*
X153433926Y-71986886D01*
X153433920Y-71986891D01*
X153266891Y-72153920D01*
X153266890Y-72153922D01*
X153136880Y-72339595D01*
X153082303Y-72383219D01*
X153012804Y-72390412D01*
X152950450Y-72358890D01*
X152933730Y-72339594D01*
X152803494Y-72153597D01*
X152636402Y-71986506D01*
X152636395Y-71986501D01*
X152442834Y-71850967D01*
X152442830Y-71850965D01*
X152442828Y-71850964D01*
X152228663Y-71751097D01*
X152228659Y-71751096D01*
X152228655Y-71751094D01*
X152000413Y-71689938D01*
X152000403Y-71689936D01*
X151765001Y-71669341D01*
X151764999Y-71669341D01*
X151529596Y-71689936D01*
X151529586Y-71689938D01*
X151301344Y-71751094D01*
X151301335Y-71751098D01*
X151087171Y-71850964D01*
X151087169Y-71850965D01*
X150893600Y-71986503D01*
X150771673Y-72108430D01*
X150710350Y-72141914D01*
X150640658Y-72136930D01*
X150584725Y-72095058D01*
X150567810Y-72064081D01*
X150518797Y-71932671D01*
X150518793Y-71932664D01*
X150432547Y-71817455D01*
X150432544Y-71817452D01*
X150317335Y-71731206D01*
X150317328Y-71731202D01*
X150182482Y-71680908D01*
X150182483Y-71680908D01*
X150122883Y-71674501D01*
X150122881Y-71674500D01*
X150122873Y-71674500D01*
X150122864Y-71674500D01*
X148327129Y-71674500D01*
X148327123Y-71674501D01*
X148267516Y-71680908D01*
X148132671Y-71731202D01*
X148132664Y-71731206D01*
X148017455Y-71817452D01*
X148017452Y-71817455D01*
X147931206Y-71932664D01*
X147931203Y-71932669D01*
X147882189Y-72064083D01*
X147840317Y-72120016D01*
X147774853Y-72144433D01*
X147706580Y-72129581D01*
X147678326Y-72108430D01*
X147556402Y-71986506D01*
X147556395Y-71986501D01*
X147362834Y-71850967D01*
X147362830Y-71850965D01*
X147362828Y-71850964D01*
X147148663Y-71751097D01*
X147148659Y-71751096D01*
X147148655Y-71751094D01*
X146920413Y-71689938D01*
X146920403Y-71689936D01*
X146685001Y-71669341D01*
X146684999Y-71669341D01*
X146449596Y-71689936D01*
X146449586Y-71689938D01*
X146221344Y-71751094D01*
X146221335Y-71751098D01*
X146007171Y-71850964D01*
X146007169Y-71850965D01*
X145813597Y-71986505D01*
X145646505Y-72153597D01*
X145516575Y-72339158D01*
X145461998Y-72382783D01*
X145392500Y-72389977D01*
X145330145Y-72358454D01*
X145313425Y-72339158D01*
X145183494Y-72153597D01*
X145016402Y-71986506D01*
X145016395Y-71986501D01*
X144822834Y-71850967D01*
X144822830Y-71850965D01*
X144822828Y-71850964D01*
X144608663Y-71751097D01*
X144608659Y-71751096D01*
X144608655Y-71751094D01*
X144380413Y-71689938D01*
X144380403Y-71689936D01*
X144145001Y-71669341D01*
X144144999Y-71669341D01*
X143909596Y-71689936D01*
X143909586Y-71689938D01*
X143681344Y-71751094D01*
X143681335Y-71751098D01*
X143467171Y-71850964D01*
X143467169Y-71850965D01*
X143273597Y-71986505D01*
X143106505Y-72153597D01*
X142970965Y-72347169D01*
X142970964Y-72347171D01*
X142871098Y-72561335D01*
X142871094Y-72561344D01*
X142809938Y-72789586D01*
X142809936Y-72789596D01*
X142789341Y-73024999D01*
X142789341Y-73025000D01*
X142240000Y-73025000D01*
X142240000Y-66030000D01*
X209464341Y-66030000D01*
X209484936Y-66265403D01*
X209484938Y-66265413D01*
X209546094Y-66493655D01*
X209546096Y-66493659D01*
X209546097Y-66493663D01*
X209645965Y-66707830D01*
X209645967Y-66707834D01*
X209754281Y-66862521D01*
X209781501Y-66901396D01*
X209781506Y-66901402D01*
X209903430Y-67023326D01*
X209936915Y-67084649D01*
X209931931Y-67154341D01*
X209890059Y-67210274D01*
X209859083Y-67227189D01*
X209727669Y-67276203D01*
X209727664Y-67276206D01*
X209612455Y-67362452D01*
X209612452Y-67362455D01*
X209526206Y-67477664D01*
X209526202Y-67477671D01*
X209475908Y-67612517D01*
X209469501Y-67672116D01*
X209469501Y-67672123D01*
X209469500Y-67672135D01*
X209469500Y-69467870D01*
X209469501Y-69467876D01*
X209475908Y-69527483D01*
X209526202Y-69662328D01*
X209526206Y-69662335D01*
X209612452Y-69777544D01*
X209612455Y-69777547D01*
X209727664Y-69863793D01*
X209727671Y-69863797D01*
X209862517Y-69914091D01*
X209862516Y-69914091D01*
X209869444Y-69914835D01*
X209922127Y-69920500D01*
X211717872Y-69920499D01*
X211777483Y-69914091D01*
X211912331Y-69863796D01*
X212027546Y-69777546D01*
X212113796Y-69662331D01*
X212164091Y-69527483D01*
X212170500Y-69467873D01*
X212170499Y-67672128D01*
X212164091Y-67612517D01*
X212113796Y-67477669D01*
X212113795Y-67477668D01*
X212113793Y-67477664D01*
X212027547Y-67362455D01*
X212027544Y-67362452D01*
X211912335Y-67276206D01*
X211912328Y-67276202D01*
X211780917Y-67227189D01*
X211724983Y-67185318D01*
X211700566Y-67119853D01*
X211715418Y-67051580D01*
X211736563Y-67023332D01*
X211858495Y-66901401D01*
X211994035Y-66707830D01*
X212093903Y-66493663D01*
X212155063Y-66265408D01*
X212175659Y-66030000D01*
X212155063Y-65794592D01*
X212093903Y-65566337D01*
X211994035Y-65352171D01*
X211858495Y-65158599D01*
X211858494Y-65158597D01*
X211691402Y-64991506D01*
X211691396Y-64991501D01*
X211505842Y-64861575D01*
X211462217Y-64806998D01*
X211455023Y-64737500D01*
X211486546Y-64675145D01*
X211505842Y-64658425D01*
X211528026Y-64642891D01*
X211691401Y-64528495D01*
X211858495Y-64361401D01*
X211994035Y-64167830D01*
X212093903Y-63953663D01*
X212155063Y-63725408D01*
X212175659Y-63490000D01*
X212155063Y-63254592D01*
X212093903Y-63026337D01*
X211994035Y-62812171D01*
X211858495Y-62618599D01*
X211858494Y-62618597D01*
X211691402Y-62451506D01*
X211691401Y-62451505D01*
X211505405Y-62321269D01*
X211461781Y-62266692D01*
X211454588Y-62197193D01*
X211486110Y-62134839D01*
X211505405Y-62118119D01*
X211691082Y-61988105D01*
X211858105Y-61821082D01*
X211993600Y-61627578D01*
X212093429Y-61413492D01*
X212093432Y-61413486D01*
X212150636Y-61200000D01*
X211253012Y-61200000D01*
X211285925Y-61142993D01*
X211320000Y-61015826D01*
X211320000Y-60884174D01*
X211285925Y-60757007D01*
X211253012Y-60700000D01*
X212150636Y-60700000D01*
X212150635Y-60699999D01*
X212093432Y-60486513D01*
X212093429Y-60486507D01*
X211993600Y-60272422D01*
X211993599Y-60272420D01*
X211858113Y-60078926D01*
X211858108Y-60078920D01*
X211691082Y-59911894D01*
X211497578Y-59776399D01*
X211283492Y-59676570D01*
X211283486Y-59676567D01*
X211070000Y-59619364D01*
X211070000Y-60516988D01*
X211012993Y-60484075D01*
X210885826Y-60450000D01*
X210754174Y-60450000D01*
X210627007Y-60484075D01*
X210570000Y-60516988D01*
X210570000Y-59619364D01*
X210569999Y-59619364D01*
X210356513Y-59676567D01*
X210356507Y-59676570D01*
X210142422Y-59776399D01*
X210142420Y-59776400D01*
X209948926Y-59911886D01*
X209948920Y-59911891D01*
X209781891Y-60078920D01*
X209781886Y-60078926D01*
X209646400Y-60272420D01*
X209646399Y-60272422D01*
X209546570Y-60486507D01*
X209546567Y-60486513D01*
X209489364Y-60699999D01*
X209489364Y-60700000D01*
X210386988Y-60700000D01*
X210354075Y-60757007D01*
X210320000Y-60884174D01*
X210320000Y-61015826D01*
X210354075Y-61142993D01*
X210386988Y-61200000D01*
X209489364Y-61200000D01*
X209546567Y-61413486D01*
X209546570Y-61413492D01*
X209646399Y-61627578D01*
X209781894Y-61821082D01*
X209948917Y-61988105D01*
X210134595Y-62118119D01*
X210178219Y-62172696D01*
X210185412Y-62242195D01*
X210153890Y-62304549D01*
X210134595Y-62321269D01*
X209948594Y-62451508D01*
X209781505Y-62618597D01*
X209645965Y-62812169D01*
X209645964Y-62812171D01*
X209546098Y-63026335D01*
X209546094Y-63026344D01*
X209484938Y-63254586D01*
X209484936Y-63254596D01*
X209464341Y-63489999D01*
X209464341Y-63490000D01*
X209484936Y-63725403D01*
X209484938Y-63725413D01*
X209546094Y-63953655D01*
X209546096Y-63953659D01*
X209546097Y-63953663D01*
X209588055Y-64043642D01*
X209645965Y-64167830D01*
X209645967Y-64167834D01*
X209781501Y-64361395D01*
X209781506Y-64361402D01*
X209948597Y-64528493D01*
X209948603Y-64528498D01*
X210134158Y-64658425D01*
X210177783Y-64713002D01*
X210184977Y-64782500D01*
X210153454Y-64844855D01*
X210134158Y-64861575D01*
X209948597Y-64991505D01*
X209781505Y-65158597D01*
X209645965Y-65352169D01*
X209645964Y-65352171D01*
X209546098Y-65566335D01*
X209546094Y-65566344D01*
X209484938Y-65794586D01*
X209484936Y-65794596D01*
X209464341Y-66029999D01*
X209464341Y-66030000D01*
X142240000Y-66030000D01*
X142240000Y-63182500D01*
X145462040Y-63182500D01*
X145481826Y-63370756D01*
X145481827Y-63370759D01*
X145540318Y-63550777D01*
X145540321Y-63550784D01*
X145634967Y-63714716D01*
X145644599Y-63725413D01*
X145761629Y-63855388D01*
X145914765Y-63966648D01*
X145914770Y-63966651D01*
X146087692Y-64043642D01*
X146087697Y-64043644D01*
X146272854Y-64083000D01*
X146272855Y-64083000D01*
X146462144Y-64083000D01*
X146462146Y-64083000D01*
X146647303Y-64043644D01*
X146820230Y-63966651D01*
X146973371Y-63855388D01*
X147100033Y-63714716D01*
X147194679Y-63550784D01*
X147253174Y-63370756D01*
X147272960Y-63182500D01*
X147253174Y-62994244D01*
X147194679Y-62814216D01*
X147100033Y-62650284D01*
X146973371Y-62509612D01*
X146973370Y-62509611D01*
X146820234Y-62398351D01*
X146820229Y-62398348D01*
X146647307Y-62321357D01*
X146647302Y-62321355D01*
X146501501Y-62290365D01*
X146462146Y-62282000D01*
X146272854Y-62282000D01*
X146240397Y-62288898D01*
X146087697Y-62321355D01*
X146087692Y-62321357D01*
X145914770Y-62398348D01*
X145914765Y-62398351D01*
X145761629Y-62509611D01*
X145634966Y-62650285D01*
X145540321Y-62814215D01*
X145540318Y-62814222D01*
X145481827Y-62994240D01*
X145481826Y-62994244D01*
X145462040Y-63182500D01*
X142240000Y-63182500D01*
X142240000Y-57785000D01*
X154034540Y-57785000D01*
X154054326Y-57973256D01*
X154054327Y-57973259D01*
X154112818Y-58153277D01*
X154112821Y-58153284D01*
X154207467Y-58317216D01*
X154334129Y-58457888D01*
X154487265Y-58569148D01*
X154487270Y-58569151D01*
X154660192Y-58646142D01*
X154660197Y-58646144D01*
X154845354Y-58685500D01*
X154845355Y-58685500D01*
X155034644Y-58685500D01*
X155034646Y-58685500D01*
X155219803Y-58646144D01*
X155392730Y-58569151D01*
X155545871Y-58457888D01*
X155672533Y-58317216D01*
X155767179Y-58153284D01*
X155825674Y-57973256D01*
X155845460Y-57785000D01*
X155825674Y-57596744D01*
X155767179Y-57416716D01*
X155672533Y-57252784D01*
X155545871Y-57112112D01*
X155545870Y-57112111D01*
X155392734Y-57000851D01*
X155392729Y-57000848D01*
X155219807Y-56923857D01*
X155219802Y-56923855D01*
X155074001Y-56892865D01*
X155034646Y-56884500D01*
X154845354Y-56884500D01*
X154812897Y-56891398D01*
X154660197Y-56923855D01*
X154660192Y-56923857D01*
X154487270Y-57000848D01*
X154487265Y-57000851D01*
X154334129Y-57112111D01*
X154207466Y-57252785D01*
X154112821Y-57416715D01*
X154112818Y-57416722D01*
X154054327Y-57596740D01*
X154054326Y-57596744D01*
X154034540Y-57785000D01*
X142240000Y-57785000D01*
X142240000Y-52705000D01*
X159114540Y-52705000D01*
X159134326Y-52893256D01*
X159134327Y-52893259D01*
X159192818Y-53073277D01*
X159192821Y-53073284D01*
X159287467Y-53237216D01*
X159414129Y-53377888D01*
X159567265Y-53489148D01*
X159567270Y-53489151D01*
X159740192Y-53566142D01*
X159740197Y-53566144D01*
X159925354Y-53605500D01*
X159925355Y-53605500D01*
X160114644Y-53605500D01*
X160114646Y-53605500D01*
X160299803Y-53566144D01*
X160472730Y-53489151D01*
X160625871Y-53377888D01*
X160752533Y-53237216D01*
X160847179Y-53073284D01*
X160905674Y-52893256D01*
X160925460Y-52705000D01*
X160905674Y-52516744D01*
X160847179Y-52336716D01*
X160752533Y-52172784D01*
X160658068Y-52067870D01*
X175174500Y-52067870D01*
X175174501Y-52067876D01*
X175180908Y-52127483D01*
X175231202Y-52262328D01*
X175231206Y-52262335D01*
X175317452Y-52377544D01*
X175317455Y-52377547D01*
X175432664Y-52463793D01*
X175432671Y-52463797D01*
X175567517Y-52514091D01*
X175567516Y-52514091D01*
X175574444Y-52514835D01*
X175627127Y-52520500D01*
X177422872Y-52520499D01*
X177482483Y-52514091D01*
X177617331Y-52463796D01*
X177732546Y-52377546D01*
X177818796Y-52262331D01*
X177868002Y-52130401D01*
X177909872Y-52074468D01*
X177975337Y-52050050D01*
X178043610Y-52064901D01*
X178071865Y-52086053D01*
X178193917Y-52208105D01*
X178387421Y-52343600D01*
X178601507Y-52443429D01*
X178601516Y-52443433D01*
X178815000Y-52500634D01*
X178815000Y-51603012D01*
X178872007Y-51635925D01*
X178999174Y-51670000D01*
X179130826Y-51670000D01*
X179257993Y-51635925D01*
X179315000Y-51603012D01*
X179315000Y-52500633D01*
X179528483Y-52443433D01*
X179528492Y-52443429D01*
X179742578Y-52343600D01*
X179936082Y-52208105D01*
X180103105Y-52041082D01*
X180233119Y-51855405D01*
X180287696Y-51811781D01*
X180357195Y-51804588D01*
X180419549Y-51836110D01*
X180436269Y-51855405D01*
X180566505Y-52041401D01*
X180733599Y-52208495D01*
X180830384Y-52276265D01*
X180927165Y-52344032D01*
X180927167Y-52344033D01*
X180927170Y-52344035D01*
X181141337Y-52443903D01*
X181369592Y-52505063D01*
X181546034Y-52520500D01*
X181604999Y-52525659D01*
X181605000Y-52525659D01*
X181605001Y-52525659D01*
X181663966Y-52520500D01*
X181840408Y-52505063D01*
X182068663Y-52443903D01*
X182282830Y-52344035D01*
X182476401Y-52208495D01*
X182643495Y-52041401D01*
X182773425Y-51855842D01*
X182828002Y-51812217D01*
X182897500Y-51805023D01*
X182959855Y-51836546D01*
X182976575Y-51855842D01*
X183106281Y-52041082D01*
X183106505Y-52041401D01*
X183273599Y-52208495D01*
X183370384Y-52276265D01*
X183467165Y-52344032D01*
X183467167Y-52344033D01*
X183467170Y-52344035D01*
X183681337Y-52443903D01*
X183909592Y-52505063D01*
X184086034Y-52520500D01*
X184144999Y-52525659D01*
X184145000Y-52525659D01*
X184145001Y-52525659D01*
X184203966Y-52520500D01*
X184380408Y-52505063D01*
X184608663Y-52443903D01*
X184822830Y-52344035D01*
X185016401Y-52208495D01*
X185183495Y-52041401D01*
X185313425Y-51855842D01*
X185368002Y-51812217D01*
X185437500Y-51805023D01*
X185499855Y-51836546D01*
X185516575Y-51855842D01*
X185646281Y-52041082D01*
X185646505Y-52041401D01*
X185813599Y-52208495D01*
X185910384Y-52276265D01*
X186007165Y-52344032D01*
X186007167Y-52344033D01*
X186007170Y-52344035D01*
X186221337Y-52443903D01*
X186449592Y-52505063D01*
X186626034Y-52520500D01*
X186684999Y-52525659D01*
X186685000Y-52525659D01*
X186685001Y-52525659D01*
X186743966Y-52520500D01*
X186920408Y-52505063D01*
X187148663Y-52443903D01*
X187362830Y-52344035D01*
X187556401Y-52208495D01*
X187723495Y-52041401D01*
X187853425Y-51855842D01*
X187908002Y-51812217D01*
X187977500Y-51805023D01*
X188039855Y-51836546D01*
X188056575Y-51855842D01*
X188186281Y-52041082D01*
X188186505Y-52041401D01*
X188353599Y-52208495D01*
X188450384Y-52276265D01*
X188547165Y-52344032D01*
X188547167Y-52344033D01*
X188547170Y-52344035D01*
X188761337Y-52443903D01*
X188989592Y-52505063D01*
X189166034Y-52520500D01*
X189224999Y-52525659D01*
X189225000Y-52525659D01*
X189225001Y-52525659D01*
X189283966Y-52520500D01*
X189460408Y-52505063D01*
X189688663Y-52443903D01*
X189902830Y-52344035D01*
X190096401Y-52208495D01*
X190263495Y-52041401D01*
X190393730Y-51855405D01*
X190448307Y-51811781D01*
X190517805Y-51804587D01*
X190580160Y-51836110D01*
X190596879Y-51855405D01*
X190726890Y-52041078D01*
X190893917Y-52208105D01*
X191087421Y-52343600D01*
X191301507Y-52443429D01*
X191301516Y-52443433D01*
X191515000Y-52500634D01*
X191515000Y-51603012D01*
X191572007Y-51635925D01*
X191699174Y-51670000D01*
X191830826Y-51670000D01*
X191957993Y-51635925D01*
X192015000Y-51603012D01*
X192015000Y-52500634D01*
X192228483Y-52443433D01*
X192228492Y-52443429D01*
X192442578Y-52343600D01*
X192636082Y-52208105D01*
X192776317Y-52067870D01*
X196764500Y-52067870D01*
X196764501Y-52067876D01*
X196770908Y-52127483D01*
X196821202Y-52262328D01*
X196821206Y-52262335D01*
X196907452Y-52377544D01*
X196907455Y-52377547D01*
X197022664Y-52463793D01*
X197022671Y-52463797D01*
X197157517Y-52514091D01*
X197157516Y-52514091D01*
X197164444Y-52514835D01*
X197217127Y-52520500D01*
X199012872Y-52520499D01*
X199072483Y-52514091D01*
X199207331Y-52463796D01*
X199322546Y-52377546D01*
X199408796Y-52262331D01*
X199458002Y-52130401D01*
X199499872Y-52074468D01*
X199565337Y-52050050D01*
X199633610Y-52064901D01*
X199661865Y-52086053D01*
X199783917Y-52208105D01*
X199977421Y-52343600D01*
X200191507Y-52443429D01*
X200191516Y-52443433D01*
X200405000Y-52500634D01*
X200405000Y-51603012D01*
X200462007Y-51635925D01*
X200589174Y-51670000D01*
X200720826Y-51670000D01*
X200847993Y-51635925D01*
X200905000Y-51603012D01*
X200905000Y-52500633D01*
X201118483Y-52443433D01*
X201118492Y-52443429D01*
X201332578Y-52343600D01*
X201526082Y-52208105D01*
X201693105Y-52041082D01*
X201823119Y-51855405D01*
X201877696Y-51811781D01*
X201947195Y-51804588D01*
X202009549Y-51836110D01*
X202026269Y-51855405D01*
X202156505Y-52041401D01*
X202323599Y-52208495D01*
X202420384Y-52276265D01*
X202517165Y-52344032D01*
X202517167Y-52344033D01*
X202517170Y-52344035D01*
X202731337Y-52443903D01*
X202959592Y-52505063D01*
X203136034Y-52520500D01*
X203194999Y-52525659D01*
X203195000Y-52525659D01*
X203195001Y-52525659D01*
X203253966Y-52520500D01*
X203430408Y-52505063D01*
X203658663Y-52443903D01*
X203872830Y-52344035D01*
X204066401Y-52208495D01*
X204233495Y-52041401D01*
X204363425Y-51855842D01*
X204418002Y-51812217D01*
X204487500Y-51805023D01*
X204549855Y-51836546D01*
X204566575Y-51855842D01*
X204696281Y-52041082D01*
X204696505Y-52041401D01*
X204863599Y-52208495D01*
X204960384Y-52276265D01*
X205057165Y-52344032D01*
X205057167Y-52344033D01*
X205057170Y-52344035D01*
X205271337Y-52443903D01*
X205499592Y-52505063D01*
X205676034Y-52520500D01*
X205734999Y-52525659D01*
X205735000Y-52525659D01*
X205735001Y-52525659D01*
X205793966Y-52520500D01*
X205970408Y-52505063D01*
X206198663Y-52443903D01*
X206412830Y-52344035D01*
X206606401Y-52208495D01*
X206773495Y-52041401D01*
X206903425Y-51855842D01*
X206958002Y-51812217D01*
X207027500Y-51805023D01*
X207089855Y-51836546D01*
X207106575Y-51855842D01*
X207236281Y-52041082D01*
X207236505Y-52041401D01*
X207403599Y-52208495D01*
X207500384Y-52276265D01*
X207597165Y-52344032D01*
X207597167Y-52344033D01*
X207597170Y-52344035D01*
X207811337Y-52443903D01*
X208039592Y-52505063D01*
X208216034Y-52520500D01*
X208274999Y-52525659D01*
X208275000Y-52525659D01*
X208275001Y-52525659D01*
X208333966Y-52520500D01*
X208510408Y-52505063D01*
X208738663Y-52443903D01*
X208952830Y-52344035D01*
X209146401Y-52208495D01*
X209313495Y-52041401D01*
X209443425Y-51855842D01*
X209498002Y-51812217D01*
X209567500Y-51805023D01*
X209629855Y-51836546D01*
X209646575Y-51855842D01*
X209776281Y-52041082D01*
X209776505Y-52041401D01*
X209943599Y-52208495D01*
X210040384Y-52276265D01*
X210137165Y-52344032D01*
X210137167Y-52344033D01*
X210137170Y-52344035D01*
X210351337Y-52443903D01*
X210579592Y-52505063D01*
X210756034Y-52520500D01*
X210814999Y-52525659D01*
X210815000Y-52525659D01*
X210815001Y-52525659D01*
X210873966Y-52520500D01*
X211050408Y-52505063D01*
X211278663Y-52443903D01*
X211492830Y-52344035D01*
X211686401Y-52208495D01*
X211853495Y-52041401D01*
X211983730Y-51855405D01*
X212038307Y-51811781D01*
X212107805Y-51804587D01*
X212170160Y-51836110D01*
X212186879Y-51855405D01*
X212316890Y-52041078D01*
X212483917Y-52208105D01*
X212677421Y-52343600D01*
X212891507Y-52443429D01*
X212891516Y-52443433D01*
X213105000Y-52500634D01*
X213105000Y-51603012D01*
X213162007Y-51635925D01*
X213289174Y-51670000D01*
X213420826Y-51670000D01*
X213547993Y-51635925D01*
X213605000Y-51603012D01*
X213605000Y-52500633D01*
X213818483Y-52443433D01*
X213818492Y-52443429D01*
X214032578Y-52343600D01*
X214226082Y-52208105D01*
X214393105Y-52041082D01*
X214528600Y-51847578D01*
X214628429Y-51633492D01*
X214628432Y-51633486D01*
X214685636Y-51420000D01*
X213788012Y-51420000D01*
X213820925Y-51362993D01*
X213855000Y-51235826D01*
X213855000Y-51104174D01*
X213820925Y-50977007D01*
X213788012Y-50920000D01*
X214685636Y-50920000D01*
X214685635Y-50919999D01*
X214628432Y-50706513D01*
X214628429Y-50706507D01*
X214528600Y-50492422D01*
X214528599Y-50492420D01*
X214393113Y-50298926D01*
X214393108Y-50298920D01*
X214226082Y-50131894D01*
X214032578Y-49996399D01*
X213818492Y-49896570D01*
X213818486Y-49896567D01*
X213605000Y-49839364D01*
X213605000Y-50736988D01*
X213547993Y-50704075D01*
X213420826Y-50670000D01*
X213289174Y-50670000D01*
X213162007Y-50704075D01*
X213105000Y-50736988D01*
X213105000Y-49839364D01*
X213104999Y-49839364D01*
X212891513Y-49896567D01*
X212891507Y-49896570D01*
X212677422Y-49996399D01*
X212677420Y-49996400D01*
X212483926Y-50131886D01*
X212483920Y-50131891D01*
X212316891Y-50298920D01*
X212316890Y-50298922D01*
X212186880Y-50484595D01*
X212132303Y-50528219D01*
X212062804Y-50535412D01*
X212000450Y-50503890D01*
X211983730Y-50484594D01*
X211853494Y-50298597D01*
X211686402Y-50131506D01*
X211686395Y-50131501D01*
X211492834Y-49995967D01*
X211492830Y-49995965D01*
X211492828Y-49995964D01*
X211278663Y-49896097D01*
X211278659Y-49896096D01*
X211278655Y-49896094D01*
X211050413Y-49834938D01*
X211050403Y-49834936D01*
X210815001Y-49814341D01*
X210814999Y-49814341D01*
X210579596Y-49834936D01*
X210579586Y-49834938D01*
X210351344Y-49896094D01*
X210351335Y-49896098D01*
X210137171Y-49995964D01*
X210137169Y-49995965D01*
X209943597Y-50131505D01*
X209776505Y-50298597D01*
X209646575Y-50484158D01*
X209591998Y-50527783D01*
X209522500Y-50534977D01*
X209460145Y-50503454D01*
X209443425Y-50484158D01*
X209313494Y-50298597D01*
X209146402Y-50131506D01*
X209146395Y-50131501D01*
X208952834Y-49995967D01*
X208952830Y-49995965D01*
X208952828Y-49995964D01*
X208738663Y-49896097D01*
X208738659Y-49896096D01*
X208738655Y-49896094D01*
X208510413Y-49834938D01*
X208510403Y-49834936D01*
X208275001Y-49814341D01*
X208274999Y-49814341D01*
X208039596Y-49834936D01*
X208039586Y-49834938D01*
X207811344Y-49896094D01*
X207811335Y-49896098D01*
X207597171Y-49995964D01*
X207597169Y-49995965D01*
X207403597Y-50131505D01*
X207236505Y-50298597D01*
X207106575Y-50484158D01*
X207051998Y-50527783D01*
X206982500Y-50534977D01*
X206920145Y-50503454D01*
X206903425Y-50484158D01*
X206773494Y-50298597D01*
X206606402Y-50131506D01*
X206606395Y-50131501D01*
X206412834Y-49995967D01*
X206412830Y-49995965D01*
X206412828Y-49995964D01*
X206198663Y-49896097D01*
X206198659Y-49896096D01*
X206198655Y-49896094D01*
X205970413Y-49834938D01*
X205970403Y-49834936D01*
X205735001Y-49814341D01*
X205734999Y-49814341D01*
X205499596Y-49834936D01*
X205499586Y-49834938D01*
X205271344Y-49896094D01*
X205271335Y-49896098D01*
X205057171Y-49995964D01*
X205057169Y-49995965D01*
X204863597Y-50131505D01*
X204696505Y-50298597D01*
X204566575Y-50484158D01*
X204511998Y-50527783D01*
X204442500Y-50534977D01*
X204380145Y-50503454D01*
X204363425Y-50484158D01*
X204233494Y-50298597D01*
X204066402Y-50131506D01*
X204066395Y-50131501D01*
X203872834Y-49995967D01*
X203872830Y-49995965D01*
X203872828Y-49995964D01*
X203658663Y-49896097D01*
X203658659Y-49896096D01*
X203658655Y-49896094D01*
X203430413Y-49834938D01*
X203430403Y-49834936D01*
X203195001Y-49814341D01*
X203194999Y-49814341D01*
X202959596Y-49834936D01*
X202959586Y-49834938D01*
X202731344Y-49896094D01*
X202731335Y-49896098D01*
X202517171Y-49995964D01*
X202517169Y-49995965D01*
X202323597Y-50131505D01*
X202156508Y-50298594D01*
X202026269Y-50484595D01*
X201971692Y-50528219D01*
X201902193Y-50535412D01*
X201839839Y-50503890D01*
X201823119Y-50484594D01*
X201693113Y-50298926D01*
X201693108Y-50298920D01*
X201526082Y-50131894D01*
X201332578Y-49996399D01*
X201118492Y-49896570D01*
X201118486Y-49896567D01*
X200905000Y-49839364D01*
X200905000Y-50736988D01*
X200847993Y-50704075D01*
X200720826Y-50670000D01*
X200589174Y-50670000D01*
X200462007Y-50704075D01*
X200405000Y-50736988D01*
X200405000Y-49839364D01*
X200404999Y-49839364D01*
X200191513Y-49896567D01*
X200191507Y-49896570D01*
X199977422Y-49996399D01*
X199977420Y-49996400D01*
X199783926Y-50131886D01*
X199661865Y-50253947D01*
X199600542Y-50287431D01*
X199530850Y-50282447D01*
X199474917Y-50240575D01*
X199458002Y-50209598D01*
X199408797Y-50077671D01*
X199408793Y-50077664D01*
X199322547Y-49962455D01*
X199322544Y-49962452D01*
X199207335Y-49876206D01*
X199207328Y-49876202D01*
X199072482Y-49825908D01*
X199072483Y-49825908D01*
X199012883Y-49819501D01*
X199012881Y-49819500D01*
X199012873Y-49819500D01*
X199012864Y-49819500D01*
X197217129Y-49819500D01*
X197217123Y-49819501D01*
X197157516Y-49825908D01*
X197022671Y-49876202D01*
X197022664Y-49876206D01*
X196907455Y-49962452D01*
X196907452Y-49962455D01*
X196821206Y-50077664D01*
X196821202Y-50077671D01*
X196770908Y-50212517D01*
X196764501Y-50272116D01*
X196764500Y-50272135D01*
X196764500Y-52067870D01*
X192776317Y-52067870D01*
X192803105Y-52041082D01*
X192938600Y-51847578D01*
X193038429Y-51633492D01*
X193038432Y-51633486D01*
X193095636Y-51420000D01*
X192198012Y-51420000D01*
X192230925Y-51362993D01*
X192265000Y-51235826D01*
X192265000Y-51104174D01*
X192230925Y-50977007D01*
X192198012Y-50920000D01*
X193095636Y-50920000D01*
X193095635Y-50919999D01*
X193038432Y-50706513D01*
X193038429Y-50706507D01*
X192938600Y-50492422D01*
X192938599Y-50492420D01*
X192803113Y-50298926D01*
X192803108Y-50298920D01*
X192636082Y-50131894D01*
X192442578Y-49996399D01*
X192228492Y-49896570D01*
X192228486Y-49896567D01*
X192015000Y-49839364D01*
X192015000Y-50736988D01*
X191957993Y-50704075D01*
X191830826Y-50670000D01*
X191699174Y-50670000D01*
X191572007Y-50704075D01*
X191515000Y-50736988D01*
X191515000Y-49839364D01*
X191514999Y-49839364D01*
X191301513Y-49896567D01*
X191301507Y-49896570D01*
X191087422Y-49996399D01*
X191087420Y-49996400D01*
X190893926Y-50131886D01*
X190893920Y-50131891D01*
X190726891Y-50298920D01*
X190726890Y-50298922D01*
X190596880Y-50484595D01*
X190542303Y-50528219D01*
X190472804Y-50535412D01*
X190410450Y-50503890D01*
X190393730Y-50484594D01*
X190263494Y-50298597D01*
X190096402Y-50131506D01*
X190096395Y-50131501D01*
X189902834Y-49995967D01*
X189902830Y-49995965D01*
X189902828Y-49995964D01*
X189688663Y-49896097D01*
X189688659Y-49896096D01*
X189688655Y-49896094D01*
X189460413Y-49834938D01*
X189460403Y-49834936D01*
X189225001Y-49814341D01*
X189224999Y-49814341D01*
X188989596Y-49834936D01*
X188989586Y-49834938D01*
X188761344Y-49896094D01*
X188761335Y-49896098D01*
X188547171Y-49995964D01*
X188547169Y-49995965D01*
X188353597Y-50131505D01*
X188186505Y-50298597D01*
X188056575Y-50484158D01*
X188001998Y-50527783D01*
X187932500Y-50534977D01*
X187870145Y-50503454D01*
X187853425Y-50484158D01*
X187723494Y-50298597D01*
X187556402Y-50131506D01*
X187556395Y-50131501D01*
X187362834Y-49995967D01*
X187362830Y-49995965D01*
X187362828Y-49995964D01*
X187148663Y-49896097D01*
X187148659Y-49896096D01*
X187148655Y-49896094D01*
X186920413Y-49834938D01*
X186920403Y-49834936D01*
X186685001Y-49814341D01*
X186684999Y-49814341D01*
X186449596Y-49834936D01*
X186449586Y-49834938D01*
X186221344Y-49896094D01*
X186221335Y-49896098D01*
X186007171Y-49995964D01*
X186007169Y-49995965D01*
X185813597Y-50131505D01*
X185646505Y-50298597D01*
X185516575Y-50484158D01*
X185461998Y-50527783D01*
X185392500Y-50534977D01*
X185330145Y-50503454D01*
X185313425Y-50484158D01*
X185183494Y-50298597D01*
X185016402Y-50131506D01*
X185016395Y-50131501D01*
X184822834Y-49995967D01*
X184822830Y-49995965D01*
X184822828Y-49995964D01*
X184608663Y-49896097D01*
X184608659Y-49896096D01*
X184608655Y-49896094D01*
X184380413Y-49834938D01*
X184380403Y-49834936D01*
X184145001Y-49814341D01*
X184144999Y-49814341D01*
X183909596Y-49834936D01*
X183909586Y-49834938D01*
X183681344Y-49896094D01*
X183681335Y-49896098D01*
X183467171Y-49995964D01*
X183467169Y-49995965D01*
X183273597Y-50131505D01*
X183106505Y-50298597D01*
X182976575Y-50484158D01*
X182921998Y-50527783D01*
X182852500Y-50534977D01*
X182790145Y-50503454D01*
X182773425Y-50484158D01*
X182643494Y-50298597D01*
X182476402Y-50131506D01*
X182476395Y-50131501D01*
X182282834Y-49995967D01*
X182282830Y-49995965D01*
X182282828Y-49995964D01*
X182068663Y-49896097D01*
X182068659Y-49896096D01*
X182068655Y-49896094D01*
X181840413Y-49834938D01*
X181840403Y-49834936D01*
X181605001Y-49814341D01*
X181604999Y-49814341D01*
X181369596Y-49834936D01*
X181369586Y-49834938D01*
X181141344Y-49896094D01*
X181141335Y-49896098D01*
X180927171Y-49995964D01*
X180927169Y-49995965D01*
X180733597Y-50131505D01*
X180566508Y-50298594D01*
X180436269Y-50484595D01*
X180381692Y-50528219D01*
X180312193Y-50535412D01*
X180249839Y-50503890D01*
X180233119Y-50484594D01*
X180103113Y-50298926D01*
X180103108Y-50298920D01*
X179936082Y-50131894D01*
X179742578Y-49996399D01*
X179528492Y-49896570D01*
X179528486Y-49896567D01*
X179315000Y-49839364D01*
X179315000Y-50736988D01*
X179257993Y-50704075D01*
X179130826Y-50670000D01*
X178999174Y-50670000D01*
X178872007Y-50704075D01*
X178815000Y-50736988D01*
X178815000Y-49839364D01*
X178814999Y-49839364D01*
X178601513Y-49896567D01*
X178601507Y-49896570D01*
X178387422Y-49996399D01*
X178387420Y-49996400D01*
X178193926Y-50131886D01*
X178071865Y-50253947D01*
X178010542Y-50287431D01*
X177940850Y-50282447D01*
X177884917Y-50240575D01*
X177868002Y-50209598D01*
X177818797Y-50077671D01*
X177818793Y-50077664D01*
X177732547Y-49962455D01*
X177732544Y-49962452D01*
X177617335Y-49876206D01*
X177617328Y-49876202D01*
X177482482Y-49825908D01*
X177482483Y-49825908D01*
X177422883Y-49819501D01*
X177422881Y-49819500D01*
X177422873Y-49819500D01*
X177422864Y-49819500D01*
X175627129Y-49819500D01*
X175627123Y-49819501D01*
X175567516Y-49825908D01*
X175432671Y-49876202D01*
X175432664Y-49876206D01*
X175317455Y-49962452D01*
X175317452Y-49962455D01*
X175231206Y-50077664D01*
X175231202Y-50077671D01*
X175180908Y-50212517D01*
X175174501Y-50272116D01*
X175174500Y-50272135D01*
X175174500Y-52067870D01*
X160658068Y-52067870D01*
X160625871Y-52032112D01*
X160625870Y-52032111D01*
X160472734Y-51920851D01*
X160472729Y-51920848D01*
X160299807Y-51843857D01*
X160299802Y-51843855D01*
X160148901Y-51811781D01*
X160114646Y-51804500D01*
X159925354Y-51804500D01*
X159892897Y-51811398D01*
X159740197Y-51843855D01*
X159740192Y-51843857D01*
X159567270Y-51920848D01*
X159567265Y-51920851D01*
X159414129Y-52032111D01*
X159287466Y-52172785D01*
X159192821Y-52336715D01*
X159192818Y-52336722D01*
X159139560Y-52500634D01*
X159134326Y-52516744D01*
X159114540Y-52705000D01*
X142240000Y-52705000D01*
X142240000Y-45720000D01*
X146414540Y-45720000D01*
X146434326Y-45908256D01*
X146434327Y-45908259D01*
X146492818Y-46088277D01*
X146492821Y-46088284D01*
X146587467Y-46252216D01*
X146714129Y-46392888D01*
X146867265Y-46504148D01*
X146867270Y-46504151D01*
X147040192Y-46581142D01*
X147040197Y-46581144D01*
X147225354Y-46620500D01*
X147225355Y-46620500D01*
X147414644Y-46620500D01*
X147414646Y-46620500D01*
X147599803Y-46581144D01*
X147772730Y-46504151D01*
X147925871Y-46392888D01*
X148052533Y-46252216D01*
X148147179Y-46088284D01*
X148205674Y-45908256D01*
X148225460Y-45720000D01*
X148215369Y-45623994D01*
X148227938Y-45555268D01*
X148275670Y-45504244D01*
X148343410Y-45487126D01*
X148409652Y-45509348D01*
X148418619Y-45516235D01*
X148567861Y-45642065D01*
X148567868Y-45642070D01*
X148769810Y-45760574D01*
X148988874Y-45843245D01*
X149218759Y-45887705D01*
X149271378Y-45890500D01*
X149271386Y-45890500D01*
X151208614Y-45890500D01*
X151208622Y-45890500D01*
X151261241Y-45887705D01*
X151491126Y-45843245D01*
X151710190Y-45760574D01*
X151912132Y-45642070D01*
X152091142Y-45491142D01*
X152242070Y-45312132D01*
X152360574Y-45110190D01*
X152443245Y-44891126D01*
X152443756Y-44888485D01*
X152444281Y-44887467D01*
X152444683Y-44886050D01*
X152444971Y-44886131D01*
X152475812Y-44826403D01*
X152536343Y-44791507D01*
X152606131Y-44794876D01*
X152663019Y-44835440D01*
X152688946Y-44900322D01*
X152689500Y-44912030D01*
X152689500Y-48437870D01*
X152689501Y-48437876D01*
X152695908Y-48497483D01*
X152746202Y-48632328D01*
X152746206Y-48632335D01*
X152832452Y-48747544D01*
X152832455Y-48747547D01*
X152947664Y-48833793D01*
X152947671Y-48833797D01*
X153082517Y-48884091D01*
X153082516Y-48884091D01*
X153089444Y-48884835D01*
X153142127Y-48890500D01*
X156737872Y-48890499D01*
X156797483Y-48884091D01*
X156932331Y-48833796D01*
X157047546Y-48747546D01*
X157133796Y-48632331D01*
X157184091Y-48497483D01*
X157190500Y-48437873D01*
X157190499Y-44842128D01*
X157184091Y-44782517D01*
X157174777Y-44757546D01*
X157133797Y-44647671D01*
X157133793Y-44647664D01*
X157047547Y-44532455D01*
X157047544Y-44532452D01*
X156934558Y-44447870D01*
X175174500Y-44447870D01*
X175174501Y-44447876D01*
X175180908Y-44507483D01*
X175231202Y-44642328D01*
X175231206Y-44642335D01*
X175317452Y-44757544D01*
X175317455Y-44757547D01*
X175432664Y-44843793D01*
X175432671Y-44843797D01*
X175567517Y-44894091D01*
X175567516Y-44894091D01*
X175574444Y-44894835D01*
X175627127Y-44900500D01*
X177422872Y-44900499D01*
X177482483Y-44894091D01*
X177617331Y-44843796D01*
X177732546Y-44757546D01*
X177818796Y-44642331D01*
X177867810Y-44510916D01*
X177909681Y-44454984D01*
X177975145Y-44430566D01*
X178043418Y-44445417D01*
X178071673Y-44466569D01*
X178193599Y-44588495D01*
X178274332Y-44645025D01*
X178387165Y-44724032D01*
X178387167Y-44724033D01*
X178387170Y-44724035D01*
X178601337Y-44823903D01*
X178829592Y-44885063D01*
X179006034Y-44900500D01*
X179064999Y-44905659D01*
X179065000Y-44905659D01*
X179065001Y-44905659D01*
X179123966Y-44900500D01*
X179300408Y-44885063D01*
X179528663Y-44823903D01*
X179742830Y-44724035D01*
X179936401Y-44588495D01*
X180103495Y-44421401D01*
X180233425Y-44235842D01*
X180288002Y-44192217D01*
X180357500Y-44185023D01*
X180419855Y-44216546D01*
X180436575Y-44235842D01*
X180566500Y-44421395D01*
X180566505Y-44421401D01*
X180733599Y-44588495D01*
X180814332Y-44645025D01*
X180927165Y-44724032D01*
X180927167Y-44724033D01*
X180927170Y-44724035D01*
X181141337Y-44823903D01*
X181369592Y-44885063D01*
X181546034Y-44900500D01*
X181604999Y-44905659D01*
X181605000Y-44905659D01*
X181605001Y-44905659D01*
X181663966Y-44900500D01*
X181840408Y-44885063D01*
X182068663Y-44823903D01*
X182282830Y-44724035D01*
X182476401Y-44588495D01*
X182643495Y-44421401D01*
X182773425Y-44235842D01*
X182828002Y-44192217D01*
X182897500Y-44185023D01*
X182959855Y-44216546D01*
X182976575Y-44235842D01*
X183106500Y-44421395D01*
X183106505Y-44421401D01*
X183273599Y-44588495D01*
X183354332Y-44645025D01*
X183467165Y-44724032D01*
X183467167Y-44724033D01*
X183467170Y-44724035D01*
X183681337Y-44823903D01*
X183909592Y-44885063D01*
X184086034Y-44900500D01*
X184144999Y-44905659D01*
X184145000Y-44905659D01*
X184145001Y-44905659D01*
X184203966Y-44900500D01*
X184380408Y-44885063D01*
X184608663Y-44823903D01*
X184822830Y-44724035D01*
X185016401Y-44588495D01*
X185183495Y-44421401D01*
X185313425Y-44235842D01*
X185368002Y-44192217D01*
X185437500Y-44185023D01*
X185499855Y-44216546D01*
X185516575Y-44235842D01*
X185646500Y-44421395D01*
X185646505Y-44421401D01*
X185813599Y-44588495D01*
X185894332Y-44645025D01*
X186007165Y-44724032D01*
X186007167Y-44724033D01*
X186007170Y-44724035D01*
X186221337Y-44823903D01*
X186449592Y-44885063D01*
X186626034Y-44900500D01*
X186684999Y-44905659D01*
X186685000Y-44905659D01*
X186685001Y-44905659D01*
X186743966Y-44900500D01*
X186920408Y-44885063D01*
X187148663Y-44823903D01*
X187362830Y-44724035D01*
X187556401Y-44588495D01*
X187723495Y-44421401D01*
X187853425Y-44235842D01*
X187908002Y-44192217D01*
X187977500Y-44185023D01*
X188039855Y-44216546D01*
X188056575Y-44235842D01*
X188186500Y-44421395D01*
X188186505Y-44421401D01*
X188353599Y-44588495D01*
X188434332Y-44645025D01*
X188547165Y-44724032D01*
X188547167Y-44724033D01*
X188547170Y-44724035D01*
X188761337Y-44823903D01*
X188989592Y-44885063D01*
X189166034Y-44900500D01*
X189224999Y-44905659D01*
X189225000Y-44905659D01*
X189225001Y-44905659D01*
X189283966Y-44900500D01*
X189460408Y-44885063D01*
X189688663Y-44823903D01*
X189902830Y-44724035D01*
X190096401Y-44588495D01*
X190263495Y-44421401D01*
X190393425Y-44235842D01*
X190448002Y-44192217D01*
X190517500Y-44185023D01*
X190579855Y-44216546D01*
X190596575Y-44235842D01*
X190726500Y-44421395D01*
X190726505Y-44421401D01*
X190893599Y-44588495D01*
X190974332Y-44645025D01*
X191087165Y-44724032D01*
X191087167Y-44724033D01*
X191087170Y-44724035D01*
X191301337Y-44823903D01*
X191529592Y-44885063D01*
X191706034Y-44900500D01*
X191764999Y-44905659D01*
X191765000Y-44905659D01*
X191765001Y-44905659D01*
X191823966Y-44900500D01*
X192000408Y-44885063D01*
X192228663Y-44823903D01*
X192442830Y-44724035D01*
X192636401Y-44588495D01*
X192777026Y-44447870D01*
X196764500Y-44447870D01*
X196764501Y-44447876D01*
X196770908Y-44507483D01*
X196821202Y-44642328D01*
X196821206Y-44642335D01*
X196907452Y-44757544D01*
X196907455Y-44757547D01*
X197022664Y-44843793D01*
X197022671Y-44843797D01*
X197157517Y-44894091D01*
X197157516Y-44894091D01*
X197164444Y-44894835D01*
X197217127Y-44900500D01*
X199012872Y-44900499D01*
X199072483Y-44894091D01*
X199207331Y-44843796D01*
X199322546Y-44757546D01*
X199408796Y-44642331D01*
X199457810Y-44510916D01*
X199499681Y-44454984D01*
X199565145Y-44430566D01*
X199633418Y-44445417D01*
X199661673Y-44466569D01*
X199783599Y-44588495D01*
X199864332Y-44645025D01*
X199977165Y-44724032D01*
X199977167Y-44724033D01*
X199977170Y-44724035D01*
X200191337Y-44823903D01*
X200419592Y-44885063D01*
X200596034Y-44900500D01*
X200654999Y-44905659D01*
X200655000Y-44905659D01*
X200655001Y-44905659D01*
X200713966Y-44900500D01*
X200890408Y-44885063D01*
X201118663Y-44823903D01*
X201332830Y-44724035D01*
X201526401Y-44588495D01*
X201693495Y-44421401D01*
X201823425Y-44235842D01*
X201878002Y-44192217D01*
X201947500Y-44185023D01*
X202009855Y-44216546D01*
X202026575Y-44235842D01*
X202156500Y-44421395D01*
X202156505Y-44421401D01*
X202323599Y-44588495D01*
X202404332Y-44645025D01*
X202517165Y-44724032D01*
X202517167Y-44724033D01*
X202517170Y-44724035D01*
X202731337Y-44823903D01*
X202959592Y-44885063D01*
X203136034Y-44900500D01*
X203194999Y-44905659D01*
X203195000Y-44905659D01*
X203195001Y-44905659D01*
X203253966Y-44900500D01*
X203430408Y-44885063D01*
X203658663Y-44823903D01*
X203872830Y-44724035D01*
X204066401Y-44588495D01*
X204233495Y-44421401D01*
X204363425Y-44235842D01*
X204418002Y-44192217D01*
X204487500Y-44185023D01*
X204549855Y-44216546D01*
X204566575Y-44235842D01*
X204696500Y-44421395D01*
X204696505Y-44421401D01*
X204863599Y-44588495D01*
X204944332Y-44645025D01*
X205057165Y-44724032D01*
X205057167Y-44724033D01*
X205057170Y-44724035D01*
X205271337Y-44823903D01*
X205499592Y-44885063D01*
X205676034Y-44900500D01*
X205734999Y-44905659D01*
X205735000Y-44905659D01*
X205735001Y-44905659D01*
X205793966Y-44900500D01*
X205970408Y-44885063D01*
X206198663Y-44823903D01*
X206412830Y-44724035D01*
X206606401Y-44588495D01*
X206773495Y-44421401D01*
X206903425Y-44235842D01*
X206958002Y-44192217D01*
X207027500Y-44185023D01*
X207089855Y-44216546D01*
X207106575Y-44235842D01*
X207236500Y-44421395D01*
X207236505Y-44421401D01*
X207403599Y-44588495D01*
X207484332Y-44645025D01*
X207597165Y-44724032D01*
X207597167Y-44724033D01*
X207597170Y-44724035D01*
X207811337Y-44823903D01*
X208039592Y-44885063D01*
X208216034Y-44900500D01*
X208274999Y-44905659D01*
X208275000Y-44905659D01*
X208275001Y-44905659D01*
X208333966Y-44900500D01*
X208510408Y-44885063D01*
X208738663Y-44823903D01*
X208952830Y-44724035D01*
X209146401Y-44588495D01*
X209313495Y-44421401D01*
X209443425Y-44235842D01*
X209498002Y-44192217D01*
X209567500Y-44185023D01*
X209629855Y-44216546D01*
X209646575Y-44235842D01*
X209776500Y-44421395D01*
X209776505Y-44421401D01*
X209943599Y-44588495D01*
X210024332Y-44645025D01*
X210137165Y-44724032D01*
X210137167Y-44724033D01*
X210137170Y-44724035D01*
X210351337Y-44823903D01*
X210579592Y-44885063D01*
X210756034Y-44900500D01*
X210814999Y-44905659D01*
X210815000Y-44905659D01*
X210815001Y-44905659D01*
X210873966Y-44900500D01*
X211050408Y-44885063D01*
X211278663Y-44823903D01*
X211492830Y-44724035D01*
X211686401Y-44588495D01*
X211853495Y-44421401D01*
X211983425Y-44235842D01*
X212038002Y-44192217D01*
X212107500Y-44185023D01*
X212169855Y-44216546D01*
X212186575Y-44235842D01*
X212316500Y-44421395D01*
X212316505Y-44421401D01*
X212483599Y-44588495D01*
X212564332Y-44645025D01*
X212677165Y-44724032D01*
X212677167Y-44724033D01*
X212677170Y-44724035D01*
X212891337Y-44823903D01*
X213119592Y-44885063D01*
X213296034Y-44900500D01*
X213354999Y-44905659D01*
X213355000Y-44905659D01*
X213355001Y-44905659D01*
X213413966Y-44900500D01*
X213590408Y-44885063D01*
X213818663Y-44823903D01*
X214032830Y-44724035D01*
X214226401Y-44588495D01*
X214393495Y-44421401D01*
X214529035Y-44227830D01*
X214628903Y-44013663D01*
X214690063Y-43785408D01*
X214710659Y-43550000D01*
X214690063Y-43314592D01*
X214628903Y-43086337D01*
X214529035Y-42872171D01*
X214523425Y-42864158D01*
X214393494Y-42678597D01*
X214226402Y-42511506D01*
X214226395Y-42511501D01*
X214032834Y-42375967D01*
X214032830Y-42375965D01*
X214032828Y-42375964D01*
X213818663Y-42276097D01*
X213818659Y-42276096D01*
X213818655Y-42276094D01*
X213590413Y-42214938D01*
X213590403Y-42214936D01*
X213355001Y-42194341D01*
X213354999Y-42194341D01*
X213119596Y-42214936D01*
X213119586Y-42214938D01*
X212891344Y-42276094D01*
X212891335Y-42276098D01*
X212677171Y-42375964D01*
X212677169Y-42375965D01*
X212483597Y-42511505D01*
X212316505Y-42678597D01*
X212186575Y-42864158D01*
X212131998Y-42907783D01*
X212062500Y-42914977D01*
X212000145Y-42883454D01*
X211983425Y-42864158D01*
X211853494Y-42678597D01*
X211686402Y-42511506D01*
X211686395Y-42511501D01*
X211492834Y-42375967D01*
X211492830Y-42375965D01*
X211492828Y-42375964D01*
X211278663Y-42276097D01*
X211278659Y-42276096D01*
X211278655Y-42276094D01*
X211050413Y-42214938D01*
X211050403Y-42214936D01*
X210815001Y-42194341D01*
X210814999Y-42194341D01*
X210579596Y-42214936D01*
X210579586Y-42214938D01*
X210351344Y-42276094D01*
X210351335Y-42276098D01*
X210137171Y-42375964D01*
X210137169Y-42375965D01*
X209943597Y-42511505D01*
X209776505Y-42678597D01*
X209646575Y-42864158D01*
X209591998Y-42907783D01*
X209522500Y-42914977D01*
X209460145Y-42883454D01*
X209443425Y-42864158D01*
X209313494Y-42678597D01*
X209146402Y-42511506D01*
X209146395Y-42511501D01*
X208952834Y-42375967D01*
X208952830Y-42375965D01*
X208952828Y-42375964D01*
X208738663Y-42276097D01*
X208738659Y-42276096D01*
X208738655Y-42276094D01*
X208510413Y-42214938D01*
X208510403Y-42214936D01*
X208275001Y-42194341D01*
X208274999Y-42194341D01*
X208039596Y-42214936D01*
X208039586Y-42214938D01*
X207811344Y-42276094D01*
X207811335Y-42276098D01*
X207597171Y-42375964D01*
X207597169Y-42375965D01*
X207403597Y-42511505D01*
X207236505Y-42678597D01*
X207106575Y-42864158D01*
X207051998Y-42907783D01*
X206982500Y-42914977D01*
X206920145Y-42883454D01*
X206903425Y-42864158D01*
X206773494Y-42678597D01*
X206606402Y-42511506D01*
X206606395Y-42511501D01*
X206412834Y-42375967D01*
X206412830Y-42375965D01*
X206412828Y-42375964D01*
X206198663Y-42276097D01*
X206198659Y-42276096D01*
X206198655Y-42276094D01*
X205970413Y-42214938D01*
X205970403Y-42214936D01*
X205735001Y-42194341D01*
X205734999Y-42194341D01*
X205499596Y-42214936D01*
X205499586Y-42214938D01*
X205271344Y-42276094D01*
X205271335Y-42276098D01*
X205057171Y-42375964D01*
X205057169Y-42375965D01*
X204863597Y-42511505D01*
X204696505Y-42678597D01*
X204566575Y-42864158D01*
X204511998Y-42907783D01*
X204442500Y-42914977D01*
X204380145Y-42883454D01*
X204363425Y-42864158D01*
X204233494Y-42678597D01*
X204066402Y-42511506D01*
X204066395Y-42511501D01*
X203872834Y-42375967D01*
X203872830Y-42375965D01*
X203872828Y-42375964D01*
X203658663Y-42276097D01*
X203658659Y-42276096D01*
X203658655Y-42276094D01*
X203430413Y-42214938D01*
X203430403Y-42214936D01*
X203195001Y-42194341D01*
X203194999Y-42194341D01*
X202959596Y-42214936D01*
X202959586Y-42214938D01*
X202731344Y-42276094D01*
X202731335Y-42276098D01*
X202517171Y-42375964D01*
X202517169Y-42375965D01*
X202323597Y-42511505D01*
X202156505Y-42678597D01*
X202026575Y-42864158D01*
X201971998Y-42907783D01*
X201902500Y-42914977D01*
X201840145Y-42883454D01*
X201823425Y-42864158D01*
X201693494Y-42678597D01*
X201526402Y-42511506D01*
X201526395Y-42511501D01*
X201332834Y-42375967D01*
X201332830Y-42375965D01*
X201332828Y-42375964D01*
X201118663Y-42276097D01*
X201118659Y-42276096D01*
X201118655Y-42276094D01*
X200890413Y-42214938D01*
X200890403Y-42214936D01*
X200655001Y-42194341D01*
X200654999Y-42194341D01*
X200419596Y-42214936D01*
X200419586Y-42214938D01*
X200191344Y-42276094D01*
X200191335Y-42276098D01*
X199977171Y-42375964D01*
X199977169Y-42375965D01*
X199783600Y-42511503D01*
X199661673Y-42633430D01*
X199600350Y-42666914D01*
X199530658Y-42661930D01*
X199474725Y-42620058D01*
X199457810Y-42589081D01*
X199408797Y-42457671D01*
X199408793Y-42457664D01*
X199322547Y-42342455D01*
X199322544Y-42342452D01*
X199207335Y-42256206D01*
X199207328Y-42256202D01*
X199072482Y-42205908D01*
X199072483Y-42205908D01*
X199012883Y-42199501D01*
X199012881Y-42199500D01*
X199012873Y-42199500D01*
X199012864Y-42199500D01*
X197217129Y-42199500D01*
X197217123Y-42199501D01*
X197157516Y-42205908D01*
X197022671Y-42256202D01*
X197022664Y-42256206D01*
X196907455Y-42342452D01*
X196907452Y-42342455D01*
X196821206Y-42457664D01*
X196821202Y-42457671D01*
X196770908Y-42592517D01*
X196764501Y-42652116D01*
X196764500Y-42652135D01*
X196764500Y-44447870D01*
X192777026Y-44447870D01*
X192803495Y-44421401D01*
X192939035Y-44227830D01*
X193038903Y-44013663D01*
X193100063Y-43785408D01*
X193120659Y-43550000D01*
X193100063Y-43314592D01*
X193038903Y-43086337D01*
X192939035Y-42872171D01*
X192933425Y-42864158D01*
X192803494Y-42678597D01*
X192636402Y-42511506D01*
X192636395Y-42511501D01*
X192442834Y-42375967D01*
X192442830Y-42375965D01*
X192442828Y-42375964D01*
X192228663Y-42276097D01*
X192228659Y-42276096D01*
X192228655Y-42276094D01*
X192000413Y-42214938D01*
X192000403Y-42214936D01*
X191765001Y-42194341D01*
X191764999Y-42194341D01*
X191529596Y-42214936D01*
X191529586Y-42214938D01*
X191301344Y-42276094D01*
X191301335Y-42276098D01*
X191087171Y-42375964D01*
X191087169Y-42375965D01*
X190893597Y-42511505D01*
X190726505Y-42678597D01*
X190596575Y-42864158D01*
X190541998Y-42907783D01*
X190472500Y-42914977D01*
X190410145Y-42883454D01*
X190393425Y-42864158D01*
X190263494Y-42678597D01*
X190096402Y-42511506D01*
X190096395Y-42511501D01*
X189902834Y-42375967D01*
X189902830Y-42375965D01*
X189902828Y-42375964D01*
X189688663Y-42276097D01*
X189688659Y-42276096D01*
X189688655Y-42276094D01*
X189460413Y-42214938D01*
X189460403Y-42214936D01*
X189225001Y-42194341D01*
X189224999Y-42194341D01*
X188989596Y-42214936D01*
X188989586Y-42214938D01*
X188761344Y-42276094D01*
X188761335Y-42276098D01*
X188547171Y-42375964D01*
X188547169Y-42375965D01*
X188353597Y-42511505D01*
X188186505Y-42678597D01*
X188056575Y-42864158D01*
X188001998Y-42907783D01*
X187932500Y-42914977D01*
X187870145Y-42883454D01*
X187853425Y-42864158D01*
X187723494Y-42678597D01*
X187556402Y-42511506D01*
X187556395Y-42511501D01*
X187362834Y-42375967D01*
X187362830Y-42375965D01*
X187362828Y-42375964D01*
X187148663Y-42276097D01*
X187148659Y-42276096D01*
X187148655Y-42276094D01*
X186920413Y-42214938D01*
X186920403Y-42214936D01*
X186685001Y-42194341D01*
X186684999Y-42194341D01*
X186449596Y-42214936D01*
X186449586Y-42214938D01*
X186221344Y-42276094D01*
X186221335Y-42276098D01*
X186007171Y-42375964D01*
X186007169Y-42375965D01*
X185813597Y-42511505D01*
X185646505Y-42678597D01*
X185516575Y-42864158D01*
X185461998Y-42907783D01*
X185392500Y-42914977D01*
X185330145Y-42883454D01*
X185313425Y-42864158D01*
X185183494Y-42678597D01*
X185016402Y-42511506D01*
X185016395Y-42511501D01*
X184822834Y-42375967D01*
X184822830Y-42375965D01*
X184822828Y-42375964D01*
X184608663Y-42276097D01*
X184608659Y-42276096D01*
X184608655Y-42276094D01*
X184380413Y-42214938D01*
X184380403Y-42214936D01*
X184145001Y-42194341D01*
X184144999Y-42194341D01*
X183909596Y-42214936D01*
X183909586Y-42214938D01*
X183681344Y-42276094D01*
X183681335Y-42276098D01*
X183467171Y-42375964D01*
X183467169Y-42375965D01*
X183273597Y-42511505D01*
X183106505Y-42678597D01*
X182976575Y-42864158D01*
X182921998Y-42907783D01*
X182852500Y-42914977D01*
X182790145Y-42883454D01*
X182773425Y-42864158D01*
X182643494Y-42678597D01*
X182476402Y-42511506D01*
X182476395Y-42511501D01*
X182282834Y-42375967D01*
X182282830Y-42375965D01*
X182282828Y-42375964D01*
X182068663Y-42276097D01*
X182068659Y-42276096D01*
X182068655Y-42276094D01*
X181840413Y-42214938D01*
X181840403Y-42214936D01*
X181605001Y-42194341D01*
X181604999Y-42194341D01*
X181369596Y-42214936D01*
X181369586Y-42214938D01*
X181141344Y-42276094D01*
X181141335Y-42276098D01*
X180927171Y-42375964D01*
X180927169Y-42375965D01*
X180733597Y-42511505D01*
X180566505Y-42678597D01*
X180436575Y-42864158D01*
X180381998Y-42907783D01*
X180312500Y-42914977D01*
X180250145Y-42883454D01*
X180233425Y-42864158D01*
X180103494Y-42678597D01*
X179936402Y-42511506D01*
X179936395Y-42511501D01*
X179742834Y-42375967D01*
X179742830Y-42375965D01*
X179742828Y-42375964D01*
X179528663Y-42276097D01*
X179528659Y-42276096D01*
X179528655Y-42276094D01*
X179300413Y-42214938D01*
X179300403Y-42214936D01*
X179065001Y-42194341D01*
X179064999Y-42194341D01*
X178829596Y-42214936D01*
X178829586Y-42214938D01*
X178601344Y-42276094D01*
X178601335Y-42276098D01*
X178387171Y-42375964D01*
X178387169Y-42375965D01*
X178193600Y-42511503D01*
X178071673Y-42633430D01*
X178010350Y-42666914D01*
X177940658Y-42661930D01*
X177884725Y-42620058D01*
X177867810Y-42589081D01*
X177818797Y-42457671D01*
X177818793Y-42457664D01*
X177732547Y-42342455D01*
X177732544Y-42342452D01*
X177617335Y-42256206D01*
X177617328Y-42256202D01*
X177482482Y-42205908D01*
X177482483Y-42205908D01*
X177422883Y-42199501D01*
X177422881Y-42199500D01*
X177422873Y-42199500D01*
X177422864Y-42199500D01*
X175627129Y-42199500D01*
X175627123Y-42199501D01*
X175567516Y-42205908D01*
X175432671Y-42256202D01*
X175432664Y-42256206D01*
X175317455Y-42342452D01*
X175317452Y-42342455D01*
X175231206Y-42457664D01*
X175231202Y-42457671D01*
X175180908Y-42592517D01*
X175174501Y-42652116D01*
X175174500Y-42652135D01*
X175174500Y-44447870D01*
X156934558Y-44447870D01*
X156932335Y-44446206D01*
X156932328Y-44446202D01*
X156797482Y-44395908D01*
X156797483Y-44395908D01*
X156737883Y-44389501D01*
X156737881Y-44389500D01*
X156737873Y-44389500D01*
X156737864Y-44389500D01*
X153142129Y-44389500D01*
X153142123Y-44389501D01*
X153082516Y-44395908D01*
X152947671Y-44446202D01*
X152947664Y-44446206D01*
X152832455Y-44532452D01*
X152832452Y-44532455D01*
X152746206Y-44647664D01*
X152746203Y-44647669D01*
X152728573Y-44694939D01*
X152686701Y-44750872D01*
X152621237Y-44775289D01*
X152552964Y-44760437D01*
X152503559Y-44711032D01*
X152488566Y-44645025D01*
X152488710Y-44642328D01*
X152489382Y-44629655D01*
X152490499Y-44608650D01*
X152490500Y-44608613D01*
X152490500Y-42671386D01*
X152490498Y-42671347D01*
X152487705Y-42618759D01*
X152443245Y-42388874D01*
X152360574Y-42169810D01*
X152242070Y-41967868D01*
X152242065Y-41967861D01*
X152091143Y-41788858D01*
X152091141Y-41788856D01*
X151912138Y-41637934D01*
X151912131Y-41637929D01*
X151710189Y-41519425D01*
X151619529Y-41485212D01*
X151537374Y-41454208D01*
X152689500Y-41454208D01*
X152689501Y-41454223D01*
X152699904Y-41586413D01*
X152699905Y-41586420D01*
X152754902Y-41804678D01*
X152754903Y-41804681D01*
X152847991Y-42009622D01*
X152847997Y-42009632D01*
X152976174Y-42194645D01*
X152976178Y-42194650D01*
X152976181Y-42194654D01*
X153135346Y-42353819D01*
X153135350Y-42353822D01*
X153135354Y-42353825D01*
X153274603Y-42450297D01*
X153320374Y-42482007D01*
X153525317Y-42575096D01*
X153525321Y-42575097D01*
X153743579Y-42630094D01*
X153743581Y-42630094D01*
X153743588Y-42630096D01*
X153875783Y-42640500D01*
X156004216Y-42640499D01*
X156136412Y-42630096D01*
X156354683Y-42575096D01*
X156559626Y-42482007D01*
X156744654Y-42353819D01*
X156903819Y-42194654D01*
X157032007Y-42009626D01*
X157125096Y-41804683D01*
X157180096Y-41586412D01*
X157190500Y-41454217D01*
X157190499Y-39825784D01*
X157180096Y-39693588D01*
X157158326Y-39607194D01*
X157125097Y-39475321D01*
X157125096Y-39475318D01*
X157032008Y-39270377D01*
X157032007Y-39270374D01*
X156903819Y-39085346D01*
X156744654Y-38926181D01*
X156744650Y-38926178D01*
X156744645Y-38926174D01*
X156559632Y-38797997D01*
X156559630Y-38797995D01*
X156559626Y-38797993D01*
X156354683Y-38704904D01*
X156354681Y-38704903D01*
X156354678Y-38704902D01*
X156136420Y-38649905D01*
X156136413Y-38649904D01*
X156092347Y-38646436D01*
X156004217Y-38639500D01*
X156004215Y-38639500D01*
X153875791Y-38639500D01*
X153875776Y-38639501D01*
X153743586Y-38649904D01*
X153743579Y-38649905D01*
X153525321Y-38704902D01*
X153525318Y-38704903D01*
X153320377Y-38797991D01*
X153320367Y-38797997D01*
X153135354Y-38926174D01*
X153135342Y-38926184D01*
X152976184Y-39085342D01*
X152976174Y-39085354D01*
X152847997Y-39270367D01*
X152847991Y-39270377D01*
X152754903Y-39475318D01*
X152754902Y-39475321D01*
X152699905Y-39693579D01*
X152699904Y-39693586D01*
X152689500Y-39825777D01*
X152689500Y-41454208D01*
X151537374Y-41454208D01*
X151491126Y-41436755D01*
X151491121Y-41436754D01*
X151261243Y-41392295D01*
X151208652Y-41389501D01*
X151208629Y-41389500D01*
X151208622Y-41389500D01*
X149271378Y-41389500D01*
X149271370Y-41389500D01*
X149271347Y-41389501D01*
X149218756Y-41392295D01*
X149218755Y-41392295D01*
X148988878Y-41436754D01*
X148988876Y-41436754D01*
X148988874Y-41436755D01*
X148942587Y-41454223D01*
X148769810Y-41519425D01*
X148567868Y-41637929D01*
X148567861Y-41637934D01*
X148388858Y-41788856D01*
X148388856Y-41788858D01*
X148237934Y-41967861D01*
X148237929Y-41967868D01*
X148119425Y-42169810D01*
X148064659Y-42314933D01*
X148036755Y-42388874D01*
X148036754Y-42388876D01*
X148036754Y-42388878D01*
X147992295Y-42618755D01*
X147992295Y-42618756D01*
X147989501Y-42671347D01*
X147989500Y-42671386D01*
X147989500Y-44608613D01*
X147989501Y-44608652D01*
X147992295Y-44661243D01*
X147992295Y-44661247D01*
X148030291Y-44857708D01*
X148023694Y-44927265D01*
X147980539Y-44982214D01*
X147914527Y-45005109D01*
X147846616Y-44988680D01*
X147835662Y-44981571D01*
X147772734Y-44935851D01*
X147772729Y-44935848D01*
X147599807Y-44858857D01*
X147599802Y-44858855D01*
X147435370Y-44823905D01*
X147414646Y-44819500D01*
X147225354Y-44819500D01*
X147204630Y-44823905D01*
X147040197Y-44858855D01*
X147040192Y-44858857D01*
X146867270Y-44935848D01*
X146867265Y-44935851D01*
X146714129Y-45047111D01*
X146587466Y-45187785D01*
X146492821Y-45351715D01*
X146492818Y-45351722D01*
X146447518Y-45491142D01*
X146434326Y-45531744D01*
X146414540Y-45720000D01*
X142240000Y-45720000D01*
X142240000Y-38100000D01*
X163934422Y-38100000D01*
X163954722Y-38487339D01*
X164015397Y-38870427D01*
X164015397Y-38870429D01*
X164115788Y-39245094D01*
X164254787Y-39607197D01*
X164430877Y-39952793D01*
X164642122Y-40278082D01*
X164642124Y-40278084D01*
X164886219Y-40579516D01*
X165160484Y-40853781D01*
X165160488Y-40853784D01*
X165461917Y-41097877D01*
X165787206Y-41309122D01*
X165787211Y-41309125D01*
X166132806Y-41485214D01*
X166494913Y-41624214D01*
X166869567Y-41724602D01*
X167252662Y-41785278D01*
X167618576Y-41804455D01*
X167639999Y-41805578D01*
X167640000Y-41805578D01*
X167640001Y-41805578D01*
X167660301Y-41804514D01*
X168027338Y-41785278D01*
X168410433Y-41724602D01*
X168785087Y-41624214D01*
X169147194Y-41485214D01*
X169492789Y-41309125D01*
X169818084Y-41097876D01*
X170119516Y-40853781D01*
X170393781Y-40579516D01*
X170637876Y-40278084D01*
X170849125Y-39952789D01*
X171025214Y-39607194D01*
X171164214Y-39245087D01*
X171264602Y-38870433D01*
X171325278Y-38487338D01*
X171345578Y-38100000D01*
X171326075Y-37727870D01*
X175489500Y-37727870D01*
X175489501Y-37727876D01*
X175495908Y-37787483D01*
X175546202Y-37922328D01*
X175546206Y-37922335D01*
X175632452Y-38037544D01*
X175632455Y-38037547D01*
X175747664Y-38123793D01*
X175747671Y-38123797D01*
X175882517Y-38174091D01*
X175882516Y-38174091D01*
X175889444Y-38174835D01*
X175942127Y-38180500D01*
X177737872Y-38180499D01*
X177797483Y-38174091D01*
X177932331Y-38123796D01*
X178047546Y-38037546D01*
X178133796Y-37922331D01*
X178184091Y-37787483D01*
X178190500Y-37727873D01*
X178190499Y-36830000D01*
X178984341Y-36830000D01*
X179004936Y-37065403D01*
X179004938Y-37065413D01*
X179066094Y-37293655D01*
X179066096Y-37293659D01*
X179066097Y-37293663D01*
X179082841Y-37329570D01*
X179165965Y-37507830D01*
X179165967Y-37507834D01*
X179274281Y-37662521D01*
X179301505Y-37701401D01*
X179468599Y-37868495D01*
X179565384Y-37936265D01*
X179662165Y-38004032D01*
X179662167Y-38004033D01*
X179662170Y-38004035D01*
X179876337Y-38103903D01*
X180104592Y-38165063D01*
X180281034Y-38180500D01*
X180339999Y-38185659D01*
X180340000Y-38185659D01*
X180340001Y-38185659D01*
X180398966Y-38180500D01*
X180575408Y-38165063D01*
X180803663Y-38103903D01*
X181017830Y-38004035D01*
X181211401Y-37868495D01*
X181352026Y-37727870D01*
X186919500Y-37727870D01*
X186919501Y-37727876D01*
X186925908Y-37787483D01*
X186976202Y-37922328D01*
X186976206Y-37922335D01*
X187062452Y-38037544D01*
X187062455Y-38037547D01*
X187177664Y-38123793D01*
X187177671Y-38123797D01*
X187312517Y-38174091D01*
X187312516Y-38174091D01*
X187319444Y-38174835D01*
X187372127Y-38180500D01*
X189167872Y-38180499D01*
X189227483Y-38174091D01*
X189362331Y-38123796D01*
X189477546Y-38037546D01*
X189563796Y-37922331D01*
X189614091Y-37787483D01*
X189620500Y-37727873D01*
X189620499Y-36830000D01*
X190414341Y-36830000D01*
X190434936Y-37065403D01*
X190434938Y-37065413D01*
X190496094Y-37293655D01*
X190496096Y-37293659D01*
X190496097Y-37293663D01*
X190512841Y-37329570D01*
X190595965Y-37507830D01*
X190595967Y-37507834D01*
X190704281Y-37662521D01*
X190731505Y-37701401D01*
X190898599Y-37868495D01*
X190995384Y-37936265D01*
X191092165Y-38004032D01*
X191092167Y-38004033D01*
X191092170Y-38004035D01*
X191306337Y-38103903D01*
X191534592Y-38165063D01*
X191711034Y-38180500D01*
X191769999Y-38185659D01*
X191770000Y-38185659D01*
X191770001Y-38185659D01*
X191828966Y-38180500D01*
X192005408Y-38165063D01*
X192233663Y-38103903D01*
X192447830Y-38004035D01*
X192641401Y-37868495D01*
X192782026Y-37727870D01*
X197079500Y-37727870D01*
X197079501Y-37727876D01*
X197085908Y-37787483D01*
X197136202Y-37922328D01*
X197136206Y-37922335D01*
X197222452Y-38037544D01*
X197222455Y-38037547D01*
X197337664Y-38123793D01*
X197337671Y-38123797D01*
X197472517Y-38174091D01*
X197472516Y-38174091D01*
X197479444Y-38174835D01*
X197532127Y-38180500D01*
X199327872Y-38180499D01*
X199387483Y-38174091D01*
X199522331Y-38123796D01*
X199637546Y-38037546D01*
X199723796Y-37922331D01*
X199774091Y-37787483D01*
X199780500Y-37727873D01*
X199780499Y-36830000D01*
X200574341Y-36830000D01*
X200594936Y-37065403D01*
X200594938Y-37065413D01*
X200656094Y-37293655D01*
X200656096Y-37293659D01*
X200656097Y-37293663D01*
X200672841Y-37329570D01*
X200755965Y-37507830D01*
X200755967Y-37507834D01*
X200864281Y-37662521D01*
X200891505Y-37701401D01*
X201058599Y-37868495D01*
X201155384Y-37936265D01*
X201252165Y-38004032D01*
X201252167Y-38004033D01*
X201252170Y-38004035D01*
X201466337Y-38103903D01*
X201694592Y-38165063D01*
X201871034Y-38180500D01*
X201929999Y-38185659D01*
X201930000Y-38185659D01*
X201930001Y-38185659D01*
X201988966Y-38180500D01*
X202165408Y-38165063D01*
X202393663Y-38103903D01*
X202607830Y-38004035D01*
X202801401Y-37868495D01*
X202942026Y-37727870D01*
X208509500Y-37727870D01*
X208509501Y-37727876D01*
X208515908Y-37787483D01*
X208566202Y-37922328D01*
X208566206Y-37922335D01*
X208652452Y-38037544D01*
X208652455Y-38037547D01*
X208767664Y-38123793D01*
X208767671Y-38123797D01*
X208902517Y-38174091D01*
X208902516Y-38174091D01*
X208909444Y-38174835D01*
X208962127Y-38180500D01*
X210757872Y-38180499D01*
X210817483Y-38174091D01*
X210952331Y-38123796D01*
X211067546Y-38037546D01*
X211153796Y-37922331D01*
X211204091Y-37787483D01*
X211210500Y-37727873D01*
X211210499Y-36830000D01*
X212004341Y-36830000D01*
X212024936Y-37065403D01*
X212024938Y-37065413D01*
X212086094Y-37293655D01*
X212086096Y-37293659D01*
X212086097Y-37293663D01*
X212102841Y-37329570D01*
X212185965Y-37507830D01*
X212185967Y-37507834D01*
X212294281Y-37662521D01*
X212321505Y-37701401D01*
X212488599Y-37868495D01*
X212585384Y-37936265D01*
X212682165Y-38004032D01*
X212682167Y-38004033D01*
X212682170Y-38004035D01*
X212896337Y-38103903D01*
X213124592Y-38165063D01*
X213301034Y-38180500D01*
X213359999Y-38185659D01*
X213360000Y-38185659D01*
X213360001Y-38185659D01*
X213418966Y-38180500D01*
X213595408Y-38165063D01*
X213823663Y-38103903D01*
X214037830Y-38004035D01*
X214231401Y-37868495D01*
X214398495Y-37701401D01*
X214534035Y-37507830D01*
X214633903Y-37293663D01*
X214695063Y-37065408D01*
X214715659Y-36830000D01*
X214695063Y-36594592D01*
X214633903Y-36366337D01*
X214534035Y-36152171D01*
X214398495Y-35958599D01*
X214398494Y-35958597D01*
X214231402Y-35791506D01*
X214231395Y-35791501D01*
X214037834Y-35655967D01*
X214037830Y-35655965D01*
X214037828Y-35655964D01*
X213823663Y-35556097D01*
X213823659Y-35556096D01*
X213823655Y-35556094D01*
X213595413Y-35494938D01*
X213595403Y-35494936D01*
X213360001Y-35474341D01*
X213359999Y-35474341D01*
X213124596Y-35494936D01*
X213124586Y-35494938D01*
X212896344Y-35556094D01*
X212896335Y-35556098D01*
X212682171Y-35655964D01*
X212682169Y-35655965D01*
X212488597Y-35791505D01*
X212321505Y-35958597D01*
X212185965Y-36152169D01*
X212185964Y-36152171D01*
X212086098Y-36366335D01*
X212086094Y-36366344D01*
X212024938Y-36594586D01*
X212024936Y-36594596D01*
X212004341Y-36829999D01*
X212004341Y-36830000D01*
X211210499Y-36830000D01*
X211210499Y-35932128D01*
X211204091Y-35872517D01*
X211153796Y-35737669D01*
X211153795Y-35737668D01*
X211153793Y-35737664D01*
X211067547Y-35622455D01*
X211067544Y-35622452D01*
X210952335Y-35536206D01*
X210952328Y-35536202D01*
X210817482Y-35485908D01*
X210817483Y-35485908D01*
X210757883Y-35479501D01*
X210757881Y-35479500D01*
X210757873Y-35479500D01*
X210757864Y-35479500D01*
X208962129Y-35479500D01*
X208962123Y-35479501D01*
X208902516Y-35485908D01*
X208767671Y-35536202D01*
X208767664Y-35536206D01*
X208652455Y-35622452D01*
X208652452Y-35622455D01*
X208566206Y-35737664D01*
X208566202Y-35737671D01*
X208515908Y-35872517D01*
X208509501Y-35932116D01*
X208509501Y-35932123D01*
X208509500Y-35932135D01*
X208509500Y-37727870D01*
X202942026Y-37727870D01*
X202968495Y-37701401D01*
X203104035Y-37507830D01*
X203203903Y-37293663D01*
X203265063Y-37065408D01*
X203285659Y-36830000D01*
X203265063Y-36594592D01*
X203203903Y-36366337D01*
X203104035Y-36152171D01*
X202968495Y-35958599D01*
X202968494Y-35958597D01*
X202801402Y-35791506D01*
X202801395Y-35791501D01*
X202607834Y-35655967D01*
X202607830Y-35655965D01*
X202607828Y-35655964D01*
X202393663Y-35556097D01*
X202393659Y-35556096D01*
X202393655Y-35556094D01*
X202165413Y-35494938D01*
X202165403Y-35494936D01*
X201930001Y-35474341D01*
X201929999Y-35474341D01*
X201694596Y-35494936D01*
X201694586Y-35494938D01*
X201466344Y-35556094D01*
X201466335Y-35556098D01*
X201252171Y-35655964D01*
X201252169Y-35655965D01*
X201058597Y-35791505D01*
X200891505Y-35958597D01*
X200755965Y-36152169D01*
X200755964Y-36152171D01*
X200656098Y-36366335D01*
X200656094Y-36366344D01*
X200594938Y-36594586D01*
X200594936Y-36594596D01*
X200574341Y-36829999D01*
X200574341Y-36830000D01*
X199780499Y-36830000D01*
X199780499Y-35932128D01*
X199774091Y-35872517D01*
X199723796Y-35737669D01*
X199723795Y-35737668D01*
X199723793Y-35737664D01*
X199637547Y-35622455D01*
X199637544Y-35622452D01*
X199522335Y-35536206D01*
X199522328Y-35536202D01*
X199387482Y-35485908D01*
X199387483Y-35485908D01*
X199327883Y-35479501D01*
X199327881Y-35479500D01*
X199327873Y-35479500D01*
X199327864Y-35479500D01*
X197532129Y-35479500D01*
X197532123Y-35479501D01*
X197472516Y-35485908D01*
X197337671Y-35536202D01*
X197337664Y-35536206D01*
X197222455Y-35622452D01*
X197222452Y-35622455D01*
X197136206Y-35737664D01*
X197136202Y-35737671D01*
X197085908Y-35872517D01*
X197079501Y-35932116D01*
X197079501Y-35932123D01*
X197079500Y-35932135D01*
X197079500Y-37727870D01*
X192782026Y-37727870D01*
X192808495Y-37701401D01*
X192944035Y-37507830D01*
X193043903Y-37293663D01*
X193105063Y-37065408D01*
X193125659Y-36830000D01*
X193105063Y-36594592D01*
X193043903Y-36366337D01*
X192944035Y-36152171D01*
X192808495Y-35958599D01*
X192808494Y-35958597D01*
X192641402Y-35791506D01*
X192641395Y-35791501D01*
X192447834Y-35655967D01*
X192447830Y-35655965D01*
X192447828Y-35655964D01*
X192233663Y-35556097D01*
X192233659Y-35556096D01*
X192233655Y-35556094D01*
X192005413Y-35494938D01*
X192005403Y-35494936D01*
X191770001Y-35474341D01*
X191769999Y-35474341D01*
X191534596Y-35494936D01*
X191534586Y-35494938D01*
X191306344Y-35556094D01*
X191306335Y-35556098D01*
X191092171Y-35655964D01*
X191092169Y-35655965D01*
X190898597Y-35791505D01*
X190731505Y-35958597D01*
X190595965Y-36152169D01*
X190595964Y-36152171D01*
X190496098Y-36366335D01*
X190496094Y-36366344D01*
X190434938Y-36594586D01*
X190434936Y-36594596D01*
X190414341Y-36829999D01*
X190414341Y-36830000D01*
X189620499Y-36830000D01*
X189620499Y-35932128D01*
X189614091Y-35872517D01*
X189563796Y-35737669D01*
X189563795Y-35737668D01*
X189563793Y-35737664D01*
X189477547Y-35622455D01*
X189477544Y-35622452D01*
X189362335Y-35536206D01*
X189362328Y-35536202D01*
X189227482Y-35485908D01*
X189227483Y-35485908D01*
X189167883Y-35479501D01*
X189167881Y-35479500D01*
X189167873Y-35479500D01*
X189167864Y-35479500D01*
X187372129Y-35479500D01*
X187372123Y-35479501D01*
X187312516Y-35485908D01*
X187177671Y-35536202D01*
X187177664Y-35536206D01*
X187062455Y-35622452D01*
X187062452Y-35622455D01*
X186976206Y-35737664D01*
X186976202Y-35737671D01*
X186925908Y-35872517D01*
X186919501Y-35932116D01*
X186919501Y-35932123D01*
X186919500Y-35932135D01*
X186919500Y-37727870D01*
X181352026Y-37727870D01*
X181378495Y-37701401D01*
X181514035Y-37507830D01*
X181613903Y-37293663D01*
X181675063Y-37065408D01*
X181695659Y-36830000D01*
X181675063Y-36594592D01*
X181613903Y-36366337D01*
X181514035Y-36152171D01*
X181378495Y-35958599D01*
X181378494Y-35958597D01*
X181211402Y-35791506D01*
X181211395Y-35791501D01*
X181017834Y-35655967D01*
X181017830Y-35655965D01*
X181017828Y-35655964D01*
X180803663Y-35556097D01*
X180803659Y-35556096D01*
X180803655Y-35556094D01*
X180575413Y-35494938D01*
X180575403Y-35494936D01*
X180340001Y-35474341D01*
X180339999Y-35474341D01*
X180104596Y-35494936D01*
X180104586Y-35494938D01*
X179876344Y-35556094D01*
X179876335Y-35556098D01*
X179662171Y-35655964D01*
X179662169Y-35655965D01*
X179468597Y-35791505D01*
X179301505Y-35958597D01*
X179165965Y-36152169D01*
X179165964Y-36152171D01*
X179066098Y-36366335D01*
X179066094Y-36366344D01*
X179004938Y-36594586D01*
X179004936Y-36594596D01*
X178984341Y-36829999D01*
X178984341Y-36830000D01*
X178190499Y-36830000D01*
X178190499Y-35932128D01*
X178184091Y-35872517D01*
X178133796Y-35737669D01*
X178133795Y-35737668D01*
X178133793Y-35737664D01*
X178047547Y-35622455D01*
X178047544Y-35622452D01*
X177932335Y-35536206D01*
X177932328Y-35536202D01*
X177797482Y-35485908D01*
X177797483Y-35485908D01*
X177737883Y-35479501D01*
X177737881Y-35479500D01*
X177737873Y-35479500D01*
X177737864Y-35479500D01*
X175942129Y-35479500D01*
X175942123Y-35479501D01*
X175882516Y-35485908D01*
X175747671Y-35536202D01*
X175747664Y-35536206D01*
X175632455Y-35622452D01*
X175632452Y-35622455D01*
X175546206Y-35737664D01*
X175546202Y-35737671D01*
X175495908Y-35872517D01*
X175489501Y-35932116D01*
X175489501Y-35932123D01*
X175489500Y-35932135D01*
X175489500Y-37727870D01*
X171326075Y-37727870D01*
X171325278Y-37712662D01*
X171264602Y-37329567D01*
X171164214Y-36954913D01*
X171025214Y-36592806D01*
X170849125Y-36247211D01*
X170849122Y-36247206D01*
X170637877Y-35921917D01*
X170488676Y-35737669D01*
X170393781Y-35620484D01*
X170119516Y-35346219D01*
X169818084Y-35102124D01*
X169818082Y-35102122D01*
X169492793Y-34890877D01*
X169147197Y-34714787D01*
X168785094Y-34575788D01*
X168785087Y-34575786D01*
X168410433Y-34475398D01*
X168410429Y-34475397D01*
X168410428Y-34475397D01*
X168027339Y-34414722D01*
X167640001Y-34394422D01*
X167639999Y-34394422D01*
X167252660Y-34414722D01*
X166869572Y-34475397D01*
X166869570Y-34475397D01*
X166494905Y-34575788D01*
X166132802Y-34714787D01*
X165787206Y-34890877D01*
X165461917Y-35102122D01*
X165160488Y-35346215D01*
X165160480Y-35346222D01*
X164886222Y-35620480D01*
X164886215Y-35620488D01*
X164642122Y-35921917D01*
X164430877Y-36247206D01*
X164254787Y-36592802D01*
X164115788Y-36954905D01*
X164015397Y-37329570D01*
X164015397Y-37329572D01*
X163954722Y-37712660D01*
X163934422Y-38099999D01*
X163934422Y-38100000D01*
X142240000Y-38100000D01*
X142240000Y-30604000D01*
X142259685Y-30536961D01*
X142312489Y-30491206D01*
X142364000Y-30480000D01*
X218316000Y-30480000D01*
X218383039Y-30499685D01*
G37*
%TD.AperFunction*%
%TD*%
M02*
