%TF.GenerationSoftware,KiCad,Pcbnew,8.0.1-8.0.1-1~ubuntu22.04.1*%
%TF.CreationDate,2024-10-21T19:50:32-04:00*%
%TF.ProjectId,RedRobotBreakout,52656452-6f62-46f7-9442-7265616b6f75,rev?*%
%TF.SameCoordinates,Original*%
%TF.FileFunction,Copper,L4,Bot*%
%TF.FilePolarity,Positive*%
%FSLAX46Y46*%
G04 Gerber Fmt 4.6, Leading zero omitted, Abs format (unit mm)*
G04 Created by KiCad (PCBNEW 8.0.1-8.0.1-1~ubuntu22.04.1) date 2024-10-21 19:50:32*
%MOMM*%
%LPD*%
G01*
G04 APERTURE LIST*
G04 Aperture macros list*
%AMRoundRect*
0 Rectangle with rounded corners*
0 $1 Rounding radius*
0 $2 $3 $4 $5 $6 $7 $8 $9 X,Y pos of 4 corners*
0 Add a 4 corners polygon primitive as box body*
4,1,4,$2,$3,$4,$5,$6,$7,$8,$9,$2,$3,0*
0 Add four circle primitives for the rounded corners*
1,1,$1+$1,$2,$3*
1,1,$1+$1,$4,$5*
1,1,$1+$1,$6,$7*
1,1,$1+$1,$8,$9*
0 Add four rect primitives between the rounded corners*
20,1,$1+$1,$2,$3,$4,$5,0*
20,1,$1+$1,$4,$5,$6,$7,0*
20,1,$1+$1,$6,$7,$8,$9,0*
20,1,$1+$1,$8,$9,$2,$3,0*%
G04 Aperture macros list end*
%TA.AperFunction,ComponentPad*%
%ADD10RoundRect,0.875000X-0.875000X0.875000X-0.875000X-0.875000X0.875000X-0.875000X0.875000X0.875000X0*%
%TD*%
%TA.AperFunction,ComponentPad*%
%ADD11RoundRect,0.750000X-1.000000X0.750000X-1.000000X-0.750000X1.000000X-0.750000X1.000000X0.750000X0*%
%TD*%
%TA.AperFunction,ComponentPad*%
%ADD12R,3.500000X3.500000*%
%TD*%
%TA.AperFunction,ComponentPad*%
%ADD13R,1.700000X1.700000*%
%TD*%
%TA.AperFunction,ComponentPad*%
%ADD14O,1.700000X1.700000*%
%TD*%
%TA.AperFunction,ComponentPad*%
%ADD15C,0.800000*%
%TD*%
%TA.AperFunction,ComponentPad*%
%ADD16C,6.400000*%
%TD*%
%TA.AperFunction,ComponentPad*%
%ADD17C,1.700000*%
%TD*%
%TA.AperFunction,ViaPad*%
%ADD18C,0.800000*%
%TD*%
%TA.AperFunction,Conductor*%
%ADD19C,0.250000*%
%TD*%
%TA.AperFunction,Conductor*%
%ADD20C,1.000000*%
%TD*%
G04 APERTURE END LIST*
D10*
%TO.P,J5,3*%
%TO.N,GND*%
X150240000Y-43640000D03*
D11*
%TO.P,J5,2*%
X154940000Y-40640000D03*
D12*
%TO.P,J5,1*%
%TO.N,+BATT*%
X154940000Y-46640000D03*
%TD*%
D13*
%TO.P,U3,1,GND*%
%TO.N,GND*%
X198115000Y-51170000D03*
D14*
%TO.P,U3,2,VCC*%
%TO.N,+3V3*%
X200655000Y-51170000D03*
%TO.P,U3,3,B_IN2/B_EN*%
%TO.N,MOTOR3_EN*%
X203195000Y-51170000D03*
%TO.P,U3,4,B_IN1/B_PH*%
%TO.N,MOTOR3_PH*%
X205735000Y-51170000D03*
%TO.P,U3,5,A_IN2/A_EN*%
%TO.N,MOTOR4_EN*%
X208275000Y-51170000D03*
%TO.P,U3,6,A_IN2/A_PH*%
%TO.N,MOTOR4_PH*%
X210815000Y-51170000D03*
%TO.P,U3,7,MODE*%
%TO.N,+3V3*%
X213355000Y-51170000D03*
%TO.P,U3,8,VMM*%
%TO.N,unconnected-(U3-VMM-Pad8)*%
X213355000Y-43550000D03*
%TO.P,U3,9,A_OUT1*%
%TO.N,/M4+*%
X210815000Y-43550000D03*
%TO.P,U3,10,A_OUT2*%
%TO.N,/M4-*%
X208275000Y-43550000D03*
%TO.P,U3,11,B_OUT1*%
%TO.N,/M3+*%
X205735000Y-43550000D03*
%TO.P,U3,12,B_OUT2*%
%TO.N,/M3-*%
X203195000Y-43550000D03*
%TO.P,U3,13,VIN*%
%TO.N,+BATT*%
X200655000Y-43550000D03*
D13*
%TO.P,U3,14,GND*%
%TO.N,GND*%
X198115000Y-43550000D03*
%TD*%
D15*
%TO.P,H3,1*%
%TO.N,N/C*%
X150990000Y-122762944D03*
X150287056Y-124460000D03*
X150287056Y-121065888D03*
X148590000Y-125162944D03*
D16*
X148590000Y-122762944D03*
D15*
X148590000Y-120362944D03*
X146892944Y-124460000D03*
X146892944Y-121065888D03*
X146190000Y-122762944D03*
%TD*%
D14*
%TO.P,J3,2,Pin_2*%
%TO.N,/M3+*%
X201930000Y-36830000D03*
D13*
%TO.P,J3,1,Pin_1*%
%TO.N,/M3-*%
X198430000Y-36830000D03*
%TD*%
%TO.P,J16,1,Pin_1*%
%TO.N,GND*%
X176530000Y-113035000D03*
D14*
%TO.P,J16,2,Pin_2*%
%TO.N,+3V3*%
X176530000Y-110495000D03*
%TD*%
%TO.P,J1,2,Pin_2*%
%TO.N,/M1+*%
X180340000Y-36830000D03*
D13*
%TO.P,J1,1,Pin_1*%
%TO.N,/M1-*%
X176840000Y-36830000D03*
%TD*%
%TO.P,J13,1,Pin_1*%
%TO.N,GND*%
X162560000Y-113035000D03*
D14*
%TO.P,J13,2,Pin_2*%
%TO.N,+BATT*%
X162560000Y-110495000D03*
%TD*%
D13*
%TO.P,U4,1,GND*%
%TO.N,GND*%
X156845000Y-113665000D03*
D17*
%TO.P,U4,2,VCC*%
%TO.N,+3V3*%
X156845000Y-116205000D03*
%TO.P,U4,3,CE*%
%TO.N,NRF24_CE*%
X154305000Y-113665000D03*
%TO.P,U4,4,~{CSN}*%
%TO.N,SPI0_CSn*%
X154305000Y-116205000D03*
%TO.P,U4,5,SCK*%
%TO.N,SPI0_SCK*%
X151765000Y-113665000D03*
%TO.P,U4,6,MOSI*%
%TO.N,SPI0_TX*%
X151765000Y-116205000D03*
%TO.P,U4,7,MISO*%
%TO.N,SPI0_RX*%
X149225000Y-113665000D03*
%TO.P,U4,8,IRQ*%
%TO.N,unconnected-(U4-IRQ-Pad8)*%
X149225000Y-116205000D03*
%TD*%
D15*
%TO.P,H1,1*%
%TO.N,N/C*%
X214490000Y-110490000D03*
X213787056Y-112187056D03*
X213787056Y-108792944D03*
X212090000Y-112890000D03*
D16*
X212090000Y-110490000D03*
D15*
X212090000Y-108090000D03*
X210392944Y-112187056D03*
X210392944Y-108792944D03*
X209690000Y-110490000D03*
%TD*%
D13*
%TO.P,J15,1,Pin_1*%
%TO.N,GND*%
X171450000Y-113035000D03*
D14*
%TO.P,J15,2,Pin_2*%
%TO.N,+5V*%
X171450000Y-110495000D03*
%TD*%
D13*
%TO.P,U2,1,GND*%
%TO.N,GND*%
X176525000Y-51170000D03*
D14*
%TO.P,U2,2,VCC*%
%TO.N,+3V3*%
X179065000Y-51170000D03*
%TO.P,U2,3,B_IN2/B_EN*%
%TO.N,MOTOR1_EN*%
X181605000Y-51170000D03*
%TO.P,U2,4,B_IN1/B_PH*%
%TO.N,MOTOR1_PH*%
X184145000Y-51170000D03*
%TO.P,U2,5,A_IN2/A_EN*%
%TO.N,MOTOR2_EN*%
X186685000Y-51170000D03*
%TO.P,U2,6,A_IN2/A_PH*%
%TO.N,MOTOR2_PH*%
X189225000Y-51170000D03*
%TO.P,U2,7,MODE*%
%TO.N,+3V3*%
X191765000Y-51170000D03*
%TO.P,U2,8,VMM*%
%TO.N,unconnected-(U2-VMM-Pad8)*%
X191765000Y-43550000D03*
%TO.P,U2,9,A_OUT1*%
%TO.N,/M2+*%
X189225000Y-43550000D03*
%TO.P,U2,10,A_OUT2*%
%TO.N,/M2-*%
X186685000Y-43550000D03*
%TO.P,U2,11,B_OUT1*%
%TO.N,/M1+*%
X184145000Y-43550000D03*
%TO.P,U2,12,B_OUT2*%
%TO.N,/M1-*%
X181605000Y-43550000D03*
%TO.P,U2,13,VIN*%
%TO.N,+BATT*%
X179065000Y-43550000D03*
D13*
%TO.P,U2,14,GND*%
%TO.N,GND*%
X176525000Y-43550000D03*
%TD*%
D14*
%TO.P,J8,3,Pin_3*%
%TO.N,GND*%
X179055000Y-123190000D03*
%TO.P,J8,2,Pin_2*%
%TO.N,+5V*%
X181595000Y-123190000D03*
D13*
%TO.P,J8,1,Pin_1*%
%TO.N,Net-(J8-Pin_1)*%
X184135000Y-123190000D03*
%TD*%
%TO.P,J18,1,Pin_1*%
%TO.N,GND*%
X170820000Y-103505000D03*
D14*
%TO.P,J18,2,Pin_2*%
%TO.N,+BATT*%
X168280000Y-103505000D03*
%TD*%
D13*
%TO.P,J9,1,Pin_1*%
%TO.N,Net-(J9-Pin_1)*%
X168910000Y-123190000D03*
D14*
%TO.P,J9,2,Pin_2*%
%TO.N,+5V*%
X166370000Y-123190000D03*
%TO.P,J9,3,Pin_3*%
%TO.N,GND*%
X163830000Y-123190000D03*
%TD*%
%TO.P,U1,43,SWDIO*%
%TO.N,unconnected-(U1-SWDIO-Pad43)*%
X192175000Y-79375000D03*
D13*
%TO.P,U1,42,GND*%
%TO.N,GND*%
X192175000Y-81915000D03*
D14*
%TO.P,U1,41,SWCLK*%
%TO.N,unconnected-(U1-SWCLK-Pad41)*%
X192175000Y-84455000D03*
%TO.P,U1,40,VBUS*%
%TO.N,unconnected-(U1-VBUS-Pad40)*%
X144145000Y-73025000D03*
%TO.P,U1,39,VSYS*%
%TO.N,Net-(D2-K)*%
X146685000Y-73025000D03*
D13*
%TO.P,U1,38,GND*%
%TO.N,GND*%
X149225000Y-73025000D03*
D14*
%TO.P,U1,37,3V3_EN*%
%TO.N,unconnected-(U1-3V3_EN-Pad37)*%
X151765000Y-73025000D03*
%TO.P,U1,36,3V3*%
%TO.N,+3V3*%
X154305000Y-73025000D03*
%TO.P,U1,35,ADC_VREF*%
%TO.N,unconnected-(U1-ADC_VREF-Pad35)_0*%
X156845000Y-73025000D03*
%TO.P,U1,34,GPIO28_ADC2*%
%TO.N,GPIO_LED*%
X159385000Y-73025000D03*
D13*
%TO.P,U1,33,AGND*%
%TO.N,GND*%
X161925000Y-73025000D03*
D14*
%TO.P,U1,32,GPIO27_ADC1*%
%TO.N,MOTOR1_EN*%
X164465000Y-73025000D03*
%TO.P,U1,31,GPIO26_ADC0*%
%TO.N,MOTOR1_PH*%
X167005000Y-73025000D03*
%TO.P,U1,30,RUN*%
%TO.N,RSTb*%
X169545000Y-73025000D03*
%TO.P,U1,29,GPIO22*%
%TO.N,NRF24_CE*%
X172085000Y-73025000D03*
D13*
%TO.P,U1,28,GND*%
%TO.N,GND*%
X174625000Y-73025000D03*
D14*
%TO.P,U1,27,GPIO21*%
%TO.N,MOTOR2_EN*%
X177165000Y-73025000D03*
%TO.P,U1,26,GPIO20*%
%TO.N,MOTOR2_PH*%
X179705000Y-73025000D03*
%TO.P,U1,25,GPIO19*%
%TO.N,MOTOR3_EN*%
X182245000Y-73025000D03*
%TO.P,U1,24,GPIO18*%
%TO.N,MOTOR3_PH*%
X184785000Y-73025000D03*
D13*
%TO.P,U1,23,GND*%
%TO.N,GND*%
X187325000Y-73025000D03*
D14*
%TO.P,U1,22,GPIO17*%
%TO.N,MOTOR4_EN*%
X189865000Y-73025000D03*
%TO.P,U1,21,GPIO16*%
%TO.N,MOTOR4_PH*%
X192405000Y-73025000D03*
%TO.P,U1,20,GPIO15*%
%TO.N,SERVO1_PWM*%
X192405000Y-90805000D03*
%TO.P,U1,19,GPIO14*%
%TO.N,SERVO2_PWM*%
X189865000Y-90805000D03*
D13*
%TO.P,U1,18,GND*%
%TO.N,GND*%
X187325000Y-90805000D03*
D14*
%TO.P,U1,17,GPIO13*%
%TO.N,SERVO3_PWM*%
X184785000Y-90805000D03*
%TO.P,U1,16,GPIO12*%
%TO.N,SERVO4_PWM*%
X182245000Y-90805000D03*
%TO.P,U1,15,GPIO11*%
%TO.N,LINE_6*%
X179705000Y-90805000D03*
%TO.P,U1,14,GPIO10*%
%TO.N,LINE_5*%
X177165000Y-90805000D03*
D13*
%TO.P,U1,13,GND*%
%TO.N,GND*%
X174625000Y-90805000D03*
D14*
%TO.P,U1,12,GPIO9*%
%TO.N,LINE_4*%
X172085000Y-90805000D03*
%TO.P,U1,11,GPIO8*%
%TO.N,LINE_3*%
X169545000Y-90805000D03*
%TO.P,U1,10,GPIO7*%
%TO.N,LINE_2*%
X167005000Y-90805000D03*
%TO.P,U1,9,GPIO6*%
%TO.N,LINE_1*%
X164465000Y-90805000D03*
D13*
%TO.P,U1,8,GND*%
%TO.N,GND*%
X161925000Y-90805000D03*
D14*
%TO.P,U1,7,GPIO5*%
%TO.N,US_ECHO*%
X159385000Y-90805000D03*
%TO.P,U1,6,GPIO4*%
%TO.N,US_TRIG*%
X156845000Y-90805000D03*
%TO.P,U1,5,GPIO3*%
%TO.N,SPI0_TX*%
X154305000Y-90805000D03*
%TO.P,U1,4,GPIO2*%
%TO.N,SPI0_SCK*%
X151765000Y-90805000D03*
D13*
%TO.P,U1,3,GND*%
%TO.N,GND*%
X149225000Y-90805000D03*
D14*
%TO.P,U1,2,GPIO1*%
%TO.N,SPI0_CSn*%
X146685000Y-90805000D03*
%TO.P,U1,1,GPIO0*%
%TO.N,SPI0_RX*%
X144145000Y-90805000D03*
%TD*%
D13*
%TO.P,J17,1,Pin_1*%
%TO.N,GND*%
X180340000Y-113035000D03*
D14*
%TO.P,J17,2,Pin_2*%
%TO.N,+3V3*%
X180340000Y-110495000D03*
%TD*%
D15*
%TO.P,H2,1*%
%TO.N,N/C*%
X170040000Y-38100000D03*
X169337056Y-39797056D03*
X169337056Y-36402944D03*
X167640000Y-40500000D03*
D16*
X167640000Y-38100000D03*
D15*
X167640000Y-35700000D03*
X165942944Y-39797056D03*
X165942944Y-36402944D03*
X165240000Y-38100000D03*
%TD*%
D13*
%TO.P,J7,1,Pin_1*%
%TO.N,Net-(J7-Pin_1)*%
X199390000Y-123190000D03*
D14*
%TO.P,J7,2,Pin_2*%
%TO.N,+5V*%
X196850000Y-123190000D03*
%TO.P,J7,3,Pin_3*%
%TO.N,GND*%
X194310000Y-123190000D03*
%TD*%
D13*
%TO.P,J14,1,Pin_1*%
%TO.N,GND*%
X167640000Y-113035000D03*
D14*
%TO.P,J14,2,Pin_2*%
%TO.N,+5V*%
X167640000Y-110495000D03*
%TD*%
D13*
%TO.P,J10,1,Pin_1*%
%TO.N,GND*%
X210820000Y-68570000D03*
D14*
%TO.P,J10,2,Pin_2*%
%TO.N,US_ECHO*%
X210820000Y-66030000D03*
%TO.P,J10,3,Pin_3*%
%TO.N,US_TRIG*%
X210820000Y-63490000D03*
%TO.P,J10,4,Pin_4*%
%TO.N,+3V3*%
X210820000Y-60950000D03*
%TD*%
%TO.P,J6,3,Pin_3*%
%TO.N,GND*%
X209550000Y-123190000D03*
%TO.P,J6,2,Pin_2*%
%TO.N,+5V*%
X212090000Y-123190000D03*
D13*
%TO.P,J6,1,Pin_1*%
%TO.N,Net-(J6-Pin_1)*%
X214630000Y-123190000D03*
%TD*%
D14*
%TO.P,J2,2,Pin_2*%
%TO.N,/M2+*%
X191770000Y-36830000D03*
D13*
%TO.P,J2,1,Pin_1*%
%TO.N,/M2-*%
X188270000Y-36830000D03*
%TD*%
D14*
%TO.P,J4,2,Pin_2*%
%TO.N,/M4+*%
X213360000Y-36830000D03*
D13*
%TO.P,J4,1,Pin_1*%
%TO.N,/M4-*%
X209860000Y-36830000D03*
%TD*%
%TO.P,J11,1,Pin_1*%
%TO.N,GND*%
X210820000Y-78740000D03*
D14*
%TO.P,J11,2,Pin_2*%
%TO.N,+3V3*%
X210820000Y-81280000D03*
%TO.P,J11,3,Pin_3*%
%TO.N,unconnected-(J11-Pin_3-Pad3)*%
X210820000Y-83820000D03*
%TO.P,J11,4,Pin_4*%
%TO.N,LINE_1*%
X210820000Y-86360000D03*
%TO.P,J11,5,Pin_5*%
%TO.N,LINE_2*%
X210820000Y-88900000D03*
%TO.P,J11,6,Pin_6*%
%TO.N,LINE_3*%
X210820000Y-91440000D03*
%TO.P,J11,7,Pin_7*%
%TO.N,LINE_4*%
X210820000Y-93980000D03*
%TO.P,J11,8,Pin_8*%
%TO.N,LINE_5*%
X210820000Y-96520000D03*
%TO.P,J11,9,Pin_9*%
%TO.N,LINE_6*%
X210820000Y-99060000D03*
%TD*%
D18*
%TO.N,+5V*%
X147320000Y-45720000D03*
X160020000Y-52705000D03*
X154940000Y-57785000D03*
%TO.N,Net-(J6-Pin_1)*%
X207615000Y-117445000D03*
%TO.N,+3V3*%
X158020000Y-111125000D03*
%TO.N,SERVO1_PWM*%
X202565000Y-113665000D03*
%TO.N,SERVO2_PWM*%
X196215000Y-113665000D03*
%TO.N,SERVO3_PWM*%
X189865000Y-113665000D03*
%TO.N,SERVO4_PWM*%
X184150000Y-113665000D03*
%TO.N,Net-(J7-Pin_1)*%
X200025000Y-118745000D03*
%TO.N,Net-(J8-Pin_1)*%
X189230000Y-118110000D03*
%TO.N,Net-(J9-Pin_1)*%
X177165000Y-117475000D03*
%TO.N,GPIO_LED*%
X146367500Y-63182500D03*
%TD*%
D19*
%TO.N,Net-(J8-Pin_1)*%
X189230000Y-118110000D02*
X188595000Y-118745000D01*
X188580000Y-118745000D02*
X184135000Y-123190000D01*
X188595000Y-118745000D02*
X188580000Y-118745000D01*
%TO.N,Net-(J7-Pin_1)*%
X199390000Y-123190000D02*
X199390000Y-119380000D01*
X199390000Y-119380000D02*
X200025000Y-118745000D01*
%TO.N,+5V*%
X154305000Y-52705000D02*
X147320000Y-45720000D01*
X160020000Y-52705000D02*
X154305000Y-52705000D01*
X147320000Y-45720000D02*
X147637500Y-46037500D01*
X155575000Y-57150000D02*
X160020000Y-52705000D01*
X154940000Y-57785000D02*
X155575000Y-57150000D01*
%TO.N,Net-(J9-Pin_1)*%
X168910000Y-123190000D02*
X174625000Y-117475000D01*
X174625000Y-117475000D02*
X177165000Y-117475000D01*
%TO.N,Net-(J6-Pin_1)*%
X214630000Y-123190000D02*
X208885000Y-117445000D01*
X208885000Y-117445000D02*
X207615000Y-117445000D01*
D20*
%TO.N,GND*%
X176525000Y-51170000D02*
X176525000Y-46650000D01*
X176525000Y-46650000D02*
X178075000Y-45100000D01*
X180340000Y-113035000D02*
X178080000Y-110775000D01*
X178080000Y-110775000D02*
X178080000Y-109852968D01*
X198115000Y-51170000D02*
X198115000Y-46650000D01*
X178080000Y-109852968D02*
X171732032Y-103505000D01*
X171450000Y-113035000D02*
X167640000Y-113035000D01*
X180340000Y-113035000D02*
X162560000Y-113035000D01*
X198115000Y-43550000D02*
X196565000Y-45100000D01*
X178075000Y-45100000D02*
X176525000Y-43550000D01*
X198115000Y-46650000D02*
X196565000Y-45100000D01*
X171732032Y-103505000D02*
X170820000Y-103505000D01*
X196565000Y-45100000D02*
X178075000Y-45100000D01*
D19*
%TO.N,+3V3*%
X176530000Y-110495000D02*
X175355000Y-111670000D01*
X175355000Y-111670000D02*
X158565000Y-111670000D01*
X158565000Y-111670000D02*
X158020000Y-111125000D01*
%TO.N,SPI0_CSn*%
X146685000Y-90805000D02*
X150400000Y-94520000D01*
X150400000Y-116501701D02*
X151373299Y-117475000D01*
X150400000Y-94520000D02*
X150400000Y-116501701D01*
X153035000Y-117475000D02*
X154305000Y-116205000D01*
X151373299Y-117475000D02*
X153035000Y-117475000D01*
%TO.N,SPI0_SCK*%
X151765000Y-90805000D02*
X151765000Y-113665000D01*
%TO.N,SPI0_TX*%
X153130000Y-114840000D02*
X151765000Y-116205000D01*
X154305000Y-90805000D02*
X154305000Y-91440000D01*
X154305000Y-91440000D02*
X153130000Y-92615000D01*
X153130000Y-92615000D02*
X153130000Y-114840000D01*
%TO.N,SPI0_RX*%
X144145000Y-108585000D02*
X149225000Y-113665000D01*
X144145000Y-90805000D02*
X144145000Y-108585000D01*
%TO.N,SERVO1_PWM*%
X192405000Y-103505000D02*
X192405000Y-90805000D01*
X202565000Y-113665000D02*
X192405000Y-103505000D01*
%TO.N,SERVO2_PWM*%
X189865000Y-107315000D02*
X189865000Y-90805000D01*
X196215000Y-113665000D02*
X189865000Y-107315000D01*
%TO.N,SERVO3_PWM*%
X184785000Y-108585000D02*
X184785000Y-90805000D01*
X189865000Y-113665000D02*
X184785000Y-108585000D01*
%TO.N,SERVO4_PWM*%
X184150000Y-113665000D02*
X182245000Y-111760000D01*
X182245000Y-111760000D02*
X182245000Y-90805000D01*
%TO.N,MOTOR1_EN*%
X181605000Y-55885000D02*
X181605000Y-51170000D01*
X164465000Y-73025000D02*
X181605000Y-55885000D01*
%TO.N,MOTOR1_PH*%
X167005000Y-73025000D02*
X184145000Y-55885000D01*
X184145000Y-55885000D02*
X184145000Y-51170000D01*
%TO.N,MOTOR2_EN*%
X186685000Y-63505000D02*
X186685000Y-51170000D01*
X177165000Y-73025000D02*
X186685000Y-63505000D01*
%TO.N,MOTOR2_PH*%
X189225000Y-63505000D02*
X189225000Y-51170000D01*
X179705000Y-73025000D02*
X189225000Y-63505000D01*
%TO.N,MOTOR3_EN*%
X203195000Y-52075000D02*
X203195000Y-51170000D01*
X182245000Y-73025000D02*
X203195000Y-52075000D01*
%TO.N,MOTOR3_PH*%
X205735000Y-52075000D02*
X205735000Y-51170000D01*
X184785000Y-73025000D02*
X205735000Y-52075000D01*
%TO.N,MOTOR4_EN*%
X208275000Y-54615000D02*
X208275000Y-51170000D01*
X189865000Y-73025000D02*
X208275000Y-54615000D01*
%TO.N,MOTOR4_PH*%
X192405000Y-73025000D02*
X210815000Y-54615000D01*
X210815000Y-54615000D02*
X210815000Y-51170000D01*
%TO.N,US_ECHO*%
X182945000Y-86930000D02*
X163260000Y-86930000D01*
X203845000Y-66030000D02*
X182945000Y-86930000D01*
X163260000Y-86930000D02*
X159385000Y-90805000D01*
X210820000Y-66030000D02*
X203845000Y-66030000D01*
%TO.N,US_TRIG*%
X161290000Y-86360000D02*
X182878604Y-86360000D01*
X205748604Y-63490000D02*
X210820000Y-63490000D01*
X156845000Y-90805000D02*
X161290000Y-86360000D01*
X182878604Y-86360000D02*
X205748604Y-63490000D01*
%TO.N,LINE_1*%
X167890000Y-87380000D02*
X164465000Y-90805000D01*
X210820000Y-86360000D02*
X210185000Y-86360000D01*
X209165000Y-87380000D02*
X167890000Y-87380000D01*
X210185000Y-86360000D02*
X209165000Y-87380000D01*
%TO.N,LINE_2*%
X167005000Y-90805000D02*
X169980000Y-87830000D01*
X169980000Y-87830000D02*
X209750000Y-87830000D01*
X209750000Y-87830000D02*
X210820000Y-88900000D01*
%TO.N,LINE_3*%
X207660000Y-88280000D02*
X172070000Y-88280000D01*
X210820000Y-91440000D02*
X207660000Y-88280000D01*
X172070000Y-88280000D02*
X169545000Y-90805000D01*
%TO.N,LINE_4*%
X172085000Y-90805000D02*
X174160000Y-88730000D01*
X205570000Y-88730000D02*
X210820000Y-93980000D01*
X174160000Y-88730000D02*
X205570000Y-88730000D01*
%TO.N,LINE_5*%
X203480000Y-89180000D02*
X178790000Y-89180000D01*
X210820000Y-96520000D02*
X203480000Y-89180000D01*
X178790000Y-89180000D02*
X177165000Y-90805000D01*
%TO.N,LINE_6*%
X201390000Y-89630000D02*
X210820000Y-99060000D01*
X179705000Y-90805000D02*
X180880000Y-89630000D01*
X180880000Y-89630000D02*
X201390000Y-89630000D01*
%TO.N,NRF24_CE*%
X155480000Y-112490000D02*
X155480000Y-89630000D01*
X154305000Y-113665000D02*
X155480000Y-112490000D01*
X155480000Y-89630000D02*
X172085000Y-73025000D01*
%TO.N,GPIO_LED*%
X148590000Y-65405000D02*
X151765000Y-65405000D01*
X151765000Y-65405000D02*
X159385000Y-73025000D01*
X146367500Y-63182500D02*
X148590000Y-65405000D01*
%TD*%
%TA.AperFunction,Conductor*%
%TO.N,GND*%
G36*
X149475000Y-92155000D02*
G01*
X150122828Y-92155000D01*
X150122844Y-92154999D01*
X150182372Y-92148598D01*
X150182379Y-92148596D01*
X150317086Y-92098354D01*
X150317093Y-92098350D01*
X150432187Y-92012190D01*
X150432190Y-92012187D01*
X150518350Y-91897093D01*
X150518354Y-91897086D01*
X150567422Y-91765529D01*
X150609293Y-91709595D01*
X150674757Y-91685178D01*
X150743030Y-91700030D01*
X150771285Y-91721181D01*
X150893599Y-91843495D01*
X151086624Y-91978653D01*
X151130248Y-92033228D01*
X151139500Y-92080226D01*
X151139500Y-94092095D01*
X151119815Y-94159134D01*
X151067011Y-94204889D01*
X150997853Y-94214833D01*
X150934297Y-94185808D01*
X150912398Y-94160986D01*
X150885859Y-94121268D01*
X150856686Y-94092095D01*
X150798733Y-94034142D01*
X150798732Y-94034141D01*
X149389736Y-92625145D01*
X149011319Y-92246728D01*
X148977834Y-92185405D01*
X148975000Y-92159047D01*
X148975000Y-91249560D01*
X149028147Y-91280245D01*
X149157857Y-91315000D01*
X149292143Y-91315000D01*
X149421853Y-91280245D01*
X149475000Y-91249560D01*
X149475000Y-92155000D01*
G37*
%TD.AperFunction*%
%TA.AperFunction,Conductor*%
G36*
X166597586Y-87575185D02*
G01*
X166643341Y-87627989D01*
X166653285Y-87697147D01*
X166624260Y-87760703D01*
X166618228Y-87767181D01*
X164920646Y-89464762D01*
X164859323Y-89498247D01*
X164800872Y-89496856D01*
X164700413Y-89469938D01*
X164700403Y-89469936D01*
X164465001Y-89449341D01*
X164464999Y-89449341D01*
X164229596Y-89469936D01*
X164229586Y-89469938D01*
X164001344Y-89531094D01*
X164001335Y-89531098D01*
X163787171Y-89630964D01*
X163787169Y-89630965D01*
X163593600Y-89766503D01*
X163471284Y-89888819D01*
X163409961Y-89922303D01*
X163340269Y-89917319D01*
X163284336Y-89875447D01*
X163267421Y-89844470D01*
X163218354Y-89712913D01*
X163218350Y-89712906D01*
X163132190Y-89597812D01*
X163132187Y-89597809D01*
X163017093Y-89511649D01*
X163017086Y-89511645D01*
X162882379Y-89461403D01*
X162882372Y-89461401D01*
X162822844Y-89455000D01*
X162175000Y-89455000D01*
X162175000Y-90360439D01*
X162121853Y-90329755D01*
X161992143Y-90295000D01*
X161857857Y-90295000D01*
X161728147Y-90329755D01*
X161675000Y-90360439D01*
X161675000Y-89450952D01*
X161694685Y-89383913D01*
X161711319Y-89363271D01*
X163482772Y-87591819D01*
X163544095Y-87558334D01*
X163570453Y-87555500D01*
X166530547Y-87555500D01*
X166597586Y-87575185D01*
G37*
%TD.AperFunction*%
%TA.AperFunction,Conductor*%
G36*
X185499855Y-51836546D02*
G01*
X185516575Y-51855842D01*
X185646500Y-52041395D01*
X185646505Y-52041401D01*
X185813599Y-52208495D01*
X186006624Y-52343653D01*
X186050248Y-52398228D01*
X186059500Y-52445226D01*
X186059500Y-63194547D01*
X186039815Y-63261586D01*
X186023181Y-63282228D01*
X177620646Y-71684762D01*
X177559323Y-71718247D01*
X177500872Y-71716856D01*
X177400413Y-71689938D01*
X177400403Y-71689936D01*
X177165001Y-71669341D01*
X177164999Y-71669341D01*
X176929596Y-71689936D01*
X176929586Y-71689938D01*
X176701344Y-71751094D01*
X176701335Y-71751098D01*
X176487171Y-71850964D01*
X176487169Y-71850965D01*
X176293600Y-71986503D01*
X176171284Y-72108819D01*
X176109961Y-72142303D01*
X176040269Y-72137319D01*
X175984336Y-72095447D01*
X175967421Y-72064470D01*
X175918354Y-71932913D01*
X175918350Y-71932906D01*
X175832190Y-71817812D01*
X175832187Y-71817809D01*
X175717093Y-71731649D01*
X175717086Y-71731645D01*
X175582379Y-71681403D01*
X175582372Y-71681401D01*
X175522844Y-71675000D01*
X174875000Y-71675000D01*
X174875000Y-72580439D01*
X174821853Y-72549755D01*
X174692143Y-72515000D01*
X174557857Y-72515000D01*
X174428147Y-72549755D01*
X174375000Y-72580439D01*
X174375000Y-71675000D01*
X173727155Y-71675000D01*
X173667627Y-71681401D01*
X173667620Y-71681403D01*
X173532913Y-71731645D01*
X173532906Y-71731649D01*
X173417812Y-71817809D01*
X173417809Y-71817812D01*
X173331649Y-71932906D01*
X173331645Y-71932913D01*
X173282578Y-72064470D01*
X173240707Y-72120404D01*
X173175242Y-72144821D01*
X173106969Y-72129969D01*
X173078715Y-72108819D01*
X173034366Y-72064470D01*
X172956401Y-71986505D01*
X172956397Y-71986502D01*
X172956396Y-71986501D01*
X172762834Y-71850967D01*
X172762830Y-71850965D01*
X172691727Y-71817809D01*
X172548663Y-71751097D01*
X172548659Y-71751096D01*
X172548655Y-71751094D01*
X172320413Y-71689938D01*
X172320403Y-71689936D01*
X172085001Y-71669341D01*
X172084999Y-71669341D01*
X171849596Y-71689936D01*
X171849586Y-71689938D01*
X171621344Y-71751094D01*
X171621335Y-71751098D01*
X171407171Y-71850964D01*
X171407169Y-71850965D01*
X171213597Y-71986505D01*
X171046505Y-72153597D01*
X170916575Y-72339158D01*
X170861998Y-72382783D01*
X170792500Y-72389977D01*
X170730145Y-72358454D01*
X170713425Y-72339158D01*
X170583494Y-72153597D01*
X170416402Y-71986506D01*
X170416395Y-71986501D01*
X170222834Y-71850967D01*
X170222830Y-71850965D01*
X170151727Y-71817809D01*
X170008663Y-71751097D01*
X170008659Y-71751096D01*
X170008655Y-71751094D01*
X169780413Y-71689938D01*
X169780403Y-71689936D01*
X169545001Y-71669341D01*
X169544610Y-71669341D01*
X169544444Y-71669292D01*
X169539606Y-71668869D01*
X169539691Y-71667896D01*
X169477571Y-71649656D01*
X169431816Y-71596852D01*
X169421872Y-71527694D01*
X169450897Y-71464138D01*
X169456929Y-71457660D01*
X173242418Y-67672172D01*
X184630857Y-56283734D01*
X184699311Y-56181286D01*
X184746463Y-56067452D01*
X184770500Y-55946607D01*
X184770500Y-55823394D01*
X184770500Y-52445226D01*
X184790185Y-52378187D01*
X184823374Y-52343654D01*
X185016401Y-52208495D01*
X185183495Y-52041401D01*
X185313425Y-51855842D01*
X185368002Y-51812217D01*
X185437500Y-51805023D01*
X185499855Y-51836546D01*
G37*
%TD.AperFunction*%
%TA.AperFunction,Conductor*%
G36*
X207089855Y-51836546D02*
G01*
X207106575Y-51855842D01*
X207236500Y-52041395D01*
X207236505Y-52041401D01*
X207403599Y-52208495D01*
X207596624Y-52343653D01*
X207640248Y-52398228D01*
X207649500Y-52445226D01*
X207649500Y-54304547D01*
X207629815Y-54371586D01*
X207613181Y-54392228D01*
X190320646Y-71684762D01*
X190259323Y-71718247D01*
X190200872Y-71716856D01*
X190100413Y-71689938D01*
X190100403Y-71689936D01*
X189865001Y-71669341D01*
X189864999Y-71669341D01*
X189629596Y-71689936D01*
X189629586Y-71689938D01*
X189401344Y-71751094D01*
X189401335Y-71751098D01*
X189187171Y-71850964D01*
X189187169Y-71850965D01*
X188993600Y-71986503D01*
X188871284Y-72108819D01*
X188809961Y-72142303D01*
X188740269Y-72137319D01*
X188684336Y-72095447D01*
X188667421Y-72064470D01*
X188618354Y-71932913D01*
X188618350Y-71932906D01*
X188532190Y-71817812D01*
X188532187Y-71817809D01*
X188417093Y-71731649D01*
X188417086Y-71731645D01*
X188282379Y-71681403D01*
X188282372Y-71681401D01*
X188222844Y-71675000D01*
X187575000Y-71675000D01*
X187575000Y-72580439D01*
X187521853Y-72549755D01*
X187392143Y-72515000D01*
X187257857Y-72515000D01*
X187128147Y-72549755D01*
X187075000Y-72580439D01*
X187075000Y-71670951D01*
X187094685Y-71603912D01*
X187111319Y-71583270D01*
X196576164Y-62118425D01*
X206133729Y-52560860D01*
X206133733Y-52560858D01*
X206220858Y-52473733D01*
X206240589Y-52444203D01*
X206291285Y-52400712D01*
X206412830Y-52344035D01*
X206606401Y-52208495D01*
X206773495Y-52041401D01*
X206903425Y-51855842D01*
X206958002Y-51812217D01*
X207027500Y-51805023D01*
X207089855Y-51836546D01*
G37*
%TD.AperFunction*%
%TA.AperFunction,Conductor*%
G36*
X218383039Y-30499685D02*
G01*
X218428794Y-30552489D01*
X218440000Y-30604000D01*
X218440000Y-129416000D01*
X218420315Y-129483039D01*
X218367511Y-129528794D01*
X218316000Y-129540000D01*
X142364000Y-129540000D01*
X142296961Y-129520315D01*
X142251206Y-129467511D01*
X142240000Y-129416000D01*
X142240000Y-122762944D01*
X144884422Y-122762944D01*
X144904722Y-123150282D01*
X144965398Y-123533377D01*
X144997628Y-123653663D01*
X145065788Y-123908038D01*
X145204787Y-124270141D01*
X145380877Y-124615737D01*
X145592122Y-124941026D01*
X145592124Y-124941028D01*
X145836219Y-125242460D01*
X146110484Y-125516725D01*
X146110488Y-125516728D01*
X146411917Y-125760821D01*
X146737206Y-125972066D01*
X146737211Y-125972069D01*
X147082806Y-126148158D01*
X147444913Y-126287158D01*
X147819567Y-126387546D01*
X148202662Y-126448222D01*
X148568576Y-126467399D01*
X148589999Y-126468522D01*
X148590000Y-126468522D01*
X148590001Y-126468522D01*
X148610301Y-126467458D01*
X148977338Y-126448222D01*
X149360433Y-126387546D01*
X149735087Y-126287158D01*
X150097194Y-126148158D01*
X150442789Y-125972069D01*
X150768084Y-125760820D01*
X151069516Y-125516725D01*
X151343781Y-125242460D01*
X151587876Y-124941028D01*
X151799125Y-124615733D01*
X151975214Y-124270138D01*
X152114214Y-123908031D01*
X152214602Y-123533377D01*
X152229391Y-123440000D01*
X162499364Y-123440000D01*
X162556567Y-123653486D01*
X162556570Y-123653492D01*
X162656399Y-123867578D01*
X162791894Y-124061082D01*
X162958917Y-124228105D01*
X163152421Y-124363600D01*
X163366507Y-124463429D01*
X163366516Y-124463433D01*
X163580000Y-124520634D01*
X163580000Y-123623012D01*
X163637007Y-123655925D01*
X163764174Y-123690000D01*
X163895826Y-123690000D01*
X164022993Y-123655925D01*
X164080000Y-123623012D01*
X164080000Y-124520633D01*
X164293483Y-124463433D01*
X164293492Y-124463429D01*
X164507578Y-124363600D01*
X164701082Y-124228105D01*
X164868105Y-124061082D01*
X164998119Y-123875405D01*
X165052696Y-123831781D01*
X165122195Y-123824588D01*
X165184549Y-123856110D01*
X165201269Y-123875405D01*
X165331505Y-124061401D01*
X165498599Y-124228495D01*
X165595384Y-124296265D01*
X165692165Y-124364032D01*
X165692167Y-124364033D01*
X165692170Y-124364035D01*
X165906337Y-124463903D01*
X166134592Y-124525063D01*
X166311034Y-124540500D01*
X166369999Y-124545659D01*
X166370000Y-124545659D01*
X166370001Y-124545659D01*
X166428966Y-124540500D01*
X166605408Y-124525063D01*
X166833663Y-124463903D01*
X167047830Y-124364035D01*
X167241401Y-124228495D01*
X167363329Y-124106566D01*
X167424648Y-124073084D01*
X167494340Y-124078068D01*
X167550274Y-124119939D01*
X167567189Y-124150917D01*
X167616202Y-124282328D01*
X167616206Y-124282335D01*
X167702452Y-124397544D01*
X167702455Y-124397547D01*
X167817664Y-124483793D01*
X167817671Y-124483797D01*
X167952517Y-124534091D01*
X167952516Y-124534091D01*
X167959444Y-124534835D01*
X168012127Y-124540500D01*
X169807872Y-124540499D01*
X169867483Y-124534091D01*
X170002331Y-124483796D01*
X170117546Y-124397546D01*
X170203796Y-124282331D01*
X170254091Y-124147483D01*
X170260500Y-124087873D01*
X170260500Y-123440000D01*
X177724364Y-123440000D01*
X177781567Y-123653486D01*
X177781570Y-123653492D01*
X177881399Y-123867578D01*
X178016894Y-124061082D01*
X178183917Y-124228105D01*
X178377421Y-124363600D01*
X178591507Y-124463429D01*
X178591516Y-124463433D01*
X178805000Y-124520634D01*
X178805000Y-123623012D01*
X178862007Y-123655925D01*
X178989174Y-123690000D01*
X179120826Y-123690000D01*
X179247993Y-123655925D01*
X179305000Y-123623012D01*
X179305000Y-124520633D01*
X179518483Y-124463433D01*
X179518492Y-124463429D01*
X179732578Y-124363600D01*
X179926082Y-124228105D01*
X180093105Y-124061082D01*
X180223119Y-123875405D01*
X180277696Y-123831781D01*
X180347195Y-123824588D01*
X180409549Y-123856110D01*
X180426269Y-123875405D01*
X180556505Y-124061401D01*
X180723599Y-124228495D01*
X180820384Y-124296265D01*
X180917165Y-124364032D01*
X180917167Y-124364033D01*
X180917170Y-124364035D01*
X181131337Y-124463903D01*
X181359592Y-124525063D01*
X181536034Y-124540500D01*
X181594999Y-124545659D01*
X181595000Y-124545659D01*
X181595001Y-124545659D01*
X181653966Y-124540500D01*
X181830408Y-124525063D01*
X182058663Y-124463903D01*
X182272830Y-124364035D01*
X182466401Y-124228495D01*
X182588329Y-124106566D01*
X182649648Y-124073084D01*
X182719340Y-124078068D01*
X182775274Y-124119939D01*
X182792189Y-124150917D01*
X182841202Y-124282328D01*
X182841206Y-124282335D01*
X182927452Y-124397544D01*
X182927455Y-124397547D01*
X183042664Y-124483793D01*
X183042671Y-124483797D01*
X183177517Y-124534091D01*
X183177516Y-124534091D01*
X183184444Y-124534835D01*
X183237127Y-124540500D01*
X185032872Y-124540499D01*
X185092483Y-124534091D01*
X185227331Y-124483796D01*
X185342546Y-124397546D01*
X185428796Y-124282331D01*
X185479091Y-124147483D01*
X185485500Y-124087873D01*
X185485500Y-123440000D01*
X192979364Y-123440000D01*
X193036567Y-123653486D01*
X193036570Y-123653492D01*
X193136399Y-123867578D01*
X193271894Y-124061082D01*
X193438917Y-124228105D01*
X193632421Y-124363600D01*
X193846507Y-124463429D01*
X193846516Y-124463433D01*
X194060000Y-124520634D01*
X194060000Y-123623012D01*
X194117007Y-123655925D01*
X194244174Y-123690000D01*
X194375826Y-123690000D01*
X194502993Y-123655925D01*
X194560000Y-123623012D01*
X194560000Y-124520634D01*
X194773483Y-124463433D01*
X194773492Y-124463429D01*
X194987578Y-124363600D01*
X195181082Y-124228105D01*
X195348105Y-124061082D01*
X195478119Y-123875405D01*
X195532696Y-123831781D01*
X195602195Y-123824588D01*
X195664549Y-123856110D01*
X195681269Y-123875405D01*
X195811505Y-124061401D01*
X195978599Y-124228495D01*
X196075384Y-124296265D01*
X196172165Y-124364032D01*
X196172167Y-124364033D01*
X196172170Y-124364035D01*
X196386337Y-124463903D01*
X196614592Y-124525063D01*
X196791034Y-124540500D01*
X196849999Y-124545659D01*
X196850000Y-124545659D01*
X196850001Y-124545659D01*
X196908966Y-124540500D01*
X197085408Y-124525063D01*
X197313663Y-124463903D01*
X197527830Y-124364035D01*
X197721401Y-124228495D01*
X197843329Y-124106566D01*
X197904648Y-124073084D01*
X197974340Y-124078068D01*
X198030274Y-124119939D01*
X198047189Y-124150917D01*
X198096202Y-124282328D01*
X198096206Y-124282335D01*
X198182452Y-124397544D01*
X198182455Y-124397547D01*
X198297664Y-124483793D01*
X198297671Y-124483797D01*
X198432517Y-124534091D01*
X198432516Y-124534091D01*
X198439444Y-124534835D01*
X198492127Y-124540500D01*
X200287872Y-124540499D01*
X200347483Y-124534091D01*
X200482331Y-124483796D01*
X200597546Y-124397546D01*
X200683796Y-124282331D01*
X200734091Y-124147483D01*
X200740500Y-124087873D01*
X200740499Y-122292128D01*
X200734091Y-122232517D01*
X200732810Y-122229083D01*
X200683797Y-122097671D01*
X200683793Y-122097664D01*
X200597547Y-121982455D01*
X200597544Y-121982452D01*
X200482335Y-121896206D01*
X200482328Y-121896202D01*
X200347482Y-121845908D01*
X200347483Y-121845908D01*
X200287883Y-121839501D01*
X200287881Y-121839500D01*
X200287873Y-121839500D01*
X200287865Y-121839500D01*
X200139500Y-121839500D01*
X200072461Y-121819815D01*
X200026706Y-121767011D01*
X200015500Y-121715500D01*
X200015500Y-119768049D01*
X200035185Y-119701010D01*
X200087989Y-119655255D01*
X200113720Y-119646759D01*
X200119643Y-119645500D01*
X200119646Y-119645500D01*
X200304803Y-119606144D01*
X200477730Y-119529151D01*
X200630871Y-119417888D01*
X200757533Y-119277216D01*
X200852179Y-119113284D01*
X200910674Y-118933256D01*
X200930460Y-118745000D01*
X200910674Y-118556744D01*
X200852179Y-118376716D01*
X200757533Y-118212784D01*
X200630871Y-118072112D01*
X200630870Y-118072111D01*
X200477734Y-117960851D01*
X200477729Y-117960848D01*
X200304807Y-117883857D01*
X200304802Y-117883855D01*
X200159001Y-117852865D01*
X200119646Y-117844500D01*
X199930354Y-117844500D01*
X199897897Y-117851398D01*
X199745197Y-117883855D01*
X199745192Y-117883857D01*
X199572270Y-117960848D01*
X199572265Y-117960851D01*
X199419129Y-118072111D01*
X199292466Y-118212785D01*
X199197821Y-118376715D01*
X199197818Y-118376722D01*
X199164819Y-118478284D01*
X199139326Y-118556744D01*
X199130343Y-118642214D01*
X199121679Y-118724649D01*
X199095094Y-118789263D01*
X199086040Y-118799368D01*
X198991269Y-118894140D01*
X198991268Y-118894139D01*
X198991267Y-118894142D01*
X198904144Y-118981264D01*
X198904138Y-118981272D01*
X198835690Y-119083708D01*
X198835689Y-119083710D01*
X198813060Y-119138340D01*
X198813061Y-119138341D01*
X198788537Y-119197549D01*
X198788535Y-119197556D01*
X198780345Y-119238728D01*
X198780346Y-119238729D01*
X198768297Y-119299308D01*
X198768296Y-119299314D01*
X198764500Y-119318394D01*
X198764500Y-121715500D01*
X198744815Y-121782539D01*
X198692011Y-121828294D01*
X198640501Y-121839500D01*
X198492130Y-121839500D01*
X198492123Y-121839501D01*
X198432516Y-121845908D01*
X198297671Y-121896202D01*
X198297664Y-121896206D01*
X198182455Y-121982452D01*
X198182452Y-121982455D01*
X198096206Y-122097664D01*
X198096203Y-122097669D01*
X198047189Y-122229083D01*
X198005317Y-122285016D01*
X197939853Y-122309433D01*
X197871580Y-122294581D01*
X197843326Y-122273430D01*
X197721402Y-122151506D01*
X197721395Y-122151501D01*
X197527834Y-122015967D01*
X197527830Y-122015965D01*
X197527828Y-122015964D01*
X197313663Y-121916097D01*
X197313659Y-121916096D01*
X197313655Y-121916094D01*
X197085413Y-121854938D01*
X197085403Y-121854936D01*
X196850001Y-121834341D01*
X196849999Y-121834341D01*
X196614596Y-121854936D01*
X196614586Y-121854938D01*
X196386344Y-121916094D01*
X196386335Y-121916098D01*
X196172171Y-122015964D01*
X196172169Y-122015965D01*
X195978597Y-122151505D01*
X195811508Y-122318594D01*
X195681269Y-122504595D01*
X195626692Y-122548219D01*
X195557193Y-122555412D01*
X195494839Y-122523890D01*
X195478119Y-122504594D01*
X195348113Y-122318926D01*
X195348108Y-122318920D01*
X195181082Y-122151894D01*
X194987578Y-122016399D01*
X194773492Y-121916570D01*
X194773486Y-121916567D01*
X194560000Y-121859364D01*
X194560000Y-122756988D01*
X194502993Y-122724075D01*
X194375826Y-122690000D01*
X194244174Y-122690000D01*
X194117007Y-122724075D01*
X194060000Y-122756988D01*
X194060000Y-121859364D01*
X194059999Y-121859364D01*
X193846513Y-121916567D01*
X193846507Y-121916570D01*
X193632422Y-122016399D01*
X193632420Y-122016400D01*
X193438926Y-122151886D01*
X193438920Y-122151891D01*
X193271891Y-122318920D01*
X193271886Y-122318926D01*
X193136400Y-122512420D01*
X193136399Y-122512422D01*
X193036570Y-122726507D01*
X193036567Y-122726513D01*
X192979364Y-122939999D01*
X192979364Y-122940000D01*
X193876988Y-122940000D01*
X193844075Y-122997007D01*
X193810000Y-123124174D01*
X193810000Y-123255826D01*
X193844075Y-123382993D01*
X193876988Y-123440000D01*
X192979364Y-123440000D01*
X185485500Y-123440000D01*
X185485499Y-122775450D01*
X185505184Y-122708412D01*
X185521813Y-122687775D01*
X188939891Y-119269697D01*
X188958674Y-119254282D01*
X188993733Y-119230858D01*
X189080858Y-119143733D01*
X189080858Y-119143731D01*
X189091066Y-119133524D01*
X189091069Y-119133520D01*
X189177773Y-119046818D01*
X189239096Y-119013333D01*
X189265453Y-119010500D01*
X189324644Y-119010500D01*
X189324646Y-119010500D01*
X189509803Y-118971144D01*
X189682730Y-118894151D01*
X189835871Y-118782888D01*
X189962533Y-118642216D01*
X190057179Y-118478284D01*
X190115674Y-118298256D01*
X190135460Y-118110000D01*
X190115674Y-117921744D01*
X190057179Y-117741716D01*
X189962533Y-117577784D01*
X189842973Y-117445000D01*
X206709540Y-117445000D01*
X206729326Y-117633256D01*
X206729327Y-117633259D01*
X206787818Y-117813277D01*
X206787821Y-117813284D01*
X206882467Y-117977216D01*
X206999162Y-118106819D01*
X207009129Y-118117888D01*
X207162265Y-118229148D01*
X207162270Y-118229151D01*
X207335192Y-118306142D01*
X207335197Y-118306144D01*
X207520354Y-118345500D01*
X207520355Y-118345500D01*
X207709644Y-118345500D01*
X207709646Y-118345500D01*
X207894803Y-118306144D01*
X208067730Y-118229151D01*
X208220871Y-118117888D01*
X208223788Y-118114647D01*
X208226600Y-118111526D01*
X208286087Y-118074879D01*
X208318748Y-118070500D01*
X208574548Y-118070500D01*
X208641587Y-118090185D01*
X208662229Y-118106819D01*
X212178070Y-121622660D01*
X212211555Y-121683983D01*
X212206571Y-121753675D01*
X212164699Y-121809608D01*
X212099235Y-121834025D01*
X212090389Y-121834341D01*
X212089999Y-121834341D01*
X211854596Y-121854936D01*
X211854586Y-121854938D01*
X211626344Y-121916094D01*
X211626335Y-121916098D01*
X211412171Y-122015964D01*
X211412169Y-122015965D01*
X211218597Y-122151505D01*
X211051508Y-122318594D01*
X210921269Y-122504595D01*
X210866692Y-122548219D01*
X210797193Y-122555412D01*
X210734839Y-122523890D01*
X210718119Y-122504594D01*
X210588113Y-122318926D01*
X210588108Y-122318920D01*
X210421082Y-122151894D01*
X210227578Y-122016399D01*
X210013492Y-121916570D01*
X210013486Y-121916567D01*
X209800000Y-121859364D01*
X209800000Y-122756988D01*
X209742993Y-122724075D01*
X209615826Y-122690000D01*
X209484174Y-122690000D01*
X209357007Y-122724075D01*
X209300000Y-122756988D01*
X209300000Y-121859364D01*
X209299999Y-121859364D01*
X209086513Y-121916567D01*
X209086507Y-121916570D01*
X208872422Y-122016399D01*
X208872420Y-122016400D01*
X208678926Y-122151886D01*
X208678920Y-122151891D01*
X208511891Y-122318920D01*
X208511886Y-122318926D01*
X208376400Y-122512420D01*
X208376399Y-122512422D01*
X208276570Y-122726507D01*
X208276567Y-122726513D01*
X208219364Y-122939999D01*
X208219364Y-122940000D01*
X209116988Y-122940000D01*
X209084075Y-122997007D01*
X209050000Y-123124174D01*
X209050000Y-123255826D01*
X209084075Y-123382993D01*
X209116988Y-123440000D01*
X208219364Y-123440000D01*
X208276567Y-123653486D01*
X208276570Y-123653492D01*
X208376399Y-123867578D01*
X208511894Y-124061082D01*
X208678917Y-124228105D01*
X208872421Y-124363600D01*
X209086507Y-124463429D01*
X209086516Y-124463433D01*
X209300000Y-124520634D01*
X209300000Y-123623012D01*
X209357007Y-123655925D01*
X209484174Y-123690000D01*
X209615826Y-123690000D01*
X209742993Y-123655925D01*
X209800000Y-123623012D01*
X209800000Y-124520634D01*
X210013483Y-124463433D01*
X210013492Y-124463429D01*
X210227578Y-124363600D01*
X210421082Y-124228105D01*
X210588105Y-124061082D01*
X210718119Y-123875405D01*
X210772696Y-123831781D01*
X210842195Y-123824588D01*
X210904549Y-123856110D01*
X210921269Y-123875405D01*
X211051505Y-124061401D01*
X211218599Y-124228495D01*
X211315384Y-124296265D01*
X211412165Y-124364032D01*
X211412167Y-124364033D01*
X211412170Y-124364035D01*
X211626337Y-124463903D01*
X211854592Y-124525063D01*
X212031034Y-124540500D01*
X212089999Y-124545659D01*
X212090000Y-124545659D01*
X212090001Y-124545659D01*
X212148966Y-124540500D01*
X212325408Y-124525063D01*
X212553663Y-124463903D01*
X212767830Y-124364035D01*
X212961401Y-124228495D01*
X213083329Y-124106566D01*
X213144648Y-124073084D01*
X213214340Y-124078068D01*
X213270274Y-124119939D01*
X213287189Y-124150917D01*
X213336202Y-124282328D01*
X213336206Y-124282335D01*
X213422452Y-124397544D01*
X213422455Y-124397547D01*
X213537664Y-124483793D01*
X213537671Y-124483797D01*
X213672517Y-124534091D01*
X213672516Y-124534091D01*
X213679444Y-124534835D01*
X213732127Y-124540500D01*
X215527872Y-124540499D01*
X215587483Y-124534091D01*
X215722331Y-124483796D01*
X215837546Y-124397546D01*
X215923796Y-124282331D01*
X215974091Y-124147483D01*
X215980500Y-124087873D01*
X215980499Y-122292128D01*
X215974091Y-122232517D01*
X215972810Y-122229083D01*
X215923797Y-122097671D01*
X215923793Y-122097664D01*
X215837547Y-121982455D01*
X215837544Y-121982452D01*
X215722335Y-121896206D01*
X215722328Y-121896202D01*
X215587482Y-121845908D01*
X215587483Y-121845908D01*
X215527883Y-121839501D01*
X215527881Y-121839500D01*
X215527873Y-121839500D01*
X215527865Y-121839500D01*
X214215452Y-121839500D01*
X214148413Y-121819815D01*
X214127771Y-121803181D01*
X209375198Y-117050608D01*
X209375178Y-117050586D01*
X209283736Y-116959144D01*
X209283732Y-116959141D01*
X209226183Y-116920688D01*
X209181287Y-116890689D01*
X209181286Y-116890688D01*
X209181283Y-116890686D01*
X209181280Y-116890685D01*
X209100792Y-116857347D01*
X209067453Y-116843537D01*
X209057427Y-116841543D01*
X209007029Y-116831518D01*
X208946610Y-116819500D01*
X208946607Y-116819500D01*
X208946606Y-116819500D01*
X208318748Y-116819500D01*
X208251709Y-116799815D01*
X208226600Y-116778474D01*
X208220873Y-116772114D01*
X208220869Y-116772110D01*
X208067734Y-116660851D01*
X208067729Y-116660848D01*
X207894807Y-116583857D01*
X207894802Y-116583855D01*
X207749001Y-116552865D01*
X207709646Y-116544500D01*
X207520354Y-116544500D01*
X207487897Y-116551398D01*
X207335197Y-116583855D01*
X207335192Y-116583857D01*
X207162270Y-116660848D01*
X207162265Y-116660851D01*
X207009129Y-116772111D01*
X206882466Y-116912785D01*
X206787821Y-117076715D01*
X206787818Y-117076722D01*
X206731364Y-117250472D01*
X206729326Y-117256744D01*
X206709540Y-117445000D01*
X189842973Y-117445000D01*
X189835871Y-117437112D01*
X189755935Y-117379035D01*
X189682734Y-117325851D01*
X189682729Y-117325848D01*
X189509807Y-117248857D01*
X189509802Y-117248855D01*
X189351246Y-117215154D01*
X189324646Y-117209500D01*
X189135354Y-117209500D01*
X189108754Y-117215154D01*
X188950197Y-117248855D01*
X188950192Y-117248857D01*
X188777270Y-117325848D01*
X188777265Y-117325851D01*
X188624129Y-117437111D01*
X188497466Y-117577785D01*
X188402821Y-117741715D01*
X188402818Y-117741722D01*
X188356636Y-117883857D01*
X188344326Y-117921744D01*
X188326679Y-118089649D01*
X188300094Y-118154263D01*
X188291039Y-118164368D01*
X188235108Y-118220299D01*
X188216321Y-118235718D01*
X188181267Y-118259141D01*
X188142153Y-118298256D01*
X188094142Y-118346267D01*
X188094139Y-118346270D01*
X184637227Y-121803181D01*
X184575904Y-121836666D01*
X184549546Y-121839500D01*
X183237129Y-121839500D01*
X183237123Y-121839501D01*
X183177516Y-121845908D01*
X183042671Y-121896202D01*
X183042664Y-121896206D01*
X182927455Y-121982452D01*
X182927452Y-121982455D01*
X182841206Y-122097664D01*
X182841203Y-122097669D01*
X182792189Y-122229083D01*
X182750317Y-122285016D01*
X182684853Y-122309433D01*
X182616580Y-122294581D01*
X182588326Y-122273430D01*
X182466402Y-122151506D01*
X182466395Y-122151501D01*
X182272834Y-122015967D01*
X182272830Y-122015965D01*
X182272828Y-122015964D01*
X182058663Y-121916097D01*
X182058659Y-121916096D01*
X182058655Y-121916094D01*
X181830413Y-121854938D01*
X181830403Y-121854936D01*
X181595001Y-121834341D01*
X181594999Y-121834341D01*
X181359596Y-121854936D01*
X181359586Y-121854938D01*
X181131344Y-121916094D01*
X181131335Y-121916098D01*
X180917171Y-122015964D01*
X180917169Y-122015965D01*
X180723597Y-122151505D01*
X180556508Y-122318594D01*
X180426269Y-122504595D01*
X180371692Y-122548219D01*
X180302193Y-122555412D01*
X180239839Y-122523890D01*
X180223119Y-122504594D01*
X180093113Y-122318926D01*
X180093108Y-122318920D01*
X179926082Y-122151894D01*
X179732578Y-122016399D01*
X179518492Y-121916570D01*
X179518486Y-121916567D01*
X179305000Y-121859364D01*
X179305000Y-122756988D01*
X179247993Y-122724075D01*
X179120826Y-122690000D01*
X178989174Y-122690000D01*
X178862007Y-122724075D01*
X178805000Y-122756988D01*
X178805000Y-121859364D01*
X178804999Y-121859364D01*
X178591513Y-121916567D01*
X178591507Y-121916570D01*
X178377422Y-122016399D01*
X178377420Y-122016400D01*
X178183926Y-122151886D01*
X178183920Y-122151891D01*
X178016891Y-122318920D01*
X178016886Y-122318926D01*
X177881400Y-122512420D01*
X177881399Y-122512422D01*
X177781570Y-122726507D01*
X177781567Y-122726513D01*
X177724364Y-122939999D01*
X177724364Y-122940000D01*
X178621988Y-122940000D01*
X178589075Y-122997007D01*
X178555000Y-123124174D01*
X178555000Y-123255826D01*
X178589075Y-123382993D01*
X178621988Y-123440000D01*
X177724364Y-123440000D01*
X170260500Y-123440000D01*
X170260499Y-122775450D01*
X170280184Y-122708412D01*
X170296813Y-122687775D01*
X174847772Y-118136819D01*
X174909095Y-118103334D01*
X174935453Y-118100500D01*
X176461252Y-118100500D01*
X176528291Y-118120185D01*
X176553400Y-118141526D01*
X176559126Y-118147885D01*
X176559130Y-118147889D01*
X176712265Y-118259148D01*
X176712270Y-118259151D01*
X176885192Y-118336142D01*
X176885197Y-118336144D01*
X177070354Y-118375500D01*
X177070355Y-118375500D01*
X177259644Y-118375500D01*
X177259646Y-118375500D01*
X177444803Y-118336144D01*
X177617730Y-118259151D01*
X177770871Y-118147888D01*
X177897533Y-118007216D01*
X177992179Y-117843284D01*
X178050674Y-117663256D01*
X178070460Y-117475000D01*
X178050674Y-117286744D01*
X177992179Y-117106716D01*
X177897533Y-116942784D01*
X177770871Y-116802112D01*
X177770870Y-116802111D01*
X177617734Y-116690851D01*
X177617729Y-116690848D01*
X177444807Y-116613857D01*
X177444802Y-116613855D01*
X177299001Y-116582865D01*
X177259646Y-116574500D01*
X177070354Y-116574500D01*
X177037897Y-116581398D01*
X176885197Y-116613855D01*
X176885192Y-116613857D01*
X176712270Y-116690848D01*
X176712265Y-116690851D01*
X176559130Y-116802110D01*
X176559126Y-116802114D01*
X176553400Y-116808474D01*
X176493913Y-116845121D01*
X176461252Y-116849500D01*
X174692741Y-116849500D01*
X174692721Y-116849499D01*
X174686607Y-116849499D01*
X174563394Y-116849499D01*
X174462597Y-116869548D01*
X174462592Y-116869548D01*
X174442548Y-116873536D01*
X174442545Y-116873537D01*
X174420115Y-116882829D01*
X174420112Y-116882830D01*
X174328721Y-116920684D01*
X174328708Y-116920691D01*
X174226267Y-116989141D01*
X174226263Y-116989144D01*
X169412227Y-121803181D01*
X169350904Y-121836666D01*
X169324546Y-121839500D01*
X168012129Y-121839500D01*
X168012123Y-121839501D01*
X167952516Y-121845908D01*
X167817671Y-121896202D01*
X167817664Y-121896206D01*
X167702455Y-121982452D01*
X167702452Y-121982455D01*
X167616206Y-122097664D01*
X167616203Y-122097669D01*
X167567189Y-122229083D01*
X167525317Y-122285016D01*
X167459853Y-122309433D01*
X167391580Y-122294581D01*
X167363326Y-122273430D01*
X167241402Y-122151506D01*
X167241395Y-122151501D01*
X167047834Y-122015967D01*
X167047830Y-122015965D01*
X167047828Y-122015964D01*
X166833663Y-121916097D01*
X166833659Y-121916096D01*
X166833655Y-121916094D01*
X166605413Y-121854938D01*
X166605403Y-121854936D01*
X166370001Y-121834341D01*
X166369999Y-121834341D01*
X166134596Y-121854936D01*
X166134586Y-121854938D01*
X165906344Y-121916094D01*
X165906335Y-121916098D01*
X165692171Y-122015964D01*
X165692169Y-122015965D01*
X165498597Y-122151505D01*
X165331508Y-122318594D01*
X165201269Y-122504595D01*
X165146692Y-122548219D01*
X165077193Y-122555412D01*
X165014839Y-122523890D01*
X164998119Y-122504594D01*
X164868113Y-122318926D01*
X164868108Y-122318920D01*
X164701082Y-122151894D01*
X164507578Y-122016399D01*
X164293492Y-121916570D01*
X164293486Y-121916567D01*
X164080000Y-121859364D01*
X164080000Y-122756988D01*
X164022993Y-122724075D01*
X163895826Y-122690000D01*
X163764174Y-122690000D01*
X163637007Y-122724075D01*
X163580000Y-122756988D01*
X163580000Y-121859364D01*
X163579999Y-121859364D01*
X163366513Y-121916567D01*
X163366507Y-121916570D01*
X163152422Y-122016399D01*
X163152420Y-122016400D01*
X162958926Y-122151886D01*
X162958920Y-122151891D01*
X162791891Y-122318920D01*
X162791886Y-122318926D01*
X162656400Y-122512420D01*
X162656399Y-122512422D01*
X162556570Y-122726507D01*
X162556567Y-122726513D01*
X162499364Y-122939999D01*
X162499364Y-122940000D01*
X163396988Y-122940000D01*
X163364075Y-122997007D01*
X163330000Y-123124174D01*
X163330000Y-123255826D01*
X163364075Y-123382993D01*
X163396988Y-123440000D01*
X162499364Y-123440000D01*
X152229391Y-123440000D01*
X152275278Y-123150282D01*
X152295578Y-122762944D01*
X152275278Y-122375606D01*
X152214602Y-121992511D01*
X152114214Y-121617857D01*
X151975214Y-121255750D01*
X151799125Y-120910155D01*
X151587876Y-120584860D01*
X151343781Y-120283428D01*
X151069516Y-120009163D01*
X151035164Y-119981345D01*
X150768082Y-119765066D01*
X150442793Y-119553821D01*
X150097197Y-119377731D01*
X149735094Y-119238732D01*
X149735083Y-119238729D01*
X149360433Y-119138342D01*
X149360429Y-119138341D01*
X149360428Y-119138341D01*
X148977339Y-119077666D01*
X148590001Y-119057366D01*
X148589999Y-119057366D01*
X148202660Y-119077666D01*
X147819571Y-119138341D01*
X147819567Y-119138341D01*
X147819567Y-119138342D01*
X147694682Y-119171804D01*
X147444905Y-119238732D01*
X147082802Y-119377731D01*
X146737206Y-119553821D01*
X146411917Y-119765066D01*
X146110488Y-120009159D01*
X146110480Y-120009166D01*
X145836222Y-120283424D01*
X145836215Y-120283432D01*
X145592122Y-120584861D01*
X145380877Y-120910150D01*
X145204787Y-121255746D01*
X145065788Y-121617849D01*
X144965397Y-121992514D01*
X144965397Y-121992516D01*
X144904722Y-122375604D01*
X144886332Y-122726507D01*
X144884422Y-122762944D01*
X142240000Y-122762944D01*
X142240000Y-90805000D01*
X142789341Y-90805000D01*
X142809936Y-91040403D01*
X142809938Y-91040413D01*
X142871094Y-91268655D01*
X142871096Y-91268659D01*
X142871097Y-91268663D01*
X142950993Y-91439999D01*
X142970965Y-91482830D01*
X142970967Y-91482834D01*
X143059208Y-91608854D01*
X143106505Y-91676401D01*
X143273599Y-91843495D01*
X143466624Y-91978653D01*
X143510248Y-92033228D01*
X143519500Y-92080226D01*
X143519500Y-108646611D01*
X143543535Y-108767444D01*
X143543540Y-108767461D01*
X143590685Y-108881281D01*
X143590687Y-108881284D01*
X143608119Y-108907372D01*
X143608120Y-108907374D01*
X143659141Y-108983732D01*
X143659144Y-108983736D01*
X143750586Y-109075178D01*
X143750608Y-109075198D01*
X147884762Y-113209352D01*
X147918247Y-113270675D01*
X147916856Y-113329126D01*
X147889938Y-113429586D01*
X147889936Y-113429596D01*
X147869341Y-113664999D01*
X147869341Y-113665000D01*
X147889936Y-113900403D01*
X147889938Y-113900413D01*
X147951094Y-114128655D01*
X147951096Y-114128659D01*
X147951097Y-114128663D01*
X148004036Y-114242190D01*
X148050965Y-114342830D01*
X148050967Y-114342834D01*
X148186501Y-114536395D01*
X148186506Y-114536402D01*
X148353597Y-114703493D01*
X148353603Y-114703498D01*
X148539158Y-114833425D01*
X148582783Y-114888002D01*
X148589977Y-114957500D01*
X148558454Y-115019855D01*
X148539158Y-115036575D01*
X148353597Y-115166505D01*
X148186505Y-115333597D01*
X148050965Y-115527169D01*
X148050964Y-115527171D01*
X147951098Y-115741335D01*
X147951094Y-115741344D01*
X147889938Y-115969586D01*
X147889936Y-115969596D01*
X147869341Y-116204999D01*
X147869341Y-116205000D01*
X147889936Y-116440403D01*
X147889938Y-116440413D01*
X147951094Y-116668655D01*
X147951096Y-116668659D01*
X147951097Y-116668663D01*
X148050965Y-116882830D01*
X148186505Y-117076401D01*
X148353599Y-117243495D01*
X148372515Y-117256740D01*
X148547165Y-117379032D01*
X148547167Y-117379033D01*
X148547170Y-117379035D01*
X148761337Y-117478903D01*
X148989592Y-117540063D01*
X149177918Y-117556539D01*
X149224999Y-117560659D01*
X149225000Y-117560659D01*
X149225001Y-117560659D01*
X149264234Y-117557226D01*
X149460408Y-117540063D01*
X149688663Y-117478903D01*
X149902830Y-117379035D01*
X150096401Y-117243495D01*
X150096414Y-117243481D01*
X150096776Y-117243179D01*
X150096977Y-117243090D01*
X150100836Y-117240389D01*
X150101378Y-117241163D01*
X150160779Y-117215154D01*
X150229773Y-117226180D01*
X150264181Y-117250472D01*
X150974562Y-117960855D01*
X150974566Y-117960858D01*
X151077007Y-118029308D01*
X151077014Y-118029312D01*
X151140803Y-118055734D01*
X151190847Y-118076463D01*
X151210896Y-118080451D01*
X151234821Y-118085210D01*
X151311691Y-118100501D01*
X151311693Y-118100501D01*
X151441020Y-118100501D01*
X151441040Y-118100500D01*
X153096608Y-118100500D01*
X153096608Y-118100499D01*
X153173476Y-118085210D01*
X153173477Y-118085210D01*
X153197407Y-118080450D01*
X153217452Y-118076463D01*
X153267496Y-118055734D01*
X153331286Y-118029312D01*
X153382509Y-117995084D01*
X153433733Y-117960858D01*
X153520858Y-117873733D01*
X153520859Y-117873731D01*
X153527925Y-117866665D01*
X153527928Y-117866661D01*
X153849353Y-117545235D01*
X153910674Y-117511752D01*
X153969125Y-117513143D01*
X154003780Y-117522428D01*
X154069592Y-117540063D01*
X154257918Y-117556539D01*
X154304999Y-117560659D01*
X154305000Y-117560659D01*
X154305001Y-117560659D01*
X154344234Y-117557226D01*
X154540408Y-117540063D01*
X154768663Y-117478903D01*
X154982830Y-117379035D01*
X155176401Y-117243495D01*
X155343495Y-117076401D01*
X155473425Y-116890842D01*
X155528002Y-116847217D01*
X155597500Y-116840023D01*
X155659855Y-116871546D01*
X155676575Y-116890842D01*
X155806500Y-117076395D01*
X155806505Y-117076401D01*
X155973599Y-117243495D01*
X155992515Y-117256740D01*
X156167165Y-117379032D01*
X156167167Y-117379033D01*
X156167170Y-117379035D01*
X156381337Y-117478903D01*
X156609592Y-117540063D01*
X156797918Y-117556539D01*
X156844999Y-117560659D01*
X156845000Y-117560659D01*
X156845001Y-117560659D01*
X156884234Y-117557226D01*
X157080408Y-117540063D01*
X157308663Y-117478903D01*
X157522830Y-117379035D01*
X157716401Y-117243495D01*
X157883495Y-117076401D01*
X158019035Y-116882830D01*
X158118903Y-116668663D01*
X158180063Y-116440408D01*
X158200659Y-116205000D01*
X158180063Y-115969592D01*
X158118903Y-115741337D01*
X158019035Y-115527171D01*
X158013424Y-115519158D01*
X157883496Y-115333600D01*
X157883493Y-115333597D01*
X157761179Y-115211283D01*
X157727696Y-115149963D01*
X157732680Y-115080271D01*
X157774551Y-115024337D01*
X157805529Y-115007422D01*
X157937086Y-114958354D01*
X157937093Y-114958350D01*
X158052187Y-114872190D01*
X158052190Y-114872187D01*
X158138350Y-114757093D01*
X158138354Y-114757086D01*
X158188596Y-114622379D01*
X158188598Y-114622372D01*
X158194999Y-114562844D01*
X158195000Y-114562827D01*
X158195000Y-113915000D01*
X157278012Y-113915000D01*
X157310925Y-113857993D01*
X157345000Y-113730826D01*
X157345000Y-113599174D01*
X157310925Y-113472007D01*
X157278012Y-113415000D01*
X158195000Y-113415000D01*
X158195000Y-112767172D01*
X158194999Y-112767155D01*
X158188598Y-112707627D01*
X158188596Y-112707620D01*
X158138354Y-112572913D01*
X158138350Y-112572906D01*
X158052190Y-112457812D01*
X158052187Y-112457809D01*
X157937093Y-112371649D01*
X157937086Y-112371645D01*
X157802379Y-112321403D01*
X157802372Y-112321401D01*
X157742844Y-112315000D01*
X157095000Y-112315000D01*
X157095000Y-113231988D01*
X157037993Y-113199075D01*
X156910826Y-113165000D01*
X156779174Y-113165000D01*
X156652007Y-113199075D01*
X156595000Y-113231988D01*
X156595000Y-112315000D01*
X156229500Y-112315000D01*
X156162461Y-112295315D01*
X156116706Y-112242511D01*
X156105500Y-112191000D01*
X156105500Y-111125000D01*
X157114540Y-111125000D01*
X157134326Y-111313256D01*
X157134327Y-111313259D01*
X157192818Y-111493277D01*
X157192821Y-111493284D01*
X157287467Y-111657216D01*
X157363491Y-111741649D01*
X157414129Y-111797888D01*
X157567265Y-111909148D01*
X157567270Y-111909151D01*
X157740192Y-111986142D01*
X157740197Y-111986144D01*
X157925354Y-112025500D01*
X157984547Y-112025500D01*
X158051586Y-112045185D01*
X158072228Y-112061819D01*
X158079141Y-112068732D01*
X158079142Y-112068733D01*
X158147564Y-112137155D01*
X158166268Y-112155859D01*
X158257940Y-112217112D01*
X158257939Y-112217112D01*
X158265138Y-112221921D01*
X158268714Y-112224311D01*
X158382548Y-112271463D01*
X158502081Y-112295239D01*
X158503388Y-112295499D01*
X158503392Y-112295500D01*
X161086000Y-112295500D01*
X161153039Y-112315185D01*
X161198794Y-112367989D01*
X161210000Y-112419500D01*
X161210000Y-112785000D01*
X162126988Y-112785000D01*
X162094075Y-112842007D01*
X162060000Y-112969174D01*
X162060000Y-113100826D01*
X162094075Y-113227993D01*
X162126988Y-113285000D01*
X161210000Y-113285000D01*
X161210000Y-113932844D01*
X161216401Y-113992372D01*
X161216403Y-113992379D01*
X161266645Y-114127086D01*
X161266649Y-114127093D01*
X161352809Y-114242187D01*
X161352812Y-114242190D01*
X161467906Y-114328350D01*
X161467913Y-114328354D01*
X161602620Y-114378596D01*
X161602627Y-114378598D01*
X161662155Y-114384999D01*
X161662172Y-114385000D01*
X162310000Y-114385000D01*
X162310000Y-113468012D01*
X162367007Y-113500925D01*
X162494174Y-113535000D01*
X162625826Y-113535000D01*
X162752993Y-113500925D01*
X162810000Y-113468012D01*
X162810000Y-114385000D01*
X163457828Y-114385000D01*
X163457844Y-114384999D01*
X163517372Y-114378598D01*
X163517379Y-114378596D01*
X163652086Y-114328354D01*
X163652093Y-114328350D01*
X163767187Y-114242190D01*
X163767190Y-114242187D01*
X163853350Y-114127093D01*
X163853354Y-114127086D01*
X163903596Y-113992379D01*
X163903598Y-113992372D01*
X163909999Y-113932844D01*
X163910000Y-113932827D01*
X163910000Y-113285000D01*
X162993012Y-113285000D01*
X163025925Y-113227993D01*
X163060000Y-113100826D01*
X163060000Y-112969174D01*
X163025925Y-112842007D01*
X162993012Y-112785000D01*
X163910000Y-112785000D01*
X163910000Y-112419500D01*
X163929685Y-112352461D01*
X163982489Y-112306706D01*
X164034000Y-112295500D01*
X166166000Y-112295500D01*
X166233039Y-112315185D01*
X166278794Y-112367989D01*
X166290000Y-112419500D01*
X166290000Y-112785000D01*
X167206988Y-112785000D01*
X167174075Y-112842007D01*
X167140000Y-112969174D01*
X167140000Y-113100826D01*
X167174075Y-113227993D01*
X167206988Y-113285000D01*
X166290000Y-113285000D01*
X166290000Y-113932844D01*
X166296401Y-113992372D01*
X166296403Y-113992379D01*
X166346645Y-114127086D01*
X166346649Y-114127093D01*
X166432809Y-114242187D01*
X166432812Y-114242190D01*
X166547906Y-114328350D01*
X166547913Y-114328354D01*
X166682620Y-114378596D01*
X166682627Y-114378598D01*
X166742155Y-114384999D01*
X166742172Y-114385000D01*
X167390000Y-114385000D01*
X167390000Y-113468012D01*
X167447007Y-113500925D01*
X167574174Y-113535000D01*
X167705826Y-113535000D01*
X167832993Y-113500925D01*
X167890000Y-113468012D01*
X167890000Y-114385000D01*
X168537828Y-114385000D01*
X168537844Y-114384999D01*
X168597372Y-114378598D01*
X168597379Y-114378596D01*
X168732086Y-114328354D01*
X168732093Y-114328350D01*
X168847187Y-114242190D01*
X168847190Y-114242187D01*
X168933350Y-114127093D01*
X168933354Y-114127086D01*
X168983596Y-113992379D01*
X168983598Y-113992372D01*
X168989999Y-113932844D01*
X168990000Y-113932827D01*
X168990000Y-113285000D01*
X168073012Y-113285000D01*
X168105925Y-113227993D01*
X168140000Y-113100826D01*
X168140000Y-112969174D01*
X168105925Y-112842007D01*
X168073012Y-112785000D01*
X168990000Y-112785000D01*
X168990000Y-112419500D01*
X169009685Y-112352461D01*
X169062489Y-112306706D01*
X169114000Y-112295500D01*
X169976000Y-112295500D01*
X170043039Y-112315185D01*
X170088794Y-112367989D01*
X170100000Y-112419500D01*
X170100000Y-112785000D01*
X171016988Y-112785000D01*
X170984075Y-112842007D01*
X170950000Y-112969174D01*
X170950000Y-113100826D01*
X170984075Y-113227993D01*
X171016988Y-113285000D01*
X170100000Y-113285000D01*
X170100000Y-113932844D01*
X170106401Y-113992372D01*
X170106403Y-113992379D01*
X170156645Y-114127086D01*
X170156649Y-114127093D01*
X170242809Y-114242187D01*
X170242812Y-114242190D01*
X170357906Y-114328350D01*
X170357913Y-114328354D01*
X170492620Y-114378596D01*
X170492627Y-114378598D01*
X170552155Y-114384999D01*
X170552172Y-114385000D01*
X171200000Y-114385000D01*
X171200000Y-113468012D01*
X171257007Y-113500925D01*
X171384174Y-113535000D01*
X171515826Y-113535000D01*
X171642993Y-113500925D01*
X171700000Y-113468012D01*
X171700000Y-114385000D01*
X172347828Y-114385000D01*
X172347844Y-114384999D01*
X172407372Y-114378598D01*
X172407379Y-114378596D01*
X172542086Y-114328354D01*
X172542093Y-114328350D01*
X172657187Y-114242190D01*
X172657190Y-114242187D01*
X172743350Y-114127093D01*
X172743354Y-114127086D01*
X172793596Y-113992379D01*
X172793598Y-113992372D01*
X172799999Y-113932844D01*
X172800000Y-113932827D01*
X172800000Y-113285000D01*
X171883012Y-113285000D01*
X171915925Y-113227993D01*
X171950000Y-113100826D01*
X171950000Y-112969174D01*
X171915925Y-112842007D01*
X171883012Y-112785000D01*
X172800000Y-112785000D01*
X172800000Y-112419500D01*
X172819685Y-112352461D01*
X172872489Y-112306706D01*
X172924000Y-112295500D01*
X175056000Y-112295500D01*
X175123039Y-112315185D01*
X175168794Y-112367989D01*
X175180000Y-112419500D01*
X175180000Y-112785000D01*
X176096988Y-112785000D01*
X176064075Y-112842007D01*
X176030000Y-112969174D01*
X176030000Y-113100826D01*
X176064075Y-113227993D01*
X176096988Y-113285000D01*
X175180000Y-113285000D01*
X175180000Y-113932844D01*
X175186401Y-113992372D01*
X175186403Y-113992379D01*
X175236645Y-114127086D01*
X175236649Y-114127093D01*
X175322809Y-114242187D01*
X175322812Y-114242190D01*
X175437906Y-114328350D01*
X175437913Y-114328354D01*
X175572620Y-114378596D01*
X175572627Y-114378598D01*
X175632155Y-114384999D01*
X175632172Y-114385000D01*
X176280000Y-114385000D01*
X176280000Y-113468012D01*
X176337007Y-113500925D01*
X176464174Y-113535000D01*
X176595826Y-113535000D01*
X176722993Y-113500925D01*
X176780000Y-113468012D01*
X176780000Y-114385000D01*
X177427828Y-114385000D01*
X177427844Y-114384999D01*
X177487372Y-114378598D01*
X177487379Y-114378596D01*
X177622086Y-114328354D01*
X177622093Y-114328350D01*
X177737187Y-114242190D01*
X177737190Y-114242187D01*
X177823350Y-114127093D01*
X177823354Y-114127086D01*
X177873596Y-113992379D01*
X177873598Y-113992372D01*
X177879999Y-113932844D01*
X177880000Y-113932827D01*
X177880000Y-113285000D01*
X176963012Y-113285000D01*
X176995925Y-113227993D01*
X177030000Y-113100826D01*
X177030000Y-112969174D01*
X176995925Y-112842007D01*
X176963012Y-112785000D01*
X177880000Y-112785000D01*
X177880000Y-112137172D01*
X177879999Y-112137155D01*
X177873598Y-112077627D01*
X177873596Y-112077620D01*
X177823354Y-111942913D01*
X177823350Y-111942906D01*
X177737190Y-111827812D01*
X177737187Y-111827809D01*
X177622093Y-111741649D01*
X177622088Y-111741646D01*
X177490528Y-111692577D01*
X177434595Y-111650705D01*
X177410178Y-111585241D01*
X177425030Y-111516968D01*
X177446175Y-111488720D01*
X177568495Y-111366401D01*
X177704035Y-111172830D01*
X177803903Y-110958663D01*
X177865063Y-110730408D01*
X177885659Y-110495000D01*
X177885221Y-110489999D01*
X177865063Y-110259596D01*
X177865063Y-110259592D01*
X177803903Y-110031337D01*
X177704035Y-109817171D01*
X177635695Y-109719570D01*
X177568494Y-109623597D01*
X177401402Y-109456506D01*
X177401395Y-109456501D01*
X177207834Y-109320967D01*
X177207830Y-109320965D01*
X177207828Y-109320964D01*
X176993663Y-109221097D01*
X176993659Y-109221096D01*
X176993655Y-109221094D01*
X176765413Y-109159938D01*
X176765403Y-109159936D01*
X176530001Y-109139341D01*
X176529999Y-109139341D01*
X176294596Y-109159936D01*
X176294586Y-109159938D01*
X176066344Y-109221094D01*
X176066335Y-109221098D01*
X175852171Y-109320964D01*
X175852169Y-109320965D01*
X175658597Y-109456505D01*
X175491505Y-109623597D01*
X175355965Y-109817169D01*
X175355964Y-109817171D01*
X175256098Y-110031335D01*
X175256094Y-110031344D01*
X175194938Y-110259586D01*
X175194936Y-110259596D01*
X175174341Y-110494999D01*
X175174341Y-110495000D01*
X175194936Y-110730403D01*
X175194938Y-110730413D01*
X175221856Y-110830872D01*
X175220193Y-110900722D01*
X175189763Y-110950645D01*
X175132229Y-111008180D01*
X175070906Y-111041666D01*
X175044547Y-111044500D01*
X172862503Y-111044500D01*
X172795464Y-111024815D01*
X172749709Y-110972011D01*
X172739765Y-110902853D01*
X172742728Y-110888407D01*
X172778012Y-110756722D01*
X172785063Y-110730408D01*
X172805659Y-110495000D01*
X172805221Y-110489999D01*
X172785063Y-110259596D01*
X172785063Y-110259592D01*
X172723903Y-110031337D01*
X172624035Y-109817171D01*
X172555695Y-109719570D01*
X172488494Y-109623597D01*
X172321402Y-109456506D01*
X172321395Y-109456501D01*
X172127834Y-109320967D01*
X172127830Y-109320965D01*
X172127828Y-109320964D01*
X171913663Y-109221097D01*
X171913659Y-109221096D01*
X171913655Y-109221094D01*
X171685413Y-109159938D01*
X171685403Y-109159936D01*
X171450001Y-109139341D01*
X171449999Y-109139341D01*
X171214596Y-109159936D01*
X171214586Y-109159938D01*
X170986344Y-109221094D01*
X170986335Y-109221098D01*
X170772171Y-109320964D01*
X170772169Y-109320965D01*
X170578597Y-109456505D01*
X170411505Y-109623597D01*
X170275965Y-109817169D01*
X170275964Y-109817171D01*
X170176098Y-110031335D01*
X170176094Y-110031344D01*
X170114938Y-110259586D01*
X170114936Y-110259596D01*
X170094341Y-110494999D01*
X170094341Y-110495000D01*
X170114936Y-110730403D01*
X170114938Y-110730413D01*
X170157272Y-110888407D01*
X170155609Y-110958257D01*
X170116446Y-111016119D01*
X170052218Y-111043623D01*
X170037497Y-111044500D01*
X169052503Y-111044500D01*
X168985464Y-111024815D01*
X168939709Y-110972011D01*
X168929765Y-110902853D01*
X168932728Y-110888407D01*
X168968012Y-110756722D01*
X168975063Y-110730408D01*
X168995659Y-110495000D01*
X168995221Y-110489999D01*
X168975063Y-110259596D01*
X168975063Y-110259592D01*
X168913903Y-110031337D01*
X168814035Y-109817171D01*
X168745695Y-109719570D01*
X168678494Y-109623597D01*
X168511402Y-109456506D01*
X168511395Y-109456501D01*
X168317834Y-109320967D01*
X168317830Y-109320965D01*
X168317828Y-109320964D01*
X168103663Y-109221097D01*
X168103659Y-109221096D01*
X168103655Y-109221094D01*
X167875413Y-109159938D01*
X167875403Y-109159936D01*
X167640001Y-109139341D01*
X167639999Y-109139341D01*
X167404596Y-109159936D01*
X167404586Y-109159938D01*
X167176344Y-109221094D01*
X167176335Y-109221098D01*
X166962171Y-109320964D01*
X166962169Y-109320965D01*
X166768597Y-109456505D01*
X166601505Y-109623597D01*
X166465965Y-109817169D01*
X166465964Y-109817171D01*
X166366098Y-110031335D01*
X166366094Y-110031344D01*
X166304938Y-110259586D01*
X166304936Y-110259596D01*
X166284341Y-110494999D01*
X166284341Y-110495000D01*
X166304936Y-110730403D01*
X166304938Y-110730413D01*
X166347272Y-110888407D01*
X166345609Y-110958257D01*
X166306446Y-111016119D01*
X166242218Y-111043623D01*
X166227497Y-111044500D01*
X163972503Y-111044500D01*
X163905464Y-111024815D01*
X163859709Y-110972011D01*
X163849765Y-110902853D01*
X163852728Y-110888407D01*
X163888012Y-110756722D01*
X163895063Y-110730408D01*
X163915659Y-110495000D01*
X163915221Y-110489999D01*
X163895063Y-110259596D01*
X163895063Y-110259592D01*
X163833903Y-110031337D01*
X163734035Y-109817171D01*
X163665695Y-109719570D01*
X163598494Y-109623597D01*
X163431402Y-109456506D01*
X163431395Y-109456501D01*
X163237834Y-109320967D01*
X163237830Y-109320965D01*
X163237828Y-109320964D01*
X163023663Y-109221097D01*
X163023659Y-109221096D01*
X163023655Y-109221094D01*
X162795413Y-109159938D01*
X162795403Y-109159936D01*
X162560001Y-109139341D01*
X162559999Y-109139341D01*
X162324596Y-109159936D01*
X162324586Y-109159938D01*
X162096344Y-109221094D01*
X162096335Y-109221098D01*
X161882171Y-109320964D01*
X161882169Y-109320965D01*
X161688597Y-109456505D01*
X161521505Y-109623597D01*
X161385965Y-109817169D01*
X161385964Y-109817171D01*
X161286098Y-110031335D01*
X161286094Y-110031344D01*
X161224938Y-110259586D01*
X161224936Y-110259596D01*
X161204341Y-110494999D01*
X161204341Y-110495000D01*
X161224936Y-110730403D01*
X161224938Y-110730413D01*
X161267272Y-110888407D01*
X161265609Y-110958257D01*
X161226446Y-111016119D01*
X161162218Y-111043623D01*
X161147497Y-111044500D01*
X159028650Y-111044500D01*
X158961611Y-111024815D01*
X158915856Y-110972011D01*
X158907912Y-110942917D01*
X158907027Y-110943106D01*
X158905675Y-110936747D01*
X158847181Y-110756722D01*
X158847180Y-110756721D01*
X158847179Y-110756716D01*
X158752533Y-110592784D01*
X158625871Y-110452112D01*
X158625870Y-110452111D01*
X158472734Y-110340851D01*
X158472729Y-110340848D01*
X158299807Y-110263857D01*
X158299802Y-110263855D01*
X158154001Y-110232865D01*
X158114646Y-110224500D01*
X157925354Y-110224500D01*
X157892897Y-110231398D01*
X157740197Y-110263855D01*
X157740192Y-110263857D01*
X157567270Y-110340848D01*
X157567265Y-110340851D01*
X157414129Y-110452111D01*
X157287466Y-110592785D01*
X157192821Y-110756715D01*
X157192818Y-110756722D01*
X157134327Y-110936740D01*
X157134326Y-110936744D01*
X157114540Y-111125000D01*
X156105500Y-111125000D01*
X156105500Y-103505000D01*
X166924341Y-103505000D01*
X166944936Y-103740403D01*
X166944938Y-103740413D01*
X167006094Y-103968655D01*
X167006096Y-103968659D01*
X167006097Y-103968663D01*
X167105965Y-104182830D01*
X167105967Y-104182834D01*
X167214281Y-104337521D01*
X167241505Y-104376401D01*
X167408599Y-104543495D01*
X167485135Y-104597086D01*
X167602165Y-104679032D01*
X167602167Y-104679033D01*
X167602170Y-104679035D01*
X167816337Y-104778903D01*
X168044592Y-104840063D01*
X168215319Y-104855000D01*
X168279999Y-104860659D01*
X168280000Y-104860659D01*
X168280001Y-104860659D01*
X168344681Y-104855000D01*
X168515408Y-104840063D01*
X168743663Y-104778903D01*
X168957830Y-104679035D01*
X169151401Y-104543495D01*
X169273717Y-104421178D01*
X169335036Y-104387696D01*
X169404728Y-104392680D01*
X169460662Y-104434551D01*
X169477577Y-104465528D01*
X169526646Y-104597088D01*
X169526649Y-104597093D01*
X169612809Y-104712187D01*
X169612812Y-104712190D01*
X169727906Y-104798350D01*
X169727913Y-104798354D01*
X169862620Y-104848596D01*
X169862627Y-104848598D01*
X169922155Y-104854999D01*
X169922172Y-104855000D01*
X170570000Y-104855000D01*
X170570000Y-103938012D01*
X170627007Y-103970925D01*
X170754174Y-104005000D01*
X170885826Y-104005000D01*
X171012993Y-103970925D01*
X171070000Y-103938012D01*
X171070000Y-104855000D01*
X171717828Y-104855000D01*
X171717844Y-104854999D01*
X171777372Y-104848598D01*
X171777379Y-104848596D01*
X171912086Y-104798354D01*
X171912093Y-104798350D01*
X172027187Y-104712190D01*
X172027190Y-104712187D01*
X172113350Y-104597093D01*
X172113354Y-104597086D01*
X172163596Y-104462379D01*
X172163598Y-104462372D01*
X172169999Y-104402844D01*
X172170000Y-104402827D01*
X172170000Y-103755000D01*
X171253012Y-103755000D01*
X171285925Y-103697993D01*
X171320000Y-103570826D01*
X171320000Y-103439174D01*
X171285925Y-103312007D01*
X171253012Y-103255000D01*
X172170000Y-103255000D01*
X172170000Y-102607172D01*
X172169999Y-102607155D01*
X172163598Y-102547627D01*
X172163596Y-102547620D01*
X172113354Y-102412913D01*
X172113350Y-102412906D01*
X172027190Y-102297812D01*
X172027187Y-102297809D01*
X171912093Y-102211649D01*
X171912086Y-102211645D01*
X171777379Y-102161403D01*
X171777372Y-102161401D01*
X171717844Y-102155000D01*
X171070000Y-102155000D01*
X171070000Y-103071988D01*
X171012993Y-103039075D01*
X170885826Y-103005000D01*
X170754174Y-103005000D01*
X170627007Y-103039075D01*
X170570000Y-103071988D01*
X170570000Y-102155000D01*
X169922155Y-102155000D01*
X169862627Y-102161401D01*
X169862620Y-102161403D01*
X169727913Y-102211645D01*
X169727906Y-102211649D01*
X169612812Y-102297809D01*
X169612809Y-102297812D01*
X169526649Y-102412906D01*
X169526645Y-102412913D01*
X169477578Y-102544470D01*
X169435707Y-102600404D01*
X169370242Y-102624821D01*
X169301969Y-102609969D01*
X169273715Y-102588819D01*
X169229366Y-102544470D01*
X169151401Y-102466505D01*
X169151397Y-102466502D01*
X169151396Y-102466501D01*
X168957834Y-102330967D01*
X168957830Y-102330965D01*
X168886727Y-102297809D01*
X168743663Y-102231097D01*
X168743659Y-102231096D01*
X168743655Y-102231094D01*
X168515413Y-102169938D01*
X168515403Y-102169936D01*
X168280001Y-102149341D01*
X168279999Y-102149341D01*
X168044596Y-102169936D01*
X168044586Y-102169938D01*
X167816344Y-102231094D01*
X167816335Y-102231098D01*
X167602171Y-102330964D01*
X167602169Y-102330965D01*
X167408597Y-102466505D01*
X167241505Y-102633597D01*
X167105965Y-102827169D01*
X167105964Y-102827171D01*
X167006098Y-103041335D01*
X167006094Y-103041344D01*
X166944938Y-103269586D01*
X166944936Y-103269596D01*
X166924341Y-103504999D01*
X166924341Y-103505000D01*
X156105500Y-103505000D01*
X156105500Y-92144918D01*
X156125185Y-92077879D01*
X156177989Y-92032124D01*
X156247147Y-92022180D01*
X156281899Y-92032534D01*
X156381337Y-92078903D01*
X156381342Y-92078904D01*
X156381344Y-92078905D01*
X156436285Y-92093626D01*
X156609592Y-92140063D01*
X156780319Y-92155000D01*
X156844999Y-92160659D01*
X156845000Y-92160659D01*
X156845001Y-92160659D01*
X156909681Y-92155000D01*
X157080408Y-92140063D01*
X157308663Y-92078903D01*
X157522830Y-91979035D01*
X157716401Y-91843495D01*
X157883495Y-91676401D01*
X158013426Y-91490841D01*
X158068002Y-91447217D01*
X158137500Y-91440023D01*
X158199855Y-91471546D01*
X158216575Y-91490842D01*
X158346500Y-91676395D01*
X158346505Y-91676401D01*
X158513599Y-91843495D01*
X158590135Y-91897086D01*
X158707165Y-91979032D01*
X158707167Y-91979033D01*
X158707170Y-91979035D01*
X158921337Y-92078903D01*
X158921343Y-92078904D01*
X158921344Y-92078905D01*
X158976285Y-92093626D01*
X159149592Y-92140063D01*
X159320319Y-92155000D01*
X159384999Y-92160659D01*
X159385000Y-92160659D01*
X159385001Y-92160659D01*
X159449681Y-92155000D01*
X159620408Y-92140063D01*
X159848663Y-92078903D01*
X160062830Y-91979035D01*
X160256401Y-91843495D01*
X160378717Y-91721178D01*
X160440036Y-91687696D01*
X160509728Y-91692680D01*
X160565662Y-91734551D01*
X160582577Y-91765528D01*
X160631646Y-91897088D01*
X160631649Y-91897093D01*
X160717809Y-92012187D01*
X160717812Y-92012190D01*
X160832906Y-92098350D01*
X160832913Y-92098354D01*
X160967620Y-92148596D01*
X160967627Y-92148598D01*
X161027155Y-92154999D01*
X161027172Y-92155000D01*
X161675000Y-92155000D01*
X161675000Y-91249560D01*
X161728147Y-91280245D01*
X161857857Y-91315000D01*
X161992143Y-91315000D01*
X162121853Y-91280245D01*
X162175000Y-91249560D01*
X162175000Y-92155000D01*
X162822828Y-92155000D01*
X162822844Y-92154999D01*
X162882372Y-92148598D01*
X162882379Y-92148596D01*
X163017086Y-92098354D01*
X163017093Y-92098350D01*
X163132187Y-92012190D01*
X163132190Y-92012187D01*
X163218350Y-91897093D01*
X163218354Y-91897086D01*
X163267422Y-91765529D01*
X163309293Y-91709595D01*
X163374757Y-91685178D01*
X163443030Y-91700030D01*
X163471285Y-91721181D01*
X163593599Y-91843495D01*
X163670135Y-91897086D01*
X163787165Y-91979032D01*
X163787167Y-91979033D01*
X163787170Y-91979035D01*
X164001337Y-92078903D01*
X164001343Y-92078904D01*
X164001344Y-92078905D01*
X164056285Y-92093626D01*
X164229592Y-92140063D01*
X164400319Y-92155000D01*
X164464999Y-92160659D01*
X164465000Y-92160659D01*
X164465001Y-92160659D01*
X164529681Y-92155000D01*
X164700408Y-92140063D01*
X164928663Y-92078903D01*
X165142830Y-91979035D01*
X165336401Y-91843495D01*
X165503495Y-91676401D01*
X165633426Y-91490841D01*
X165688002Y-91447217D01*
X165757500Y-91440023D01*
X165819855Y-91471546D01*
X165836575Y-91490842D01*
X165966500Y-91676395D01*
X165966505Y-91676401D01*
X166133599Y-91843495D01*
X166210135Y-91897086D01*
X166327165Y-91979032D01*
X166327167Y-91979033D01*
X166327170Y-91979035D01*
X166541337Y-92078903D01*
X166541343Y-92078904D01*
X166541344Y-92078905D01*
X166596285Y-92093626D01*
X166769592Y-92140063D01*
X166940319Y-92155000D01*
X167004999Y-92160659D01*
X167005000Y-92160659D01*
X167005001Y-92160659D01*
X167069681Y-92155000D01*
X167240408Y-92140063D01*
X167468663Y-92078903D01*
X167682830Y-91979035D01*
X167876401Y-91843495D01*
X168043495Y-91676401D01*
X168173426Y-91490841D01*
X168228002Y-91447217D01*
X168297500Y-91440023D01*
X168359855Y-91471546D01*
X168376575Y-91490842D01*
X168506500Y-91676395D01*
X168506505Y-91676401D01*
X168673599Y-91843495D01*
X168750135Y-91897086D01*
X168867165Y-91979032D01*
X168867167Y-91979033D01*
X168867170Y-91979035D01*
X169081337Y-92078903D01*
X169081343Y-92078904D01*
X169081344Y-92078905D01*
X169136285Y-92093626D01*
X169309592Y-92140063D01*
X169480319Y-92155000D01*
X169544999Y-92160659D01*
X169545000Y-92160659D01*
X169545001Y-92160659D01*
X169609681Y-92155000D01*
X169780408Y-92140063D01*
X170008663Y-92078903D01*
X170222830Y-91979035D01*
X170416401Y-91843495D01*
X170583495Y-91676401D01*
X170713426Y-91490841D01*
X170768002Y-91447217D01*
X170837500Y-91440023D01*
X170899855Y-91471546D01*
X170916575Y-91490842D01*
X171046500Y-91676395D01*
X171046505Y-91676401D01*
X171213599Y-91843495D01*
X171290135Y-91897086D01*
X171407165Y-91979032D01*
X171407167Y-91979033D01*
X171407170Y-91979035D01*
X171621337Y-92078903D01*
X171621343Y-92078904D01*
X171621344Y-92078905D01*
X171676285Y-92093626D01*
X171849592Y-92140063D01*
X172020319Y-92155000D01*
X172084999Y-92160659D01*
X172085000Y-92160659D01*
X172085001Y-92160659D01*
X172149681Y-92155000D01*
X172320408Y-92140063D01*
X172548663Y-92078903D01*
X172762830Y-91979035D01*
X172956401Y-91843495D01*
X173078717Y-91721178D01*
X173140036Y-91687696D01*
X173209728Y-91692680D01*
X173265662Y-91734551D01*
X173282577Y-91765528D01*
X173331646Y-91897088D01*
X173331649Y-91897093D01*
X173417809Y-92012187D01*
X173417812Y-92012190D01*
X173532906Y-92098350D01*
X173532913Y-92098354D01*
X173667620Y-92148596D01*
X173667627Y-92148598D01*
X173727155Y-92154999D01*
X173727172Y-92155000D01*
X174375000Y-92155000D01*
X174375000Y-91249560D01*
X174428147Y-91280245D01*
X174557857Y-91315000D01*
X174692143Y-91315000D01*
X174821853Y-91280245D01*
X174875000Y-91249560D01*
X174875000Y-92155000D01*
X175522828Y-92155000D01*
X175522844Y-92154999D01*
X175582372Y-92148598D01*
X175582379Y-92148596D01*
X175717086Y-92098354D01*
X175717093Y-92098350D01*
X175832187Y-92012190D01*
X175832190Y-92012187D01*
X175918350Y-91897093D01*
X175918354Y-91897086D01*
X175967422Y-91765529D01*
X176009293Y-91709595D01*
X176074757Y-91685178D01*
X176143030Y-91700030D01*
X176171285Y-91721181D01*
X176293599Y-91843495D01*
X176370135Y-91897086D01*
X176487165Y-91979032D01*
X176487167Y-91979033D01*
X176487170Y-91979035D01*
X176701337Y-92078903D01*
X176701343Y-92078904D01*
X176701344Y-92078905D01*
X176756285Y-92093626D01*
X176929592Y-92140063D01*
X177100319Y-92155000D01*
X177164999Y-92160659D01*
X177165000Y-92160659D01*
X177165001Y-92160659D01*
X177229681Y-92155000D01*
X177400408Y-92140063D01*
X177628663Y-92078903D01*
X177842830Y-91979035D01*
X178036401Y-91843495D01*
X178203495Y-91676401D01*
X178333426Y-91490841D01*
X178388002Y-91447217D01*
X178457500Y-91440023D01*
X178519855Y-91471546D01*
X178536575Y-91490842D01*
X178666500Y-91676395D01*
X178666505Y-91676401D01*
X178833599Y-91843495D01*
X178910135Y-91897086D01*
X179027165Y-91979032D01*
X179027167Y-91979033D01*
X179027170Y-91979035D01*
X179241337Y-92078903D01*
X179241343Y-92078904D01*
X179241344Y-92078905D01*
X179296285Y-92093626D01*
X179469592Y-92140063D01*
X179640319Y-92155000D01*
X179704999Y-92160659D01*
X179705000Y-92160659D01*
X179705001Y-92160659D01*
X179769681Y-92155000D01*
X179940408Y-92140063D01*
X180168663Y-92078903D01*
X180382830Y-91979035D01*
X180576401Y-91843495D01*
X180743495Y-91676401D01*
X180873426Y-91490841D01*
X180928002Y-91447217D01*
X180997500Y-91440023D01*
X181059855Y-91471546D01*
X181076575Y-91490842D01*
X181206500Y-91676395D01*
X181206505Y-91676401D01*
X181373599Y-91843495D01*
X181566624Y-91978653D01*
X181610248Y-92033228D01*
X181619500Y-92080226D01*
X181619500Y-109574511D01*
X181599815Y-109641550D01*
X181547011Y-109687305D01*
X181477853Y-109697249D01*
X181414297Y-109668224D01*
X181393926Y-109645636D01*
X181378493Y-109623596D01*
X181211402Y-109456506D01*
X181211395Y-109456501D01*
X181017834Y-109320967D01*
X181017830Y-109320965D01*
X181017828Y-109320964D01*
X180803663Y-109221097D01*
X180803659Y-109221096D01*
X180803655Y-109221094D01*
X180575413Y-109159938D01*
X180575403Y-109159936D01*
X180340001Y-109139341D01*
X180339999Y-109139341D01*
X180104596Y-109159936D01*
X180104586Y-109159938D01*
X179876344Y-109221094D01*
X179876335Y-109221098D01*
X179662171Y-109320964D01*
X179662169Y-109320965D01*
X179468597Y-109456505D01*
X179301505Y-109623597D01*
X179165965Y-109817169D01*
X179165964Y-109817171D01*
X179066098Y-110031335D01*
X179066094Y-110031344D01*
X179004938Y-110259586D01*
X179004936Y-110259596D01*
X178984341Y-110494999D01*
X178984341Y-110495000D01*
X179004936Y-110730403D01*
X179004938Y-110730413D01*
X179066094Y-110958655D01*
X179066096Y-110958659D01*
X179066097Y-110958663D01*
X179165965Y-111172830D01*
X179165967Y-111172834D01*
X179274281Y-111327521D01*
X179301501Y-111366396D01*
X179301506Y-111366402D01*
X179423818Y-111488714D01*
X179457303Y-111550037D01*
X179452319Y-111619729D01*
X179410447Y-111675662D01*
X179379471Y-111692577D01*
X179247912Y-111741646D01*
X179247906Y-111741649D01*
X179132812Y-111827809D01*
X179132809Y-111827812D01*
X179046649Y-111942906D01*
X179046645Y-111942913D01*
X178996403Y-112077620D01*
X178996401Y-112077627D01*
X178990000Y-112137155D01*
X178990000Y-112785000D01*
X179906988Y-112785000D01*
X179874075Y-112842007D01*
X179840000Y-112969174D01*
X179840000Y-113100826D01*
X179874075Y-113227993D01*
X179906988Y-113285000D01*
X178990000Y-113285000D01*
X178990000Y-113932844D01*
X178996401Y-113992372D01*
X178996403Y-113992379D01*
X179046645Y-114127086D01*
X179046649Y-114127093D01*
X179132809Y-114242187D01*
X179132812Y-114242190D01*
X179247906Y-114328350D01*
X179247913Y-114328354D01*
X179382620Y-114378596D01*
X179382627Y-114378598D01*
X179442155Y-114384999D01*
X179442172Y-114385000D01*
X180090000Y-114385000D01*
X180090000Y-113468012D01*
X180147007Y-113500925D01*
X180274174Y-113535000D01*
X180405826Y-113535000D01*
X180532993Y-113500925D01*
X180590000Y-113468012D01*
X180590000Y-114385000D01*
X181237828Y-114385000D01*
X181237844Y-114384999D01*
X181297372Y-114378598D01*
X181297379Y-114378596D01*
X181432086Y-114328354D01*
X181432093Y-114328350D01*
X181547187Y-114242190D01*
X181547190Y-114242187D01*
X181633350Y-114127093D01*
X181633354Y-114127086D01*
X181683596Y-113992379D01*
X181683598Y-113992372D01*
X181689999Y-113932844D01*
X181690000Y-113932827D01*
X181690000Y-113285000D01*
X180773012Y-113285000D01*
X180805925Y-113227993D01*
X180840000Y-113100826D01*
X180840000Y-112969174D01*
X180805925Y-112842007D01*
X180773012Y-112785000D01*
X181690000Y-112785000D01*
X181690000Y-112388952D01*
X181709685Y-112321913D01*
X181762489Y-112276158D01*
X181831647Y-112266214D01*
X181895203Y-112295239D01*
X181901681Y-112301271D01*
X183211038Y-113610628D01*
X183244523Y-113671951D01*
X183246678Y-113685347D01*
X183251458Y-113730826D01*
X183264326Y-113853256D01*
X183264327Y-113853259D01*
X183322818Y-114033277D01*
X183322821Y-114033284D01*
X183417467Y-114197216D01*
X183457962Y-114242190D01*
X183544129Y-114337888D01*
X183697265Y-114449148D01*
X183697270Y-114449151D01*
X183870192Y-114526142D01*
X183870197Y-114526144D01*
X184055354Y-114565500D01*
X184055355Y-114565500D01*
X184244644Y-114565500D01*
X184244646Y-114565500D01*
X184429803Y-114526144D01*
X184602730Y-114449151D01*
X184755871Y-114337888D01*
X184882533Y-114197216D01*
X184977179Y-114033284D01*
X185035674Y-113853256D01*
X185055460Y-113665000D01*
X185035674Y-113476744D01*
X184977179Y-113296716D01*
X184882533Y-113132784D01*
X184755871Y-112992112D01*
X184733502Y-112975860D01*
X184602734Y-112880851D01*
X184602729Y-112880848D01*
X184429807Y-112803857D01*
X184429802Y-112803855D01*
X184284001Y-112772865D01*
X184244646Y-112764500D01*
X184244645Y-112764500D01*
X184185452Y-112764500D01*
X184118413Y-112744815D01*
X184097771Y-112728181D01*
X182906819Y-111537229D01*
X182873334Y-111475906D01*
X182870500Y-111449548D01*
X182870500Y-92080226D01*
X182890185Y-92013187D01*
X182923374Y-91978654D01*
X183116401Y-91843495D01*
X183283495Y-91676401D01*
X183413426Y-91490841D01*
X183468002Y-91447217D01*
X183537500Y-91440023D01*
X183599855Y-91471546D01*
X183616575Y-91490842D01*
X183746500Y-91676395D01*
X183746505Y-91676401D01*
X183913599Y-91843495D01*
X184106624Y-91978653D01*
X184150248Y-92033228D01*
X184159500Y-92080226D01*
X184159500Y-108646611D01*
X184183535Y-108767444D01*
X184183540Y-108767461D01*
X184230685Y-108881281D01*
X184230687Y-108881284D01*
X184248119Y-108907372D01*
X184248120Y-108907374D01*
X184299141Y-108983732D01*
X184299144Y-108983736D01*
X184390586Y-109075178D01*
X184390608Y-109075198D01*
X188926038Y-113610628D01*
X188959523Y-113671951D01*
X188961678Y-113685347D01*
X188966458Y-113730826D01*
X188979326Y-113853256D01*
X188979327Y-113853259D01*
X189037818Y-114033277D01*
X189037821Y-114033284D01*
X189132467Y-114197216D01*
X189172962Y-114242190D01*
X189259129Y-114337888D01*
X189412265Y-114449148D01*
X189412270Y-114449151D01*
X189585192Y-114526142D01*
X189585197Y-114526144D01*
X189770354Y-114565500D01*
X189770355Y-114565500D01*
X189959644Y-114565500D01*
X189959646Y-114565500D01*
X190144803Y-114526144D01*
X190317730Y-114449151D01*
X190470871Y-114337888D01*
X190597533Y-114197216D01*
X190692179Y-114033284D01*
X190750674Y-113853256D01*
X190770460Y-113665000D01*
X190750674Y-113476744D01*
X190692179Y-113296716D01*
X190597533Y-113132784D01*
X190470871Y-112992112D01*
X190448502Y-112975860D01*
X190317734Y-112880851D01*
X190317729Y-112880848D01*
X190144807Y-112803857D01*
X190144802Y-112803855D01*
X189999001Y-112772865D01*
X189959646Y-112764500D01*
X189959645Y-112764500D01*
X189900452Y-112764500D01*
X189833413Y-112744815D01*
X189812771Y-112728181D01*
X185446819Y-108362229D01*
X185413334Y-108300906D01*
X185410500Y-108274548D01*
X185410500Y-92080226D01*
X185430185Y-92013187D01*
X185463374Y-91978654D01*
X185656401Y-91843495D01*
X185778717Y-91721178D01*
X185840036Y-91687696D01*
X185909728Y-91692680D01*
X185965662Y-91734551D01*
X185982577Y-91765528D01*
X186031646Y-91897088D01*
X186031649Y-91897093D01*
X186117809Y-92012187D01*
X186117812Y-92012190D01*
X186232906Y-92098350D01*
X186232913Y-92098354D01*
X186367620Y-92148596D01*
X186367627Y-92148598D01*
X186427155Y-92154999D01*
X186427172Y-92155000D01*
X187075000Y-92155000D01*
X187075000Y-91249560D01*
X187128147Y-91280245D01*
X187257857Y-91315000D01*
X187392143Y-91315000D01*
X187521853Y-91280245D01*
X187575000Y-91249560D01*
X187575000Y-92155000D01*
X188222828Y-92155000D01*
X188222844Y-92154999D01*
X188282372Y-92148598D01*
X188282379Y-92148596D01*
X188417086Y-92098354D01*
X188417093Y-92098350D01*
X188532187Y-92012190D01*
X188532190Y-92012187D01*
X188618350Y-91897093D01*
X188618354Y-91897086D01*
X188667422Y-91765529D01*
X188709293Y-91709595D01*
X188774757Y-91685178D01*
X188843030Y-91700030D01*
X188871285Y-91721181D01*
X188993599Y-91843495D01*
X189186624Y-91978653D01*
X189230248Y-92033228D01*
X189239500Y-92080226D01*
X189239500Y-107376610D01*
X189263535Y-107497444D01*
X189263538Y-107497454D01*
X189277347Y-107530792D01*
X189277347Y-107530793D01*
X189310685Y-107611280D01*
X189310690Y-107611289D01*
X189344914Y-107662507D01*
X189344915Y-107662509D01*
X189379141Y-107713733D01*
X189470586Y-107805178D01*
X189470608Y-107805198D01*
X195276038Y-113610628D01*
X195309523Y-113671951D01*
X195311678Y-113685347D01*
X195316458Y-113730826D01*
X195329326Y-113853256D01*
X195329327Y-113853259D01*
X195387818Y-114033277D01*
X195387821Y-114033284D01*
X195482467Y-114197216D01*
X195522962Y-114242190D01*
X195609129Y-114337888D01*
X195762265Y-114449148D01*
X195762270Y-114449151D01*
X195935192Y-114526142D01*
X195935197Y-114526144D01*
X196120354Y-114565500D01*
X196120355Y-114565500D01*
X196309644Y-114565500D01*
X196309646Y-114565500D01*
X196494803Y-114526144D01*
X196667730Y-114449151D01*
X196820871Y-114337888D01*
X196947533Y-114197216D01*
X197042179Y-114033284D01*
X197100674Y-113853256D01*
X197120460Y-113665000D01*
X197100674Y-113476744D01*
X197042179Y-113296716D01*
X196947533Y-113132784D01*
X196820871Y-112992112D01*
X196798502Y-112975860D01*
X196667734Y-112880851D01*
X196667729Y-112880848D01*
X196494807Y-112803857D01*
X196494802Y-112803855D01*
X196349001Y-112772865D01*
X196309646Y-112764500D01*
X196309645Y-112764500D01*
X196250452Y-112764500D01*
X196183413Y-112744815D01*
X196162771Y-112728181D01*
X190526819Y-107092229D01*
X190493334Y-107030906D01*
X190490500Y-107004548D01*
X190490500Y-92080226D01*
X190510185Y-92013187D01*
X190543374Y-91978654D01*
X190736401Y-91843495D01*
X190903495Y-91676401D01*
X191033426Y-91490841D01*
X191088002Y-91447217D01*
X191157500Y-91440023D01*
X191219855Y-91471546D01*
X191236575Y-91490842D01*
X191366500Y-91676395D01*
X191366505Y-91676401D01*
X191533599Y-91843495D01*
X191726624Y-91978653D01*
X191770248Y-92033228D01*
X191779500Y-92080226D01*
X191779500Y-103566611D01*
X191803535Y-103687444D01*
X191803540Y-103687461D01*
X191850685Y-103801280D01*
X191850690Y-103801289D01*
X191884914Y-103852507D01*
X191884915Y-103852509D01*
X191919141Y-103903733D01*
X192010586Y-103995178D01*
X192010608Y-103995198D01*
X201626038Y-113610628D01*
X201659523Y-113671951D01*
X201661678Y-113685347D01*
X201666458Y-113730826D01*
X201679326Y-113853256D01*
X201679327Y-113853259D01*
X201737818Y-114033277D01*
X201737821Y-114033284D01*
X201832467Y-114197216D01*
X201872962Y-114242190D01*
X201959129Y-114337888D01*
X202112265Y-114449148D01*
X202112270Y-114449151D01*
X202285192Y-114526142D01*
X202285197Y-114526144D01*
X202470354Y-114565500D01*
X202470355Y-114565500D01*
X202659644Y-114565500D01*
X202659646Y-114565500D01*
X202844803Y-114526144D01*
X203017730Y-114449151D01*
X203170871Y-114337888D01*
X203297533Y-114197216D01*
X203392179Y-114033284D01*
X203450674Y-113853256D01*
X203470460Y-113665000D01*
X203450674Y-113476744D01*
X203392179Y-113296716D01*
X203297533Y-113132784D01*
X203170871Y-112992112D01*
X203148502Y-112975860D01*
X203017734Y-112880851D01*
X203017729Y-112880848D01*
X202844807Y-112803857D01*
X202844802Y-112803855D01*
X202699001Y-112772865D01*
X202659646Y-112764500D01*
X202659645Y-112764500D01*
X202600452Y-112764500D01*
X202533413Y-112744815D01*
X202512771Y-112728181D01*
X200274590Y-110490000D01*
X208384422Y-110490000D01*
X208404722Y-110877339D01*
X208417603Y-110958664D01*
X208465398Y-111260433D01*
X208529833Y-111500910D01*
X208565788Y-111635094D01*
X208704787Y-111997197D01*
X208880877Y-112342793D01*
X209092122Y-112668082D01*
X209170200Y-112764500D01*
X209336219Y-112969516D01*
X209610484Y-113243781D01*
X209661385Y-113285000D01*
X209911917Y-113487877D01*
X210237206Y-113699122D01*
X210237211Y-113699125D01*
X210582806Y-113875214D01*
X210944913Y-114014214D01*
X211319567Y-114114602D01*
X211702662Y-114175278D01*
X212068576Y-114194455D01*
X212089999Y-114195578D01*
X212090000Y-114195578D01*
X212090001Y-114195578D01*
X212110301Y-114194514D01*
X212477338Y-114175278D01*
X212860433Y-114114602D01*
X213235087Y-114014214D01*
X213597194Y-113875214D01*
X213942789Y-113699125D01*
X214268084Y-113487876D01*
X214569516Y-113243781D01*
X214843781Y-112969516D01*
X215087876Y-112668084D01*
X215299125Y-112342789D01*
X215475214Y-111997194D01*
X215614214Y-111635087D01*
X215714602Y-111260433D01*
X215775278Y-110877338D01*
X215795578Y-110490000D01*
X215775278Y-110102662D01*
X215714602Y-109719567D01*
X215614214Y-109344913D01*
X215475214Y-108982806D01*
X215299125Y-108637211D01*
X215087876Y-108311916D01*
X214843781Y-108010484D01*
X214569516Y-107736219D01*
X214478489Y-107662507D01*
X214268082Y-107492122D01*
X213942793Y-107280877D01*
X213597197Y-107104787D01*
X213235094Y-106965788D01*
X213235087Y-106965786D01*
X212860433Y-106865398D01*
X212860429Y-106865397D01*
X212860428Y-106865397D01*
X212477339Y-106804722D01*
X212090001Y-106784422D01*
X212089999Y-106784422D01*
X211702660Y-106804722D01*
X211319572Y-106865397D01*
X211319570Y-106865397D01*
X210944905Y-106965788D01*
X210582802Y-107104787D01*
X210237206Y-107280877D01*
X209911917Y-107492122D01*
X209610488Y-107736215D01*
X209610480Y-107736222D01*
X209336222Y-108010480D01*
X209336215Y-108010488D01*
X209092122Y-108311917D01*
X208880877Y-108637206D01*
X208704787Y-108982802D01*
X208565788Y-109344905D01*
X208465397Y-109719570D01*
X208465397Y-109719572D01*
X208404722Y-110102660D01*
X208384422Y-110489999D01*
X208384422Y-110490000D01*
X200274590Y-110490000D01*
X193066819Y-103282229D01*
X193033334Y-103220906D01*
X193030500Y-103194548D01*
X193030500Y-92080226D01*
X193050185Y-92013187D01*
X193083374Y-91978654D01*
X193276401Y-91843495D01*
X193443495Y-91676401D01*
X193579035Y-91482830D01*
X193678903Y-91268663D01*
X193740063Y-91040408D01*
X193760659Y-90805000D01*
X193740063Y-90569592D01*
X193697728Y-90411593D01*
X193699391Y-90341743D01*
X193738554Y-90283881D01*
X193802782Y-90256377D01*
X193817503Y-90255500D01*
X201079548Y-90255500D01*
X201146587Y-90275185D01*
X201167229Y-90291819D01*
X209479762Y-98604352D01*
X209513247Y-98665675D01*
X209511856Y-98724126D01*
X209484938Y-98824586D01*
X209484936Y-98824596D01*
X209464341Y-99059999D01*
X209464341Y-99060000D01*
X209484936Y-99295403D01*
X209484938Y-99295413D01*
X209546094Y-99523655D01*
X209546096Y-99523659D01*
X209546097Y-99523663D01*
X209645965Y-99737830D01*
X209645967Y-99737834D01*
X209754281Y-99892521D01*
X209781505Y-99931401D01*
X209948599Y-100098495D01*
X210045384Y-100166265D01*
X210142165Y-100234032D01*
X210142167Y-100234033D01*
X210142170Y-100234035D01*
X210356337Y-100333903D01*
X210584592Y-100395063D01*
X210772918Y-100411539D01*
X210819999Y-100415659D01*
X210820000Y-100415659D01*
X210820001Y-100415659D01*
X210859234Y-100412226D01*
X211055408Y-100395063D01*
X211283663Y-100333903D01*
X211497830Y-100234035D01*
X211691401Y-100098495D01*
X211858495Y-99931401D01*
X211994035Y-99737830D01*
X212093903Y-99523663D01*
X212155063Y-99295408D01*
X212175659Y-99060000D01*
X212155063Y-98824592D01*
X212093903Y-98596337D01*
X211994035Y-98382171D01*
X211858495Y-98188599D01*
X211858494Y-98188597D01*
X211691402Y-98021506D01*
X211691396Y-98021501D01*
X211505842Y-97891575D01*
X211462217Y-97836998D01*
X211455023Y-97767500D01*
X211486546Y-97705145D01*
X211505842Y-97688425D01*
X211528026Y-97672891D01*
X211691401Y-97558495D01*
X211858495Y-97391401D01*
X211994035Y-97197830D01*
X212093903Y-96983663D01*
X212155063Y-96755408D01*
X212175659Y-96520000D01*
X212155063Y-96284592D01*
X212093903Y-96056337D01*
X211994035Y-95842171D01*
X211858495Y-95648599D01*
X211858494Y-95648597D01*
X211691402Y-95481506D01*
X211691396Y-95481501D01*
X211505842Y-95351575D01*
X211462217Y-95296998D01*
X211455023Y-95227500D01*
X211486546Y-95165145D01*
X211505842Y-95148425D01*
X211528026Y-95132891D01*
X211691401Y-95018495D01*
X211858495Y-94851401D01*
X211994035Y-94657830D01*
X212093903Y-94443663D01*
X212155063Y-94215408D01*
X212175659Y-93980000D01*
X212155063Y-93744592D01*
X212093903Y-93516337D01*
X211994035Y-93302171D01*
X211858495Y-93108599D01*
X211858494Y-93108597D01*
X211691402Y-92941506D01*
X211691396Y-92941501D01*
X211505842Y-92811575D01*
X211462217Y-92756998D01*
X211455023Y-92687500D01*
X211486546Y-92625145D01*
X211505842Y-92608425D01*
X211584434Y-92553394D01*
X211691401Y-92478495D01*
X211858495Y-92311401D01*
X211994035Y-92117830D01*
X212093903Y-91903663D01*
X212155063Y-91675408D01*
X212175659Y-91440000D01*
X212155063Y-91204592D01*
X212093903Y-90976337D01*
X211994035Y-90762171D01*
X211977011Y-90737857D01*
X211858494Y-90568597D01*
X211691402Y-90401506D01*
X211691396Y-90401501D01*
X211505842Y-90271575D01*
X211462217Y-90216998D01*
X211455023Y-90147500D01*
X211486546Y-90085145D01*
X211505842Y-90068425D01*
X211579026Y-90017181D01*
X211691401Y-89938495D01*
X211858495Y-89771401D01*
X211994035Y-89577830D01*
X212093903Y-89363663D01*
X212155063Y-89135408D01*
X212175659Y-88900000D01*
X212155063Y-88664592D01*
X212093903Y-88436337D01*
X211994035Y-88222171D01*
X211893079Y-88077989D01*
X211858494Y-88028597D01*
X211691402Y-87861506D01*
X211691396Y-87861501D01*
X211505842Y-87731575D01*
X211462217Y-87676998D01*
X211455023Y-87607500D01*
X211486546Y-87545145D01*
X211505842Y-87528425D01*
X211528026Y-87512891D01*
X211691401Y-87398495D01*
X211858495Y-87231401D01*
X211994035Y-87037830D01*
X212093903Y-86823663D01*
X212155063Y-86595408D01*
X212175659Y-86360000D01*
X212155063Y-86124592D01*
X212093903Y-85896337D01*
X211994035Y-85682171D01*
X211988257Y-85673918D01*
X211858494Y-85488597D01*
X211691402Y-85321506D01*
X211691396Y-85321501D01*
X211505842Y-85191575D01*
X211462217Y-85136998D01*
X211455023Y-85067500D01*
X211486546Y-85005145D01*
X211505842Y-84988425D01*
X211605472Y-84918663D01*
X211691401Y-84858495D01*
X211858495Y-84691401D01*
X211994035Y-84497830D01*
X212093903Y-84283663D01*
X212155063Y-84055408D01*
X212175659Y-83820000D01*
X212155063Y-83584592D01*
X212105592Y-83399963D01*
X212093905Y-83356344D01*
X212093904Y-83356343D01*
X212093903Y-83356337D01*
X211994035Y-83142171D01*
X211980045Y-83122190D01*
X211858494Y-82948597D01*
X211691402Y-82781506D01*
X211691396Y-82781501D01*
X211505842Y-82651575D01*
X211462217Y-82596998D01*
X211455023Y-82527500D01*
X211486546Y-82465145D01*
X211505842Y-82448425D01*
X211588931Y-82390245D01*
X211691401Y-82318495D01*
X211858495Y-82151401D01*
X211994035Y-81957830D01*
X212093903Y-81743663D01*
X212155063Y-81515408D01*
X212175659Y-81280000D01*
X212155063Y-81044592D01*
X212093903Y-80816337D01*
X211994035Y-80602171D01*
X211973313Y-80572577D01*
X211858496Y-80408600D01*
X211816360Y-80366464D01*
X211736179Y-80286283D01*
X211702696Y-80224963D01*
X211707680Y-80155271D01*
X211749551Y-80099337D01*
X211780529Y-80082422D01*
X211912086Y-80033354D01*
X211912093Y-80033350D01*
X212027187Y-79947190D01*
X212027190Y-79947187D01*
X212113350Y-79832093D01*
X212113354Y-79832086D01*
X212163596Y-79697379D01*
X212163598Y-79697372D01*
X212169999Y-79637844D01*
X212170000Y-79637827D01*
X212170000Y-78990000D01*
X211253012Y-78990000D01*
X211285925Y-78932993D01*
X211320000Y-78805826D01*
X211320000Y-78674174D01*
X211285925Y-78547007D01*
X211253012Y-78490000D01*
X212170000Y-78490000D01*
X212170000Y-77842172D01*
X212169999Y-77842155D01*
X212163598Y-77782627D01*
X212163596Y-77782620D01*
X212113354Y-77647913D01*
X212113350Y-77647906D01*
X212027190Y-77532812D01*
X212027187Y-77532809D01*
X211912093Y-77446649D01*
X211912086Y-77446645D01*
X211777379Y-77396403D01*
X211777372Y-77396401D01*
X211717844Y-77390000D01*
X211070000Y-77390000D01*
X211070000Y-78306988D01*
X211012993Y-78274075D01*
X210885826Y-78240000D01*
X210754174Y-78240000D01*
X210627007Y-78274075D01*
X210570000Y-78306988D01*
X210570000Y-77390000D01*
X209922155Y-77390000D01*
X209862627Y-77396401D01*
X209862620Y-77396403D01*
X209727913Y-77446645D01*
X209727906Y-77446649D01*
X209612812Y-77532809D01*
X209612809Y-77532812D01*
X209526649Y-77647906D01*
X209526645Y-77647913D01*
X209476403Y-77782620D01*
X209476401Y-77782627D01*
X209470000Y-77842155D01*
X209470000Y-78490000D01*
X210386988Y-78490000D01*
X210354075Y-78547007D01*
X210320000Y-78674174D01*
X210320000Y-78805826D01*
X210354075Y-78932993D01*
X210386988Y-78990000D01*
X209470000Y-78990000D01*
X209470000Y-79637844D01*
X209476401Y-79697372D01*
X209476403Y-79697379D01*
X209526645Y-79832086D01*
X209526649Y-79832093D01*
X209612809Y-79947187D01*
X209612812Y-79947190D01*
X209727906Y-80033350D01*
X209727913Y-80033354D01*
X209859470Y-80082421D01*
X209915403Y-80124292D01*
X209939821Y-80189756D01*
X209924970Y-80258029D01*
X209903819Y-80286284D01*
X209781503Y-80408600D01*
X209645965Y-80602169D01*
X209645964Y-80602171D01*
X209546098Y-80816335D01*
X209546094Y-80816344D01*
X209484938Y-81044586D01*
X209484936Y-81044596D01*
X209464341Y-81279999D01*
X209464341Y-81280000D01*
X209484936Y-81515403D01*
X209484938Y-81515413D01*
X209546094Y-81743655D01*
X209546096Y-81743659D01*
X209546097Y-81743663D01*
X209594684Y-81847857D01*
X209645965Y-81957830D01*
X209645967Y-81957834D01*
X209781501Y-82151395D01*
X209781506Y-82151402D01*
X209948597Y-82318493D01*
X209948603Y-82318498D01*
X210134158Y-82448425D01*
X210177783Y-82503002D01*
X210184977Y-82572500D01*
X210153454Y-82634855D01*
X210134158Y-82651575D01*
X209948597Y-82781505D01*
X209781505Y-82948597D01*
X209645965Y-83142169D01*
X209645964Y-83142171D01*
X209546098Y-83356335D01*
X209546094Y-83356344D01*
X209484938Y-83584586D01*
X209484936Y-83584596D01*
X209464341Y-83819999D01*
X209464341Y-83820000D01*
X209484936Y-84055403D01*
X209484938Y-84055413D01*
X209546094Y-84283655D01*
X209546096Y-84283659D01*
X209546097Y-84283663D01*
X209604399Y-84408691D01*
X209645965Y-84497830D01*
X209645967Y-84497834D01*
X209781501Y-84691395D01*
X209781506Y-84691402D01*
X209948597Y-84858493D01*
X209948603Y-84858498D01*
X210134158Y-84988425D01*
X210177783Y-85043002D01*
X210184977Y-85112500D01*
X210153454Y-85174855D01*
X210134158Y-85191575D01*
X209948597Y-85321505D01*
X209781505Y-85488597D01*
X209645965Y-85682169D01*
X209645964Y-85682171D01*
X209546098Y-85896335D01*
X209546094Y-85896344D01*
X209484937Y-86124591D01*
X209483992Y-86135392D01*
X209458538Y-86200460D01*
X209448145Y-86212263D01*
X208942229Y-86718181D01*
X208880906Y-86751666D01*
X208854548Y-86754500D01*
X184304452Y-86754500D01*
X184237413Y-86734815D01*
X184191658Y-86682011D01*
X184181714Y-86612853D01*
X184210739Y-86549297D01*
X184216771Y-86542819D01*
X185840935Y-84918655D01*
X190782183Y-79977405D01*
X190843504Y-79943922D01*
X190913196Y-79948906D01*
X190969129Y-79990778D01*
X190982242Y-80012679D01*
X190991883Y-80033354D01*
X191000967Y-80052834D01*
X191051003Y-80124292D01*
X191136501Y-80246396D01*
X191136506Y-80246402D01*
X191258818Y-80368714D01*
X191292303Y-80430037D01*
X191287319Y-80499729D01*
X191245447Y-80555662D01*
X191214471Y-80572577D01*
X191082912Y-80621646D01*
X191082906Y-80621649D01*
X190967812Y-80707809D01*
X190967809Y-80707812D01*
X190881649Y-80822906D01*
X190881645Y-80822913D01*
X190831403Y-80957620D01*
X190831401Y-80957627D01*
X190825000Y-81017155D01*
X190825000Y-81665000D01*
X191730440Y-81665000D01*
X191699755Y-81718147D01*
X191665000Y-81847857D01*
X191665000Y-81982143D01*
X191699755Y-82111853D01*
X191730440Y-82165000D01*
X190825000Y-82165000D01*
X190825000Y-82812844D01*
X190831401Y-82872372D01*
X190831403Y-82872379D01*
X190881645Y-83007086D01*
X190881649Y-83007093D01*
X190967809Y-83122187D01*
X190967812Y-83122190D01*
X191082906Y-83208350D01*
X191082913Y-83208354D01*
X191214470Y-83257421D01*
X191270403Y-83299292D01*
X191294821Y-83364756D01*
X191279970Y-83433029D01*
X191258819Y-83461284D01*
X191136503Y-83583600D01*
X191000965Y-83777169D01*
X191000964Y-83777171D01*
X190901098Y-83991335D01*
X190901094Y-83991344D01*
X190839938Y-84219586D01*
X190839936Y-84219596D01*
X190819341Y-84454999D01*
X190819341Y-84455000D01*
X190839936Y-84690403D01*
X190839938Y-84690413D01*
X190901094Y-84918655D01*
X190901096Y-84918659D01*
X190901097Y-84918663D01*
X190970501Y-85067500D01*
X191000965Y-85132830D01*
X191000967Y-85132834D01*
X191109281Y-85287521D01*
X191136505Y-85326401D01*
X191303599Y-85493495D01*
X191340848Y-85519577D01*
X191497165Y-85629032D01*
X191497167Y-85629033D01*
X191497170Y-85629035D01*
X191711337Y-85728903D01*
X191711343Y-85728904D01*
X191711344Y-85728905D01*
X191766285Y-85743626D01*
X191939592Y-85790063D01*
X192118171Y-85805687D01*
X192174999Y-85810659D01*
X192175000Y-85810659D01*
X192175001Y-85810659D01*
X192214234Y-85807226D01*
X192410408Y-85790063D01*
X192638663Y-85728903D01*
X192852830Y-85629035D01*
X193046401Y-85493495D01*
X193213495Y-85326401D01*
X193349035Y-85132830D01*
X193448903Y-84918663D01*
X193510063Y-84690408D01*
X193530659Y-84455000D01*
X193510063Y-84219592D01*
X193448903Y-83991337D01*
X193349035Y-83777171D01*
X193348808Y-83776847D01*
X193213496Y-83583600D01*
X193163017Y-83533121D01*
X193091179Y-83461283D01*
X193057696Y-83399963D01*
X193062680Y-83330271D01*
X193104551Y-83274337D01*
X193135529Y-83257422D01*
X193267086Y-83208354D01*
X193267093Y-83208350D01*
X193382187Y-83122190D01*
X193382190Y-83122187D01*
X193468350Y-83007093D01*
X193468354Y-83007086D01*
X193518596Y-82872379D01*
X193518598Y-82872372D01*
X193524999Y-82812844D01*
X193525000Y-82812827D01*
X193525000Y-82165000D01*
X192619560Y-82165000D01*
X192650245Y-82111853D01*
X192685000Y-81982143D01*
X192685000Y-81847857D01*
X192650245Y-81718147D01*
X192619560Y-81665000D01*
X193525000Y-81665000D01*
X193525000Y-81017172D01*
X193524999Y-81017155D01*
X193518598Y-80957627D01*
X193518596Y-80957620D01*
X193468354Y-80822913D01*
X193468350Y-80822906D01*
X193382190Y-80707812D01*
X193382187Y-80707809D01*
X193267093Y-80621649D01*
X193267088Y-80621646D01*
X193135528Y-80572577D01*
X193079595Y-80530705D01*
X193055178Y-80465241D01*
X193070030Y-80396968D01*
X193091175Y-80368720D01*
X193213495Y-80246401D01*
X193349035Y-80052830D01*
X193448903Y-79838663D01*
X193510063Y-79610408D01*
X193530659Y-79375000D01*
X193510063Y-79139592D01*
X193448903Y-78911337D01*
X193349035Y-78697171D01*
X193339200Y-78683124D01*
X193213494Y-78503597D01*
X193046402Y-78336506D01*
X193046395Y-78336501D01*
X192852832Y-78200966D01*
X192812683Y-78182244D01*
X192760244Y-78136071D01*
X192741093Y-78068877D01*
X192761309Y-78001996D01*
X192777403Y-77982186D01*
X204067772Y-66691819D01*
X204129095Y-66658334D01*
X204155453Y-66655500D01*
X209544773Y-66655500D01*
X209611812Y-66675185D01*
X209646348Y-66708377D01*
X209781501Y-66901396D01*
X209781506Y-66901402D01*
X209903818Y-67023714D01*
X209937303Y-67085037D01*
X209932319Y-67154729D01*
X209890447Y-67210662D01*
X209859471Y-67227577D01*
X209727912Y-67276646D01*
X209727906Y-67276649D01*
X209612812Y-67362809D01*
X209612809Y-67362812D01*
X209526649Y-67477906D01*
X209526645Y-67477913D01*
X209476403Y-67612620D01*
X209476401Y-67612627D01*
X209470000Y-67672155D01*
X209470000Y-68320000D01*
X210386988Y-68320000D01*
X210354075Y-68377007D01*
X210320000Y-68504174D01*
X210320000Y-68635826D01*
X210354075Y-68762993D01*
X210386988Y-68820000D01*
X209470000Y-68820000D01*
X209470000Y-69467844D01*
X209476401Y-69527372D01*
X209476403Y-69527379D01*
X209526645Y-69662086D01*
X209526649Y-69662093D01*
X209612809Y-69777187D01*
X209612812Y-69777190D01*
X209727906Y-69863350D01*
X209727913Y-69863354D01*
X209862620Y-69913596D01*
X209862627Y-69913598D01*
X209922155Y-69919999D01*
X209922172Y-69920000D01*
X210570000Y-69920000D01*
X210570000Y-69003012D01*
X210627007Y-69035925D01*
X210754174Y-69070000D01*
X210885826Y-69070000D01*
X211012993Y-69035925D01*
X211070000Y-69003012D01*
X211070000Y-69920000D01*
X211717828Y-69920000D01*
X211717844Y-69919999D01*
X211777372Y-69913598D01*
X211777379Y-69913596D01*
X211912086Y-69863354D01*
X211912093Y-69863350D01*
X212027187Y-69777190D01*
X212027190Y-69777187D01*
X212113350Y-69662093D01*
X212113354Y-69662086D01*
X212163596Y-69527379D01*
X212163598Y-69527372D01*
X212169999Y-69467844D01*
X212170000Y-69467827D01*
X212170000Y-68820000D01*
X211253012Y-68820000D01*
X211285925Y-68762993D01*
X211320000Y-68635826D01*
X211320000Y-68504174D01*
X211285925Y-68377007D01*
X211253012Y-68320000D01*
X212170000Y-68320000D01*
X212170000Y-67672172D01*
X212169999Y-67672155D01*
X212163598Y-67612627D01*
X212163596Y-67612620D01*
X212113354Y-67477913D01*
X212113350Y-67477906D01*
X212027190Y-67362812D01*
X212027187Y-67362809D01*
X211912093Y-67276649D01*
X211912088Y-67276646D01*
X211780528Y-67227577D01*
X211724595Y-67185705D01*
X211700178Y-67120241D01*
X211715030Y-67051968D01*
X211736175Y-67023720D01*
X211858495Y-66901401D01*
X211994035Y-66707830D01*
X212093903Y-66493663D01*
X212155063Y-66265408D01*
X212175659Y-66030000D01*
X212155063Y-65794592D01*
X212093903Y-65566337D01*
X211994035Y-65352171D01*
X211993652Y-65351623D01*
X211858494Y-65158597D01*
X211691402Y-64991506D01*
X211691396Y-64991501D01*
X211505842Y-64861575D01*
X211462217Y-64806998D01*
X211455023Y-64737500D01*
X211486546Y-64675145D01*
X211505842Y-64658425D01*
X211528026Y-64642891D01*
X211691401Y-64528495D01*
X211858495Y-64361401D01*
X211994035Y-64167830D01*
X212093903Y-63953663D01*
X212155063Y-63725408D01*
X212175659Y-63490000D01*
X212155063Y-63254592D01*
X212093903Y-63026337D01*
X211994035Y-62812171D01*
X211993652Y-62811623D01*
X211858494Y-62618597D01*
X211691402Y-62451506D01*
X211691396Y-62451501D01*
X211505842Y-62321575D01*
X211462217Y-62266998D01*
X211455023Y-62197500D01*
X211486546Y-62135145D01*
X211505842Y-62118425D01*
X211528026Y-62102891D01*
X211691401Y-61988495D01*
X211858495Y-61821401D01*
X211994035Y-61627830D01*
X212093903Y-61413663D01*
X212155063Y-61185408D01*
X212175659Y-60950000D01*
X212155063Y-60714592D01*
X212093903Y-60486337D01*
X211994035Y-60272171D01*
X211858495Y-60078599D01*
X211858494Y-60078597D01*
X211691402Y-59911506D01*
X211691395Y-59911501D01*
X211497834Y-59775967D01*
X211497830Y-59775965D01*
X211497828Y-59775964D01*
X211283663Y-59676097D01*
X211283659Y-59676096D01*
X211283655Y-59676094D01*
X211055413Y-59614938D01*
X211055403Y-59614936D01*
X210820001Y-59594341D01*
X210819999Y-59594341D01*
X210584596Y-59614936D01*
X210584586Y-59614938D01*
X210356344Y-59676094D01*
X210356335Y-59676098D01*
X210142171Y-59775964D01*
X210142169Y-59775965D01*
X209948597Y-59911505D01*
X209781505Y-60078597D01*
X209645965Y-60272169D01*
X209645964Y-60272171D01*
X209546098Y-60486335D01*
X209546094Y-60486344D01*
X209484938Y-60714586D01*
X209484936Y-60714596D01*
X209464341Y-60949999D01*
X209464341Y-60950000D01*
X209484936Y-61185403D01*
X209484938Y-61185413D01*
X209546094Y-61413655D01*
X209546096Y-61413659D01*
X209546097Y-61413663D01*
X209645965Y-61627830D01*
X209645967Y-61627834D01*
X209781501Y-61821395D01*
X209781506Y-61821402D01*
X209948597Y-61988493D01*
X209948603Y-61988498D01*
X210134158Y-62118425D01*
X210177783Y-62173002D01*
X210184977Y-62242500D01*
X210153454Y-62304855D01*
X210134158Y-62321575D01*
X209948597Y-62451505D01*
X209781505Y-62618597D01*
X209646348Y-62811623D01*
X209591771Y-62855248D01*
X209544773Y-62864500D01*
X205686993Y-62864500D01*
X205626575Y-62876518D01*
X205583347Y-62885116D01*
X205566150Y-62888537D01*
X205452320Y-62935687D01*
X205452311Y-62935692D01*
X205349872Y-63004140D01*
X205327678Y-63026335D01*
X205262746Y-63091267D01*
X205262743Y-63091270D01*
X193953670Y-74400344D01*
X182655833Y-85698181D01*
X182594510Y-85731666D01*
X182568152Y-85734500D01*
X161228389Y-85734500D01*
X161167971Y-85746518D01*
X161124743Y-85755116D01*
X161107546Y-85758537D01*
X160993716Y-85805687D01*
X160993707Y-85805692D01*
X160891268Y-85874140D01*
X160869074Y-85896335D01*
X160804142Y-85961267D01*
X160804139Y-85961270D01*
X157300646Y-89464762D01*
X157239323Y-89498247D01*
X157180872Y-89496856D01*
X157080413Y-89469938D01*
X157080403Y-89469936D01*
X156845001Y-89449341D01*
X156844610Y-89449341D01*
X156844444Y-89449292D01*
X156839606Y-89448869D01*
X156839691Y-89447896D01*
X156777571Y-89429656D01*
X156731816Y-89376852D01*
X156721872Y-89307694D01*
X156750897Y-89244138D01*
X156756929Y-89237660D01*
X164146732Y-81847857D01*
X171629353Y-74365235D01*
X171690674Y-74331752D01*
X171749125Y-74333143D01*
X171783780Y-74342428D01*
X171849592Y-74360063D01*
X172020319Y-74375000D01*
X172084999Y-74380659D01*
X172085000Y-74380659D01*
X172085001Y-74380659D01*
X172149681Y-74375000D01*
X172320408Y-74360063D01*
X172548663Y-74298903D01*
X172762830Y-74199035D01*
X172956401Y-74063495D01*
X173078717Y-73941178D01*
X173140036Y-73907696D01*
X173209728Y-73912680D01*
X173265662Y-73954551D01*
X173282577Y-73985528D01*
X173331646Y-74117088D01*
X173331649Y-74117093D01*
X173417809Y-74232187D01*
X173417812Y-74232190D01*
X173532906Y-74318350D01*
X173532913Y-74318354D01*
X173667620Y-74368596D01*
X173667627Y-74368598D01*
X173727155Y-74374999D01*
X173727172Y-74375000D01*
X174375000Y-74375000D01*
X174375000Y-73469560D01*
X174428147Y-73500245D01*
X174557857Y-73535000D01*
X174692143Y-73535000D01*
X174821853Y-73500245D01*
X174875000Y-73469560D01*
X174875000Y-74375000D01*
X175522828Y-74375000D01*
X175522844Y-74374999D01*
X175582372Y-74368598D01*
X175582379Y-74368596D01*
X175717086Y-74318354D01*
X175717093Y-74318350D01*
X175832187Y-74232190D01*
X175832190Y-74232187D01*
X175918350Y-74117093D01*
X175918354Y-74117086D01*
X175967422Y-73985529D01*
X176009293Y-73929595D01*
X176074757Y-73905178D01*
X176143030Y-73920030D01*
X176171285Y-73941181D01*
X176293599Y-74063495D01*
X176370135Y-74117086D01*
X176487165Y-74199032D01*
X176487167Y-74199033D01*
X176487170Y-74199035D01*
X176701337Y-74298903D01*
X176929592Y-74360063D01*
X177100319Y-74375000D01*
X177164999Y-74380659D01*
X177165000Y-74380659D01*
X177165001Y-74380659D01*
X177229681Y-74375000D01*
X177400408Y-74360063D01*
X177628663Y-74298903D01*
X177842830Y-74199035D01*
X178036401Y-74063495D01*
X178203495Y-73896401D01*
X178333425Y-73710842D01*
X178388002Y-73667217D01*
X178457500Y-73660023D01*
X178519855Y-73691546D01*
X178536575Y-73710842D01*
X178666500Y-73896395D01*
X178666505Y-73896401D01*
X178833599Y-74063495D01*
X178910135Y-74117086D01*
X179027165Y-74199032D01*
X179027167Y-74199033D01*
X179027170Y-74199035D01*
X179241337Y-74298903D01*
X179469592Y-74360063D01*
X179640319Y-74375000D01*
X179704999Y-74380659D01*
X179705000Y-74380659D01*
X179705001Y-74380659D01*
X179769681Y-74375000D01*
X179940408Y-74360063D01*
X180168663Y-74298903D01*
X180382830Y-74199035D01*
X180576401Y-74063495D01*
X180743495Y-73896401D01*
X180873425Y-73710842D01*
X180928002Y-73667217D01*
X180997500Y-73660023D01*
X181059855Y-73691546D01*
X181076575Y-73710842D01*
X181206500Y-73896395D01*
X181206505Y-73896401D01*
X181373599Y-74063495D01*
X181450135Y-74117086D01*
X181567165Y-74199032D01*
X181567167Y-74199033D01*
X181567170Y-74199035D01*
X181781337Y-74298903D01*
X182009592Y-74360063D01*
X182180319Y-74375000D01*
X182244999Y-74380659D01*
X182245000Y-74380659D01*
X182245001Y-74380659D01*
X182309681Y-74375000D01*
X182480408Y-74360063D01*
X182708663Y-74298903D01*
X182922830Y-74199035D01*
X183116401Y-74063495D01*
X183283495Y-73896401D01*
X183413425Y-73710842D01*
X183468002Y-73667217D01*
X183537500Y-73660023D01*
X183599855Y-73691546D01*
X183616575Y-73710842D01*
X183746500Y-73896395D01*
X183746505Y-73896401D01*
X183913599Y-74063495D01*
X183990135Y-74117086D01*
X184107165Y-74199032D01*
X184107167Y-74199033D01*
X184107170Y-74199035D01*
X184321337Y-74298903D01*
X184549592Y-74360063D01*
X184720319Y-74375000D01*
X184784999Y-74380659D01*
X184785000Y-74380659D01*
X184785001Y-74380659D01*
X184849681Y-74375000D01*
X185020408Y-74360063D01*
X185248663Y-74298903D01*
X185462830Y-74199035D01*
X185656401Y-74063495D01*
X185778717Y-73941178D01*
X185840036Y-73907696D01*
X185909728Y-73912680D01*
X185965662Y-73954551D01*
X185982577Y-73985528D01*
X186031646Y-74117088D01*
X186031649Y-74117093D01*
X186117809Y-74232187D01*
X186117812Y-74232190D01*
X186232906Y-74318350D01*
X186232913Y-74318354D01*
X186367620Y-74368596D01*
X186367627Y-74368598D01*
X186427155Y-74374999D01*
X186427172Y-74375000D01*
X187075000Y-74375000D01*
X187075000Y-73469560D01*
X187128147Y-73500245D01*
X187257857Y-73535000D01*
X187392143Y-73535000D01*
X187521853Y-73500245D01*
X187575000Y-73469560D01*
X187575000Y-74375000D01*
X188222828Y-74375000D01*
X188222844Y-74374999D01*
X188282372Y-74368598D01*
X188282379Y-74368596D01*
X188417086Y-74318354D01*
X188417093Y-74318350D01*
X188532187Y-74232190D01*
X188532190Y-74232187D01*
X188618350Y-74117093D01*
X188618354Y-74117086D01*
X188667422Y-73985529D01*
X188709293Y-73929595D01*
X188774757Y-73905178D01*
X188843030Y-73920030D01*
X188871285Y-73941181D01*
X188993599Y-74063495D01*
X189070135Y-74117086D01*
X189187165Y-74199032D01*
X189187167Y-74199033D01*
X189187170Y-74199035D01*
X189401337Y-74298903D01*
X189629592Y-74360063D01*
X189800319Y-74375000D01*
X189864999Y-74380659D01*
X189865000Y-74380659D01*
X189865001Y-74380659D01*
X189929681Y-74375000D01*
X190100408Y-74360063D01*
X190328663Y-74298903D01*
X190542830Y-74199035D01*
X190736401Y-74063495D01*
X190903495Y-73896401D01*
X191033425Y-73710842D01*
X191088002Y-73667217D01*
X191157500Y-73660023D01*
X191219855Y-73691546D01*
X191236575Y-73710842D01*
X191366500Y-73896395D01*
X191366505Y-73896401D01*
X191533599Y-74063495D01*
X191610135Y-74117086D01*
X191727165Y-74199032D01*
X191727167Y-74199033D01*
X191727170Y-74199035D01*
X191941337Y-74298903D01*
X192169592Y-74360063D01*
X192340319Y-74375000D01*
X192404999Y-74380659D01*
X192405000Y-74380659D01*
X192405001Y-74380659D01*
X192469681Y-74375000D01*
X192640408Y-74360063D01*
X192868663Y-74298903D01*
X193082830Y-74199035D01*
X193276401Y-74063495D01*
X193443495Y-73896401D01*
X193579035Y-73702830D01*
X193678903Y-73488663D01*
X193740063Y-73260408D01*
X193760659Y-73025000D01*
X193740063Y-72789592D01*
X193713143Y-72689125D01*
X193714806Y-72619276D01*
X193745235Y-72569353D01*
X211300858Y-55013733D01*
X211369312Y-54911285D01*
X211416463Y-54797451D01*
X211440501Y-54676606D01*
X211440501Y-54553393D01*
X211440501Y-54548283D01*
X211440500Y-54548257D01*
X211440500Y-52445226D01*
X211460185Y-52378187D01*
X211493374Y-52343654D01*
X211686401Y-52208495D01*
X211853495Y-52041401D01*
X211983425Y-51855842D01*
X212038002Y-51812217D01*
X212107500Y-51805023D01*
X212169855Y-51836546D01*
X212186575Y-51855842D01*
X212316500Y-52041395D01*
X212316505Y-52041401D01*
X212483599Y-52208495D01*
X212504076Y-52222833D01*
X212677165Y-52344032D01*
X212677167Y-52344033D01*
X212677170Y-52344035D01*
X212891337Y-52443903D01*
X212891343Y-52443904D01*
X212891344Y-52443905D01*
X212946285Y-52458626D01*
X213119592Y-52505063D01*
X213290319Y-52520000D01*
X213354999Y-52525659D01*
X213355000Y-52525659D01*
X213355001Y-52525659D01*
X213419681Y-52520000D01*
X213590408Y-52505063D01*
X213818663Y-52443903D01*
X214032830Y-52344035D01*
X214226401Y-52208495D01*
X214393495Y-52041401D01*
X214529035Y-51847830D01*
X214628903Y-51633663D01*
X214690063Y-51405408D01*
X214710659Y-51170000D01*
X214690063Y-50934592D01*
X214628903Y-50706337D01*
X214529035Y-50492171D01*
X214523425Y-50484158D01*
X214393494Y-50298597D01*
X214226402Y-50131506D01*
X214226395Y-50131501D01*
X214032834Y-49995967D01*
X214032830Y-49995965D01*
X213961727Y-49962809D01*
X213818663Y-49896097D01*
X213818659Y-49896096D01*
X213818655Y-49896094D01*
X213590413Y-49834938D01*
X213590403Y-49834936D01*
X213355001Y-49814341D01*
X213354999Y-49814341D01*
X213119596Y-49834936D01*
X213119586Y-49834938D01*
X212891344Y-49896094D01*
X212891335Y-49896098D01*
X212677171Y-49995964D01*
X212677169Y-49995965D01*
X212483597Y-50131505D01*
X212316505Y-50298597D01*
X212186575Y-50484158D01*
X212131998Y-50527783D01*
X212062500Y-50534977D01*
X212000145Y-50503454D01*
X211983425Y-50484158D01*
X211853494Y-50298597D01*
X211686402Y-50131506D01*
X211686395Y-50131501D01*
X211492834Y-49995967D01*
X211492830Y-49995965D01*
X211421727Y-49962809D01*
X211278663Y-49896097D01*
X211278659Y-49896096D01*
X211278655Y-49896094D01*
X211050413Y-49834938D01*
X211050403Y-49834936D01*
X210815001Y-49814341D01*
X210814999Y-49814341D01*
X210579596Y-49834936D01*
X210579586Y-49834938D01*
X210351344Y-49896094D01*
X210351335Y-49896098D01*
X210137171Y-49995964D01*
X210137169Y-49995965D01*
X209943597Y-50131505D01*
X209776505Y-50298597D01*
X209646575Y-50484158D01*
X209591998Y-50527783D01*
X209522500Y-50534977D01*
X209460145Y-50503454D01*
X209443425Y-50484158D01*
X209313494Y-50298597D01*
X209146402Y-50131506D01*
X209146395Y-50131501D01*
X208952834Y-49995967D01*
X208952830Y-49995965D01*
X208881727Y-49962809D01*
X208738663Y-49896097D01*
X208738659Y-49896096D01*
X208738655Y-49896094D01*
X208510413Y-49834938D01*
X208510403Y-49834936D01*
X208275001Y-49814341D01*
X208274999Y-49814341D01*
X208039596Y-49834936D01*
X208039586Y-49834938D01*
X207811344Y-49896094D01*
X207811335Y-49896098D01*
X207597171Y-49995964D01*
X207597169Y-49995965D01*
X207403597Y-50131505D01*
X207236505Y-50298597D01*
X207106575Y-50484158D01*
X207051998Y-50527783D01*
X206982500Y-50534977D01*
X206920145Y-50503454D01*
X206903425Y-50484158D01*
X206773494Y-50298597D01*
X206606402Y-50131506D01*
X206606395Y-50131501D01*
X206412834Y-49995967D01*
X206412830Y-49995965D01*
X206341727Y-49962809D01*
X206198663Y-49896097D01*
X206198659Y-49896096D01*
X206198655Y-49896094D01*
X205970413Y-49834938D01*
X205970403Y-49834936D01*
X205735001Y-49814341D01*
X205734999Y-49814341D01*
X205499596Y-49834936D01*
X205499586Y-49834938D01*
X205271344Y-49896094D01*
X205271335Y-49896098D01*
X205057171Y-49995964D01*
X205057169Y-49995965D01*
X204863597Y-50131505D01*
X204696505Y-50298597D01*
X204566575Y-50484158D01*
X204511998Y-50527783D01*
X204442500Y-50534977D01*
X204380145Y-50503454D01*
X204363425Y-50484158D01*
X204233494Y-50298597D01*
X204066402Y-50131506D01*
X204066395Y-50131501D01*
X203872834Y-49995967D01*
X203872830Y-49995965D01*
X203801727Y-49962809D01*
X203658663Y-49896097D01*
X203658659Y-49896096D01*
X203658655Y-49896094D01*
X203430413Y-49834938D01*
X203430403Y-49834936D01*
X203195001Y-49814341D01*
X203194999Y-49814341D01*
X202959596Y-49834936D01*
X202959586Y-49834938D01*
X202731344Y-49896094D01*
X202731335Y-49896098D01*
X202517171Y-49995964D01*
X202517169Y-49995965D01*
X202323597Y-50131505D01*
X202156505Y-50298597D01*
X202026575Y-50484158D01*
X201971998Y-50527783D01*
X201902500Y-50534977D01*
X201840145Y-50503454D01*
X201823425Y-50484158D01*
X201693494Y-50298597D01*
X201526402Y-50131506D01*
X201526395Y-50131501D01*
X201332834Y-49995967D01*
X201332830Y-49995965D01*
X201261727Y-49962809D01*
X201118663Y-49896097D01*
X201118659Y-49896096D01*
X201118655Y-49896094D01*
X200890413Y-49834938D01*
X200890403Y-49834936D01*
X200655001Y-49814341D01*
X200654999Y-49814341D01*
X200419596Y-49834936D01*
X200419586Y-49834938D01*
X200191344Y-49896094D01*
X200191335Y-49896098D01*
X199977171Y-49995964D01*
X199977169Y-49995965D01*
X199783600Y-50131503D01*
X199661284Y-50253819D01*
X199599961Y-50287303D01*
X199530269Y-50282319D01*
X199474336Y-50240447D01*
X199457421Y-50209470D01*
X199408354Y-50077913D01*
X199408350Y-50077906D01*
X199322190Y-49962812D01*
X199322187Y-49962809D01*
X199207093Y-49876649D01*
X199207086Y-49876645D01*
X199072379Y-49826403D01*
X199072372Y-49826401D01*
X199012844Y-49820000D01*
X198365000Y-49820000D01*
X198365000Y-50736988D01*
X198307993Y-50704075D01*
X198180826Y-50670000D01*
X198049174Y-50670000D01*
X197922007Y-50704075D01*
X197865000Y-50736988D01*
X197865000Y-49820000D01*
X197217155Y-49820000D01*
X197157627Y-49826401D01*
X197157620Y-49826403D01*
X197022913Y-49876645D01*
X197022906Y-49876649D01*
X196907812Y-49962809D01*
X196907809Y-49962812D01*
X196821649Y-50077906D01*
X196821645Y-50077913D01*
X196771403Y-50212620D01*
X196771401Y-50212627D01*
X196765000Y-50272155D01*
X196765000Y-50920000D01*
X197681988Y-50920000D01*
X197649075Y-50977007D01*
X197615000Y-51104174D01*
X197615000Y-51235826D01*
X197649075Y-51362993D01*
X197681988Y-51420000D01*
X196765000Y-51420000D01*
X196765000Y-52067844D01*
X196771401Y-52127372D01*
X196771403Y-52127379D01*
X196821645Y-52262086D01*
X196821649Y-52262093D01*
X196907809Y-52377187D01*
X196907812Y-52377190D01*
X197022906Y-52463350D01*
X197022913Y-52463354D01*
X197157620Y-52513596D01*
X197157627Y-52513598D01*
X197217155Y-52519999D01*
X197217172Y-52520000D01*
X197865000Y-52520000D01*
X197865000Y-51603012D01*
X197922007Y-51635925D01*
X198049174Y-51670000D01*
X198180826Y-51670000D01*
X198307993Y-51635925D01*
X198365000Y-51603012D01*
X198365000Y-52520000D01*
X199012828Y-52520000D01*
X199012844Y-52519999D01*
X199072372Y-52513598D01*
X199072379Y-52513596D01*
X199207086Y-52463354D01*
X199207093Y-52463350D01*
X199322187Y-52377190D01*
X199322190Y-52377187D01*
X199408350Y-52262093D01*
X199408354Y-52262086D01*
X199457422Y-52130529D01*
X199499293Y-52074595D01*
X199564757Y-52050178D01*
X199633030Y-52065030D01*
X199661285Y-52086181D01*
X199783599Y-52208495D01*
X199804076Y-52222833D01*
X199977165Y-52344032D01*
X199977167Y-52344033D01*
X199977170Y-52344035D01*
X200191337Y-52443903D01*
X200191343Y-52443904D01*
X200191344Y-52443905D01*
X200246285Y-52458626D01*
X200419592Y-52505063D01*
X200590319Y-52520000D01*
X200654999Y-52525659D01*
X200655000Y-52525659D01*
X200655001Y-52525659D01*
X200719681Y-52520000D01*
X200890408Y-52505063D01*
X201118663Y-52443903D01*
X201332830Y-52344035D01*
X201526401Y-52208495D01*
X201693495Y-52041401D01*
X201823425Y-51855842D01*
X201878002Y-51812217D01*
X201947500Y-51805023D01*
X202009855Y-51836546D01*
X202026575Y-51855842D01*
X202156501Y-52041396D01*
X202156506Y-52041402D01*
X202162575Y-52047471D01*
X202196060Y-52108794D01*
X202191076Y-52178486D01*
X202162575Y-52222833D01*
X182700646Y-71684762D01*
X182639323Y-71718247D01*
X182580872Y-71716856D01*
X182480413Y-71689938D01*
X182480403Y-71689936D01*
X182245001Y-71669341D01*
X182244610Y-71669341D01*
X182244444Y-71669292D01*
X182239606Y-71668869D01*
X182239691Y-71667896D01*
X182177571Y-71649656D01*
X182131816Y-71596852D01*
X182121872Y-71527694D01*
X182150897Y-71464138D01*
X182156929Y-71457660D01*
X185544589Y-68070000D01*
X189623729Y-63990860D01*
X189623733Y-63990858D01*
X189710858Y-63903733D01*
X189751913Y-63842290D01*
X189779312Y-63801286D01*
X189826463Y-63687451D01*
X189829447Y-63672452D01*
X189850500Y-63566606D01*
X189850500Y-52445226D01*
X189870185Y-52378187D01*
X189903374Y-52343654D01*
X190096401Y-52208495D01*
X190263495Y-52041401D01*
X190393425Y-51855842D01*
X190448002Y-51812217D01*
X190517500Y-51805023D01*
X190579855Y-51836546D01*
X190596575Y-51855842D01*
X190726500Y-52041395D01*
X190726505Y-52041401D01*
X190893599Y-52208495D01*
X190914076Y-52222833D01*
X191087165Y-52344032D01*
X191087167Y-52344033D01*
X191087170Y-52344035D01*
X191301337Y-52443903D01*
X191301343Y-52443904D01*
X191301344Y-52443905D01*
X191356285Y-52458626D01*
X191529592Y-52505063D01*
X191700319Y-52520000D01*
X191764999Y-52525659D01*
X191765000Y-52525659D01*
X191765001Y-52525659D01*
X191829681Y-52520000D01*
X192000408Y-52505063D01*
X192228663Y-52443903D01*
X192442830Y-52344035D01*
X192636401Y-52208495D01*
X192803495Y-52041401D01*
X192939035Y-51847830D01*
X193038903Y-51633663D01*
X193100063Y-51405408D01*
X193120659Y-51170000D01*
X193100063Y-50934592D01*
X193038903Y-50706337D01*
X192939035Y-50492171D01*
X192933425Y-50484158D01*
X192803494Y-50298597D01*
X192636402Y-50131506D01*
X192636395Y-50131501D01*
X192442834Y-49995967D01*
X192442830Y-49995965D01*
X192371727Y-49962809D01*
X192228663Y-49896097D01*
X192228659Y-49896096D01*
X192228655Y-49896094D01*
X192000413Y-49834938D01*
X192000403Y-49834936D01*
X191765001Y-49814341D01*
X191764999Y-49814341D01*
X191529596Y-49834936D01*
X191529586Y-49834938D01*
X191301344Y-49896094D01*
X191301335Y-49896098D01*
X191087171Y-49995964D01*
X191087169Y-49995965D01*
X190893597Y-50131505D01*
X190726505Y-50298597D01*
X190596575Y-50484158D01*
X190541998Y-50527783D01*
X190472500Y-50534977D01*
X190410145Y-50503454D01*
X190393425Y-50484158D01*
X190263494Y-50298597D01*
X190096402Y-50131506D01*
X190096395Y-50131501D01*
X189902834Y-49995967D01*
X189902830Y-49995965D01*
X189831727Y-49962809D01*
X189688663Y-49896097D01*
X189688659Y-49896096D01*
X189688655Y-49896094D01*
X189460413Y-49834938D01*
X189460403Y-49834936D01*
X189225001Y-49814341D01*
X189224999Y-49814341D01*
X188989596Y-49834936D01*
X188989586Y-49834938D01*
X188761344Y-49896094D01*
X188761335Y-49896098D01*
X188547171Y-49995964D01*
X188547169Y-49995965D01*
X188353597Y-50131505D01*
X188186505Y-50298597D01*
X188056575Y-50484158D01*
X188001998Y-50527783D01*
X187932500Y-50534977D01*
X187870145Y-50503454D01*
X187853425Y-50484158D01*
X187723494Y-50298597D01*
X187556402Y-50131506D01*
X187556395Y-50131501D01*
X187362834Y-49995967D01*
X187362830Y-49995965D01*
X187291727Y-49962809D01*
X187148663Y-49896097D01*
X187148659Y-49896096D01*
X187148655Y-49896094D01*
X186920413Y-49834938D01*
X186920403Y-49834936D01*
X186685001Y-49814341D01*
X186684999Y-49814341D01*
X186449596Y-49834936D01*
X186449586Y-49834938D01*
X186221344Y-49896094D01*
X186221335Y-49896098D01*
X186007171Y-49995964D01*
X186007169Y-49995965D01*
X185813597Y-50131505D01*
X185646505Y-50298597D01*
X185516575Y-50484158D01*
X185461998Y-50527783D01*
X185392500Y-50534977D01*
X185330145Y-50503454D01*
X185313425Y-50484158D01*
X185183494Y-50298597D01*
X185016402Y-50131506D01*
X185016395Y-50131501D01*
X184822834Y-49995967D01*
X184822830Y-49995965D01*
X184751727Y-49962809D01*
X184608663Y-49896097D01*
X184608659Y-49896096D01*
X184608655Y-49896094D01*
X184380413Y-49834938D01*
X184380403Y-49834936D01*
X184145001Y-49814341D01*
X184144999Y-49814341D01*
X183909596Y-49834936D01*
X183909586Y-49834938D01*
X183681344Y-49896094D01*
X183681335Y-49896098D01*
X183467171Y-49995964D01*
X183467169Y-49995965D01*
X183273597Y-50131505D01*
X183106505Y-50298597D01*
X182976575Y-50484158D01*
X182921998Y-50527783D01*
X182852500Y-50534977D01*
X182790145Y-50503454D01*
X182773425Y-50484158D01*
X182643494Y-50298597D01*
X182476402Y-50131506D01*
X182476395Y-50131501D01*
X182282834Y-49995967D01*
X182282830Y-49995965D01*
X182211727Y-49962809D01*
X182068663Y-49896097D01*
X182068659Y-49896096D01*
X182068655Y-49896094D01*
X181840413Y-49834938D01*
X181840403Y-49834936D01*
X181605001Y-49814341D01*
X181604999Y-49814341D01*
X181369596Y-49834936D01*
X181369586Y-49834938D01*
X181141344Y-49896094D01*
X181141335Y-49896098D01*
X180927171Y-49995964D01*
X180927169Y-49995965D01*
X180733597Y-50131505D01*
X180566505Y-50298597D01*
X180436575Y-50484158D01*
X180381998Y-50527783D01*
X180312500Y-50534977D01*
X180250145Y-50503454D01*
X180233425Y-50484158D01*
X180103494Y-50298597D01*
X179936402Y-50131506D01*
X179936395Y-50131501D01*
X179742834Y-49995967D01*
X179742830Y-49995965D01*
X179671727Y-49962809D01*
X179528663Y-49896097D01*
X179528659Y-49896096D01*
X179528655Y-49896094D01*
X179300413Y-49834938D01*
X179300403Y-49834936D01*
X179065001Y-49814341D01*
X179064999Y-49814341D01*
X178829596Y-49834936D01*
X178829586Y-49834938D01*
X178601344Y-49896094D01*
X178601335Y-49896098D01*
X178387171Y-49995964D01*
X178387169Y-49995965D01*
X178193600Y-50131503D01*
X178071284Y-50253819D01*
X178009961Y-50287303D01*
X177940269Y-50282319D01*
X177884336Y-50240447D01*
X177867421Y-50209470D01*
X177818354Y-50077913D01*
X177818350Y-50077906D01*
X177732190Y-49962812D01*
X177732187Y-49962809D01*
X177617093Y-49876649D01*
X177617086Y-49876645D01*
X177482379Y-49826403D01*
X177482372Y-49826401D01*
X177422844Y-49820000D01*
X176775000Y-49820000D01*
X176775000Y-50736988D01*
X176717993Y-50704075D01*
X176590826Y-50670000D01*
X176459174Y-50670000D01*
X176332007Y-50704075D01*
X176275000Y-50736988D01*
X176275000Y-49820000D01*
X175627155Y-49820000D01*
X175567627Y-49826401D01*
X175567620Y-49826403D01*
X175432913Y-49876645D01*
X175432906Y-49876649D01*
X175317812Y-49962809D01*
X175317809Y-49962812D01*
X175231649Y-50077906D01*
X175231645Y-50077913D01*
X175181403Y-50212620D01*
X175181401Y-50212627D01*
X175175000Y-50272155D01*
X175175000Y-50920000D01*
X176091988Y-50920000D01*
X176059075Y-50977007D01*
X176025000Y-51104174D01*
X176025000Y-51235826D01*
X176059075Y-51362993D01*
X176091988Y-51420000D01*
X175175000Y-51420000D01*
X175175000Y-52067844D01*
X175181401Y-52127372D01*
X175181403Y-52127379D01*
X175231645Y-52262086D01*
X175231649Y-52262093D01*
X175317809Y-52377187D01*
X175317812Y-52377190D01*
X175432906Y-52463350D01*
X175432913Y-52463354D01*
X175567620Y-52513596D01*
X175567627Y-52513598D01*
X175627155Y-52519999D01*
X175627172Y-52520000D01*
X176275000Y-52520000D01*
X176275000Y-51603012D01*
X176332007Y-51635925D01*
X176459174Y-51670000D01*
X176590826Y-51670000D01*
X176717993Y-51635925D01*
X176775000Y-51603012D01*
X176775000Y-52520000D01*
X177422828Y-52520000D01*
X177422844Y-52519999D01*
X177482372Y-52513598D01*
X177482379Y-52513596D01*
X177617086Y-52463354D01*
X177617093Y-52463350D01*
X177732187Y-52377190D01*
X177732190Y-52377187D01*
X177818350Y-52262093D01*
X177818354Y-52262086D01*
X177867422Y-52130529D01*
X177909293Y-52074595D01*
X177974757Y-52050178D01*
X178043030Y-52065030D01*
X178071285Y-52086181D01*
X178193599Y-52208495D01*
X178214076Y-52222833D01*
X178387165Y-52344032D01*
X178387167Y-52344033D01*
X178387170Y-52344035D01*
X178601337Y-52443903D01*
X178601343Y-52443904D01*
X178601344Y-52443905D01*
X178656285Y-52458626D01*
X178829592Y-52505063D01*
X179000319Y-52520000D01*
X179064999Y-52525659D01*
X179065000Y-52525659D01*
X179065001Y-52525659D01*
X179129681Y-52520000D01*
X179300408Y-52505063D01*
X179528663Y-52443903D01*
X179742830Y-52344035D01*
X179936401Y-52208495D01*
X180103495Y-52041401D01*
X180233425Y-51855842D01*
X180288002Y-51812217D01*
X180357500Y-51805023D01*
X180419855Y-51836546D01*
X180436575Y-51855842D01*
X180566500Y-52041395D01*
X180566505Y-52041401D01*
X180733599Y-52208495D01*
X180926624Y-52343653D01*
X180970248Y-52398228D01*
X180979500Y-52445226D01*
X180979500Y-55574547D01*
X180959815Y-55641586D01*
X180943181Y-55662228D01*
X164920646Y-71684762D01*
X164859323Y-71718247D01*
X164800872Y-71716856D01*
X164700413Y-71689938D01*
X164700403Y-71689936D01*
X164465001Y-71669341D01*
X164464999Y-71669341D01*
X164229596Y-71689936D01*
X164229586Y-71689938D01*
X164001344Y-71751094D01*
X164001335Y-71751098D01*
X163787171Y-71850964D01*
X163787169Y-71850965D01*
X163593600Y-71986503D01*
X163471284Y-72108819D01*
X163409961Y-72142303D01*
X163340269Y-72137319D01*
X163284336Y-72095447D01*
X163267421Y-72064470D01*
X163218354Y-71932913D01*
X163218350Y-71932906D01*
X163132190Y-71817812D01*
X163132187Y-71817809D01*
X163017093Y-71731649D01*
X163017086Y-71731645D01*
X162882379Y-71681403D01*
X162882372Y-71681401D01*
X162822844Y-71675000D01*
X162175000Y-71675000D01*
X162175000Y-72580439D01*
X162121853Y-72549755D01*
X161992143Y-72515000D01*
X161857857Y-72515000D01*
X161728147Y-72549755D01*
X161675000Y-72580439D01*
X161675000Y-71675000D01*
X161027155Y-71675000D01*
X160967627Y-71681401D01*
X160967620Y-71681403D01*
X160832913Y-71731645D01*
X160832906Y-71731649D01*
X160717812Y-71817809D01*
X160717809Y-71817812D01*
X160631649Y-71932906D01*
X160631645Y-71932913D01*
X160582578Y-72064470D01*
X160540707Y-72120404D01*
X160475242Y-72144821D01*
X160406969Y-72129969D01*
X160378715Y-72108819D01*
X160334366Y-72064470D01*
X160256401Y-71986505D01*
X160256397Y-71986502D01*
X160256396Y-71986501D01*
X160062834Y-71850967D01*
X160062830Y-71850965D01*
X159991727Y-71817809D01*
X159848663Y-71751097D01*
X159848659Y-71751096D01*
X159848655Y-71751094D01*
X159620413Y-71689938D01*
X159620403Y-71689936D01*
X159385001Y-71669341D01*
X159384999Y-71669341D01*
X159149590Y-71689937D01*
X159149589Y-71689937D01*
X159049124Y-71716855D01*
X158979274Y-71715191D01*
X158929352Y-71684761D01*
X152257928Y-65013338D01*
X152257925Y-65013334D01*
X152257925Y-65013335D01*
X152250858Y-65006268D01*
X152250858Y-65006267D01*
X152163733Y-64919142D01*
X152163732Y-64919141D01*
X152163731Y-64919140D01*
X152112509Y-64884915D01*
X152061287Y-64850689D01*
X152061286Y-64850688D01*
X152061283Y-64850686D01*
X152061280Y-64850685D01*
X151980792Y-64817347D01*
X151947453Y-64803537D01*
X151937427Y-64801543D01*
X151887029Y-64791518D01*
X151826610Y-64779500D01*
X151826607Y-64779500D01*
X151826606Y-64779500D01*
X148900453Y-64779500D01*
X148833414Y-64759815D01*
X148812772Y-64743181D01*
X147306460Y-63236869D01*
X147272975Y-63175546D01*
X147270823Y-63162168D01*
X147253174Y-62994244D01*
X147194679Y-62814216D01*
X147100033Y-62650284D01*
X146973371Y-62509612D01*
X146893395Y-62451506D01*
X146820234Y-62398351D01*
X146820229Y-62398348D01*
X146647307Y-62321357D01*
X146647302Y-62321355D01*
X146501501Y-62290365D01*
X146462146Y-62282000D01*
X146272854Y-62282000D01*
X146240397Y-62288898D01*
X146087697Y-62321355D01*
X146087692Y-62321357D01*
X145914770Y-62398348D01*
X145914765Y-62398351D01*
X145761629Y-62509611D01*
X145634966Y-62650285D01*
X145540321Y-62814215D01*
X145540318Y-62814222D01*
X145481827Y-62994240D01*
X145481826Y-62994244D01*
X145462040Y-63182500D01*
X145481826Y-63370756D01*
X145481827Y-63370759D01*
X145540318Y-63550777D01*
X145540321Y-63550784D01*
X145634967Y-63714716D01*
X145749842Y-63842297D01*
X145761629Y-63855388D01*
X145914765Y-63966648D01*
X145914770Y-63966651D01*
X146087692Y-64043642D01*
X146087697Y-64043644D01*
X146272854Y-64083000D01*
X146332048Y-64083000D01*
X146399087Y-64102685D01*
X146419729Y-64119319D01*
X148191263Y-65890855D01*
X148191267Y-65890858D01*
X148293710Y-65959309D01*
X148293711Y-65959309D01*
X148293715Y-65959312D01*
X148360396Y-65986931D01*
X148360398Y-65986933D01*
X148407543Y-66006461D01*
X148407548Y-66006463D01*
X148427597Y-66010451D01*
X148461196Y-66017134D01*
X148528392Y-66030501D01*
X148528394Y-66030501D01*
X148657721Y-66030501D01*
X148657741Y-66030500D01*
X151454548Y-66030500D01*
X151521587Y-66050185D01*
X151542229Y-66066819D01*
X156933069Y-71457660D01*
X156966554Y-71518983D01*
X156961570Y-71588675D01*
X156919698Y-71644608D01*
X156854234Y-71669025D01*
X156845388Y-71669341D01*
X156844999Y-71669341D01*
X156609596Y-71689936D01*
X156609586Y-71689938D01*
X156381344Y-71751094D01*
X156381335Y-71751098D01*
X156167171Y-71850964D01*
X156167169Y-71850965D01*
X155973597Y-71986505D01*
X155806505Y-72153597D01*
X155676575Y-72339158D01*
X155621998Y-72382783D01*
X155552500Y-72389977D01*
X155490145Y-72358454D01*
X155473425Y-72339158D01*
X155343494Y-72153597D01*
X155176402Y-71986506D01*
X155176395Y-71986501D01*
X154982834Y-71850967D01*
X154982830Y-71850965D01*
X154911727Y-71817809D01*
X154768663Y-71751097D01*
X154768659Y-71751096D01*
X154768655Y-71751094D01*
X154540413Y-71689938D01*
X154540403Y-71689936D01*
X154305001Y-71669341D01*
X154304999Y-71669341D01*
X154069596Y-71689936D01*
X154069586Y-71689938D01*
X153841344Y-71751094D01*
X153841335Y-71751098D01*
X153627171Y-71850964D01*
X153627169Y-71850965D01*
X153433597Y-71986505D01*
X153266505Y-72153597D01*
X153136575Y-72339158D01*
X153081998Y-72382783D01*
X153012500Y-72389977D01*
X152950145Y-72358454D01*
X152933425Y-72339158D01*
X152803494Y-72153597D01*
X152636402Y-71986506D01*
X152636395Y-71986501D01*
X152442834Y-71850967D01*
X152442830Y-71850965D01*
X152371727Y-71817809D01*
X152228663Y-71751097D01*
X152228659Y-71751096D01*
X152228655Y-71751094D01*
X152000413Y-71689938D01*
X152000403Y-71689936D01*
X151765001Y-71669341D01*
X151764999Y-71669341D01*
X151529596Y-71689936D01*
X151529586Y-71689938D01*
X151301344Y-71751094D01*
X151301335Y-71751098D01*
X151087171Y-71850964D01*
X151087169Y-71850965D01*
X150893600Y-71986503D01*
X150771284Y-72108819D01*
X150709961Y-72142303D01*
X150640269Y-72137319D01*
X150584336Y-72095447D01*
X150567421Y-72064470D01*
X150518354Y-71932913D01*
X150518350Y-71932906D01*
X150432190Y-71817812D01*
X150432187Y-71817809D01*
X150317093Y-71731649D01*
X150317086Y-71731645D01*
X150182379Y-71681403D01*
X150182372Y-71681401D01*
X150122844Y-71675000D01*
X149475000Y-71675000D01*
X149475000Y-72580439D01*
X149421853Y-72549755D01*
X149292143Y-72515000D01*
X149157857Y-72515000D01*
X149028147Y-72549755D01*
X148975000Y-72580439D01*
X148975000Y-71675000D01*
X148327155Y-71675000D01*
X148267627Y-71681401D01*
X148267620Y-71681403D01*
X148132913Y-71731645D01*
X148132906Y-71731649D01*
X148017812Y-71817809D01*
X148017809Y-71817812D01*
X147931649Y-71932906D01*
X147931645Y-71932913D01*
X147882578Y-72064470D01*
X147840707Y-72120404D01*
X147775242Y-72144821D01*
X147706969Y-72129969D01*
X147678715Y-72108819D01*
X147634366Y-72064470D01*
X147556401Y-71986505D01*
X147556397Y-71986502D01*
X147556396Y-71986501D01*
X147362834Y-71850967D01*
X147362830Y-71850965D01*
X147291727Y-71817809D01*
X147148663Y-71751097D01*
X147148659Y-71751096D01*
X147148655Y-71751094D01*
X146920413Y-71689938D01*
X146920403Y-71689936D01*
X146685001Y-71669341D01*
X146684999Y-71669341D01*
X146449596Y-71689936D01*
X146449586Y-71689938D01*
X146221344Y-71751094D01*
X146221335Y-71751098D01*
X146007171Y-71850964D01*
X146007169Y-71850965D01*
X145813597Y-71986505D01*
X145646505Y-72153597D01*
X145516575Y-72339158D01*
X145461998Y-72382783D01*
X145392500Y-72389977D01*
X145330145Y-72358454D01*
X145313425Y-72339158D01*
X145183494Y-72153597D01*
X145016402Y-71986506D01*
X145016395Y-71986501D01*
X144822834Y-71850967D01*
X144822830Y-71850965D01*
X144751727Y-71817809D01*
X144608663Y-71751097D01*
X144608659Y-71751096D01*
X144608655Y-71751094D01*
X144380413Y-71689938D01*
X144380403Y-71689936D01*
X144145001Y-71669341D01*
X144144999Y-71669341D01*
X143909596Y-71689936D01*
X143909586Y-71689938D01*
X143681344Y-71751094D01*
X143681335Y-71751098D01*
X143467171Y-71850964D01*
X143467169Y-71850965D01*
X143273597Y-71986505D01*
X143106505Y-72153597D01*
X142970965Y-72347169D01*
X142970964Y-72347171D01*
X142871098Y-72561335D01*
X142871094Y-72561344D01*
X142809938Y-72789586D01*
X142809936Y-72789596D01*
X142789341Y-73024999D01*
X142789341Y-73025000D01*
X142809936Y-73260403D01*
X142809938Y-73260413D01*
X142871094Y-73488655D01*
X142871096Y-73488659D01*
X142871097Y-73488663D01*
X142951004Y-73660023D01*
X142970965Y-73702830D01*
X142970967Y-73702834D01*
X143079281Y-73857521D01*
X143106505Y-73896401D01*
X143273599Y-74063495D01*
X143350135Y-74117086D01*
X143467165Y-74199032D01*
X143467167Y-74199033D01*
X143467170Y-74199035D01*
X143681337Y-74298903D01*
X143909592Y-74360063D01*
X144080319Y-74375000D01*
X144144999Y-74380659D01*
X144145000Y-74380659D01*
X144145001Y-74380659D01*
X144209681Y-74375000D01*
X144380408Y-74360063D01*
X144608663Y-74298903D01*
X144822830Y-74199035D01*
X145016401Y-74063495D01*
X145183495Y-73896401D01*
X145313425Y-73710842D01*
X145368002Y-73667217D01*
X145437500Y-73660023D01*
X145499855Y-73691546D01*
X145516575Y-73710842D01*
X145646500Y-73896395D01*
X145646505Y-73896401D01*
X145813599Y-74063495D01*
X145890135Y-74117086D01*
X146007165Y-74199032D01*
X146007167Y-74199033D01*
X146007170Y-74199035D01*
X146221337Y-74298903D01*
X146449592Y-74360063D01*
X146620319Y-74375000D01*
X146684999Y-74380659D01*
X146685000Y-74380659D01*
X146685001Y-74380659D01*
X146749681Y-74375000D01*
X146920408Y-74360063D01*
X147148663Y-74298903D01*
X147362830Y-74199035D01*
X147556401Y-74063495D01*
X147678717Y-73941178D01*
X147740036Y-73907696D01*
X147809728Y-73912680D01*
X147865662Y-73954551D01*
X147882577Y-73985528D01*
X147931646Y-74117088D01*
X147931649Y-74117093D01*
X148017809Y-74232187D01*
X148017812Y-74232190D01*
X148132906Y-74318350D01*
X148132913Y-74318354D01*
X148267620Y-74368596D01*
X148267627Y-74368598D01*
X148327155Y-74374999D01*
X148327172Y-74375000D01*
X148975000Y-74375000D01*
X148975000Y-73469560D01*
X149028147Y-73500245D01*
X149157857Y-73535000D01*
X149292143Y-73535000D01*
X149421853Y-73500245D01*
X149475000Y-73469560D01*
X149475000Y-74375000D01*
X150122828Y-74375000D01*
X150122844Y-74374999D01*
X150182372Y-74368598D01*
X150182379Y-74368596D01*
X150317086Y-74318354D01*
X150317093Y-74318350D01*
X150432187Y-74232190D01*
X150432190Y-74232187D01*
X150518350Y-74117093D01*
X150518354Y-74117086D01*
X150567422Y-73985529D01*
X150609293Y-73929595D01*
X150674757Y-73905178D01*
X150743030Y-73920030D01*
X150771285Y-73941181D01*
X150893599Y-74063495D01*
X150970135Y-74117086D01*
X151087165Y-74199032D01*
X151087167Y-74199033D01*
X151087170Y-74199035D01*
X151301337Y-74298903D01*
X151529592Y-74360063D01*
X151700319Y-74375000D01*
X151764999Y-74380659D01*
X151765000Y-74380659D01*
X151765001Y-74380659D01*
X151829681Y-74375000D01*
X152000408Y-74360063D01*
X152228663Y-74298903D01*
X152442830Y-74199035D01*
X152636401Y-74063495D01*
X152803495Y-73896401D01*
X152933425Y-73710842D01*
X152988002Y-73667217D01*
X153057500Y-73660023D01*
X153119855Y-73691546D01*
X153136575Y-73710842D01*
X153266500Y-73896395D01*
X153266505Y-73896401D01*
X153433599Y-74063495D01*
X153510135Y-74117086D01*
X153627165Y-74199032D01*
X153627167Y-74199033D01*
X153627170Y-74199035D01*
X153841337Y-74298903D01*
X154069592Y-74360063D01*
X154240319Y-74375000D01*
X154304999Y-74380659D01*
X154305000Y-74380659D01*
X154305001Y-74380659D01*
X154369681Y-74375000D01*
X154540408Y-74360063D01*
X154768663Y-74298903D01*
X154982830Y-74199035D01*
X155176401Y-74063495D01*
X155343495Y-73896401D01*
X155473425Y-73710842D01*
X155528002Y-73667217D01*
X155597500Y-73660023D01*
X155659855Y-73691546D01*
X155676575Y-73710842D01*
X155806500Y-73896395D01*
X155806505Y-73896401D01*
X155973599Y-74063495D01*
X156050135Y-74117086D01*
X156167165Y-74199032D01*
X156167167Y-74199033D01*
X156167170Y-74199035D01*
X156381337Y-74298903D01*
X156609592Y-74360063D01*
X156780319Y-74375000D01*
X156844999Y-74380659D01*
X156845000Y-74380659D01*
X156845001Y-74380659D01*
X156909681Y-74375000D01*
X157080408Y-74360063D01*
X157308663Y-74298903D01*
X157522830Y-74199035D01*
X157716401Y-74063495D01*
X157883495Y-73896401D01*
X158013425Y-73710842D01*
X158068002Y-73667217D01*
X158137500Y-73660023D01*
X158199855Y-73691546D01*
X158216575Y-73710842D01*
X158346500Y-73896395D01*
X158346505Y-73896401D01*
X158513599Y-74063495D01*
X158590135Y-74117086D01*
X158707165Y-74199032D01*
X158707167Y-74199033D01*
X158707170Y-74199035D01*
X158921337Y-74298903D01*
X159149592Y-74360063D01*
X159320319Y-74375000D01*
X159384999Y-74380659D01*
X159385000Y-74380659D01*
X159385001Y-74380659D01*
X159449681Y-74375000D01*
X159620408Y-74360063D01*
X159848663Y-74298903D01*
X160062830Y-74199035D01*
X160256401Y-74063495D01*
X160378717Y-73941178D01*
X160440036Y-73907696D01*
X160509728Y-73912680D01*
X160565662Y-73954551D01*
X160582577Y-73985528D01*
X160631646Y-74117088D01*
X160631649Y-74117093D01*
X160717809Y-74232187D01*
X160717812Y-74232190D01*
X160832906Y-74318350D01*
X160832913Y-74318354D01*
X160967620Y-74368596D01*
X160967627Y-74368598D01*
X161027155Y-74374999D01*
X161027172Y-74375000D01*
X161675000Y-74375000D01*
X161675000Y-73469560D01*
X161728147Y-73500245D01*
X161857857Y-73535000D01*
X161992143Y-73535000D01*
X162121853Y-73500245D01*
X162175000Y-73469560D01*
X162175000Y-74375000D01*
X162822828Y-74375000D01*
X162822844Y-74374999D01*
X162882372Y-74368598D01*
X162882379Y-74368596D01*
X163017086Y-74318354D01*
X163017093Y-74318350D01*
X163132187Y-74232190D01*
X163132190Y-74232187D01*
X163218350Y-74117093D01*
X163218354Y-74117086D01*
X163267422Y-73985529D01*
X163309293Y-73929595D01*
X163374757Y-73905178D01*
X163443030Y-73920030D01*
X163471285Y-73941181D01*
X163593599Y-74063495D01*
X163670135Y-74117086D01*
X163787165Y-74199032D01*
X163787167Y-74199033D01*
X163787170Y-74199035D01*
X164001337Y-74298903D01*
X164229592Y-74360063D01*
X164400319Y-74375000D01*
X164464999Y-74380659D01*
X164465000Y-74380659D01*
X164465001Y-74380659D01*
X164529681Y-74375000D01*
X164700408Y-74360063D01*
X164928663Y-74298903D01*
X165142830Y-74199035D01*
X165336401Y-74063495D01*
X165503495Y-73896401D01*
X165633425Y-73710842D01*
X165688002Y-73667217D01*
X165757500Y-73660023D01*
X165819855Y-73691546D01*
X165836575Y-73710842D01*
X165966500Y-73896395D01*
X165966505Y-73896401D01*
X166133599Y-74063495D01*
X166210135Y-74117086D01*
X166327165Y-74199032D01*
X166327167Y-74199033D01*
X166327170Y-74199035D01*
X166541337Y-74298903D01*
X166769592Y-74360063D01*
X166940319Y-74375000D01*
X167004999Y-74380659D01*
X167005000Y-74380659D01*
X167005001Y-74380659D01*
X167069681Y-74375000D01*
X167240408Y-74360063D01*
X167468663Y-74298903D01*
X167682830Y-74199035D01*
X167876401Y-74063495D01*
X168043495Y-73896401D01*
X168173425Y-73710842D01*
X168228002Y-73667217D01*
X168297500Y-73660023D01*
X168359855Y-73691546D01*
X168376575Y-73710842D01*
X168506500Y-73896395D01*
X168506505Y-73896401D01*
X168673599Y-74063495D01*
X168750135Y-74117086D01*
X168867165Y-74199032D01*
X168867167Y-74199033D01*
X168867170Y-74199035D01*
X169081337Y-74298903D01*
X169309592Y-74360063D01*
X169480319Y-74375000D01*
X169544999Y-74380659D01*
X169545388Y-74380659D01*
X169545553Y-74380707D01*
X169550394Y-74381131D01*
X169550308Y-74382103D01*
X169612427Y-74400344D01*
X169658182Y-74453148D01*
X169668126Y-74522306D01*
X169639101Y-74585862D01*
X169633069Y-74592340D01*
X154994144Y-89231264D01*
X154994138Y-89231272D01*
X154925691Y-89333706D01*
X154925688Y-89333714D01*
X154909037Y-89373914D01*
X154901621Y-89391818D01*
X154878026Y-89448782D01*
X154834185Y-89503185D01*
X154767891Y-89525250D01*
X154731372Y-89521104D01*
X154540413Y-89469938D01*
X154540403Y-89469936D01*
X154305001Y-89449341D01*
X154304999Y-89449341D01*
X154069596Y-89469936D01*
X154069586Y-89469938D01*
X153841344Y-89531094D01*
X153841335Y-89531098D01*
X153627171Y-89630964D01*
X153627169Y-89630965D01*
X153433597Y-89766505D01*
X153266505Y-89933597D01*
X153136575Y-90119158D01*
X153081998Y-90162783D01*
X153012500Y-90169977D01*
X152950145Y-90138454D01*
X152933425Y-90119158D01*
X152803494Y-89933597D01*
X152636402Y-89766506D01*
X152636395Y-89766501D01*
X152442834Y-89630967D01*
X152442830Y-89630965D01*
X152330889Y-89578766D01*
X152228663Y-89531097D01*
X152228659Y-89531096D01*
X152228655Y-89531094D01*
X152000413Y-89469938D01*
X152000403Y-89469936D01*
X151765001Y-89449341D01*
X151764999Y-89449341D01*
X151529596Y-89469936D01*
X151529586Y-89469938D01*
X151301344Y-89531094D01*
X151301335Y-89531098D01*
X151087171Y-89630964D01*
X151087169Y-89630965D01*
X150893600Y-89766503D01*
X150771284Y-89888819D01*
X150709961Y-89922303D01*
X150640269Y-89917319D01*
X150584336Y-89875447D01*
X150567421Y-89844470D01*
X150518354Y-89712913D01*
X150518350Y-89712906D01*
X150432190Y-89597812D01*
X150432187Y-89597809D01*
X150317093Y-89511649D01*
X150317086Y-89511645D01*
X150182379Y-89461403D01*
X150182372Y-89461401D01*
X150122844Y-89455000D01*
X149475000Y-89455000D01*
X149475000Y-90360439D01*
X149421853Y-90329755D01*
X149292143Y-90295000D01*
X149157857Y-90295000D01*
X149028147Y-90329755D01*
X148975000Y-90360439D01*
X148975000Y-89455000D01*
X148327155Y-89455000D01*
X148267627Y-89461401D01*
X148267620Y-89461403D01*
X148132913Y-89511645D01*
X148132906Y-89511649D01*
X148017812Y-89597809D01*
X148017809Y-89597812D01*
X147931649Y-89712906D01*
X147931645Y-89712913D01*
X147882578Y-89844470D01*
X147840707Y-89900404D01*
X147775242Y-89924821D01*
X147706969Y-89909969D01*
X147678715Y-89888819D01*
X147620129Y-89830233D01*
X147556401Y-89766505D01*
X147556397Y-89766502D01*
X147556396Y-89766501D01*
X147362834Y-89630967D01*
X147362830Y-89630965D01*
X147250889Y-89578766D01*
X147148663Y-89531097D01*
X147148659Y-89531096D01*
X147148655Y-89531094D01*
X146920413Y-89469938D01*
X146920403Y-89469936D01*
X146685001Y-89449341D01*
X146684999Y-89449341D01*
X146449596Y-89469936D01*
X146449586Y-89469938D01*
X146221344Y-89531094D01*
X146221335Y-89531098D01*
X146007171Y-89630964D01*
X146007169Y-89630965D01*
X145813597Y-89766505D01*
X145646505Y-89933597D01*
X145516575Y-90119158D01*
X145461998Y-90162783D01*
X145392500Y-90169977D01*
X145330145Y-90138454D01*
X145313425Y-90119158D01*
X145183494Y-89933597D01*
X145016402Y-89766506D01*
X145016395Y-89766501D01*
X144822834Y-89630967D01*
X144822830Y-89630965D01*
X144710889Y-89578766D01*
X144608663Y-89531097D01*
X144608659Y-89531096D01*
X144608655Y-89531094D01*
X144380413Y-89469938D01*
X144380403Y-89469936D01*
X144145001Y-89449341D01*
X144144999Y-89449341D01*
X143909596Y-89469936D01*
X143909586Y-89469938D01*
X143681344Y-89531094D01*
X143681335Y-89531098D01*
X143467171Y-89630964D01*
X143467169Y-89630965D01*
X143273597Y-89766505D01*
X143106505Y-89933597D01*
X142970965Y-90127169D01*
X142970964Y-90127171D01*
X142871098Y-90341335D01*
X142871094Y-90341344D01*
X142809938Y-90569586D01*
X142809936Y-90569596D01*
X142789341Y-90804999D01*
X142789341Y-90805000D01*
X142240000Y-90805000D01*
X142240000Y-84640006D01*
X142869700Y-84640006D01*
X142888864Y-84871297D01*
X142888866Y-84871308D01*
X142945842Y-85096300D01*
X143039075Y-85308848D01*
X143166016Y-85503147D01*
X143166019Y-85503151D01*
X143166021Y-85503153D01*
X143323216Y-85673913D01*
X143323219Y-85673915D01*
X143323222Y-85673918D01*
X143506365Y-85816464D01*
X143506371Y-85816468D01*
X143506374Y-85816470D01*
X143710497Y-85926936D01*
X143810500Y-85961267D01*
X143930015Y-86002297D01*
X143930017Y-86002297D01*
X143930019Y-86002298D01*
X144158951Y-86040500D01*
X144158952Y-86040500D01*
X144391048Y-86040500D01*
X144391049Y-86040500D01*
X144619981Y-86002298D01*
X144839503Y-85926936D01*
X145043626Y-85816470D01*
X145057478Y-85805689D01*
X145148941Y-85734500D01*
X145226784Y-85673913D01*
X145383979Y-85503153D01*
X145510924Y-85308849D01*
X145604157Y-85096300D01*
X145661134Y-84871305D01*
X145661135Y-84871297D01*
X145680300Y-84640006D01*
X145680300Y-84639993D01*
X145661135Y-84408702D01*
X145661133Y-84408691D01*
X145643738Y-84340002D01*
X146049723Y-84340002D01*
X146068793Y-84557975D01*
X146068793Y-84557979D01*
X146125422Y-84769322D01*
X146125424Y-84769326D01*
X146125425Y-84769330D01*
X146167002Y-84858493D01*
X146217897Y-84967638D01*
X146236381Y-84994035D01*
X146343402Y-85146877D01*
X146498123Y-85301598D01*
X146677361Y-85427102D01*
X146875670Y-85519575D01*
X147087023Y-85576207D01*
X147269926Y-85592208D01*
X147304998Y-85595277D01*
X147305000Y-85595277D01*
X147305002Y-85595277D01*
X147333254Y-85592805D01*
X147522977Y-85576207D01*
X147734330Y-85519575D01*
X147932639Y-85427102D01*
X148111877Y-85301598D01*
X148266598Y-85146877D01*
X148392102Y-84967639D01*
X148484575Y-84769330D01*
X148541207Y-84557977D01*
X148560277Y-84340000D01*
X148541207Y-84122023D01*
X148484575Y-83910670D01*
X148392102Y-83712362D01*
X148392100Y-83712359D01*
X148392099Y-83712357D01*
X148266599Y-83533124D01*
X148194759Y-83461284D01*
X148111877Y-83378402D01*
X147932639Y-83252898D01*
X147932640Y-83252898D01*
X147932638Y-83252897D01*
X147778661Y-83181097D01*
X147734330Y-83160425D01*
X147734326Y-83160424D01*
X147734322Y-83160422D01*
X147522977Y-83103793D01*
X147305002Y-83084723D01*
X147304998Y-83084723D01*
X147159682Y-83097436D01*
X147087023Y-83103793D01*
X147087020Y-83103793D01*
X146875677Y-83160422D01*
X146875668Y-83160426D01*
X146677361Y-83252898D01*
X146677357Y-83252900D01*
X146498121Y-83378402D01*
X146343402Y-83533121D01*
X146217900Y-83712357D01*
X146217898Y-83712361D01*
X146125426Y-83910668D01*
X146125422Y-83910677D01*
X146068793Y-84122020D01*
X146068793Y-84122024D01*
X146049723Y-84339997D01*
X146049723Y-84340002D01*
X145643738Y-84340002D01*
X145604157Y-84183699D01*
X145510924Y-83971151D01*
X145383983Y-83776852D01*
X145383980Y-83776849D01*
X145383979Y-83776847D01*
X145226784Y-83606087D01*
X145226779Y-83606083D01*
X145226777Y-83606081D01*
X145043634Y-83463535D01*
X145043628Y-83463531D01*
X144839504Y-83353064D01*
X144839495Y-83353061D01*
X144619984Y-83277702D01*
X144448282Y-83249050D01*
X144391049Y-83239500D01*
X144158951Y-83239500D01*
X144113164Y-83247140D01*
X143930015Y-83277702D01*
X143710504Y-83353061D01*
X143710495Y-83353064D01*
X143506371Y-83463531D01*
X143506365Y-83463535D01*
X143323222Y-83606081D01*
X143323219Y-83606084D01*
X143166016Y-83776852D01*
X143039075Y-83971151D01*
X142945842Y-84183699D01*
X142888866Y-84408691D01*
X142888864Y-84408702D01*
X142869700Y-84639993D01*
X142869700Y-84640006D01*
X142240000Y-84640006D01*
X142240000Y-79190006D01*
X142869700Y-79190006D01*
X142888864Y-79421297D01*
X142888866Y-79421308D01*
X142945842Y-79646300D01*
X143039075Y-79858848D01*
X143166016Y-80053147D01*
X143166019Y-80053151D01*
X143166021Y-80053153D01*
X143323216Y-80223913D01*
X143323219Y-80223915D01*
X143323222Y-80223918D01*
X143506365Y-80366464D01*
X143506371Y-80366468D01*
X143506374Y-80366470D01*
X143710497Y-80476936D01*
X143776891Y-80499729D01*
X143930015Y-80552297D01*
X143930017Y-80552297D01*
X143930019Y-80552298D01*
X144158951Y-80590500D01*
X144158952Y-80590500D01*
X144391048Y-80590500D01*
X144391049Y-80590500D01*
X144619981Y-80552298D01*
X144839503Y-80476936D01*
X145043626Y-80366470D01*
X145226784Y-80223913D01*
X145383979Y-80053153D01*
X145510924Y-79858849D01*
X145604157Y-79646300D01*
X145643738Y-79490000D01*
X146049723Y-79490000D01*
X146060257Y-79610413D01*
X146068793Y-79707975D01*
X146068793Y-79707979D01*
X146125422Y-79919322D01*
X146125424Y-79919326D01*
X146125425Y-79919330D01*
X146139217Y-79948906D01*
X146217897Y-80117638D01*
X146217898Y-80117639D01*
X146343402Y-80296877D01*
X146498123Y-80451598D01*
X146677361Y-80577102D01*
X146875670Y-80669575D01*
X147087023Y-80726207D01*
X147269926Y-80742208D01*
X147304998Y-80745277D01*
X147305000Y-80745277D01*
X147305002Y-80745277D01*
X147333254Y-80742805D01*
X147522977Y-80726207D01*
X147734330Y-80669575D01*
X147932639Y-80577102D01*
X148111877Y-80451598D01*
X148266598Y-80296877D01*
X148392102Y-80117639D01*
X148484575Y-79919330D01*
X148541207Y-79707977D01*
X148560277Y-79490000D01*
X148541207Y-79272023D01*
X148484575Y-79060670D01*
X148392102Y-78862362D01*
X148392100Y-78862359D01*
X148392099Y-78862357D01*
X148266599Y-78683124D01*
X148257649Y-78674174D01*
X148111877Y-78528402D01*
X147932639Y-78402898D01*
X147932640Y-78402898D01*
X147932638Y-78402897D01*
X147797541Y-78339901D01*
X147734330Y-78310425D01*
X147734326Y-78310424D01*
X147734322Y-78310422D01*
X147522977Y-78253793D01*
X147305002Y-78234723D01*
X147304998Y-78234723D01*
X147159682Y-78247436D01*
X147087023Y-78253793D01*
X147087020Y-78253793D01*
X146875677Y-78310422D01*
X146875668Y-78310426D01*
X146677361Y-78402898D01*
X146677357Y-78402900D01*
X146498121Y-78528402D01*
X146343402Y-78683121D01*
X146217900Y-78862357D01*
X146217898Y-78862361D01*
X146125426Y-79060668D01*
X146125422Y-79060677D01*
X146068793Y-79272020D01*
X146068793Y-79272024D01*
X146055733Y-79421308D01*
X146049723Y-79490000D01*
X145643738Y-79490000D01*
X145661134Y-79421305D01*
X145664971Y-79374999D01*
X145680300Y-79190006D01*
X145680300Y-79189993D01*
X145661135Y-78958702D01*
X145661133Y-78958691D01*
X145604157Y-78733699D01*
X145510924Y-78521151D01*
X145383983Y-78326852D01*
X145383980Y-78326849D01*
X145383979Y-78326847D01*
X145226784Y-78156087D01*
X145226779Y-78156083D01*
X145226777Y-78156081D01*
X145043634Y-78013535D01*
X145043628Y-78013531D01*
X144839504Y-77903064D01*
X144839495Y-77903061D01*
X144619984Y-77827702D01*
X144448282Y-77799050D01*
X144391049Y-77789500D01*
X144158951Y-77789500D01*
X144113164Y-77797140D01*
X143930015Y-77827702D01*
X143710504Y-77903061D01*
X143710495Y-77903064D01*
X143506371Y-78013531D01*
X143506365Y-78013535D01*
X143323222Y-78156081D01*
X143323219Y-78156084D01*
X143166016Y-78326852D01*
X143039075Y-78521151D01*
X142945842Y-78733699D01*
X142888866Y-78958691D01*
X142888864Y-78958702D01*
X142869700Y-79189993D01*
X142869700Y-79190006D01*
X142240000Y-79190006D01*
X142240000Y-45720000D01*
X146414540Y-45720000D01*
X146434326Y-45908256D01*
X146434327Y-45908259D01*
X146492818Y-46088277D01*
X146492821Y-46088284D01*
X146587467Y-46252216D01*
X146714129Y-46392888D01*
X146867265Y-46504148D01*
X146867270Y-46504151D01*
X147040192Y-46581142D01*
X147040197Y-46581144D01*
X147225354Y-46620500D01*
X147284548Y-46620500D01*
X147351587Y-46640185D01*
X147372229Y-46656819D01*
X153906263Y-53190855D01*
X153906267Y-53190858D01*
X154008708Y-53259308D01*
X154008715Y-53259312D01*
X154072504Y-53285734D01*
X154122548Y-53306463D01*
X154243389Y-53330499D01*
X154243393Y-53330500D01*
X154243394Y-53330500D01*
X158210548Y-53330500D01*
X158277587Y-53350185D01*
X158323342Y-53402989D01*
X158333286Y-53472147D01*
X158304261Y-53535703D01*
X158298229Y-53542180D01*
X156265862Y-55574547D01*
X155176270Y-56664139D01*
X154992228Y-56848181D01*
X154930905Y-56881666D01*
X154904547Y-56884500D01*
X154845354Y-56884500D01*
X154812897Y-56891398D01*
X154660197Y-56923855D01*
X154660192Y-56923857D01*
X154487270Y-57000848D01*
X154487265Y-57000851D01*
X154334129Y-57112111D01*
X154207466Y-57252785D01*
X154112821Y-57416715D01*
X154112818Y-57416722D01*
X154054327Y-57596740D01*
X154054326Y-57596744D01*
X154034540Y-57785000D01*
X154054326Y-57973256D01*
X154054327Y-57973259D01*
X154112818Y-58153277D01*
X154112821Y-58153284D01*
X154207467Y-58317216D01*
X154334129Y-58457888D01*
X154487265Y-58569148D01*
X154487270Y-58569151D01*
X154660192Y-58646142D01*
X154660197Y-58646144D01*
X154845354Y-58685500D01*
X154845355Y-58685500D01*
X155034644Y-58685500D01*
X155034646Y-58685500D01*
X155219803Y-58646144D01*
X155392730Y-58569151D01*
X155545871Y-58457888D01*
X155672533Y-58317216D01*
X155767179Y-58153284D01*
X155825674Y-57973256D01*
X155843321Y-57805344D01*
X155869904Y-57740734D01*
X155878941Y-57730648D01*
X156060858Y-57548733D01*
X156060860Y-57548729D01*
X159967771Y-53641819D01*
X160029094Y-53608334D01*
X160055452Y-53605500D01*
X160114644Y-53605500D01*
X160114646Y-53605500D01*
X160299803Y-53566144D01*
X160472730Y-53489151D01*
X160625871Y-53377888D01*
X160752533Y-53237216D01*
X160847179Y-53073284D01*
X160905674Y-52893256D01*
X160925460Y-52705000D01*
X160905674Y-52516744D01*
X160847179Y-52336716D01*
X160752533Y-52172784D01*
X160625871Y-52032112D01*
X160625870Y-52032111D01*
X160472734Y-51920851D01*
X160472729Y-51920848D01*
X160299807Y-51843857D01*
X160299802Y-51843855D01*
X160150952Y-51812217D01*
X160114646Y-51804500D01*
X159925354Y-51804500D01*
X159892897Y-51811398D01*
X159740197Y-51843855D01*
X159740192Y-51843857D01*
X159567270Y-51920848D01*
X159567265Y-51920851D01*
X159414130Y-52032110D01*
X159414126Y-52032114D01*
X159408400Y-52038474D01*
X159348913Y-52075121D01*
X159316252Y-52079500D01*
X154615453Y-52079500D01*
X154548414Y-52059815D01*
X154527772Y-52043181D01*
X148258960Y-45774370D01*
X148225475Y-45713047D01*
X148223323Y-45699668D01*
X148215294Y-45623276D01*
X148227864Y-45554548D01*
X148275597Y-45503525D01*
X148343337Y-45486408D01*
X148409578Y-45508631D01*
X148418545Y-45515517D01*
X148568157Y-45641659D01*
X148568158Y-45641660D01*
X148770024Y-45760120D01*
X148989012Y-45842762D01*
X149218809Y-45887205D01*
X149271382Y-45889998D01*
X149271421Y-45889999D01*
X149989999Y-45889999D01*
X149990000Y-45889998D01*
X149990000Y-45073012D01*
X150047007Y-45105925D01*
X150174174Y-45140000D01*
X150305826Y-45140000D01*
X150432993Y-45105925D01*
X150490000Y-45073012D01*
X150490000Y-45889999D01*
X151208576Y-45889999D01*
X151208588Y-45889998D01*
X151261191Y-45887205D01*
X151490987Y-45842762D01*
X151709975Y-45760120D01*
X151911841Y-45641660D01*
X151911848Y-45641655D01*
X152090786Y-45490788D01*
X152090788Y-45490786D01*
X152241655Y-45311848D01*
X152241660Y-45311841D01*
X152360120Y-45109975D01*
X152442762Y-44890986D01*
X152443756Y-44885851D01*
X152475811Y-44823769D01*
X152536342Y-44788872D01*
X152606130Y-44792240D01*
X152663019Y-44832805D01*
X152688946Y-44897686D01*
X152689500Y-44909395D01*
X152689500Y-48437870D01*
X152689501Y-48437876D01*
X152695908Y-48497483D01*
X152746202Y-48632328D01*
X152746206Y-48632335D01*
X152832452Y-48747544D01*
X152832455Y-48747547D01*
X152947664Y-48833793D01*
X152947671Y-48833797D01*
X153082517Y-48884091D01*
X153082516Y-48884091D01*
X153089444Y-48884835D01*
X153142127Y-48890500D01*
X156737872Y-48890499D01*
X156797483Y-48884091D01*
X156932331Y-48833796D01*
X157047546Y-48747546D01*
X157133796Y-48632331D01*
X157184091Y-48497483D01*
X157190500Y-48437873D01*
X157190499Y-44842128D01*
X157184091Y-44782517D01*
X157181980Y-44776858D01*
X157133797Y-44647671D01*
X157133793Y-44647664D01*
X157047547Y-44532455D01*
X157047544Y-44532452D01*
X156934523Y-44447844D01*
X175175000Y-44447844D01*
X175181401Y-44507372D01*
X175181403Y-44507379D01*
X175231645Y-44642086D01*
X175231649Y-44642093D01*
X175317809Y-44757187D01*
X175317812Y-44757190D01*
X175432906Y-44843350D01*
X175432913Y-44843354D01*
X175567620Y-44893596D01*
X175567627Y-44893598D01*
X175627155Y-44899999D01*
X175627172Y-44900000D01*
X176275000Y-44900000D01*
X176275000Y-43983012D01*
X176332007Y-44015925D01*
X176459174Y-44050000D01*
X176590826Y-44050000D01*
X176717993Y-44015925D01*
X176775000Y-43983012D01*
X176775000Y-44900000D01*
X177422828Y-44900000D01*
X177422844Y-44899999D01*
X177482372Y-44893598D01*
X177482379Y-44893596D01*
X177617086Y-44843354D01*
X177617093Y-44843350D01*
X177732187Y-44757190D01*
X177732190Y-44757187D01*
X177818350Y-44642093D01*
X177818354Y-44642086D01*
X177867422Y-44510529D01*
X177909293Y-44454595D01*
X177974757Y-44430178D01*
X178043030Y-44445030D01*
X178071285Y-44466181D01*
X178193599Y-44588495D01*
X178270135Y-44642086D01*
X178387165Y-44724032D01*
X178387167Y-44724033D01*
X178387170Y-44724035D01*
X178601337Y-44823903D01*
X178829592Y-44885063D01*
X179000319Y-44900000D01*
X179064999Y-44905659D01*
X179065000Y-44905659D01*
X179065001Y-44905659D01*
X179129681Y-44900000D01*
X179300408Y-44885063D01*
X179528663Y-44823903D01*
X179742830Y-44724035D01*
X179936401Y-44588495D01*
X180103495Y-44421401D01*
X180233425Y-44235842D01*
X180288002Y-44192217D01*
X180357500Y-44185023D01*
X180419855Y-44216546D01*
X180436575Y-44235842D01*
X180566500Y-44421395D01*
X180566505Y-44421401D01*
X180733599Y-44588495D01*
X180810135Y-44642086D01*
X180927165Y-44724032D01*
X180927167Y-44724033D01*
X180927170Y-44724035D01*
X181141337Y-44823903D01*
X181369592Y-44885063D01*
X181540319Y-44900000D01*
X181604999Y-44905659D01*
X181605000Y-44905659D01*
X181605001Y-44905659D01*
X181669681Y-44900000D01*
X181840408Y-44885063D01*
X182068663Y-44823903D01*
X182282830Y-44724035D01*
X182476401Y-44588495D01*
X182643495Y-44421401D01*
X182773425Y-44235842D01*
X182828002Y-44192217D01*
X182897500Y-44185023D01*
X182959855Y-44216546D01*
X182976575Y-44235842D01*
X183106500Y-44421395D01*
X183106505Y-44421401D01*
X183273599Y-44588495D01*
X183350135Y-44642086D01*
X183467165Y-44724032D01*
X183467167Y-44724033D01*
X183467170Y-44724035D01*
X183681337Y-44823903D01*
X183909592Y-44885063D01*
X184080319Y-44900000D01*
X184144999Y-44905659D01*
X184145000Y-44905659D01*
X184145001Y-44905659D01*
X184209681Y-44900000D01*
X184380408Y-44885063D01*
X184608663Y-44823903D01*
X184822830Y-44724035D01*
X185016401Y-44588495D01*
X185183495Y-44421401D01*
X185313425Y-44235842D01*
X185368002Y-44192217D01*
X185437500Y-44185023D01*
X185499855Y-44216546D01*
X185516575Y-44235842D01*
X185646500Y-44421395D01*
X185646505Y-44421401D01*
X185813599Y-44588495D01*
X185890135Y-44642086D01*
X186007165Y-44724032D01*
X186007167Y-44724033D01*
X186007170Y-44724035D01*
X186221337Y-44823903D01*
X186449592Y-44885063D01*
X186620319Y-44900000D01*
X186684999Y-44905659D01*
X186685000Y-44905659D01*
X186685001Y-44905659D01*
X186749681Y-44900000D01*
X186920408Y-44885063D01*
X187148663Y-44823903D01*
X187362830Y-44724035D01*
X187556401Y-44588495D01*
X187723495Y-44421401D01*
X187853425Y-44235842D01*
X187908002Y-44192217D01*
X187977500Y-44185023D01*
X188039855Y-44216546D01*
X188056575Y-44235842D01*
X188186500Y-44421395D01*
X188186505Y-44421401D01*
X188353599Y-44588495D01*
X188430135Y-44642086D01*
X188547165Y-44724032D01*
X188547167Y-44724033D01*
X188547170Y-44724035D01*
X188761337Y-44823903D01*
X188989592Y-44885063D01*
X189160319Y-44900000D01*
X189224999Y-44905659D01*
X189225000Y-44905659D01*
X189225001Y-44905659D01*
X189289681Y-44900000D01*
X189460408Y-44885063D01*
X189688663Y-44823903D01*
X189902830Y-44724035D01*
X190096401Y-44588495D01*
X190263495Y-44421401D01*
X190393425Y-44235842D01*
X190448002Y-44192217D01*
X190517500Y-44185023D01*
X190579855Y-44216546D01*
X190596575Y-44235842D01*
X190726500Y-44421395D01*
X190726505Y-44421401D01*
X190893599Y-44588495D01*
X190970135Y-44642086D01*
X191087165Y-44724032D01*
X191087167Y-44724033D01*
X191087170Y-44724035D01*
X191301337Y-44823903D01*
X191529592Y-44885063D01*
X191700319Y-44900000D01*
X191764999Y-44905659D01*
X191765000Y-44905659D01*
X191765001Y-44905659D01*
X191829681Y-44900000D01*
X192000408Y-44885063D01*
X192228663Y-44823903D01*
X192442830Y-44724035D01*
X192636401Y-44588495D01*
X192777052Y-44447844D01*
X196765000Y-44447844D01*
X196771401Y-44507372D01*
X196771403Y-44507379D01*
X196821645Y-44642086D01*
X196821649Y-44642093D01*
X196907809Y-44757187D01*
X196907812Y-44757190D01*
X197022906Y-44843350D01*
X197022913Y-44843354D01*
X197157620Y-44893596D01*
X197157627Y-44893598D01*
X197217155Y-44899999D01*
X197217172Y-44900000D01*
X197865000Y-44900000D01*
X197865000Y-43983012D01*
X197922007Y-44015925D01*
X198049174Y-44050000D01*
X198180826Y-44050000D01*
X198307993Y-44015925D01*
X198365000Y-43983012D01*
X198365000Y-44900000D01*
X199012828Y-44900000D01*
X199012844Y-44899999D01*
X199072372Y-44893598D01*
X199072379Y-44893596D01*
X199207086Y-44843354D01*
X199207093Y-44843350D01*
X199322187Y-44757190D01*
X199322190Y-44757187D01*
X199408350Y-44642093D01*
X199408354Y-44642086D01*
X199457422Y-44510529D01*
X199499293Y-44454595D01*
X199564757Y-44430178D01*
X199633030Y-44445030D01*
X199661285Y-44466181D01*
X199783599Y-44588495D01*
X199860135Y-44642086D01*
X199977165Y-44724032D01*
X199977167Y-44724033D01*
X199977170Y-44724035D01*
X200191337Y-44823903D01*
X200419592Y-44885063D01*
X200590319Y-44900000D01*
X200654999Y-44905659D01*
X200655000Y-44905659D01*
X200655001Y-44905659D01*
X200719681Y-44900000D01*
X200890408Y-44885063D01*
X201118663Y-44823903D01*
X201332830Y-44724035D01*
X201526401Y-44588495D01*
X201693495Y-44421401D01*
X201823425Y-44235842D01*
X201878002Y-44192217D01*
X201947500Y-44185023D01*
X202009855Y-44216546D01*
X202026575Y-44235842D01*
X202156500Y-44421395D01*
X202156505Y-44421401D01*
X202323599Y-44588495D01*
X202400135Y-44642086D01*
X202517165Y-44724032D01*
X202517167Y-44724033D01*
X202517170Y-44724035D01*
X202731337Y-44823903D01*
X202959592Y-44885063D01*
X203130319Y-44900000D01*
X203194999Y-44905659D01*
X203195000Y-44905659D01*
X203195001Y-44905659D01*
X203259681Y-44900000D01*
X203430408Y-44885063D01*
X203658663Y-44823903D01*
X203872830Y-44724035D01*
X204066401Y-44588495D01*
X204233495Y-44421401D01*
X204363425Y-44235842D01*
X204418002Y-44192217D01*
X204487500Y-44185023D01*
X204549855Y-44216546D01*
X204566575Y-44235842D01*
X204696500Y-44421395D01*
X204696505Y-44421401D01*
X204863599Y-44588495D01*
X204940135Y-44642086D01*
X205057165Y-44724032D01*
X205057167Y-44724033D01*
X205057170Y-44724035D01*
X205271337Y-44823903D01*
X205499592Y-44885063D01*
X205670319Y-44900000D01*
X205734999Y-44905659D01*
X205735000Y-44905659D01*
X205735001Y-44905659D01*
X205799681Y-44900000D01*
X205970408Y-44885063D01*
X206198663Y-44823903D01*
X206412830Y-44724035D01*
X206606401Y-44588495D01*
X206773495Y-44421401D01*
X206903425Y-44235842D01*
X206958002Y-44192217D01*
X207027500Y-44185023D01*
X207089855Y-44216546D01*
X207106575Y-44235842D01*
X207236500Y-44421395D01*
X207236505Y-44421401D01*
X207403599Y-44588495D01*
X207480135Y-44642086D01*
X207597165Y-44724032D01*
X207597167Y-44724033D01*
X207597170Y-44724035D01*
X207811337Y-44823903D01*
X208039592Y-44885063D01*
X208210319Y-44900000D01*
X208274999Y-44905659D01*
X208275000Y-44905659D01*
X208275001Y-44905659D01*
X208339681Y-44900000D01*
X208510408Y-44885063D01*
X208738663Y-44823903D01*
X208952830Y-44724035D01*
X209146401Y-44588495D01*
X209313495Y-44421401D01*
X209443425Y-44235842D01*
X209498002Y-44192217D01*
X209567500Y-44185023D01*
X209629855Y-44216546D01*
X209646575Y-44235842D01*
X209776500Y-44421395D01*
X209776505Y-44421401D01*
X209943599Y-44588495D01*
X210020135Y-44642086D01*
X210137165Y-44724032D01*
X210137167Y-44724033D01*
X210137170Y-44724035D01*
X210351337Y-44823903D01*
X210579592Y-44885063D01*
X210750319Y-44900000D01*
X210814999Y-44905659D01*
X210815000Y-44905659D01*
X210815001Y-44905659D01*
X210879681Y-44900000D01*
X211050408Y-44885063D01*
X211278663Y-44823903D01*
X211492830Y-44724035D01*
X211686401Y-44588495D01*
X211853495Y-44421401D01*
X211983425Y-44235842D01*
X212038002Y-44192217D01*
X212107500Y-44185023D01*
X212169855Y-44216546D01*
X212186575Y-44235842D01*
X212316500Y-44421395D01*
X212316505Y-44421401D01*
X212483599Y-44588495D01*
X212560135Y-44642086D01*
X212677165Y-44724032D01*
X212677167Y-44724033D01*
X212677170Y-44724035D01*
X212891337Y-44823903D01*
X213119592Y-44885063D01*
X213290319Y-44900000D01*
X213354999Y-44905659D01*
X213355000Y-44905659D01*
X213355001Y-44905659D01*
X213419681Y-44900000D01*
X213590408Y-44885063D01*
X213818663Y-44823903D01*
X214032830Y-44724035D01*
X214226401Y-44588495D01*
X214393495Y-44421401D01*
X214529035Y-44227830D01*
X214628903Y-44013663D01*
X214690063Y-43785408D01*
X214710659Y-43550000D01*
X214690063Y-43314592D01*
X214628903Y-43086337D01*
X214529035Y-42872171D01*
X214523425Y-42864158D01*
X214393494Y-42678597D01*
X214226402Y-42511506D01*
X214226395Y-42511501D01*
X214032834Y-42375967D01*
X214032830Y-42375965D01*
X213984525Y-42353440D01*
X213818663Y-42276097D01*
X213818659Y-42276096D01*
X213818655Y-42276094D01*
X213590413Y-42214938D01*
X213590403Y-42214936D01*
X213355001Y-42194341D01*
X213354999Y-42194341D01*
X213119596Y-42214936D01*
X213119586Y-42214938D01*
X212891344Y-42276094D01*
X212891335Y-42276098D01*
X212677171Y-42375964D01*
X212677169Y-42375965D01*
X212483597Y-42511505D01*
X212316505Y-42678597D01*
X212186575Y-42864158D01*
X212131998Y-42907783D01*
X212062500Y-42914977D01*
X212000145Y-42883454D01*
X211983425Y-42864158D01*
X211853494Y-42678597D01*
X211686402Y-42511506D01*
X211686395Y-42511501D01*
X211492834Y-42375967D01*
X211492830Y-42375965D01*
X211444525Y-42353440D01*
X211278663Y-42276097D01*
X211278659Y-42276096D01*
X211278655Y-42276094D01*
X211050413Y-42214938D01*
X211050403Y-42214936D01*
X210815001Y-42194341D01*
X210814999Y-42194341D01*
X210579596Y-42214936D01*
X210579586Y-42214938D01*
X210351344Y-42276094D01*
X210351335Y-42276098D01*
X210137171Y-42375964D01*
X210137169Y-42375965D01*
X209943597Y-42511505D01*
X209776505Y-42678597D01*
X209646575Y-42864158D01*
X209591998Y-42907783D01*
X209522500Y-42914977D01*
X209460145Y-42883454D01*
X209443425Y-42864158D01*
X209313494Y-42678597D01*
X209146402Y-42511506D01*
X209146395Y-42511501D01*
X208952834Y-42375967D01*
X208952830Y-42375965D01*
X208904525Y-42353440D01*
X208738663Y-42276097D01*
X208738659Y-42276096D01*
X208738655Y-42276094D01*
X208510413Y-42214938D01*
X208510403Y-42214936D01*
X208275001Y-42194341D01*
X208274999Y-42194341D01*
X208039596Y-42214936D01*
X208039586Y-42214938D01*
X207811344Y-42276094D01*
X207811335Y-42276098D01*
X207597171Y-42375964D01*
X207597169Y-42375965D01*
X207403597Y-42511505D01*
X207236505Y-42678597D01*
X207106575Y-42864158D01*
X207051998Y-42907783D01*
X206982500Y-42914977D01*
X206920145Y-42883454D01*
X206903425Y-42864158D01*
X206773494Y-42678597D01*
X206606402Y-42511506D01*
X206606395Y-42511501D01*
X206412834Y-42375967D01*
X206412830Y-42375965D01*
X206364525Y-42353440D01*
X206198663Y-42276097D01*
X206198659Y-42276096D01*
X206198655Y-42276094D01*
X205970413Y-42214938D01*
X205970403Y-42214936D01*
X205735001Y-42194341D01*
X205734999Y-42194341D01*
X205499596Y-42214936D01*
X205499586Y-42214938D01*
X205271344Y-42276094D01*
X205271335Y-42276098D01*
X205057171Y-42375964D01*
X205057169Y-42375965D01*
X204863597Y-42511505D01*
X204696505Y-42678597D01*
X204566575Y-42864158D01*
X204511998Y-42907783D01*
X204442500Y-42914977D01*
X204380145Y-42883454D01*
X204363425Y-42864158D01*
X204233494Y-42678597D01*
X204066402Y-42511506D01*
X204066395Y-42511501D01*
X203872834Y-42375967D01*
X203872830Y-42375965D01*
X203824525Y-42353440D01*
X203658663Y-42276097D01*
X203658659Y-42276096D01*
X203658655Y-42276094D01*
X203430413Y-42214938D01*
X203430403Y-42214936D01*
X203195001Y-42194341D01*
X203194999Y-42194341D01*
X202959596Y-42214936D01*
X202959586Y-42214938D01*
X202731344Y-42276094D01*
X202731335Y-42276098D01*
X202517171Y-42375964D01*
X202517169Y-42375965D01*
X202323597Y-42511505D01*
X202156505Y-42678597D01*
X202026575Y-42864158D01*
X201971998Y-42907783D01*
X201902500Y-42914977D01*
X201840145Y-42883454D01*
X201823425Y-42864158D01*
X201693494Y-42678597D01*
X201526402Y-42511506D01*
X201526395Y-42511501D01*
X201332834Y-42375967D01*
X201332830Y-42375965D01*
X201284525Y-42353440D01*
X201118663Y-42276097D01*
X201118659Y-42276096D01*
X201118655Y-42276094D01*
X200890413Y-42214938D01*
X200890403Y-42214936D01*
X200655001Y-42194341D01*
X200654999Y-42194341D01*
X200419596Y-42214936D01*
X200419586Y-42214938D01*
X200191344Y-42276094D01*
X200191335Y-42276098D01*
X199977171Y-42375964D01*
X199977169Y-42375965D01*
X199783600Y-42511503D01*
X199661284Y-42633819D01*
X199599961Y-42667303D01*
X199530269Y-42662319D01*
X199474336Y-42620447D01*
X199457421Y-42589470D01*
X199408354Y-42457913D01*
X199408350Y-42457906D01*
X199322190Y-42342812D01*
X199322187Y-42342809D01*
X199207093Y-42256649D01*
X199207086Y-42256645D01*
X199072379Y-42206403D01*
X199072372Y-42206401D01*
X199012844Y-42200000D01*
X198365000Y-42200000D01*
X198365000Y-43116988D01*
X198307993Y-43084075D01*
X198180826Y-43050000D01*
X198049174Y-43050000D01*
X197922007Y-43084075D01*
X197865000Y-43116988D01*
X197865000Y-42200000D01*
X197217155Y-42200000D01*
X197157627Y-42206401D01*
X197157620Y-42206403D01*
X197022913Y-42256645D01*
X197022906Y-42256649D01*
X196907812Y-42342809D01*
X196907809Y-42342812D01*
X196821649Y-42457906D01*
X196821645Y-42457913D01*
X196771403Y-42592620D01*
X196771401Y-42592627D01*
X196765000Y-42652155D01*
X196765000Y-43300000D01*
X197681988Y-43300000D01*
X197649075Y-43357007D01*
X197615000Y-43484174D01*
X197615000Y-43615826D01*
X197649075Y-43742993D01*
X197681988Y-43800000D01*
X196765000Y-43800000D01*
X196765000Y-44447844D01*
X192777052Y-44447844D01*
X192803495Y-44421401D01*
X192939035Y-44227830D01*
X193038903Y-44013663D01*
X193100063Y-43785408D01*
X193120659Y-43550000D01*
X193100063Y-43314592D01*
X193038903Y-43086337D01*
X192939035Y-42872171D01*
X192933425Y-42864158D01*
X192803494Y-42678597D01*
X192636402Y-42511506D01*
X192636395Y-42511501D01*
X192442834Y-42375967D01*
X192442830Y-42375965D01*
X192394525Y-42353440D01*
X192228663Y-42276097D01*
X192228659Y-42276096D01*
X192228655Y-42276094D01*
X192000413Y-42214938D01*
X192000403Y-42214936D01*
X191765001Y-42194341D01*
X191764999Y-42194341D01*
X191529596Y-42214936D01*
X191529586Y-42214938D01*
X191301344Y-42276094D01*
X191301335Y-42276098D01*
X191087171Y-42375964D01*
X191087169Y-42375965D01*
X190893597Y-42511505D01*
X190726505Y-42678597D01*
X190596575Y-42864158D01*
X190541998Y-42907783D01*
X190472500Y-42914977D01*
X190410145Y-42883454D01*
X190393425Y-42864158D01*
X190263494Y-42678597D01*
X190096402Y-42511506D01*
X190096395Y-42511501D01*
X189902834Y-42375967D01*
X189902830Y-42375965D01*
X189854525Y-42353440D01*
X189688663Y-42276097D01*
X189688659Y-42276096D01*
X189688655Y-42276094D01*
X189460413Y-42214938D01*
X189460403Y-42214936D01*
X189225001Y-42194341D01*
X189224999Y-42194341D01*
X188989596Y-42214936D01*
X188989586Y-42214938D01*
X188761344Y-42276094D01*
X188761335Y-42276098D01*
X188547171Y-42375964D01*
X188547169Y-42375965D01*
X188353597Y-42511505D01*
X188186505Y-42678597D01*
X188056575Y-42864158D01*
X188001998Y-42907783D01*
X187932500Y-42914977D01*
X187870145Y-42883454D01*
X187853425Y-42864158D01*
X187723494Y-42678597D01*
X187556402Y-42511506D01*
X187556395Y-42511501D01*
X187362834Y-42375967D01*
X187362830Y-42375965D01*
X187314525Y-42353440D01*
X187148663Y-42276097D01*
X187148659Y-42276096D01*
X187148655Y-42276094D01*
X186920413Y-42214938D01*
X186920403Y-42214936D01*
X186685001Y-42194341D01*
X186684999Y-42194341D01*
X186449596Y-42214936D01*
X186449586Y-42214938D01*
X186221344Y-42276094D01*
X186221335Y-42276098D01*
X186007171Y-42375964D01*
X186007169Y-42375965D01*
X185813597Y-42511505D01*
X185646505Y-42678597D01*
X185516575Y-42864158D01*
X185461998Y-42907783D01*
X185392500Y-42914977D01*
X185330145Y-42883454D01*
X185313425Y-42864158D01*
X185183494Y-42678597D01*
X185016402Y-42511506D01*
X185016395Y-42511501D01*
X184822834Y-42375967D01*
X184822830Y-42375965D01*
X184774525Y-42353440D01*
X184608663Y-42276097D01*
X184608659Y-42276096D01*
X184608655Y-42276094D01*
X184380413Y-42214938D01*
X184380403Y-42214936D01*
X184145001Y-42194341D01*
X184144999Y-42194341D01*
X183909596Y-42214936D01*
X183909586Y-42214938D01*
X183681344Y-42276094D01*
X183681335Y-42276098D01*
X183467171Y-42375964D01*
X183467169Y-42375965D01*
X183273597Y-42511505D01*
X183106505Y-42678597D01*
X182976575Y-42864158D01*
X182921998Y-42907783D01*
X182852500Y-42914977D01*
X182790145Y-42883454D01*
X182773425Y-42864158D01*
X182643494Y-42678597D01*
X182476402Y-42511506D01*
X182476395Y-42511501D01*
X182282834Y-42375967D01*
X182282830Y-42375965D01*
X182234525Y-42353440D01*
X182068663Y-42276097D01*
X182068659Y-42276096D01*
X182068655Y-42276094D01*
X181840413Y-42214938D01*
X181840403Y-42214936D01*
X181605001Y-42194341D01*
X181604999Y-42194341D01*
X181369596Y-42214936D01*
X181369586Y-42214938D01*
X181141344Y-42276094D01*
X181141335Y-42276098D01*
X180927171Y-42375964D01*
X180927169Y-42375965D01*
X180733597Y-42511505D01*
X180566505Y-42678597D01*
X180436575Y-42864158D01*
X180381998Y-42907783D01*
X180312500Y-42914977D01*
X180250145Y-42883454D01*
X180233425Y-42864158D01*
X180103494Y-42678597D01*
X179936402Y-42511506D01*
X179936395Y-42511501D01*
X179742834Y-42375967D01*
X179742830Y-42375965D01*
X179694525Y-42353440D01*
X179528663Y-42276097D01*
X179528659Y-42276096D01*
X179528655Y-42276094D01*
X179300413Y-42214938D01*
X179300403Y-42214936D01*
X179065001Y-42194341D01*
X179064999Y-42194341D01*
X178829596Y-42214936D01*
X178829586Y-42214938D01*
X178601344Y-42276094D01*
X178601335Y-42276098D01*
X178387171Y-42375964D01*
X178387169Y-42375965D01*
X178193600Y-42511503D01*
X178071284Y-42633819D01*
X178009961Y-42667303D01*
X177940269Y-42662319D01*
X177884336Y-42620447D01*
X177867421Y-42589470D01*
X177818354Y-42457913D01*
X177818350Y-42457906D01*
X177732190Y-42342812D01*
X177732187Y-42342809D01*
X177617093Y-42256649D01*
X177617086Y-42256645D01*
X177482379Y-42206403D01*
X177482372Y-42206401D01*
X177422844Y-42200000D01*
X176775000Y-42200000D01*
X176775000Y-43116988D01*
X176717993Y-43084075D01*
X176590826Y-43050000D01*
X176459174Y-43050000D01*
X176332007Y-43084075D01*
X176275000Y-43116988D01*
X176275000Y-42200000D01*
X175627155Y-42200000D01*
X175567627Y-42206401D01*
X175567620Y-42206403D01*
X175432913Y-42256645D01*
X175432906Y-42256649D01*
X175317812Y-42342809D01*
X175317809Y-42342812D01*
X175231649Y-42457906D01*
X175231645Y-42457913D01*
X175181403Y-42592620D01*
X175181401Y-42592627D01*
X175175000Y-42652155D01*
X175175000Y-43300000D01*
X176091988Y-43300000D01*
X176059075Y-43357007D01*
X176025000Y-43484174D01*
X176025000Y-43615826D01*
X176059075Y-43742993D01*
X176091988Y-43800000D01*
X175175000Y-43800000D01*
X175175000Y-44447844D01*
X156934523Y-44447844D01*
X156932335Y-44446206D01*
X156932328Y-44446202D01*
X156797482Y-44395908D01*
X156797483Y-44395908D01*
X156737883Y-44389501D01*
X156737881Y-44389500D01*
X156737873Y-44389500D01*
X156737864Y-44389500D01*
X153142129Y-44389500D01*
X153142123Y-44389501D01*
X153082516Y-44395908D01*
X152947671Y-44446202D01*
X152947664Y-44446206D01*
X152832455Y-44532452D01*
X152832452Y-44532455D01*
X152746206Y-44647664D01*
X152746202Y-44647671D01*
X152727988Y-44696507D01*
X152686117Y-44752441D01*
X152620652Y-44776858D01*
X152552379Y-44762006D01*
X152502974Y-44712601D01*
X152487981Y-44646594D01*
X152489999Y-44608615D01*
X152490000Y-44608578D01*
X152490000Y-43890000D01*
X150740000Y-43890000D01*
X150740000Y-43390000D01*
X152489999Y-43390000D01*
X152489999Y-42671423D01*
X152489998Y-42671411D01*
X152487205Y-42618808D01*
X152442762Y-42389012D01*
X152360120Y-42170024D01*
X152241660Y-41968158D01*
X152241655Y-41968151D01*
X152090788Y-41789213D01*
X152090786Y-41789211D01*
X151911848Y-41638344D01*
X151911841Y-41638339D01*
X151709975Y-41519879D01*
X151490987Y-41437237D01*
X151261190Y-41392794D01*
X151208617Y-41390001D01*
X151208579Y-41390000D01*
X150490000Y-41390000D01*
X150490000Y-42206988D01*
X150432993Y-42174075D01*
X150305826Y-42140000D01*
X150174174Y-42140000D01*
X150047007Y-42174075D01*
X149990000Y-42206988D01*
X149990000Y-41390000D01*
X149271423Y-41390000D01*
X149271411Y-41390001D01*
X149218808Y-41392794D01*
X148989012Y-41437237D01*
X148770024Y-41519879D01*
X148568158Y-41638339D01*
X148568151Y-41638344D01*
X148389213Y-41789211D01*
X148389211Y-41789213D01*
X148238344Y-41968151D01*
X148238339Y-41968158D01*
X148119879Y-42170024D01*
X148037237Y-42389012D01*
X147992794Y-42618808D01*
X147992794Y-42618809D01*
X147990001Y-42671382D01*
X147990000Y-42671421D01*
X147990000Y-43390000D01*
X149740000Y-43390000D01*
X149740000Y-43890000D01*
X147990001Y-43890000D01*
X147990001Y-44608588D01*
X147992794Y-44661191D01*
X147992794Y-44661193D01*
X148030884Y-44858139D01*
X148024287Y-44927696D01*
X147981132Y-44982645D01*
X147915120Y-45005540D01*
X147847209Y-44989111D01*
X147836255Y-44982002D01*
X147772734Y-44935851D01*
X147772729Y-44935848D01*
X147599807Y-44858857D01*
X147599802Y-44858855D01*
X147435370Y-44823905D01*
X147414646Y-44819500D01*
X147225354Y-44819500D01*
X147204630Y-44823905D01*
X147040197Y-44858855D01*
X147040192Y-44858857D01*
X146867270Y-44935848D01*
X146867265Y-44935851D01*
X146714129Y-45047111D01*
X146587466Y-45187785D01*
X146492821Y-45351715D01*
X146492818Y-45351722D01*
X146434327Y-45531740D01*
X146434326Y-45531744D01*
X146414540Y-45720000D01*
X142240000Y-45720000D01*
X142240000Y-40390000D01*
X152690000Y-40390000D01*
X153506988Y-40390000D01*
X153474075Y-40447007D01*
X153440000Y-40574174D01*
X153440000Y-40705826D01*
X153474075Y-40832993D01*
X153506988Y-40890000D01*
X152690001Y-40890000D01*
X152690001Y-41454197D01*
X152700400Y-41586332D01*
X152755377Y-41804519D01*
X152848428Y-42009374D01*
X152848431Y-42009380D01*
X152976559Y-42194323D01*
X152976569Y-42194335D01*
X153135664Y-42353430D01*
X153135676Y-42353440D01*
X153320619Y-42481568D01*
X153320625Y-42481571D01*
X153525480Y-42574622D01*
X153743667Y-42629599D01*
X153875810Y-42639999D01*
X154689999Y-42639999D01*
X154690000Y-42639998D01*
X154690000Y-41140000D01*
X155190000Y-41140000D01*
X155190000Y-42639999D01*
X156004182Y-42639999D01*
X156004197Y-42639998D01*
X156136332Y-42629599D01*
X156354519Y-42574622D01*
X156559374Y-42481571D01*
X156559380Y-42481568D01*
X156744323Y-42353440D01*
X156744335Y-42353430D01*
X156903430Y-42194335D01*
X156903440Y-42194323D01*
X157031568Y-42009380D01*
X157031571Y-42009374D01*
X157124622Y-41804519D01*
X157179599Y-41586332D01*
X157189999Y-41454196D01*
X157190000Y-41454184D01*
X157190000Y-40890000D01*
X156373012Y-40890000D01*
X156405925Y-40832993D01*
X156440000Y-40705826D01*
X156440000Y-40574174D01*
X156405925Y-40447007D01*
X156373012Y-40390000D01*
X157189999Y-40390000D01*
X157189999Y-39825817D01*
X157189998Y-39825802D01*
X157179599Y-39693667D01*
X157124622Y-39475480D01*
X157031571Y-39270625D01*
X157031568Y-39270619D01*
X156903440Y-39085676D01*
X156903430Y-39085664D01*
X156744335Y-38926569D01*
X156744323Y-38926559D01*
X156559380Y-38798431D01*
X156559374Y-38798428D01*
X156354519Y-38705377D01*
X156136332Y-38650400D01*
X156004196Y-38640000D01*
X155190000Y-38640000D01*
X155190000Y-40140000D01*
X154690000Y-40140000D01*
X154690000Y-38640000D01*
X153875817Y-38640000D01*
X153875802Y-38640001D01*
X153743667Y-38650400D01*
X153525480Y-38705377D01*
X153320625Y-38798428D01*
X153320619Y-38798431D01*
X153135676Y-38926559D01*
X153135664Y-38926569D01*
X152976569Y-39085664D01*
X152976559Y-39085676D01*
X152848431Y-39270619D01*
X152848428Y-39270625D01*
X152755377Y-39475480D01*
X152700400Y-39693667D01*
X152690000Y-39825803D01*
X152690000Y-40390000D01*
X142240000Y-40390000D01*
X142240000Y-38100000D01*
X163934422Y-38100000D01*
X163954722Y-38487339D01*
X164015397Y-38870427D01*
X164015397Y-38870429D01*
X164115788Y-39245094D01*
X164254787Y-39607197D01*
X164430877Y-39952793D01*
X164642122Y-40278082D01*
X164642124Y-40278084D01*
X164886219Y-40579516D01*
X165160484Y-40853781D01*
X165328375Y-40989737D01*
X165461917Y-41097877D01*
X165474310Y-41105925D01*
X165787211Y-41309125D01*
X166132806Y-41485214D01*
X166494913Y-41624214D01*
X166869567Y-41724602D01*
X167252662Y-41785278D01*
X167618576Y-41804455D01*
X167639999Y-41805578D01*
X167640000Y-41805578D01*
X167640001Y-41805578D01*
X167660301Y-41804514D01*
X168027338Y-41785278D01*
X168410433Y-41724602D01*
X168785087Y-41624214D01*
X169147194Y-41485214D01*
X169492789Y-41309125D01*
X169818084Y-41097876D01*
X170119516Y-40853781D01*
X170393781Y-40579516D01*
X170637876Y-40278084D01*
X170849125Y-39952789D01*
X171025214Y-39607194D01*
X171164214Y-39245087D01*
X171264602Y-38870433D01*
X171325278Y-38487338D01*
X171345578Y-38100000D01*
X171326075Y-37727870D01*
X175489500Y-37727870D01*
X175489501Y-37727876D01*
X175495908Y-37787483D01*
X175546202Y-37922328D01*
X175546206Y-37922335D01*
X175632452Y-38037544D01*
X175632455Y-38037547D01*
X175747664Y-38123793D01*
X175747671Y-38123797D01*
X175882517Y-38174091D01*
X175882516Y-38174091D01*
X175889444Y-38174835D01*
X175942127Y-38180500D01*
X177737872Y-38180499D01*
X177797483Y-38174091D01*
X177932331Y-38123796D01*
X178047546Y-38037546D01*
X178133796Y-37922331D01*
X178184091Y-37787483D01*
X178190500Y-37727873D01*
X178190499Y-36830000D01*
X178984341Y-36830000D01*
X179004936Y-37065403D01*
X179004938Y-37065413D01*
X179066094Y-37293655D01*
X179066096Y-37293659D01*
X179066097Y-37293663D01*
X179082841Y-37329570D01*
X179165965Y-37507830D01*
X179165967Y-37507834D01*
X179274281Y-37662521D01*
X179301505Y-37701401D01*
X179468599Y-37868495D01*
X179565384Y-37936265D01*
X179662165Y-38004032D01*
X179662167Y-38004033D01*
X179662170Y-38004035D01*
X179876337Y-38103903D01*
X180104592Y-38165063D01*
X180281034Y-38180500D01*
X180339999Y-38185659D01*
X180340000Y-38185659D01*
X180340001Y-38185659D01*
X180398966Y-38180500D01*
X180575408Y-38165063D01*
X180803663Y-38103903D01*
X181017830Y-38004035D01*
X181211401Y-37868495D01*
X181352026Y-37727870D01*
X186919500Y-37727870D01*
X186919501Y-37727876D01*
X186925908Y-37787483D01*
X186976202Y-37922328D01*
X186976206Y-37922335D01*
X187062452Y-38037544D01*
X187062455Y-38037547D01*
X187177664Y-38123793D01*
X187177671Y-38123797D01*
X187312517Y-38174091D01*
X187312516Y-38174091D01*
X187319444Y-38174835D01*
X187372127Y-38180500D01*
X189167872Y-38180499D01*
X189227483Y-38174091D01*
X189362331Y-38123796D01*
X189477546Y-38037546D01*
X189563796Y-37922331D01*
X189614091Y-37787483D01*
X189620500Y-37727873D01*
X189620499Y-36830000D01*
X190414341Y-36830000D01*
X190434936Y-37065403D01*
X190434938Y-37065413D01*
X190496094Y-37293655D01*
X190496096Y-37293659D01*
X190496097Y-37293663D01*
X190512841Y-37329570D01*
X190595965Y-37507830D01*
X190595967Y-37507834D01*
X190704281Y-37662521D01*
X190731505Y-37701401D01*
X190898599Y-37868495D01*
X190995384Y-37936265D01*
X191092165Y-38004032D01*
X191092167Y-38004033D01*
X191092170Y-38004035D01*
X191306337Y-38103903D01*
X191534592Y-38165063D01*
X191711034Y-38180500D01*
X191769999Y-38185659D01*
X191770000Y-38185659D01*
X191770001Y-38185659D01*
X191828966Y-38180500D01*
X192005408Y-38165063D01*
X192233663Y-38103903D01*
X192447830Y-38004035D01*
X192641401Y-37868495D01*
X192782026Y-37727870D01*
X197079500Y-37727870D01*
X197079501Y-37727876D01*
X197085908Y-37787483D01*
X197136202Y-37922328D01*
X197136206Y-37922335D01*
X197222452Y-38037544D01*
X197222455Y-38037547D01*
X197337664Y-38123793D01*
X197337671Y-38123797D01*
X197472517Y-38174091D01*
X197472516Y-38174091D01*
X197479444Y-38174835D01*
X197532127Y-38180500D01*
X199327872Y-38180499D01*
X199387483Y-38174091D01*
X199522331Y-38123796D01*
X199637546Y-38037546D01*
X199723796Y-37922331D01*
X199774091Y-37787483D01*
X199780500Y-37727873D01*
X199780499Y-36830000D01*
X200574341Y-36830000D01*
X200594936Y-37065403D01*
X200594938Y-37065413D01*
X200656094Y-37293655D01*
X200656096Y-37293659D01*
X200656097Y-37293663D01*
X200672841Y-37329570D01*
X200755965Y-37507830D01*
X200755967Y-37507834D01*
X200864281Y-37662521D01*
X200891505Y-37701401D01*
X201058599Y-37868495D01*
X201155384Y-37936265D01*
X201252165Y-38004032D01*
X201252167Y-38004033D01*
X201252170Y-38004035D01*
X201466337Y-38103903D01*
X201694592Y-38165063D01*
X201871034Y-38180500D01*
X201929999Y-38185659D01*
X201930000Y-38185659D01*
X201930001Y-38185659D01*
X201988966Y-38180500D01*
X202165408Y-38165063D01*
X202393663Y-38103903D01*
X202607830Y-38004035D01*
X202801401Y-37868495D01*
X202942026Y-37727870D01*
X208509500Y-37727870D01*
X208509501Y-37727876D01*
X208515908Y-37787483D01*
X208566202Y-37922328D01*
X208566206Y-37922335D01*
X208652452Y-38037544D01*
X208652455Y-38037547D01*
X208767664Y-38123793D01*
X208767671Y-38123797D01*
X208902517Y-38174091D01*
X208902516Y-38174091D01*
X208909444Y-38174835D01*
X208962127Y-38180500D01*
X210757872Y-38180499D01*
X210817483Y-38174091D01*
X210952331Y-38123796D01*
X211067546Y-38037546D01*
X211153796Y-37922331D01*
X211204091Y-37787483D01*
X211210500Y-37727873D01*
X211210499Y-36830000D01*
X212004341Y-36830000D01*
X212024936Y-37065403D01*
X212024938Y-37065413D01*
X212086094Y-37293655D01*
X212086096Y-37293659D01*
X212086097Y-37293663D01*
X212102841Y-37329570D01*
X212185965Y-37507830D01*
X212185967Y-37507834D01*
X212294281Y-37662521D01*
X212321505Y-37701401D01*
X212488599Y-37868495D01*
X212585384Y-37936265D01*
X212682165Y-38004032D01*
X212682167Y-38004033D01*
X212682170Y-38004035D01*
X212896337Y-38103903D01*
X213124592Y-38165063D01*
X213301034Y-38180500D01*
X213359999Y-38185659D01*
X213360000Y-38185659D01*
X213360001Y-38185659D01*
X213418966Y-38180500D01*
X213595408Y-38165063D01*
X213823663Y-38103903D01*
X214037830Y-38004035D01*
X214231401Y-37868495D01*
X214398495Y-37701401D01*
X214534035Y-37507830D01*
X214633903Y-37293663D01*
X214695063Y-37065408D01*
X214715659Y-36830000D01*
X214695063Y-36594592D01*
X214633903Y-36366337D01*
X214534035Y-36152171D01*
X214398495Y-35958599D01*
X214398494Y-35958597D01*
X214231402Y-35791506D01*
X214231395Y-35791501D01*
X214037834Y-35655967D01*
X214037830Y-35655965D01*
X214037828Y-35655964D01*
X213823663Y-35556097D01*
X213823659Y-35556096D01*
X213823655Y-35556094D01*
X213595413Y-35494938D01*
X213595403Y-35494936D01*
X213360001Y-35474341D01*
X213359999Y-35474341D01*
X213124596Y-35494936D01*
X213124586Y-35494938D01*
X212896344Y-35556094D01*
X212896335Y-35556098D01*
X212682171Y-35655964D01*
X212682169Y-35655965D01*
X212488597Y-35791505D01*
X212321505Y-35958597D01*
X212185965Y-36152169D01*
X212185964Y-36152171D01*
X212086098Y-36366335D01*
X212086094Y-36366344D01*
X212024938Y-36594586D01*
X212024936Y-36594596D01*
X212004341Y-36829999D01*
X212004341Y-36830000D01*
X211210499Y-36830000D01*
X211210499Y-35932128D01*
X211204091Y-35872517D01*
X211153796Y-35737669D01*
X211153795Y-35737668D01*
X211153793Y-35737664D01*
X211067547Y-35622455D01*
X211067544Y-35622452D01*
X210952335Y-35536206D01*
X210952328Y-35536202D01*
X210817482Y-35485908D01*
X210817483Y-35485908D01*
X210757883Y-35479501D01*
X210757881Y-35479500D01*
X210757873Y-35479500D01*
X210757864Y-35479500D01*
X208962129Y-35479500D01*
X208962123Y-35479501D01*
X208902516Y-35485908D01*
X208767671Y-35536202D01*
X208767664Y-35536206D01*
X208652455Y-35622452D01*
X208652452Y-35622455D01*
X208566206Y-35737664D01*
X208566202Y-35737671D01*
X208515908Y-35872517D01*
X208509501Y-35932116D01*
X208509501Y-35932123D01*
X208509500Y-35932135D01*
X208509500Y-37727870D01*
X202942026Y-37727870D01*
X202968495Y-37701401D01*
X203104035Y-37507830D01*
X203203903Y-37293663D01*
X203265063Y-37065408D01*
X203285659Y-36830000D01*
X203265063Y-36594592D01*
X203203903Y-36366337D01*
X203104035Y-36152171D01*
X202968495Y-35958599D01*
X202968494Y-35958597D01*
X202801402Y-35791506D01*
X202801395Y-35791501D01*
X202607834Y-35655967D01*
X202607830Y-35655965D01*
X202607828Y-35655964D01*
X202393663Y-35556097D01*
X202393659Y-35556096D01*
X202393655Y-35556094D01*
X202165413Y-35494938D01*
X202165403Y-35494936D01*
X201930001Y-35474341D01*
X201929999Y-35474341D01*
X201694596Y-35494936D01*
X201694586Y-35494938D01*
X201466344Y-35556094D01*
X201466335Y-35556098D01*
X201252171Y-35655964D01*
X201252169Y-35655965D01*
X201058597Y-35791505D01*
X200891505Y-35958597D01*
X200755965Y-36152169D01*
X200755964Y-36152171D01*
X200656098Y-36366335D01*
X200656094Y-36366344D01*
X200594938Y-36594586D01*
X200594936Y-36594596D01*
X200574341Y-36829999D01*
X200574341Y-36830000D01*
X199780499Y-36830000D01*
X199780499Y-35932128D01*
X199774091Y-35872517D01*
X199723796Y-35737669D01*
X199723795Y-35737668D01*
X199723793Y-35737664D01*
X199637547Y-35622455D01*
X199637544Y-35622452D01*
X199522335Y-35536206D01*
X199522328Y-35536202D01*
X199387482Y-35485908D01*
X199387483Y-35485908D01*
X199327883Y-35479501D01*
X199327881Y-35479500D01*
X199327873Y-35479500D01*
X199327864Y-35479500D01*
X197532129Y-35479500D01*
X197532123Y-35479501D01*
X197472516Y-35485908D01*
X197337671Y-35536202D01*
X197337664Y-35536206D01*
X197222455Y-35622452D01*
X197222452Y-35622455D01*
X197136206Y-35737664D01*
X197136202Y-35737671D01*
X197085908Y-35872517D01*
X197079501Y-35932116D01*
X197079501Y-35932123D01*
X197079500Y-35932135D01*
X197079500Y-37727870D01*
X192782026Y-37727870D01*
X192808495Y-37701401D01*
X192944035Y-37507830D01*
X193043903Y-37293663D01*
X193105063Y-37065408D01*
X193125659Y-36830000D01*
X193105063Y-36594592D01*
X193043903Y-36366337D01*
X192944035Y-36152171D01*
X192808495Y-35958599D01*
X192808494Y-35958597D01*
X192641402Y-35791506D01*
X192641395Y-35791501D01*
X192447834Y-35655967D01*
X192447830Y-35655965D01*
X192447828Y-35655964D01*
X192233663Y-35556097D01*
X192233659Y-35556096D01*
X192233655Y-35556094D01*
X192005413Y-35494938D01*
X192005403Y-35494936D01*
X191770001Y-35474341D01*
X191769999Y-35474341D01*
X191534596Y-35494936D01*
X191534586Y-35494938D01*
X191306344Y-35556094D01*
X191306335Y-35556098D01*
X191092171Y-35655964D01*
X191092169Y-35655965D01*
X190898597Y-35791505D01*
X190731505Y-35958597D01*
X190595965Y-36152169D01*
X190595964Y-36152171D01*
X190496098Y-36366335D01*
X190496094Y-36366344D01*
X190434938Y-36594586D01*
X190434936Y-36594596D01*
X190414341Y-36829999D01*
X190414341Y-36830000D01*
X189620499Y-36830000D01*
X189620499Y-35932128D01*
X189614091Y-35872517D01*
X189563796Y-35737669D01*
X189563795Y-35737668D01*
X189563793Y-35737664D01*
X189477547Y-35622455D01*
X189477544Y-35622452D01*
X189362335Y-35536206D01*
X189362328Y-35536202D01*
X189227482Y-35485908D01*
X189227483Y-35485908D01*
X189167883Y-35479501D01*
X189167881Y-35479500D01*
X189167873Y-35479500D01*
X189167864Y-35479500D01*
X187372129Y-35479500D01*
X187372123Y-35479501D01*
X187312516Y-35485908D01*
X187177671Y-35536202D01*
X187177664Y-35536206D01*
X187062455Y-35622452D01*
X187062452Y-35622455D01*
X186976206Y-35737664D01*
X186976202Y-35737671D01*
X186925908Y-35872517D01*
X186919501Y-35932116D01*
X186919501Y-35932123D01*
X186919500Y-35932135D01*
X186919500Y-37727870D01*
X181352026Y-37727870D01*
X181378495Y-37701401D01*
X181514035Y-37507830D01*
X181613903Y-37293663D01*
X181675063Y-37065408D01*
X181695659Y-36830000D01*
X181675063Y-36594592D01*
X181613903Y-36366337D01*
X181514035Y-36152171D01*
X181378495Y-35958599D01*
X181378494Y-35958597D01*
X181211402Y-35791506D01*
X181211395Y-35791501D01*
X181017834Y-35655967D01*
X181017830Y-35655965D01*
X181017828Y-35655964D01*
X180803663Y-35556097D01*
X180803659Y-35556096D01*
X180803655Y-35556094D01*
X180575413Y-35494938D01*
X180575403Y-35494936D01*
X180340001Y-35474341D01*
X180339999Y-35474341D01*
X180104596Y-35494936D01*
X180104586Y-35494938D01*
X179876344Y-35556094D01*
X179876335Y-35556098D01*
X179662171Y-35655964D01*
X179662169Y-35655965D01*
X179468597Y-35791505D01*
X179301505Y-35958597D01*
X179165965Y-36152169D01*
X179165964Y-36152171D01*
X179066098Y-36366335D01*
X179066094Y-36366344D01*
X179004938Y-36594586D01*
X179004936Y-36594596D01*
X178984341Y-36829999D01*
X178984341Y-36830000D01*
X178190499Y-36830000D01*
X178190499Y-35932128D01*
X178184091Y-35872517D01*
X178133796Y-35737669D01*
X178133795Y-35737668D01*
X178133793Y-35737664D01*
X178047547Y-35622455D01*
X178047544Y-35622452D01*
X177932335Y-35536206D01*
X177932328Y-35536202D01*
X177797482Y-35485908D01*
X177797483Y-35485908D01*
X177737883Y-35479501D01*
X177737881Y-35479500D01*
X177737873Y-35479500D01*
X177737864Y-35479500D01*
X175942129Y-35479500D01*
X175942123Y-35479501D01*
X175882516Y-35485908D01*
X175747671Y-35536202D01*
X175747664Y-35536206D01*
X175632455Y-35622452D01*
X175632452Y-35622455D01*
X175546206Y-35737664D01*
X175546202Y-35737671D01*
X175495908Y-35872517D01*
X175489501Y-35932116D01*
X175489501Y-35932123D01*
X175489500Y-35932135D01*
X175489500Y-37727870D01*
X171326075Y-37727870D01*
X171325278Y-37712662D01*
X171264602Y-37329567D01*
X171164214Y-36954913D01*
X171025214Y-36592806D01*
X170849125Y-36247211D01*
X170849122Y-36247206D01*
X170637877Y-35921917D01*
X170488676Y-35737669D01*
X170393781Y-35620484D01*
X170119516Y-35346219D01*
X169818084Y-35102124D01*
X169818082Y-35102122D01*
X169492793Y-34890877D01*
X169147197Y-34714787D01*
X168785094Y-34575788D01*
X168785087Y-34575786D01*
X168410433Y-34475398D01*
X168410429Y-34475397D01*
X168410428Y-34475397D01*
X168027339Y-34414722D01*
X167640001Y-34394422D01*
X167639999Y-34394422D01*
X167252660Y-34414722D01*
X166869572Y-34475397D01*
X166869570Y-34475397D01*
X166494905Y-34575788D01*
X166132802Y-34714787D01*
X165787206Y-34890877D01*
X165461917Y-35102122D01*
X165160488Y-35346215D01*
X165160480Y-35346222D01*
X164886222Y-35620480D01*
X164886215Y-35620488D01*
X164642122Y-35921917D01*
X164430877Y-36247206D01*
X164254787Y-36592802D01*
X164115788Y-36954905D01*
X164015397Y-37329570D01*
X164015397Y-37329572D01*
X163954722Y-37712660D01*
X163934422Y-38099999D01*
X163934422Y-38100000D01*
X142240000Y-38100000D01*
X142240000Y-30604000D01*
X142259685Y-30536961D01*
X142312489Y-30491206D01*
X142364000Y-30480000D01*
X218316000Y-30480000D01*
X218383039Y-30499685D01*
G37*
%TD.AperFunction*%
%TD*%
M02*
